M48
; DRILL file {KiCad (5.1.12)-1} date 05/27/22 21:25:45
; FORMAT={-:-/ absolute / inch / decimal}
; #@! TF.CreationDate,2022-05-27T21:25:45+02:00
; #@! TF.GenerationSoftware,Kicad,Pcbnew,(5.1.12)-1
; #@! TF.FileFunction,Plated,1,2,PTH
FMAT,2
INCH
T1C0.0230
T2C0.0315
T3C0.0320
T4C0.0394
T5C0.0394
T6C0.0400
T7C0.1200
%
G90
G05
T1
X1.905Y-2.915
X1.945Y-2.88
X1.9763Y-2.8
X2.0058Y-2.7358
X2.0374Y-2.6624
X2.0716Y-2.5866
X2.555Y-2.0775
X2.955Y-4.25
X3.08Y-2.107
X3.245Y-4.945
X3.2691Y-5.0109
X3.3008Y-5.0404
X3.365Y-5.13
X3.4625Y-3.2575
X3.6Y-2.123
X3.605Y-5.13
X3.705Y-4.8445
X3.75Y-4.8645
X3.81Y-4.93
X3.8595Y-4.615
X3.8595Y-4.71
X3.905Y-4.815
X3.9345Y-4.515
X3.9345Y-4.715
X3.935Y-4.558
X3.935Y-4.758
X3.9975Y-2.139
X4.0048Y-3.7478
X4.0679Y-3.8046
X4.0983Y-3.835
X4.1031Y-3.8777
X4.1155Y-3.9225
X4.235Y-2.3
X4.35Y-5.11
X4.3815Y-5.07
X4.43Y-4.32
X4.435Y-4.07
X4.502Y-5.0683
X4.547Y-5.0675
X4.59Y-5.0675
X4.6485Y-5.0675
X4.65Y-2.315
X4.651Y-4.38
X4.655Y-3.85
X4.694Y-4.38
X4.737Y-4.38
X4.78Y-4.38
X4.905Y-2.4855
X4.905Y-3.115
X4.985Y-4.815
X4.985Y-5.055
X5.01Y-3.8265
X5.01Y-3.8695
X5.01Y-3.9125
X5.01Y-3.9555
X5.045Y-5.085
X5.06Y-2.123
X5.06Y-2.6
X5.16Y-5.1005
X5.3599Y-2.1121
X5.455Y-5.0675
X5.455Y-5.1105
X5.455Y-5.155
X5.475Y-2.4075
X5.635Y-2.515
X5.74Y-3.342
X5.805Y-2.2145
X5.82Y-5.025
X5.915Y-2.4075
X5.9305Y-4.73
X5.9305Y-4.825
X5.96Y-4.8645
X6.12Y-4.9715
X6.2175Y-2.2375
X6.265Y-3.3275
X6.2945Y-4.9205
X6.335Y-3.267
X6.4025Y-5.16
X6.6755Y-4.8175
X6.705Y-5.065
X6.748Y-5.065
X6.7505Y-5.02
X6.7775Y-5.16
X6.7838Y-4.9928
X6.79Y-2.9425
X6.791Y-5.065
X7.1Y-2.185
X7.2325Y-4.2775
T2
X1.9766Y-5.45
X2.075Y-5.45
X2.165Y-4.2
X2.165Y-4.3
X2.165Y-4.4
X2.165Y-4.5
X2.165Y-4.6
X2.165Y-4.7
X2.165Y-4.8
X2.165Y-4.9
X2.465Y-4.2
X2.465Y-4.3
X2.465Y-4.4
X2.465Y-4.5
X2.465Y-4.6
X2.465Y-4.7
X2.465Y-4.8
X2.465Y-4.9
X2.555Y-2.315
X2.555Y-2.415
X2.555Y-2.515
X2.555Y-2.615
X2.555Y-2.715
X2.555Y-2.815
X2.555Y-2.915
X2.555Y-3.015
X2.555Y-3.115
X2.555Y-3.215
X2.855Y-2.315
X2.855Y-2.415
X2.855Y-2.515
X2.855Y-2.615
X2.855Y-2.715
X2.855Y-2.815
X2.855Y-2.915
X2.855Y-3.015
X2.855Y-3.115
X2.855Y-3.215
X3.08Y-2.315
X3.08Y-2.415
X3.08Y-2.515
X3.08Y-2.615
X3.08Y-2.715
X3.08Y-2.815
X3.08Y-2.915
X3.08Y-3.015
X3.08Y-3.115
X3.08Y-3.215
X3.085Y-4.015
X3.085Y-4.115
X3.085Y-4.215
X3.085Y-4.315
X3.085Y-4.415
X3.085Y-4.515
X3.085Y-4.615
X3.085Y-4.715
X3.085Y-4.815
X3.085Y-4.915
X3.38Y-2.315
X3.38Y-2.415
X3.38Y-2.515
X3.38Y-2.615
X3.38Y-2.715
X3.38Y-2.815
X3.38Y-2.915
X3.38Y-3.015
X3.38Y-3.115
X3.38Y-3.215
X3.385Y-4.015
X3.385Y-4.115
X3.385Y-4.215
X3.385Y-4.315
X3.385Y-4.415
X3.385Y-4.515
X3.385Y-4.615
X3.385Y-4.715
X3.385Y-4.815
X3.385Y-4.915
X3.6Y-2.315
X3.6Y-2.415
X3.6Y-2.515
X3.6Y-2.615
X3.6Y-2.715
X3.6Y-2.815
X3.6Y-2.915
X3.6Y-3.015
X3.6Y-3.115
X3.6Y-3.215
X3.605Y-3.615
X3.605Y-3.715
X3.605Y-3.815
X3.605Y-3.915
X3.605Y-4.015
X3.605Y-4.115
X3.605Y-4.215
X3.605Y-4.315
X3.605Y-4.415
X3.605Y-4.515
X3.605Y-4.615
X3.605Y-4.715
X3.605Y-4.815
X3.605Y-4.915
X3.9Y-2.315
X3.9Y-2.415
X3.9Y-2.515
X3.9Y-2.615
X3.9Y-2.715
X3.9Y-2.815
X3.9Y-2.915
X3.9Y-3.015
X3.9Y-3.115
X3.9Y-3.215
X4.12Y-2.315
X4.12Y-2.415
X4.12Y-2.515
X4.12Y-2.615
X4.12Y-2.715
X4.12Y-2.815
X4.12Y-2.915
X4.12Y-3.015
X4.12Y-3.115
X4.12Y-3.215
X4.205Y-3.615
X4.205Y-3.715
X4.205Y-3.815
X4.205Y-3.915
X4.205Y-4.015
X4.205Y-4.115
X4.205Y-4.215
X4.205Y-4.315
X4.205Y-4.415
X4.205Y-4.515
X4.205Y-4.615
X4.205Y-4.715
X4.205Y-4.815
X4.205Y-4.915
X4.42Y-2.315
X4.42Y-2.415
X4.42Y-2.515
X4.42Y-2.615
X4.42Y-2.715
X4.42Y-2.815
X4.42Y-2.915
X4.42Y-3.015
X4.42Y-3.115
X4.42Y-3.215
X5.26Y-2.6
X5.26Y-2.7
X5.26Y-2.8
X5.26Y-2.9
X5.26Y-3.0
X5.26Y-3.1
X5.26Y-3.2
X5.56Y-2.6
X5.56Y-2.7
X5.56Y-2.8
X5.56Y-2.9
X5.56Y-3.0
X5.56Y-3.1
X5.56Y-3.2
X5.71Y-2.6
X5.71Y-2.7
X5.71Y-2.8
X5.71Y-2.9
X5.71Y-3.0
X5.71Y-3.1
X5.71Y-3.2
X5.8Y-4.13
X5.8Y-4.23
X5.8Y-4.33
X5.8Y-4.43
X5.8Y-4.53
X5.8Y-4.63
X5.8Y-4.73
X5.8Y-4.83
X6.01Y-2.6
X6.01Y-2.7
X6.01Y-2.8
X6.01Y-2.9
X6.01Y-3.0
X6.01Y-3.1
X6.01Y-3.2
X6.1Y-4.13
X6.1Y-4.23
X6.1Y-4.33
X6.1Y-4.43
X6.1Y-4.53
X6.1Y-4.63
X6.1Y-4.73
X6.1Y-4.83
X6.16Y-2.6
X6.16Y-2.7
X6.16Y-2.8
X6.16Y-2.9
X6.16Y-3.0
X6.16Y-3.1
X6.16Y-3.2
X6.46Y-2.6
X6.46Y-2.7
X6.46Y-2.8
X6.46Y-2.9
X6.46Y-3.0
X6.46Y-3.1
X6.46Y-3.2
X6.61Y-2.5
X6.61Y-2.6
X6.61Y-2.7
X6.61Y-2.8
X6.61Y-2.9
X6.61Y-3.0
X6.61Y-3.1
X6.61Y-3.2
X6.61Y-3.97
X6.61Y-4.07
X6.61Y-4.17
X6.61Y-4.27
X6.61Y-4.37
X6.61Y-4.47
X6.61Y-4.57
X6.61Y-4.67
X6.61Y-4.77
X6.61Y-4.87
X6.91Y-2.5
X6.91Y-2.6
X6.91Y-2.7
X6.91Y-2.8
X6.91Y-2.9
X6.91Y-3.0
X6.91Y-3.1
X6.91Y-3.2
X6.91Y-3.97
X6.91Y-4.07
X6.91Y-4.17
X6.91Y-4.27
X6.91Y-4.37
X6.91Y-4.47
X6.91Y-4.57
X6.91Y-4.67
X6.91Y-4.77
X6.91Y-4.87
T3
X2.26Y-3.87
X2.36Y-3.87
X2.665Y-4.0
X2.665Y-4.1
X2.665Y-4.2
X2.665Y-4.3
X2.665Y-4.4
X2.665Y-4.5
X2.665Y-4.6
X2.665Y-4.7
X2.665Y-4.8
X2.665Y-4.9
X5.495Y-1.9375
X5.495Y-2.0375
X5.495Y-2.1375
X5.74Y-3.655
X5.74Y-3.755
X5.795Y-1.9375
X5.795Y-2.0375
X5.795Y-2.1375
X5.84Y-3.655
X5.84Y-3.755
X5.94Y-3.655
X5.94Y-3.755
X6.04Y-3.655
X6.04Y-3.755
X6.14Y-3.655
X6.14Y-3.755
X6.415Y-3.97
X6.415Y-4.07
X6.415Y-4.17
X6.415Y-4.27
X6.415Y-4.37
X6.415Y-4.47
X6.415Y-4.57
X6.415Y-4.67
X6.415Y-4.77
X6.415Y-4.87
X7.245Y-2.0375
X7.345Y-2.0375
T4
X3.4Y-5.275
X3.4Y-5.375
X3.4Y-5.475
X3.5Y-5.275
X3.5Y-5.375
X3.5Y-5.475
X3.6Y-5.275
X3.6Y-5.375
X3.6Y-5.475
X3.7Y-5.275
X3.7Y-5.375
X3.7Y-5.475
X3.8Y-5.275
X3.8Y-5.375
X3.8Y-5.475
X3.9Y-5.275
X3.9Y-5.375
X3.9Y-5.475
X4.0Y-5.275
X4.0Y-5.375
X4.0Y-5.475
X4.1Y-5.275
X4.1Y-5.375
X4.1Y-5.475
X4.2Y-5.275
X4.2Y-5.375
X4.2Y-5.475
X4.3Y-5.275
X4.3Y-5.375
X4.3Y-5.475
X4.4Y-5.275
X4.4Y-5.375
X4.4Y-5.475
X4.5Y-5.275
X4.5Y-5.375
X4.5Y-5.475
X4.6Y-5.275
X4.6Y-5.375
X4.6Y-5.475
X4.7Y-5.275
X4.7Y-5.375
X4.7Y-5.475
X4.8Y-5.275
X4.8Y-5.375
X4.8Y-5.475
X4.9Y-5.275
X4.9Y-5.375
X4.9Y-5.475
X5.0Y-5.275
X5.0Y-5.375
X5.0Y-5.475
X5.1Y-5.275
X5.1Y-5.375
X5.1Y-5.475
X5.2Y-5.275
X5.2Y-5.375
X5.2Y-5.475
X5.3Y-5.275
X5.3Y-5.375
X5.3Y-5.475
X5.4Y-5.275
X5.4Y-5.375
X5.4Y-5.475
X5.5Y-5.275
X5.5Y-5.375
X5.5Y-5.475
X5.6Y-5.275
X5.6Y-5.375
X5.6Y-5.475
X5.7Y-5.275
X5.7Y-5.375
X5.7Y-5.475
X5.8Y-5.275
X5.8Y-5.375
X5.8Y-5.475
X5.9Y-5.275
X5.9Y-5.375
X5.9Y-5.475
X6.0Y-5.275
X6.0Y-5.375
X6.0Y-5.475
X6.1Y-5.275
X6.1Y-5.375
X6.1Y-5.475
X6.2Y-5.275
X6.2Y-5.375
X6.2Y-5.475
X6.3Y-5.275
X6.3Y-5.375
X6.3Y-5.475
X6.4Y-5.275
X6.4Y-5.375
X6.4Y-5.475
X6.5Y-5.275
X6.5Y-5.375
X6.5Y-5.475
T5
X2.555Y-2.005
X2.855Y-2.005
X3.08Y-2.005
X3.085Y-3.84
X3.38Y-2.005
X3.385Y-3.84
X3.6Y-2.005
X3.9Y-2.005
X4.12Y-2.005
X4.365Y-3.615
X4.365Y-3.715
X4.365Y-3.815
X4.42Y-2.005
X4.765Y-3.615
X4.765Y-3.715
X4.765Y-3.815
X5.26Y-2.425
X5.56Y-2.425
X5.71Y-2.425
X6.01Y-2.425
X6.16Y-2.425
X6.395Y-2.0375
X6.46Y-2.425
X6.61Y-2.3325
X6.61Y-3.795
X6.795Y-2.0375
X6.91Y-2.3325
X6.91Y-3.795
X6.97Y-2.0375
X7.07Y-2.0375
X7.345Y-2.39
X7.345Y-2.79
T6
X1.7Y-1.975
X1.7Y-2.075
X1.7Y-2.175
X1.7Y-2.275
X1.7Y-2.375
X1.7Y-2.475
X1.7Y-2.575
X1.7Y-2.675
X1.7Y-2.775
X1.7Y-2.875
X1.7Y-2.975
X1.7Y-3.075
X1.7Y-3.175
X1.7Y-3.275
X1.7Y-3.375
X1.7Y-3.475
X1.7Y-3.575
X1.7Y-3.675
X1.7Y-3.775
X1.7Y-3.875
X1.8Y-1.975
X1.8Y-2.075
X1.8Y-2.175
X1.8Y-2.275
X1.8Y-2.375
X1.8Y-2.475
X1.8Y-2.575
X1.8Y-2.675
X1.8Y-2.775
X1.8Y-2.875
X1.8Y-2.975
X1.8Y-3.075
X1.8Y-3.175
X1.8Y-3.275
X1.8Y-3.375
X1.8Y-3.475
X1.8Y-3.575
X1.8Y-3.675
X1.8Y-3.775
X1.8Y-3.875
T7
X7.35Y-3.3
X7.35Y-5.525
T0
M30
