%TF.GenerationSoftware,KiCad,Pcbnew,(5.1.12)-1*%
%TF.CreationDate,2022-07-22T17:46:44+02:00*%
%TF.ProjectId,EC1834-XT-IDE,45433138-3334-42d5-9854-2d4944452e6b,4c*%
%TF.SameCoordinates,Original*%
%TF.FileFunction,Legend,Top*%
%TF.FilePolarity,Positive*%
%FSLAX46Y46*%
G04 Gerber Fmt 4.6, Leading zero omitted, Abs format (unit mm)*
G04 Created by KiCad (PCBNEW (5.1.12)-1) date 2022-07-22 17:46:44*
%MOMM*%
%LPD*%
G01*
G04 APERTURE LIST*
%ADD10C,0.250000*%
%ADD11C,0.304800*%
%ADD12C,0.254000*%
%ADD13C,0.120000*%
%ADD14C,0.150000*%
G04 APERTURE END LIST*
D10*
X151423619Y-105628238D02*
X150709333Y-105628238D01*
X150566476Y-105566333D01*
X150471238Y-105442523D01*
X150423619Y-105256809D01*
X150423619Y-105133000D01*
X150423619Y-106866333D02*
X150423619Y-106247285D01*
X151423619Y-106247285D01*
X150518857Y-108042523D02*
X150471238Y-107980619D01*
X150423619Y-107794904D01*
X150423619Y-107671095D01*
X150471238Y-107485380D01*
X150566476Y-107361571D01*
X150661714Y-107299666D01*
X150852190Y-107237761D01*
X150995047Y-107237761D01*
X151185523Y-107299666D01*
X151280761Y-107361571D01*
X151376000Y-107485380D01*
X151423619Y-107671095D01*
X151423619Y-107794904D01*
X151376000Y-107980619D01*
X151328380Y-108042523D01*
X151423619Y-108971095D02*
X150709333Y-108971095D01*
X150566476Y-108909190D01*
X150471238Y-108785380D01*
X150423619Y-108599666D01*
X150423619Y-108475857D01*
X150423619Y-110209190D02*
X150423619Y-109590142D01*
X151423619Y-109590142D01*
X150518857Y-111385380D02*
X150471238Y-111323476D01*
X150423619Y-111137761D01*
X150423619Y-111013952D01*
X150471238Y-110828238D01*
X150566476Y-110704428D01*
X150661714Y-110642523D01*
X150852190Y-110580619D01*
X150995047Y-110580619D01*
X151185523Y-110642523D01*
X151280761Y-110704428D01*
X151376000Y-110828238D01*
X151423619Y-111013952D01*
X151423619Y-111137761D01*
X151376000Y-111323476D01*
X151328380Y-111385380D01*
X151423619Y-112313952D02*
X150709333Y-112313952D01*
X150566476Y-112252047D01*
X150471238Y-112128238D01*
X150423619Y-111942523D01*
X150423619Y-111818714D01*
X150423619Y-113552047D02*
X150423619Y-112933000D01*
X151423619Y-112933000D01*
X150518857Y-114728238D02*
X150471238Y-114666333D01*
X150423619Y-114480619D01*
X150423619Y-114356809D01*
X150471238Y-114171095D01*
X150566476Y-114047285D01*
X150661714Y-113985380D01*
X150852190Y-113923476D01*
X150995047Y-113923476D01*
X151185523Y-113985380D01*
X151280761Y-114047285D01*
X151376000Y-114171095D01*
X151423619Y-114356809D01*
X151423619Y-114480619D01*
X151376000Y-114666333D01*
X151328380Y-114728238D01*
X151423619Y-115656809D02*
X150709333Y-115656809D01*
X150566476Y-115594904D01*
X150471238Y-115471095D01*
X150423619Y-115285380D01*
X150423619Y-115161571D01*
X150423619Y-116894904D02*
X150423619Y-116275857D01*
X151423619Y-116275857D01*
X150518857Y-118071095D02*
X150471238Y-118009190D01*
X150423619Y-117823476D01*
X150423619Y-117699666D01*
X150471238Y-117513952D01*
X150566476Y-117390142D01*
X150661714Y-117328238D01*
X150852190Y-117266333D01*
X150995047Y-117266333D01*
X151185523Y-117328238D01*
X151280761Y-117390142D01*
X151376000Y-117513952D01*
X151423619Y-117699666D01*
X151423619Y-117823476D01*
X151376000Y-118009190D01*
X151328380Y-118071095D01*
D11*
X178968400Y-78210228D02*
X178968400Y-77194228D01*
X178968400Y-77484514D02*
X179040971Y-77339371D01*
X179113542Y-77266800D01*
X179258685Y-77194228D01*
X179403828Y-77194228D01*
X180492400Y-78137657D02*
X180347257Y-78210228D01*
X180056971Y-78210228D01*
X179911828Y-78137657D01*
X179839257Y-77992514D01*
X179839257Y-77411942D01*
X179911828Y-77266800D01*
X180056971Y-77194228D01*
X180347257Y-77194228D01*
X180492400Y-77266800D01*
X180564971Y-77411942D01*
X180564971Y-77557085D01*
X179839257Y-77702228D01*
X181072971Y-77194228D02*
X181435828Y-78210228D01*
X181798685Y-77194228D01*
X184193542Y-77194228D02*
X184193542Y-78210228D01*
X183830685Y-76613657D02*
X183467828Y-77702228D01*
X184411257Y-77702228D01*
X185644971Y-78137657D02*
X185499828Y-78210228D01*
X185209542Y-78210228D01*
X185064400Y-78137657D01*
X184991828Y-78065085D01*
X184919257Y-77919942D01*
X184919257Y-77484514D01*
X184991828Y-77339371D01*
X185064400Y-77266800D01*
X185209542Y-77194228D01*
X185499828Y-77194228D01*
X185644971Y-77266800D01*
D12*
X102936523Y-115170857D02*
X102997000Y-115231333D01*
X103057476Y-115352285D01*
X103057476Y-115654666D01*
X102997000Y-115775619D01*
X102936523Y-115836095D01*
X102815571Y-115896571D01*
X102694619Y-115896571D01*
X102513190Y-115836095D01*
X101787476Y-115110380D01*
X101787476Y-115896571D01*
X102513190Y-116622285D02*
X102573666Y-116501333D01*
X102634142Y-116440857D01*
X102755095Y-116380380D01*
X102815571Y-116380380D01*
X102936523Y-116440857D01*
X102997000Y-116501333D01*
X103057476Y-116622285D01*
X103057476Y-116864190D01*
X102997000Y-116985142D01*
X102936523Y-117045619D01*
X102815571Y-117106095D01*
X102755095Y-117106095D01*
X102634142Y-117045619D01*
X102573666Y-116985142D01*
X102513190Y-116864190D01*
X102513190Y-116622285D01*
X102452714Y-116501333D01*
X102392238Y-116440857D01*
X102271285Y-116380380D01*
X102029380Y-116380380D01*
X101908428Y-116440857D01*
X101847952Y-116501333D01*
X101787476Y-116622285D01*
X101787476Y-116864190D01*
X101847952Y-116985142D01*
X101908428Y-117045619D01*
X102029380Y-117106095D01*
X102271285Y-117106095D01*
X102392238Y-117045619D01*
X102452714Y-116985142D01*
X102513190Y-116864190D01*
X101908428Y-118376095D02*
X101847952Y-118315619D01*
X101787476Y-118134190D01*
X101787476Y-118013238D01*
X101847952Y-117831809D01*
X101968904Y-117710857D01*
X102089857Y-117650380D01*
X102331761Y-117589904D01*
X102513190Y-117589904D01*
X102755095Y-117650380D01*
X102876047Y-117710857D01*
X102997000Y-117831809D01*
X103057476Y-118013238D01*
X103057476Y-118134190D01*
X102997000Y-118315619D01*
X102936523Y-118376095D01*
X103057476Y-119464666D02*
X103057476Y-119222761D01*
X102997000Y-119101809D01*
X102936523Y-119041333D01*
X102755095Y-118920380D01*
X102513190Y-118859904D01*
X102029380Y-118859904D01*
X101908428Y-118920380D01*
X101847952Y-118980857D01*
X101787476Y-119101809D01*
X101787476Y-119343714D01*
X101847952Y-119464666D01*
X101908428Y-119525142D01*
X102029380Y-119585619D01*
X102331761Y-119585619D01*
X102452714Y-119525142D01*
X102513190Y-119464666D01*
X102573666Y-119343714D01*
X102573666Y-119101809D01*
X102513190Y-118980857D01*
X102452714Y-118920380D01*
X102331761Y-118859904D01*
X102634142Y-120674190D02*
X101787476Y-120674190D01*
X103117952Y-120371809D02*
X102210809Y-120069428D01*
X102210809Y-120855619D01*
X100898476Y-117227047D02*
X100898476Y-117468952D01*
X100838000Y-117589904D01*
X100717047Y-117710857D01*
X100475142Y-117771333D01*
X100051809Y-117771333D01*
X99809904Y-117710857D01*
X99688952Y-117589904D01*
X99628476Y-117468952D01*
X99628476Y-117227047D01*
X99688952Y-117106095D01*
X99809904Y-116985142D01*
X100051809Y-116924666D01*
X100475142Y-116924666D01*
X100717047Y-116985142D01*
X100838000Y-117106095D01*
X100898476Y-117227047D01*
X99628476Y-119041333D02*
X100233238Y-118618000D01*
X99628476Y-118315619D02*
X100898476Y-118315619D01*
X100898476Y-118799428D01*
X100838000Y-118920380D01*
X100777523Y-118980857D01*
X100656571Y-119041333D01*
X100475142Y-119041333D01*
X100354190Y-118980857D01*
X100293714Y-118920380D01*
X100233238Y-118799428D01*
X100233238Y-118315619D01*
X98618523Y-114566095D02*
X98679000Y-114626571D01*
X98739476Y-114747523D01*
X98739476Y-115049904D01*
X98679000Y-115170857D01*
X98618523Y-115231333D01*
X98497571Y-115291809D01*
X98376619Y-115291809D01*
X98195190Y-115231333D01*
X97469476Y-114505619D01*
X97469476Y-115291809D01*
X98195190Y-116017523D02*
X98255666Y-115896571D01*
X98316142Y-115836095D01*
X98437095Y-115775619D01*
X98497571Y-115775619D01*
X98618523Y-115836095D01*
X98679000Y-115896571D01*
X98739476Y-116017523D01*
X98739476Y-116259428D01*
X98679000Y-116380380D01*
X98618523Y-116440857D01*
X98497571Y-116501333D01*
X98437095Y-116501333D01*
X98316142Y-116440857D01*
X98255666Y-116380380D01*
X98195190Y-116259428D01*
X98195190Y-116017523D01*
X98134714Y-115896571D01*
X98074238Y-115836095D01*
X97953285Y-115775619D01*
X97711380Y-115775619D01*
X97590428Y-115836095D01*
X97529952Y-115896571D01*
X97469476Y-116017523D01*
X97469476Y-116259428D01*
X97529952Y-116380380D01*
X97590428Y-116440857D01*
X97711380Y-116501333D01*
X97953285Y-116501333D01*
X98074238Y-116440857D01*
X98134714Y-116380380D01*
X98195190Y-116259428D01*
X97590428Y-117771333D02*
X97529952Y-117710857D01*
X97469476Y-117529428D01*
X97469476Y-117408476D01*
X97529952Y-117227047D01*
X97650904Y-117106095D01*
X97771857Y-117045619D01*
X98013761Y-116985142D01*
X98195190Y-116985142D01*
X98437095Y-117045619D01*
X98558047Y-117106095D01*
X98679000Y-117227047D01*
X98739476Y-117408476D01*
X98739476Y-117529428D01*
X98679000Y-117710857D01*
X98618523Y-117771333D01*
X98618523Y-118255142D02*
X98679000Y-118315619D01*
X98739476Y-118436571D01*
X98739476Y-118738952D01*
X98679000Y-118859904D01*
X98618523Y-118920380D01*
X98497571Y-118980857D01*
X98376619Y-118980857D01*
X98195190Y-118920380D01*
X97469476Y-118194666D01*
X97469476Y-118980857D01*
X98739476Y-120129904D02*
X98739476Y-119525142D01*
X98134714Y-119464666D01*
X98195190Y-119525142D01*
X98255666Y-119646095D01*
X98255666Y-119948476D01*
X98195190Y-120069428D01*
X98134714Y-120129904D01*
X98013761Y-120190380D01*
X97711380Y-120190380D01*
X97590428Y-120129904D01*
X97529952Y-120069428D01*
X97469476Y-119948476D01*
X97469476Y-119646095D01*
X97529952Y-119525142D01*
X97590428Y-119464666D01*
X98739476Y-121278952D02*
X98739476Y-121037047D01*
X98679000Y-120916095D01*
X98618523Y-120855619D01*
X98437095Y-120734666D01*
X98195190Y-120674190D01*
X97711380Y-120674190D01*
X97590428Y-120734666D01*
X97529952Y-120795142D01*
X97469476Y-120916095D01*
X97469476Y-121158000D01*
X97529952Y-121278952D01*
X97590428Y-121339428D01*
X97711380Y-121399904D01*
X98013761Y-121399904D01*
X98134714Y-121339428D01*
X98195190Y-121278952D01*
X98255666Y-121158000D01*
X98255666Y-120916095D01*
X98195190Y-120795142D01*
X98134714Y-120734666D01*
X98013761Y-120674190D01*
X53414385Y-134239000D02*
X53341814Y-134166428D01*
X53196671Y-133948714D01*
X53124100Y-133803571D01*
X53051528Y-133585857D01*
X52978957Y-133223000D01*
X52978957Y-132932714D01*
X53051528Y-132569857D01*
X53124100Y-132352142D01*
X53196671Y-132207000D01*
X53341814Y-131989285D01*
X53414385Y-131916714D01*
X54648100Y-133585857D02*
X54502957Y-133658428D01*
X54212671Y-133658428D01*
X54067528Y-133585857D01*
X53994957Y-133513285D01*
X53922385Y-133368142D01*
X53922385Y-132932714D01*
X53994957Y-132787571D01*
X54067528Y-132715000D01*
X54212671Y-132642428D01*
X54502957Y-132642428D01*
X54648100Y-132715000D01*
X55156100Y-134239000D02*
X55228671Y-134166428D01*
X55373814Y-133948714D01*
X55446385Y-133803571D01*
X55518957Y-133585857D01*
X55591528Y-133223000D01*
X55591528Y-132932714D01*
X55518957Y-132569857D01*
X55446385Y-132352142D01*
X55373814Y-132207000D01*
X55228671Y-131989285D01*
X55156100Y-131916714D01*
X56244671Y-132279571D02*
X56317242Y-132207000D01*
X56462385Y-132134428D01*
X56825242Y-132134428D01*
X56970385Y-132207000D01*
X57042957Y-132279571D01*
X57115528Y-132424714D01*
X57115528Y-132569857D01*
X57042957Y-132787571D01*
X56172100Y-133658428D01*
X57115528Y-133658428D01*
X58058957Y-132134428D02*
X58204100Y-132134428D01*
X58349242Y-132207000D01*
X58421814Y-132279571D01*
X58494385Y-132424714D01*
X58566957Y-132715000D01*
X58566957Y-133077857D01*
X58494385Y-133368142D01*
X58421814Y-133513285D01*
X58349242Y-133585857D01*
X58204100Y-133658428D01*
X58058957Y-133658428D01*
X57913814Y-133585857D01*
X57841242Y-133513285D01*
X57768671Y-133368142D01*
X57696100Y-133077857D01*
X57696100Y-132715000D01*
X57768671Y-132424714D01*
X57841242Y-132279571D01*
X57913814Y-132207000D01*
X58058957Y-132134428D01*
X59147528Y-132279571D02*
X59220100Y-132207000D01*
X59365242Y-132134428D01*
X59728100Y-132134428D01*
X59873242Y-132207000D01*
X59945814Y-132279571D01*
X60018385Y-132424714D01*
X60018385Y-132569857D01*
X59945814Y-132787571D01*
X59074957Y-133658428D01*
X60018385Y-133658428D01*
X60598957Y-132279571D02*
X60671528Y-132207000D01*
X60816671Y-132134428D01*
X61179528Y-132134428D01*
X61324671Y-132207000D01*
X61397242Y-132279571D01*
X61469814Y-132424714D01*
X61469814Y-132569857D01*
X61397242Y-132787571D01*
X60526385Y-133658428D01*
X61469814Y-133658428D01*
X63284100Y-133658428D02*
X63284100Y-132134428D01*
X63792100Y-133223000D01*
X64300100Y-132134428D01*
X64300100Y-133658428D01*
X65025814Y-133513285D02*
X65098385Y-133585857D01*
X65025814Y-133658428D01*
X64953242Y-133585857D01*
X65025814Y-133513285D01*
X65025814Y-133658428D01*
X67710957Y-132207000D02*
X67565814Y-132134428D01*
X67348100Y-132134428D01*
X67130385Y-132207000D01*
X66985242Y-132352142D01*
X66912671Y-132497285D01*
X66840100Y-132787571D01*
X66840100Y-133005285D01*
X66912671Y-133295571D01*
X66985242Y-133440714D01*
X67130385Y-133585857D01*
X67348100Y-133658428D01*
X67493242Y-133658428D01*
X67710957Y-133585857D01*
X67783528Y-133513285D01*
X67783528Y-133005285D01*
X67493242Y-133005285D01*
X68654385Y-133658428D02*
X68509242Y-133585857D01*
X68436671Y-133513285D01*
X68364100Y-133368142D01*
X68364100Y-132932714D01*
X68436671Y-132787571D01*
X68509242Y-132715000D01*
X68654385Y-132642428D01*
X68872100Y-132642428D01*
X69017242Y-132715000D01*
X69089814Y-132787571D01*
X69162385Y-132932714D01*
X69162385Y-133368142D01*
X69089814Y-133513285D01*
X69017242Y-133585857D01*
X68872100Y-133658428D01*
X68654385Y-133658428D01*
X70396100Y-133585857D02*
X70250957Y-133658428D01*
X69960671Y-133658428D01*
X69815528Y-133585857D01*
X69742957Y-133440714D01*
X69742957Y-132860142D01*
X69815528Y-132715000D01*
X69960671Y-132642428D01*
X70250957Y-132642428D01*
X70396100Y-132715000D01*
X70468671Y-132860142D01*
X70468671Y-133005285D01*
X69742957Y-133150428D01*
X71774957Y-132642428D02*
X71774957Y-133876142D01*
X71702385Y-134021285D01*
X71629814Y-134093857D01*
X71484671Y-134166428D01*
X71266957Y-134166428D01*
X71121814Y-134093857D01*
X71774957Y-133585857D02*
X71629814Y-133658428D01*
X71339528Y-133658428D01*
X71194385Y-133585857D01*
X71121814Y-133513285D01*
X71049242Y-133368142D01*
X71049242Y-132932714D01*
X71121814Y-132787571D01*
X71194385Y-132715000D01*
X71339528Y-132642428D01*
X71629814Y-132642428D01*
X71774957Y-132715000D01*
X73081242Y-133585857D02*
X72936100Y-133658428D01*
X72645814Y-133658428D01*
X72500671Y-133585857D01*
X72428100Y-133440714D01*
X72428100Y-132860142D01*
X72500671Y-132715000D01*
X72645814Y-132642428D01*
X72936100Y-132642428D01*
X73081242Y-132715000D01*
X73153814Y-132860142D01*
X73153814Y-133005285D01*
X72428100Y-133150428D01*
X74024671Y-133658428D02*
X73879528Y-133585857D01*
X73806957Y-133440714D01*
X73806957Y-132134428D01*
X138109476Y-70303571D02*
X138109476Y-71150238D01*
X136839476Y-70605952D01*
X137686142Y-72178333D02*
X136839476Y-72178333D01*
X138169952Y-71875952D02*
X137262809Y-71573571D01*
X137262809Y-72359761D01*
X136839476Y-73448333D02*
X136839476Y-72843571D01*
X138109476Y-72843571D01*
X136899952Y-73811190D02*
X136839476Y-73992619D01*
X136839476Y-74295000D01*
X136899952Y-74415952D01*
X136960428Y-74476428D01*
X137081380Y-74536904D01*
X137202333Y-74536904D01*
X137323285Y-74476428D01*
X137383761Y-74415952D01*
X137444238Y-74295000D01*
X137504714Y-74053095D01*
X137565190Y-73932142D01*
X137625666Y-73871666D01*
X137746619Y-73811190D01*
X137867571Y-73811190D01*
X137988523Y-73871666D01*
X138049000Y-73932142D01*
X138109476Y-74053095D01*
X138109476Y-74355476D01*
X138049000Y-74536904D01*
X138109476Y-75323095D02*
X138109476Y-75444047D01*
X138049000Y-75565000D01*
X137988523Y-75625476D01*
X137867571Y-75685952D01*
X137625666Y-75746428D01*
X137323285Y-75746428D01*
X137081380Y-75685952D01*
X136960428Y-75625476D01*
X136899952Y-75565000D01*
X136839476Y-75444047D01*
X136839476Y-75323095D01*
X136899952Y-75202142D01*
X136960428Y-75141666D01*
X137081380Y-75081190D01*
X137323285Y-75020714D01*
X137625666Y-75020714D01*
X137867571Y-75081190D01*
X137988523Y-75141666D01*
X138049000Y-75202142D01*
X138109476Y-75323095D01*
X137686142Y-76835000D02*
X136839476Y-76835000D01*
X138169952Y-76532619D02*
X137262809Y-76230238D01*
X137262809Y-77016428D01*
X181724904Y-49121785D02*
X182148238Y-49121785D01*
X182329666Y-49787023D02*
X181724904Y-49787023D01*
X181724904Y-48517023D01*
X182329666Y-48517023D01*
X182753000Y-48517023D02*
X183599666Y-49787023D01*
X183599666Y-48517023D02*
X182753000Y-49787023D01*
X183902047Y-48517023D02*
X184627761Y-48517023D01*
X184264904Y-49787023D02*
X184264904Y-48517023D01*
X186623476Y-49787023D02*
X186018714Y-49787023D01*
X186018714Y-48517023D01*
X187046809Y-49121785D02*
X187470142Y-49121785D01*
X187651571Y-49787023D02*
X187046809Y-49787023D01*
X187046809Y-48517023D01*
X187651571Y-48517023D01*
X188195857Y-49787023D02*
X188195857Y-48517023D01*
X188498238Y-48517023D01*
X188679666Y-48577500D01*
X188800619Y-48698452D01*
X188861095Y-48819404D01*
X188921571Y-49061309D01*
X188921571Y-49242738D01*
X188861095Y-49484642D01*
X188800619Y-49605595D01*
X188679666Y-49726547D01*
X188498238Y-49787023D01*
X188195857Y-49787023D01*
X186708142Y-64310380D02*
X185861476Y-64310380D01*
X187191952Y-64008000D02*
X186284809Y-63705619D01*
X186284809Y-64491809D01*
X187131476Y-64854666D02*
X187131476Y-65701333D01*
X185861476Y-65157047D01*
X187131476Y-66427047D02*
X187131476Y-66548000D01*
X187071000Y-66668952D01*
X187010523Y-66729428D01*
X186889571Y-66789904D01*
X186647666Y-66850380D01*
X186345285Y-66850380D01*
X186103380Y-66789904D01*
X185982428Y-66729428D01*
X185921952Y-66668952D01*
X185861476Y-66548000D01*
X185861476Y-66427047D01*
X185921952Y-66306095D01*
X185982428Y-66245619D01*
X186103380Y-66185142D01*
X186345285Y-66124666D01*
X186647666Y-66124666D01*
X186889571Y-66185142D01*
X187010523Y-66245619D01*
X187071000Y-66306095D01*
X187131476Y-66427047D01*
X185861476Y-68120380D02*
X186466238Y-67697047D01*
X185861476Y-67394666D02*
X187131476Y-67394666D01*
X187131476Y-67878476D01*
X187071000Y-67999428D01*
X187010523Y-68059904D01*
X186889571Y-68120380D01*
X186708142Y-68120380D01*
X186587190Y-68059904D01*
X186526714Y-67999428D01*
X186466238Y-67878476D01*
X186466238Y-67394666D01*
X49548142Y-125034523D02*
X49548142Y-123764523D01*
X50273857Y-125034523D01*
X50273857Y-123764523D01*
X51604333Y-124913571D02*
X51543857Y-124974047D01*
X51362428Y-125034523D01*
X51241476Y-125034523D01*
X51060047Y-124974047D01*
X50939095Y-124853095D01*
X50878619Y-124732142D01*
X50818142Y-124490238D01*
X50818142Y-124308809D01*
X50878619Y-124066904D01*
X50939095Y-123945952D01*
X51060047Y-123825000D01*
X51241476Y-123764523D01*
X51362428Y-123764523D01*
X51543857Y-123825000D01*
X51604333Y-123885476D01*
X95691476Y-66015809D02*
X95691476Y-66862476D01*
X94421476Y-66318190D01*
X95268142Y-67890571D02*
X94421476Y-67890571D01*
X95751952Y-67588190D02*
X94844809Y-67285809D01*
X94844809Y-68072000D01*
X94421476Y-69160571D02*
X94421476Y-68555809D01*
X95691476Y-68555809D01*
X94481952Y-69523428D02*
X94421476Y-69704857D01*
X94421476Y-70007238D01*
X94481952Y-70128190D01*
X94542428Y-70188666D01*
X94663380Y-70249142D01*
X94784333Y-70249142D01*
X94905285Y-70188666D01*
X94965761Y-70128190D01*
X95026238Y-70007238D01*
X95086714Y-69765333D01*
X95147190Y-69644380D01*
X95207666Y-69583904D01*
X95328619Y-69523428D01*
X95449571Y-69523428D01*
X95570523Y-69583904D01*
X95631000Y-69644380D01*
X95691476Y-69765333D01*
X95691476Y-70067714D01*
X95631000Y-70249142D01*
X95570523Y-70732952D02*
X95631000Y-70793428D01*
X95691476Y-70914380D01*
X95691476Y-71216761D01*
X95631000Y-71337714D01*
X95570523Y-71398190D01*
X95449571Y-71458666D01*
X95328619Y-71458666D01*
X95147190Y-71398190D01*
X94421476Y-70672476D01*
X94421476Y-71458666D01*
X95268142Y-72547238D02*
X94421476Y-72547238D01*
X95751952Y-72244857D02*
X94844809Y-71942476D01*
X94844809Y-72728666D01*
X95691476Y-73817238D02*
X95691476Y-73212476D01*
X95086714Y-73152000D01*
X95147190Y-73212476D01*
X95207666Y-73333428D01*
X95207666Y-73635809D01*
X95147190Y-73756761D01*
X95086714Y-73817238D01*
X94965761Y-73877714D01*
X94663380Y-73877714D01*
X94542428Y-73817238D01*
X94481952Y-73756761D01*
X94421476Y-73635809D01*
X94421476Y-73333428D01*
X94481952Y-73212476D01*
X94542428Y-73152000D01*
X172399476Y-106274809D02*
X172399476Y-107121476D01*
X171129476Y-106577190D01*
X171976142Y-108149571D02*
X171129476Y-108149571D01*
X172459952Y-107847190D02*
X171552809Y-107544809D01*
X171552809Y-108331000D01*
X171129476Y-109419571D02*
X171129476Y-108814809D01*
X172399476Y-108814809D01*
X171189952Y-109782428D02*
X171129476Y-109963857D01*
X171129476Y-110266238D01*
X171189952Y-110387190D01*
X171250428Y-110447666D01*
X171371380Y-110508142D01*
X171492333Y-110508142D01*
X171613285Y-110447666D01*
X171673761Y-110387190D01*
X171734238Y-110266238D01*
X171794714Y-110024333D01*
X171855190Y-109903380D01*
X171915666Y-109842904D01*
X172036619Y-109782428D01*
X172157571Y-109782428D01*
X172278523Y-109842904D01*
X172339000Y-109903380D01*
X172399476Y-110024333D01*
X172399476Y-110326714D01*
X172339000Y-110508142D01*
X172399476Y-111596714D02*
X172399476Y-111354809D01*
X172339000Y-111233857D01*
X172278523Y-111173380D01*
X172097095Y-111052428D01*
X171855190Y-110991952D01*
X171371380Y-110991952D01*
X171250428Y-111052428D01*
X171189952Y-111112904D01*
X171129476Y-111233857D01*
X171129476Y-111475761D01*
X171189952Y-111596714D01*
X171250428Y-111657190D01*
X171371380Y-111717666D01*
X171673761Y-111717666D01*
X171794714Y-111657190D01*
X171855190Y-111596714D01*
X171915666Y-111475761D01*
X171915666Y-111233857D01*
X171855190Y-111112904D01*
X171794714Y-111052428D01*
X171673761Y-110991952D01*
X171855190Y-112443380D02*
X171915666Y-112322428D01*
X171976142Y-112261952D01*
X172097095Y-112201476D01*
X172157571Y-112201476D01*
X172278523Y-112261952D01*
X172339000Y-112322428D01*
X172399476Y-112443380D01*
X172399476Y-112685285D01*
X172339000Y-112806238D01*
X172278523Y-112866714D01*
X172157571Y-112927190D01*
X172097095Y-112927190D01*
X171976142Y-112866714D01*
X171915666Y-112806238D01*
X171855190Y-112685285D01*
X171855190Y-112443380D01*
X171794714Y-112322428D01*
X171734238Y-112261952D01*
X171613285Y-112201476D01*
X171371380Y-112201476D01*
X171250428Y-112261952D01*
X171189952Y-112322428D01*
X171129476Y-112443380D01*
X171129476Y-112685285D01*
X171189952Y-112806238D01*
X171250428Y-112866714D01*
X171371380Y-112927190D01*
X171613285Y-112927190D01*
X171734238Y-112866714D01*
X171794714Y-112806238D01*
X171855190Y-112685285D01*
X171855190Y-113652904D02*
X171915666Y-113531952D01*
X171976142Y-113471476D01*
X172097095Y-113411000D01*
X172157571Y-113411000D01*
X172278523Y-113471476D01*
X172339000Y-113531952D01*
X172399476Y-113652904D01*
X172399476Y-113894809D01*
X172339000Y-114015761D01*
X172278523Y-114076238D01*
X172157571Y-114136714D01*
X172097095Y-114136714D01*
X171976142Y-114076238D01*
X171915666Y-114015761D01*
X171855190Y-113894809D01*
X171855190Y-113652904D01*
X171794714Y-113531952D01*
X171734238Y-113471476D01*
X171613285Y-113411000D01*
X171371380Y-113411000D01*
X171250428Y-113471476D01*
X171189952Y-113531952D01*
X171129476Y-113652904D01*
X171129476Y-113894809D01*
X171189952Y-114015761D01*
X171250428Y-114076238D01*
X171371380Y-114136714D01*
X171613285Y-114136714D01*
X171734238Y-114076238D01*
X171794714Y-114015761D01*
X171855190Y-113894809D01*
X82864476Y-109449809D02*
X82864476Y-110296476D01*
X81594476Y-109752190D01*
X82441142Y-111324571D02*
X81594476Y-111324571D01*
X82924952Y-111022190D02*
X82017809Y-110719809D01*
X82017809Y-111506000D01*
X81594476Y-112594571D02*
X81594476Y-111989809D01*
X82864476Y-111989809D01*
X81654952Y-112957428D02*
X81594476Y-113138857D01*
X81594476Y-113441238D01*
X81654952Y-113562190D01*
X81715428Y-113622666D01*
X81836380Y-113683142D01*
X81957333Y-113683142D01*
X82078285Y-113622666D01*
X82138761Y-113562190D01*
X82199238Y-113441238D01*
X82259714Y-113199333D01*
X82320190Y-113078380D01*
X82380666Y-113017904D01*
X82501619Y-112957428D01*
X82622571Y-112957428D01*
X82743523Y-113017904D01*
X82804000Y-113078380D01*
X82864476Y-113199333D01*
X82864476Y-113501714D01*
X82804000Y-113683142D01*
X82864476Y-114771714D02*
X82864476Y-114529809D01*
X82804000Y-114408857D01*
X82743523Y-114348380D01*
X82562095Y-114227428D01*
X82320190Y-114166952D01*
X81836380Y-114166952D01*
X81715428Y-114227428D01*
X81654952Y-114287904D01*
X81594476Y-114408857D01*
X81594476Y-114650761D01*
X81654952Y-114771714D01*
X81715428Y-114832190D01*
X81836380Y-114892666D01*
X82138761Y-114892666D01*
X82259714Y-114832190D01*
X82320190Y-114771714D01*
X82380666Y-114650761D01*
X82380666Y-114408857D01*
X82320190Y-114287904D01*
X82259714Y-114227428D01*
X82138761Y-114166952D01*
X82320190Y-115618380D02*
X82380666Y-115497428D01*
X82441142Y-115436952D01*
X82562095Y-115376476D01*
X82622571Y-115376476D01*
X82743523Y-115436952D01*
X82804000Y-115497428D01*
X82864476Y-115618380D01*
X82864476Y-115860285D01*
X82804000Y-115981238D01*
X82743523Y-116041714D01*
X82622571Y-116102190D01*
X82562095Y-116102190D01*
X82441142Y-116041714D01*
X82380666Y-115981238D01*
X82320190Y-115860285D01*
X82320190Y-115618380D01*
X82259714Y-115497428D01*
X82199238Y-115436952D01*
X82078285Y-115376476D01*
X81836380Y-115376476D01*
X81715428Y-115436952D01*
X81654952Y-115497428D01*
X81594476Y-115618380D01*
X81594476Y-115860285D01*
X81654952Y-115981238D01*
X81715428Y-116041714D01*
X81836380Y-116102190D01*
X82078285Y-116102190D01*
X82199238Y-116041714D01*
X82259714Y-115981238D01*
X82320190Y-115860285D01*
X82320190Y-116827904D02*
X82380666Y-116706952D01*
X82441142Y-116646476D01*
X82562095Y-116586000D01*
X82622571Y-116586000D01*
X82743523Y-116646476D01*
X82804000Y-116706952D01*
X82864476Y-116827904D01*
X82864476Y-117069809D01*
X82804000Y-117190761D01*
X82743523Y-117251238D01*
X82622571Y-117311714D01*
X82562095Y-117311714D01*
X82441142Y-117251238D01*
X82380666Y-117190761D01*
X82320190Y-117069809D01*
X82320190Y-116827904D01*
X82259714Y-116706952D01*
X82199238Y-116646476D01*
X82078285Y-116586000D01*
X81836380Y-116586000D01*
X81715428Y-116646476D01*
X81654952Y-116706952D01*
X81594476Y-116827904D01*
X81594476Y-117069809D01*
X81654952Y-117190761D01*
X81715428Y-117251238D01*
X81836380Y-117311714D01*
X82078285Y-117311714D01*
X82199238Y-117251238D01*
X82259714Y-117190761D01*
X82320190Y-117069809D01*
X172399476Y-68428809D02*
X172399476Y-69275476D01*
X171129476Y-68731190D01*
X171976142Y-70303571D02*
X171129476Y-70303571D01*
X172459952Y-70001190D02*
X171552809Y-69698809D01*
X171552809Y-70485000D01*
X171129476Y-71573571D02*
X171129476Y-70968809D01*
X172399476Y-70968809D01*
X171189952Y-71936428D02*
X171129476Y-72117857D01*
X171129476Y-72420238D01*
X171189952Y-72541190D01*
X171250428Y-72601666D01*
X171371380Y-72662142D01*
X171492333Y-72662142D01*
X171613285Y-72601666D01*
X171673761Y-72541190D01*
X171734238Y-72420238D01*
X171794714Y-72178333D01*
X171855190Y-72057380D01*
X171915666Y-71996904D01*
X172036619Y-71936428D01*
X172157571Y-71936428D01*
X172278523Y-71996904D01*
X172339000Y-72057380D01*
X172399476Y-72178333D01*
X172399476Y-72480714D01*
X172339000Y-72662142D01*
X171129476Y-73871666D02*
X171129476Y-73145952D01*
X171129476Y-73508809D02*
X172399476Y-73508809D01*
X172218047Y-73387857D01*
X172097095Y-73266904D01*
X172036619Y-73145952D01*
X172399476Y-74295000D02*
X172399476Y-75081190D01*
X171915666Y-74657857D01*
X171915666Y-74839285D01*
X171855190Y-74960238D01*
X171794714Y-75020714D01*
X171673761Y-75081190D01*
X171371380Y-75081190D01*
X171250428Y-75020714D01*
X171189952Y-74960238D01*
X171129476Y-74839285D01*
X171129476Y-74476428D01*
X171189952Y-74355476D01*
X171250428Y-74295000D01*
X171855190Y-75806904D02*
X171915666Y-75685952D01*
X171976142Y-75625476D01*
X172097095Y-75565000D01*
X172157571Y-75565000D01*
X172278523Y-75625476D01*
X172339000Y-75685952D01*
X172399476Y-75806904D01*
X172399476Y-76048809D01*
X172339000Y-76169761D01*
X172278523Y-76230238D01*
X172157571Y-76290714D01*
X172097095Y-76290714D01*
X171976142Y-76230238D01*
X171915666Y-76169761D01*
X171855190Y-76048809D01*
X171855190Y-75806904D01*
X171794714Y-75685952D01*
X171734238Y-75625476D01*
X171613285Y-75565000D01*
X171371380Y-75565000D01*
X171250428Y-75625476D01*
X171189952Y-75685952D01*
X171129476Y-75806904D01*
X171129476Y-76048809D01*
X171189952Y-76169761D01*
X171250428Y-76230238D01*
X171371380Y-76290714D01*
X171613285Y-76290714D01*
X171734238Y-76230238D01*
X171794714Y-76169761D01*
X171855190Y-76048809D01*
X160969476Y-70303571D02*
X160969476Y-71150238D01*
X159699476Y-70605952D01*
X160546142Y-72178333D02*
X159699476Y-72178333D01*
X161029952Y-71875952D02*
X160122809Y-71573571D01*
X160122809Y-72359761D01*
X159699476Y-73448333D02*
X159699476Y-72843571D01*
X160969476Y-72843571D01*
X159759952Y-73811190D02*
X159699476Y-73992619D01*
X159699476Y-74295000D01*
X159759952Y-74415952D01*
X159820428Y-74476428D01*
X159941380Y-74536904D01*
X160062333Y-74536904D01*
X160183285Y-74476428D01*
X160243761Y-74415952D01*
X160304238Y-74295000D01*
X160364714Y-74053095D01*
X160425190Y-73932142D01*
X160485666Y-73871666D01*
X160606619Y-73811190D01*
X160727571Y-73811190D01*
X160848523Y-73871666D01*
X160909000Y-73932142D01*
X160969476Y-74053095D01*
X160969476Y-74355476D01*
X160909000Y-74536904D01*
X160969476Y-75323095D02*
X160969476Y-75444047D01*
X160909000Y-75565000D01*
X160848523Y-75625476D01*
X160727571Y-75685952D01*
X160485666Y-75746428D01*
X160183285Y-75746428D01*
X159941380Y-75685952D01*
X159820428Y-75625476D01*
X159759952Y-75565000D01*
X159699476Y-75444047D01*
X159699476Y-75323095D01*
X159759952Y-75202142D01*
X159820428Y-75141666D01*
X159941380Y-75081190D01*
X160183285Y-75020714D01*
X160485666Y-75020714D01*
X160727571Y-75081190D01*
X160848523Y-75141666D01*
X160909000Y-75202142D01*
X160969476Y-75323095D01*
X160546142Y-76835000D02*
X159699476Y-76835000D01*
X161029952Y-76532619D02*
X160122809Y-76230238D01*
X160122809Y-77016428D01*
X149539476Y-70303571D02*
X149539476Y-71150238D01*
X148269476Y-70605952D01*
X149116142Y-72178333D02*
X148269476Y-72178333D01*
X149599952Y-71875952D02*
X148692809Y-71573571D01*
X148692809Y-72359761D01*
X148269476Y-73448333D02*
X148269476Y-72843571D01*
X149539476Y-72843571D01*
X148329952Y-73811190D02*
X148269476Y-73992619D01*
X148269476Y-74295000D01*
X148329952Y-74415952D01*
X148390428Y-74476428D01*
X148511380Y-74536904D01*
X148632333Y-74536904D01*
X148753285Y-74476428D01*
X148813761Y-74415952D01*
X148874238Y-74295000D01*
X148934714Y-74053095D01*
X148995190Y-73932142D01*
X149055666Y-73871666D01*
X149176619Y-73811190D01*
X149297571Y-73811190D01*
X149418523Y-73871666D01*
X149479000Y-73932142D01*
X149539476Y-74053095D01*
X149539476Y-74355476D01*
X149479000Y-74536904D01*
X149539476Y-74960238D02*
X149539476Y-75746428D01*
X149055666Y-75323095D01*
X149055666Y-75504523D01*
X148995190Y-75625476D01*
X148934714Y-75685952D01*
X148813761Y-75746428D01*
X148511380Y-75746428D01*
X148390428Y-75685952D01*
X148329952Y-75625476D01*
X148269476Y-75504523D01*
X148269476Y-75141666D01*
X148329952Y-75020714D01*
X148390428Y-74960238D01*
X149418523Y-76230238D02*
X149479000Y-76290714D01*
X149539476Y-76411666D01*
X149539476Y-76714047D01*
X149479000Y-76835000D01*
X149418523Y-76895476D01*
X149297571Y-76955952D01*
X149176619Y-76955952D01*
X148995190Y-76895476D01*
X148269476Y-76169761D01*
X148269476Y-76955952D01*
X109153476Y-66269809D02*
X109153476Y-67116476D01*
X107883476Y-66572190D01*
X108730142Y-68144571D02*
X107883476Y-68144571D01*
X109213952Y-67842190D02*
X108306809Y-67539809D01*
X108306809Y-68326000D01*
X107883476Y-69414571D02*
X107883476Y-68809809D01*
X109153476Y-68809809D01*
X107943952Y-69777428D02*
X107883476Y-69958857D01*
X107883476Y-70261238D01*
X107943952Y-70382190D01*
X108004428Y-70442666D01*
X108125380Y-70503142D01*
X108246333Y-70503142D01*
X108367285Y-70442666D01*
X108427761Y-70382190D01*
X108488238Y-70261238D01*
X108548714Y-70019333D01*
X108609190Y-69898380D01*
X108669666Y-69837904D01*
X108790619Y-69777428D01*
X108911571Y-69777428D01*
X109032523Y-69837904D01*
X109093000Y-69898380D01*
X109153476Y-70019333D01*
X109153476Y-70321714D01*
X109093000Y-70503142D01*
X109032523Y-70986952D02*
X109093000Y-71047428D01*
X109153476Y-71168380D01*
X109153476Y-71470761D01*
X109093000Y-71591714D01*
X109032523Y-71652190D01*
X108911571Y-71712666D01*
X108790619Y-71712666D01*
X108609190Y-71652190D01*
X107883476Y-70926476D01*
X107883476Y-71712666D01*
X108730142Y-72801238D02*
X107883476Y-72801238D01*
X109213952Y-72498857D02*
X108306809Y-72196476D01*
X108306809Y-72982666D01*
X109153476Y-74071238D02*
X109153476Y-73466476D01*
X108548714Y-73406000D01*
X108609190Y-73466476D01*
X108669666Y-73587428D01*
X108669666Y-73889809D01*
X108609190Y-74010761D01*
X108548714Y-74071238D01*
X108427761Y-74131714D01*
X108125380Y-74131714D01*
X108004428Y-74071238D01*
X107943952Y-74010761D01*
X107883476Y-73889809D01*
X107883476Y-73587428D01*
X107943952Y-73466476D01*
X108004428Y-73406000D01*
X82737476Y-64999809D02*
X82737476Y-65846476D01*
X81467476Y-65302190D01*
X82314142Y-66874571D02*
X81467476Y-66874571D01*
X82797952Y-66572190D02*
X81890809Y-66269809D01*
X81890809Y-67056000D01*
X81467476Y-68144571D02*
X81467476Y-67539809D01*
X82737476Y-67539809D01*
X81527952Y-68507428D02*
X81467476Y-68688857D01*
X81467476Y-68991238D01*
X81527952Y-69112190D01*
X81588428Y-69172666D01*
X81709380Y-69233142D01*
X81830333Y-69233142D01*
X81951285Y-69172666D01*
X82011761Y-69112190D01*
X82072238Y-68991238D01*
X82132714Y-68749333D01*
X82193190Y-68628380D01*
X82253666Y-68567904D01*
X82374619Y-68507428D01*
X82495571Y-68507428D01*
X82616523Y-68567904D01*
X82677000Y-68628380D01*
X82737476Y-68749333D01*
X82737476Y-69051714D01*
X82677000Y-69233142D01*
X82737476Y-70382190D02*
X82737476Y-69777428D01*
X82132714Y-69716952D01*
X82193190Y-69777428D01*
X82253666Y-69898380D01*
X82253666Y-70200761D01*
X82193190Y-70321714D01*
X82132714Y-70382190D01*
X82011761Y-70442666D01*
X81709380Y-70442666D01*
X81588428Y-70382190D01*
X81527952Y-70321714D01*
X81467476Y-70200761D01*
X81467476Y-69898380D01*
X81527952Y-69777428D01*
X81588428Y-69716952D01*
X82737476Y-70866000D02*
X82737476Y-71712666D01*
X81467476Y-71168380D01*
X82737476Y-72075523D02*
X82737476Y-72861714D01*
X82253666Y-72438380D01*
X82253666Y-72619809D01*
X82193190Y-72740761D01*
X82132714Y-72801238D01*
X82011761Y-72861714D01*
X81709380Y-72861714D01*
X81588428Y-72801238D01*
X81527952Y-72740761D01*
X81467476Y-72619809D01*
X81467476Y-72256952D01*
X81527952Y-72136000D01*
X81588428Y-72075523D01*
X69402476Y-66269809D02*
X69402476Y-67116476D01*
X68132476Y-66572190D01*
X68979142Y-68144571D02*
X68132476Y-68144571D01*
X69462952Y-67842190D02*
X68555809Y-67539809D01*
X68555809Y-68326000D01*
X68132476Y-69414571D02*
X68132476Y-68809809D01*
X69402476Y-68809809D01*
X68192952Y-69777428D02*
X68132476Y-69958857D01*
X68132476Y-70261238D01*
X68192952Y-70382190D01*
X68253428Y-70442666D01*
X68374380Y-70503142D01*
X68495333Y-70503142D01*
X68616285Y-70442666D01*
X68676761Y-70382190D01*
X68737238Y-70261238D01*
X68797714Y-70019333D01*
X68858190Y-69898380D01*
X68918666Y-69837904D01*
X69039619Y-69777428D01*
X69160571Y-69777428D01*
X69281523Y-69837904D01*
X69342000Y-69898380D01*
X69402476Y-70019333D01*
X69402476Y-70321714D01*
X69342000Y-70503142D01*
X69402476Y-71652190D02*
X69402476Y-71047428D01*
X68797714Y-70986952D01*
X68858190Y-71047428D01*
X68918666Y-71168380D01*
X68918666Y-71470761D01*
X68858190Y-71591714D01*
X68797714Y-71652190D01*
X68676761Y-71712666D01*
X68374380Y-71712666D01*
X68253428Y-71652190D01*
X68192952Y-71591714D01*
X68132476Y-71470761D01*
X68132476Y-71168380D01*
X68192952Y-71047428D01*
X68253428Y-70986952D01*
X69402476Y-72136000D02*
X69402476Y-72982666D01*
X68132476Y-72438380D01*
X69402476Y-73345523D02*
X69402476Y-74131714D01*
X68918666Y-73708380D01*
X68918666Y-73889809D01*
X68858190Y-74010761D01*
X68797714Y-74071238D01*
X68676761Y-74131714D01*
X68374380Y-74131714D01*
X68253428Y-74071238D01*
X68192952Y-74010761D01*
X68132476Y-73889809D01*
X68132476Y-73526952D01*
X68192952Y-73406000D01*
X68253428Y-73345523D01*
X183442428Y-54782357D02*
X184603571Y-54782357D01*
X184023000Y-55362928D02*
X184023000Y-54201785D01*
X185782857Y-91586957D02*
X185782857Y-92094957D01*
X184984571Y-92312671D02*
X184984571Y-91586957D01*
X186508571Y-91586957D01*
X186508571Y-92312671D01*
X185129714Y-93836671D02*
X185057142Y-93764100D01*
X184984571Y-93546385D01*
X184984571Y-93401242D01*
X185057142Y-93183528D01*
X185202285Y-93038385D01*
X185347428Y-92965814D01*
X185637714Y-92893242D01*
X185855428Y-92893242D01*
X186145714Y-92965814D01*
X186290857Y-93038385D01*
X186436000Y-93183528D01*
X186508571Y-93401242D01*
X186508571Y-93546385D01*
X186436000Y-93764100D01*
X186363428Y-93836671D01*
X184984571Y-95288100D02*
X184984571Y-94417242D01*
X184984571Y-94852671D02*
X186508571Y-94852671D01*
X186290857Y-94707528D01*
X186145714Y-94562385D01*
X186073142Y-94417242D01*
X185855428Y-96158957D02*
X185928000Y-96013814D01*
X186000571Y-95941242D01*
X186145714Y-95868671D01*
X186218285Y-95868671D01*
X186363428Y-95941242D01*
X186436000Y-96013814D01*
X186508571Y-96158957D01*
X186508571Y-96449242D01*
X186436000Y-96594385D01*
X186363428Y-96666957D01*
X186218285Y-96739528D01*
X186145714Y-96739528D01*
X186000571Y-96666957D01*
X185928000Y-96594385D01*
X185855428Y-96449242D01*
X185855428Y-96158957D01*
X185782857Y-96013814D01*
X185710285Y-95941242D01*
X185565142Y-95868671D01*
X185274857Y-95868671D01*
X185129714Y-95941242D01*
X185057142Y-96013814D01*
X184984571Y-96158957D01*
X184984571Y-96449242D01*
X185057142Y-96594385D01*
X185129714Y-96666957D01*
X185274857Y-96739528D01*
X185565142Y-96739528D01*
X185710285Y-96666957D01*
X185782857Y-96594385D01*
X185855428Y-96449242D01*
X186508571Y-97247528D02*
X186508571Y-98190957D01*
X185928000Y-97682957D01*
X185928000Y-97900671D01*
X185855428Y-98045814D01*
X185782857Y-98118385D01*
X185637714Y-98190957D01*
X185274857Y-98190957D01*
X185129714Y-98118385D01*
X185057142Y-98045814D01*
X184984571Y-97900671D01*
X184984571Y-97465242D01*
X185057142Y-97320100D01*
X185129714Y-97247528D01*
X186000571Y-99497242D02*
X184984571Y-99497242D01*
X186581142Y-99134385D02*
X185492571Y-98771528D01*
X185492571Y-99714957D01*
X185565142Y-100295528D02*
X185565142Y-101456671D01*
X186508571Y-102037242D02*
X184984571Y-103053242D01*
X186508571Y-103053242D02*
X184984571Y-102037242D01*
X186508571Y-103416100D02*
X186508571Y-104286957D01*
X184984571Y-103851528D02*
X186508571Y-103851528D01*
X185565142Y-104794957D02*
X185565142Y-105956100D01*
X184984571Y-106681814D02*
X186508571Y-106681814D01*
X184984571Y-107407528D02*
X186508571Y-107407528D01*
X186508571Y-107770385D01*
X186436000Y-107988100D01*
X186290857Y-108133242D01*
X186145714Y-108205814D01*
X185855428Y-108278385D01*
X185637714Y-108278385D01*
X185347428Y-108205814D01*
X185202285Y-108133242D01*
X185057142Y-107988100D01*
X184984571Y-107770385D01*
X184984571Y-107407528D01*
X185782857Y-108931528D02*
X185782857Y-109439528D01*
X184984571Y-109657242D02*
X184984571Y-108931528D01*
X186508571Y-108931528D01*
X186508571Y-109657242D01*
X184984571Y-111471528D02*
X186508571Y-111471528D01*
X185928000Y-111471528D02*
X186000571Y-111616671D01*
X186000571Y-111906957D01*
X185928000Y-112052100D01*
X185855428Y-112124671D01*
X185710285Y-112197242D01*
X185274857Y-112197242D01*
X185129714Y-112124671D01*
X185057142Y-112052100D01*
X184984571Y-111906957D01*
X184984571Y-111616671D01*
X185057142Y-111471528D01*
X184984571Y-113503528D02*
X185782857Y-113503528D01*
X185928000Y-113430957D01*
X186000571Y-113285814D01*
X186000571Y-112995528D01*
X185928000Y-112850385D01*
X185057142Y-113503528D02*
X184984571Y-113358385D01*
X184984571Y-112995528D01*
X185057142Y-112850385D01*
X185202285Y-112777814D01*
X185347428Y-112777814D01*
X185492571Y-112850385D01*
X185565142Y-112995528D01*
X185565142Y-113358385D01*
X185637714Y-113503528D01*
X185057142Y-114156671D02*
X184984571Y-114301814D01*
X184984571Y-114592100D01*
X185057142Y-114737242D01*
X185202285Y-114809814D01*
X185274857Y-114809814D01*
X185420000Y-114737242D01*
X185492571Y-114592100D01*
X185492571Y-114374385D01*
X185565142Y-114229242D01*
X185710285Y-114156671D01*
X185782857Y-114156671D01*
X185928000Y-114229242D01*
X186000571Y-114374385D01*
X186000571Y-114592100D01*
X185928000Y-114737242D01*
X185057142Y-116043528D02*
X184984571Y-115898385D01*
X184984571Y-115608100D01*
X185057142Y-115462957D01*
X185202285Y-115390385D01*
X185782857Y-115390385D01*
X185928000Y-115462957D01*
X186000571Y-115608100D01*
X186000571Y-115898385D01*
X185928000Y-116043528D01*
X185782857Y-116116100D01*
X185637714Y-116116100D01*
X185492571Y-115390385D01*
X184984571Y-117422385D02*
X186508571Y-117422385D01*
X185057142Y-117422385D02*
X184984571Y-117277242D01*
X184984571Y-116986957D01*
X185057142Y-116841814D01*
X185129714Y-116769242D01*
X185274857Y-116696671D01*
X185710285Y-116696671D01*
X185855428Y-116769242D01*
X185928000Y-116841814D01*
X186000571Y-116986957D01*
X186000571Y-117277242D01*
X185928000Y-117422385D01*
X184984571Y-119526957D02*
X185057142Y-119381814D01*
X185129714Y-119309242D01*
X185274857Y-119236671D01*
X185710285Y-119236671D01*
X185855428Y-119309242D01*
X185928000Y-119381814D01*
X186000571Y-119526957D01*
X186000571Y-119744671D01*
X185928000Y-119889814D01*
X185855428Y-119962385D01*
X185710285Y-120034957D01*
X185274857Y-120034957D01*
X185129714Y-119962385D01*
X185057142Y-119889814D01*
X184984571Y-119744671D01*
X184984571Y-119526957D01*
X186000571Y-120688100D02*
X184984571Y-120688100D01*
X185855428Y-120688100D02*
X185928000Y-120760671D01*
X186000571Y-120905814D01*
X186000571Y-121123528D01*
X185928000Y-121268671D01*
X185782857Y-121341242D01*
X184984571Y-121341242D01*
X184984571Y-123228100D02*
X186000571Y-123228100D01*
X185710285Y-123228100D02*
X185855428Y-123300671D01*
X185928000Y-123373242D01*
X186000571Y-123518385D01*
X186000571Y-123663528D01*
X185057142Y-124752100D02*
X184984571Y-124606957D01*
X184984571Y-124316671D01*
X185057142Y-124171528D01*
X185202285Y-124098957D01*
X185782857Y-124098957D01*
X185928000Y-124171528D01*
X186000571Y-124316671D01*
X186000571Y-124606957D01*
X185928000Y-124752100D01*
X185782857Y-124824671D01*
X185637714Y-124824671D01*
X185492571Y-124098957D01*
X186000571Y-125332671D02*
X184984571Y-125695528D01*
X186000571Y-126058385D01*
X186508571Y-128090385D02*
X186508571Y-128235528D01*
X186436000Y-128380671D01*
X186363428Y-128453242D01*
X186218285Y-128525814D01*
X185928000Y-128598385D01*
X185565142Y-128598385D01*
X185274857Y-128525814D01*
X185129714Y-128453242D01*
X185057142Y-128380671D01*
X184984571Y-128235528D01*
X184984571Y-128090385D01*
X185057142Y-127945242D01*
X185129714Y-127872671D01*
X185274857Y-127800100D01*
X185565142Y-127727528D01*
X185928000Y-127727528D01*
X186218285Y-127800100D01*
X186363428Y-127872671D01*
X186436000Y-127945242D01*
X186508571Y-128090385D01*
X186000571Y-129904671D02*
X184984571Y-129904671D01*
X186581142Y-129541814D02*
X185492571Y-129178957D01*
X185492571Y-130122385D01*
X181864000Y-92022385D02*
X181936571Y-91949814D01*
X182154285Y-91804671D01*
X182299428Y-91732100D01*
X182517142Y-91659528D01*
X182880000Y-91586957D01*
X183170285Y-91586957D01*
X183533142Y-91659528D01*
X183750857Y-91732100D01*
X183896000Y-91804671D01*
X184113714Y-91949814D01*
X184186285Y-92022385D01*
X182517142Y-93256100D02*
X182444571Y-93110957D01*
X182444571Y-92820671D01*
X182517142Y-92675528D01*
X182589714Y-92602957D01*
X182734857Y-92530385D01*
X183170285Y-92530385D01*
X183315428Y-92602957D01*
X183388000Y-92675528D01*
X183460571Y-92820671D01*
X183460571Y-93110957D01*
X183388000Y-93256100D01*
X181864000Y-93764100D02*
X181936571Y-93836671D01*
X182154285Y-93981814D01*
X182299428Y-94054385D01*
X182517142Y-94126957D01*
X182880000Y-94199528D01*
X183170285Y-94199528D01*
X183533142Y-94126957D01*
X183750857Y-94054385D01*
X183896000Y-93981814D01*
X184113714Y-93836671D01*
X184186285Y-93764100D01*
X183823428Y-96013814D02*
X183896000Y-96086385D01*
X183968571Y-96231528D01*
X183968571Y-96594385D01*
X183896000Y-96739528D01*
X183823428Y-96812100D01*
X183678285Y-96884671D01*
X183533142Y-96884671D01*
X183315428Y-96812100D01*
X182444571Y-95941242D01*
X182444571Y-96884671D01*
X183968571Y-97828100D02*
X183968571Y-97973242D01*
X183896000Y-98118385D01*
X183823428Y-98190957D01*
X183678285Y-98263528D01*
X183388000Y-98336100D01*
X183025142Y-98336100D01*
X182734857Y-98263528D01*
X182589714Y-98190957D01*
X182517142Y-98118385D01*
X182444571Y-97973242D01*
X182444571Y-97828100D01*
X182517142Y-97682957D01*
X182589714Y-97610385D01*
X182734857Y-97537814D01*
X183025142Y-97465242D01*
X183388000Y-97465242D01*
X183678285Y-97537814D01*
X183823428Y-97610385D01*
X183896000Y-97682957D01*
X183968571Y-97828100D01*
X182444571Y-99787528D02*
X182444571Y-98916671D01*
X182444571Y-99352100D02*
X183968571Y-99352100D01*
X183750857Y-99206957D01*
X183605714Y-99061814D01*
X183533142Y-98916671D01*
X183968571Y-100295528D02*
X183968571Y-101311528D01*
X182444571Y-100658385D01*
X183968571Y-102835528D02*
X183968571Y-103706385D01*
X182444571Y-103270957D02*
X183968571Y-103270957D01*
X182444571Y-104214385D02*
X183968571Y-104214385D01*
X182444571Y-104867528D02*
X183242857Y-104867528D01*
X183388000Y-104794957D01*
X183460571Y-104649814D01*
X183460571Y-104432100D01*
X183388000Y-104286957D01*
X183315428Y-104214385D01*
X182517142Y-106173814D02*
X182444571Y-106028671D01*
X182444571Y-105738385D01*
X182517142Y-105593242D01*
X182662285Y-105520671D01*
X183242857Y-105520671D01*
X183388000Y-105593242D01*
X183460571Y-105738385D01*
X183460571Y-106028671D01*
X183388000Y-106173814D01*
X183242857Y-106246385D01*
X183097714Y-106246385D01*
X182952571Y-105520671D01*
X183896000Y-108858957D02*
X183968571Y-108713814D01*
X183968571Y-108496100D01*
X183896000Y-108278385D01*
X183750857Y-108133242D01*
X183605714Y-108060671D01*
X183315428Y-107988100D01*
X183097714Y-107988100D01*
X182807428Y-108060671D01*
X182662285Y-108133242D01*
X182517142Y-108278385D01*
X182444571Y-108496100D01*
X182444571Y-108641242D01*
X182517142Y-108858957D01*
X182589714Y-108931528D01*
X183097714Y-108931528D01*
X183097714Y-108641242D01*
X182444571Y-109802385D02*
X182517142Y-109657242D01*
X182662285Y-109584671D01*
X183968571Y-109584671D01*
X182444571Y-110382957D02*
X183460571Y-110382957D01*
X183968571Y-110382957D02*
X183896000Y-110310385D01*
X183823428Y-110382957D01*
X183896000Y-110455528D01*
X183968571Y-110382957D01*
X183823428Y-110382957D01*
X183460571Y-110890957D02*
X183460571Y-111471528D01*
X183968571Y-111108671D02*
X182662285Y-111108671D01*
X182517142Y-111181242D01*
X182444571Y-111326385D01*
X182444571Y-111471528D01*
X182517142Y-112632671D02*
X182444571Y-112487528D01*
X182444571Y-112197242D01*
X182517142Y-112052100D01*
X182589714Y-111979528D01*
X182734857Y-111906957D01*
X183170285Y-111906957D01*
X183315428Y-111979528D01*
X183388000Y-112052100D01*
X183460571Y-112197242D01*
X183460571Y-112487528D01*
X183388000Y-112632671D01*
X182444571Y-113285814D02*
X183968571Y-113285814D01*
X182444571Y-113938957D02*
X183242857Y-113938957D01*
X183388000Y-113866385D01*
X183460571Y-113721242D01*
X183460571Y-113503528D01*
X183388000Y-113358385D01*
X183315428Y-113285814D01*
X183968571Y-115680671D02*
X182444571Y-116043528D01*
X183533142Y-116333814D01*
X182444571Y-116624100D01*
X183968571Y-116986957D01*
X182444571Y-117785242D02*
X182517142Y-117640100D01*
X182589714Y-117567528D01*
X182734857Y-117494957D01*
X183170285Y-117494957D01*
X183315428Y-117567528D01*
X183388000Y-117640100D01*
X183460571Y-117785242D01*
X183460571Y-118002957D01*
X183388000Y-118148100D01*
X183315428Y-118220671D01*
X183170285Y-118293242D01*
X182734857Y-118293242D01*
X182589714Y-118220671D01*
X182517142Y-118148100D01*
X182444571Y-118002957D01*
X182444571Y-117785242D01*
X182444571Y-118946385D02*
X183460571Y-118946385D01*
X183170285Y-118946385D02*
X183315428Y-119018957D01*
X183388000Y-119091528D01*
X183460571Y-119236671D01*
X183460571Y-119381814D01*
X182444571Y-119889814D02*
X183968571Y-119889814D01*
X183025142Y-120034957D02*
X182444571Y-120470385D01*
X183460571Y-120470385D02*
X182880000Y-119889814D01*
X182517142Y-121050957D02*
X182444571Y-121196100D01*
X182444571Y-121486385D01*
X182517142Y-121631528D01*
X182662285Y-121704100D01*
X182734857Y-121704100D01*
X182880000Y-121631528D01*
X182952571Y-121486385D01*
X182952571Y-121268671D01*
X183025142Y-121123528D01*
X183170285Y-121050957D01*
X183242857Y-121050957D01*
X183388000Y-121123528D01*
X183460571Y-121268671D01*
X183460571Y-121486385D01*
X183388000Y-121631528D01*
X180920571Y-92240100D02*
X179686857Y-92240100D01*
X179541714Y-92167528D01*
X179469142Y-92094957D01*
X179396571Y-91949814D01*
X179396571Y-91732100D01*
X179469142Y-91586957D01*
X179977142Y-92240100D02*
X179904571Y-92094957D01*
X179904571Y-91804671D01*
X179977142Y-91659528D01*
X180049714Y-91586957D01*
X180194857Y-91514385D01*
X180630285Y-91514385D01*
X180775428Y-91586957D01*
X180848000Y-91659528D01*
X180920571Y-91804671D01*
X180920571Y-92094957D01*
X180848000Y-92240100D01*
X179904571Y-92965814D02*
X180920571Y-92965814D01*
X181428571Y-92965814D02*
X181356000Y-92893242D01*
X181283428Y-92965814D01*
X181356000Y-93038385D01*
X181428571Y-92965814D01*
X181283428Y-92965814D01*
X180920571Y-93473814D02*
X180920571Y-94054385D01*
X181428571Y-93691528D02*
X180122285Y-93691528D01*
X179977142Y-93764100D01*
X179904571Y-93909242D01*
X179904571Y-94054385D01*
X179904571Y-94562385D02*
X181428571Y-94562385D01*
X179904571Y-95215528D02*
X180702857Y-95215528D01*
X180848000Y-95142957D01*
X180920571Y-94997814D01*
X180920571Y-94780100D01*
X180848000Y-94634957D01*
X180775428Y-94562385D01*
X180920571Y-96594385D02*
X179904571Y-96594385D01*
X180920571Y-95941242D02*
X180122285Y-95941242D01*
X179977142Y-96013814D01*
X179904571Y-96158957D01*
X179904571Y-96376671D01*
X179977142Y-96521814D01*
X180049714Y-96594385D01*
X179904571Y-97320100D02*
X181428571Y-97320100D01*
X180848000Y-97320100D02*
X180920571Y-97465242D01*
X180920571Y-97755528D01*
X180848000Y-97900671D01*
X180775428Y-97973242D01*
X180630285Y-98045814D01*
X180194857Y-98045814D01*
X180049714Y-97973242D01*
X179977142Y-97900671D01*
X179904571Y-97755528D01*
X179904571Y-97465242D01*
X179977142Y-97320100D01*
X180049714Y-98698957D02*
X179977142Y-98771528D01*
X179904571Y-98698957D01*
X179977142Y-98626385D01*
X180049714Y-98698957D01*
X179904571Y-98698957D01*
X179977142Y-100077814D02*
X179904571Y-99932671D01*
X179904571Y-99642385D01*
X179977142Y-99497242D01*
X180049714Y-99424671D01*
X180194857Y-99352100D01*
X180630285Y-99352100D01*
X180775428Y-99424671D01*
X180848000Y-99497242D01*
X180920571Y-99642385D01*
X180920571Y-99932671D01*
X180848000Y-100077814D01*
X179904571Y-100948671D02*
X179977142Y-100803528D01*
X180049714Y-100730957D01*
X180194857Y-100658385D01*
X180630285Y-100658385D01*
X180775428Y-100730957D01*
X180848000Y-100803528D01*
X180920571Y-100948671D01*
X180920571Y-101166385D01*
X180848000Y-101311528D01*
X180775428Y-101384100D01*
X180630285Y-101456671D01*
X180194857Y-101456671D01*
X180049714Y-101384100D01*
X179977142Y-101311528D01*
X179904571Y-101166385D01*
X179904571Y-100948671D01*
X179904571Y-102109814D02*
X180920571Y-102109814D01*
X180775428Y-102109814D02*
X180848000Y-102182385D01*
X180920571Y-102327528D01*
X180920571Y-102545242D01*
X180848000Y-102690385D01*
X180702857Y-102762957D01*
X179904571Y-102762957D01*
X180702857Y-102762957D02*
X180848000Y-102835528D01*
X180920571Y-102980671D01*
X180920571Y-103198385D01*
X180848000Y-103343528D01*
X180702857Y-103416100D01*
X179904571Y-103416100D01*
X181501142Y-105230385D02*
X179541714Y-103924100D01*
X179904571Y-105738385D02*
X180920571Y-105738385D01*
X180775428Y-105738385D02*
X180848000Y-105810957D01*
X180920571Y-105956100D01*
X180920571Y-106173814D01*
X180848000Y-106318957D01*
X180702857Y-106391528D01*
X179904571Y-106391528D01*
X180702857Y-106391528D02*
X180848000Y-106464100D01*
X180920571Y-106609242D01*
X180920571Y-106826957D01*
X180848000Y-106972100D01*
X180702857Y-107044671D01*
X179904571Y-107044671D01*
X180920571Y-108423528D02*
X179686857Y-108423528D01*
X179541714Y-108350957D01*
X179469142Y-108278385D01*
X179396571Y-108133242D01*
X179396571Y-107915528D01*
X179469142Y-107770385D01*
X179977142Y-108423528D02*
X179904571Y-108278385D01*
X179904571Y-107988100D01*
X179977142Y-107842957D01*
X180049714Y-107770385D01*
X180194857Y-107697814D01*
X180630285Y-107697814D01*
X180775428Y-107770385D01*
X180848000Y-107842957D01*
X180920571Y-107988100D01*
X180920571Y-108278385D01*
X180848000Y-108423528D01*
X179904571Y-109366957D02*
X179977142Y-109221814D01*
X180049714Y-109149242D01*
X180194857Y-109076671D01*
X180630285Y-109076671D01*
X180775428Y-109149242D01*
X180848000Y-109221814D01*
X180920571Y-109366957D01*
X180920571Y-109584671D01*
X180848000Y-109729814D01*
X180775428Y-109802385D01*
X180630285Y-109874957D01*
X180194857Y-109874957D01*
X180049714Y-109802385D01*
X179977142Y-109729814D01*
X179904571Y-109584671D01*
X179904571Y-109366957D01*
X179977142Y-111108671D02*
X179904571Y-110963528D01*
X179904571Y-110673242D01*
X179977142Y-110528100D01*
X180122285Y-110455528D01*
X180702857Y-110455528D01*
X180848000Y-110528100D01*
X180920571Y-110673242D01*
X180920571Y-110963528D01*
X180848000Y-111108671D01*
X180702857Y-111181242D01*
X180557714Y-111181242D01*
X180412571Y-110455528D01*
X180920571Y-112487528D02*
X179686857Y-112487528D01*
X179541714Y-112414957D01*
X179469142Y-112342385D01*
X179396571Y-112197242D01*
X179396571Y-111979528D01*
X179469142Y-111834385D01*
X179977142Y-112487528D02*
X179904571Y-112342385D01*
X179904571Y-112052100D01*
X179977142Y-111906957D01*
X180049714Y-111834385D01*
X180194857Y-111761814D01*
X180630285Y-111761814D01*
X180775428Y-111834385D01*
X180848000Y-111906957D01*
X180920571Y-112052100D01*
X180920571Y-112342385D01*
X180848000Y-112487528D01*
X179977142Y-113793814D02*
X179904571Y-113648671D01*
X179904571Y-113358385D01*
X179977142Y-113213242D01*
X180122285Y-113140671D01*
X180702857Y-113140671D01*
X180848000Y-113213242D01*
X180920571Y-113358385D01*
X180920571Y-113648671D01*
X180848000Y-113793814D01*
X180702857Y-113866385D01*
X180557714Y-113866385D01*
X180412571Y-113140671D01*
X179904571Y-114737242D02*
X179977142Y-114592100D01*
X180122285Y-114519528D01*
X181428571Y-114519528D01*
X181501142Y-116406385D02*
X179541714Y-115100100D01*
X180702857Y-116914385D02*
X180702857Y-117422385D01*
X179904571Y-117640100D02*
X179904571Y-116914385D01*
X181428571Y-116914385D01*
X181428571Y-117640100D01*
X180049714Y-119164100D02*
X179977142Y-119091528D01*
X179904571Y-118873814D01*
X179904571Y-118728671D01*
X179977142Y-118510957D01*
X180122285Y-118365814D01*
X180267428Y-118293242D01*
X180557714Y-118220671D01*
X180775428Y-118220671D01*
X181065714Y-118293242D01*
X181210857Y-118365814D01*
X181356000Y-118510957D01*
X181428571Y-118728671D01*
X181428571Y-118873814D01*
X181356000Y-119091528D01*
X181283428Y-119164100D01*
X179904571Y-120615528D02*
X179904571Y-119744671D01*
X179904571Y-120180100D02*
X181428571Y-120180100D01*
X181210857Y-120034957D01*
X181065714Y-119889814D01*
X180993142Y-119744671D01*
X180775428Y-121486385D02*
X180848000Y-121341242D01*
X180920571Y-121268671D01*
X181065714Y-121196100D01*
X181138285Y-121196100D01*
X181283428Y-121268671D01*
X181356000Y-121341242D01*
X181428571Y-121486385D01*
X181428571Y-121776671D01*
X181356000Y-121921814D01*
X181283428Y-121994385D01*
X181138285Y-122066957D01*
X181065714Y-122066957D01*
X180920571Y-121994385D01*
X180848000Y-121921814D01*
X180775428Y-121776671D01*
X180775428Y-121486385D01*
X180702857Y-121341242D01*
X180630285Y-121268671D01*
X180485142Y-121196100D01*
X180194857Y-121196100D01*
X180049714Y-121268671D01*
X179977142Y-121341242D01*
X179904571Y-121486385D01*
X179904571Y-121776671D01*
X179977142Y-121921814D01*
X180049714Y-121994385D01*
X180194857Y-122066957D01*
X180485142Y-122066957D01*
X180630285Y-121994385D01*
X180702857Y-121921814D01*
X180775428Y-121776671D01*
X181428571Y-122574957D02*
X181428571Y-123518385D01*
X180848000Y-123010385D01*
X180848000Y-123228100D01*
X180775428Y-123373242D01*
X180702857Y-123445814D01*
X180557714Y-123518385D01*
X180194857Y-123518385D01*
X180049714Y-123445814D01*
X179977142Y-123373242D01*
X179904571Y-123228100D01*
X179904571Y-122792671D01*
X179977142Y-122647528D01*
X180049714Y-122574957D01*
X180920571Y-124824671D02*
X179904571Y-124824671D01*
X181501142Y-124461814D02*
X180412571Y-124098957D01*
X180412571Y-125042385D01*
X180485142Y-125622957D02*
X180485142Y-126784100D01*
X181428571Y-127364671D02*
X179904571Y-128380671D01*
X181428571Y-128380671D02*
X179904571Y-127364671D01*
X181428571Y-128743528D02*
X181428571Y-129614385D01*
X179904571Y-129178957D02*
X181428571Y-129178957D01*
X180485142Y-130122385D02*
X180485142Y-131283528D01*
X179904571Y-132009242D02*
X181428571Y-132009242D01*
X179904571Y-132734957D02*
X181428571Y-132734957D01*
X181428571Y-133097814D01*
X181356000Y-133315528D01*
X181210857Y-133460671D01*
X181065714Y-133533242D01*
X180775428Y-133605814D01*
X180557714Y-133605814D01*
X180267428Y-133533242D01*
X180122285Y-133460671D01*
X179977142Y-133315528D01*
X179904571Y-133097814D01*
X179904571Y-132734957D01*
X180702857Y-134258957D02*
X180702857Y-134766957D01*
X179904571Y-134984671D02*
X179904571Y-134258957D01*
X181428571Y-134258957D01*
X181428571Y-134984671D01*
X42611523Y-123895757D02*
X42611523Y-124500519D01*
X43216285Y-124560995D01*
X43155809Y-124500519D01*
X43095333Y-124379566D01*
X43095333Y-124077185D01*
X43155809Y-123956233D01*
X43216285Y-123895757D01*
X43337238Y-123835280D01*
X43639619Y-123835280D01*
X43760571Y-123895757D01*
X43821047Y-123956233D01*
X43881523Y-124077185D01*
X43881523Y-124379566D01*
X43821047Y-124500519D01*
X43760571Y-124560995D01*
X42611523Y-123472423D02*
X43881523Y-123049090D01*
X42611523Y-122625757D01*
X42611523Y-120992900D02*
X42611523Y-120750995D01*
X42672000Y-120630042D01*
X42792952Y-120509090D01*
X43034857Y-120448614D01*
X43458190Y-120448614D01*
X43700095Y-120509090D01*
X43821047Y-120630042D01*
X43881523Y-120750995D01*
X43881523Y-120992900D01*
X43821047Y-121113852D01*
X43700095Y-121234804D01*
X43458190Y-121295280D01*
X43034857Y-121295280D01*
X42792952Y-121234804D01*
X42672000Y-121113852D01*
X42611523Y-120992900D01*
X43881523Y-119904328D02*
X42611523Y-119904328D01*
X43881523Y-119178614D01*
X42611523Y-119178614D01*
X43881523Y-117606233D02*
X42611523Y-117606233D01*
X43881523Y-117001471D02*
X42611523Y-117001471D01*
X42611523Y-116699090D01*
X42672000Y-116517661D01*
X42792952Y-116396709D01*
X42913904Y-116336233D01*
X43155809Y-116275757D01*
X43337238Y-116275757D01*
X43579142Y-116336233D01*
X43700095Y-116396709D01*
X43821047Y-116517661D01*
X43881523Y-116699090D01*
X43881523Y-117001471D01*
X43216285Y-115731471D02*
X43216285Y-115308138D01*
X43881523Y-115126709D02*
X43881523Y-115731471D01*
X42611523Y-115731471D01*
X42611523Y-115126709D01*
X43881523Y-113614804D02*
X42611523Y-113614804D01*
X42611523Y-113130995D01*
X42672000Y-113010042D01*
X42732476Y-112949566D01*
X42853428Y-112889090D01*
X43034857Y-112889090D01*
X43155809Y-112949566D01*
X43216285Y-113010042D01*
X43276761Y-113130995D01*
X43276761Y-113614804D01*
X43881523Y-112344804D02*
X42611523Y-112344804D01*
X43881523Y-111740042D02*
X42611523Y-111740042D01*
X43881523Y-111014328D01*
X42611523Y-111014328D01*
X42732476Y-109502423D02*
X42672000Y-109441947D01*
X42611523Y-109320995D01*
X42611523Y-109018614D01*
X42672000Y-108897661D01*
X42732476Y-108837185D01*
X42853428Y-108776709D01*
X42974380Y-108776709D01*
X43155809Y-108837185D01*
X43881523Y-109562900D01*
X43881523Y-108776709D01*
X42611523Y-107990519D02*
X42611523Y-107869566D01*
X42672000Y-107748614D01*
X42732476Y-107688138D01*
X42853428Y-107627661D01*
X43095333Y-107567185D01*
X43397714Y-107567185D01*
X43639619Y-107627661D01*
X43760571Y-107688138D01*
X43821047Y-107748614D01*
X43881523Y-107869566D01*
X43881523Y-107990519D01*
X43821047Y-108111471D01*
X43760571Y-108171947D01*
X43639619Y-108232423D01*
X43397714Y-108292900D01*
X43095333Y-108292900D01*
X42853428Y-108232423D01*
X42732476Y-108171947D01*
X42672000Y-108111471D01*
X42611523Y-107990519D01*
X149505004Y-53717976D02*
X149565480Y-53657500D01*
X149686433Y-53597023D01*
X149988814Y-53597023D01*
X150109766Y-53657500D01*
X150170242Y-53717976D01*
X150230719Y-53838928D01*
X150230719Y-53959880D01*
X150170242Y-54141309D01*
X149444528Y-54867023D01*
X150230719Y-54867023D01*
X150775004Y-54383214D02*
X151742623Y-54383214D01*
X152226433Y-53597023D02*
X153012623Y-53597023D01*
X152589290Y-54080833D01*
X152770719Y-54080833D01*
X152891671Y-54141309D01*
X152952147Y-54201785D01*
X153012623Y-54322738D01*
X153012623Y-54625119D01*
X152952147Y-54746071D01*
X152891671Y-54806547D01*
X152770719Y-54867023D01*
X152407861Y-54867023D01*
X152286909Y-54806547D01*
X152226433Y-54746071D01*
X154524528Y-54867023D02*
X154524528Y-53597023D01*
X154524528Y-54201785D02*
X155250242Y-54201785D01*
X155250242Y-54867023D02*
X155250242Y-53597023D01*
X155855004Y-54867023D02*
X155855004Y-53597023D01*
X157366909Y-54806547D02*
X157548338Y-54867023D01*
X157850719Y-54867023D01*
X157971671Y-54806547D01*
X158032147Y-54746071D01*
X158092623Y-54625119D01*
X158092623Y-54504166D01*
X158032147Y-54383214D01*
X157971671Y-54322738D01*
X157850719Y-54262261D01*
X157608814Y-54201785D01*
X157487861Y-54141309D01*
X157427385Y-54080833D01*
X157366909Y-53959880D01*
X157366909Y-53838928D01*
X157427385Y-53717976D01*
X157487861Y-53657500D01*
X157608814Y-53597023D01*
X157911195Y-53597023D01*
X158092623Y-53657500D01*
X158636909Y-54867023D02*
X158636909Y-53597023D01*
X159120719Y-53597023D01*
X159241671Y-53657500D01*
X159302147Y-53717976D01*
X159362623Y-53838928D01*
X159362623Y-54020357D01*
X159302147Y-54141309D01*
X159241671Y-54201785D01*
X159120719Y-54262261D01*
X158636909Y-54262261D01*
X159906909Y-54201785D02*
X160330242Y-54201785D01*
X160511671Y-54867023D02*
X159906909Y-54867023D01*
X159906909Y-53597023D01*
X160511671Y-53597023D01*
X161055957Y-54201785D02*
X161479290Y-54201785D01*
X161660719Y-54867023D02*
X161055957Y-54867023D01*
X161055957Y-53597023D01*
X161660719Y-53597023D01*
X162205004Y-54867023D02*
X162205004Y-53597023D01*
X162507385Y-53597023D01*
X162688814Y-53657500D01*
X162809766Y-53778452D01*
X162870242Y-53899404D01*
X162930719Y-54141309D01*
X162930719Y-54322738D01*
X162870242Y-54564642D01*
X162809766Y-54685595D01*
X162688814Y-54806547D01*
X162507385Y-54867023D01*
X162205004Y-54867023D01*
X150230719Y-49787023D02*
X149505004Y-49787023D01*
X149867861Y-49787023D02*
X149867861Y-48517023D01*
X149746909Y-48698452D01*
X149625957Y-48819404D01*
X149505004Y-48879880D01*
X150775004Y-49303214D02*
X151742623Y-49303214D01*
X152286909Y-48637976D02*
X152347385Y-48577500D01*
X152468338Y-48517023D01*
X152770719Y-48517023D01*
X152891671Y-48577500D01*
X152952147Y-48637976D01*
X153012623Y-48758928D01*
X153012623Y-48879880D01*
X152952147Y-49061309D01*
X152226433Y-49787023D01*
X153012623Y-49787023D01*
X155250242Y-49666071D02*
X155189766Y-49726547D01*
X155008338Y-49787023D01*
X154887385Y-49787023D01*
X154705957Y-49726547D01*
X154585004Y-49605595D01*
X154524528Y-49484642D01*
X154464052Y-49242738D01*
X154464052Y-49061309D01*
X154524528Y-48819404D01*
X154585004Y-48698452D01*
X154705957Y-48577500D01*
X154887385Y-48517023D01*
X155008338Y-48517023D01*
X155189766Y-48577500D01*
X155250242Y-48637976D01*
X156036433Y-48517023D02*
X156278338Y-48517023D01*
X156399290Y-48577500D01*
X156520242Y-48698452D01*
X156580719Y-48940357D01*
X156580719Y-49363690D01*
X156520242Y-49605595D01*
X156399290Y-49726547D01*
X156278338Y-49787023D01*
X156036433Y-49787023D01*
X155915480Y-49726547D01*
X155794528Y-49605595D01*
X155734052Y-49363690D01*
X155734052Y-48940357D01*
X155794528Y-48698452D01*
X155915480Y-48577500D01*
X156036433Y-48517023D01*
X157125004Y-49787023D02*
X157125004Y-48517023D01*
X157548338Y-49424166D01*
X157971671Y-48517023D01*
X157971671Y-49787023D01*
X158576433Y-49787023D02*
X158576433Y-48517023D01*
X159060242Y-48517023D01*
X159181195Y-48577500D01*
X159241671Y-48637976D01*
X159302147Y-48758928D01*
X159302147Y-48940357D01*
X159241671Y-49061309D01*
X159181195Y-49121785D01*
X159060242Y-49182261D01*
X158576433Y-49182261D01*
X159785957Y-49424166D02*
X160390719Y-49424166D01*
X159665004Y-49787023D02*
X160088338Y-48517023D01*
X160511671Y-49787023D01*
X160753576Y-48517023D02*
X161479290Y-48517023D01*
X161116433Y-49787023D02*
X161116433Y-48517023D01*
X142888909Y-117450809D02*
X142767957Y-117390333D01*
X142707480Y-117329857D01*
X142647004Y-117208904D01*
X142647004Y-117148428D01*
X142707480Y-117027476D01*
X142767957Y-116967000D01*
X142888909Y-116906523D01*
X143130814Y-116906523D01*
X143251766Y-116967000D01*
X143312242Y-117027476D01*
X143372719Y-117148428D01*
X143372719Y-117208904D01*
X143312242Y-117329857D01*
X143251766Y-117390333D01*
X143130814Y-117450809D01*
X142888909Y-117450809D01*
X142767957Y-117511285D01*
X142707480Y-117571761D01*
X142647004Y-117692714D01*
X142647004Y-117934619D01*
X142707480Y-118055571D01*
X142767957Y-118116047D01*
X142888909Y-118176523D01*
X143130814Y-118176523D01*
X143251766Y-118116047D01*
X143312242Y-118055571D01*
X143372719Y-117934619D01*
X143372719Y-117692714D01*
X143312242Y-117571761D01*
X143251766Y-117511285D01*
X143130814Y-117450809D01*
X143917004Y-118176523D02*
X143917004Y-116906523D01*
X144642719Y-118176523D02*
X144098433Y-117450809D01*
X144642719Y-116906523D02*
X143917004Y-117632238D01*
X142888909Y-114910809D02*
X142767957Y-114850333D01*
X142707480Y-114789857D01*
X142647004Y-114668904D01*
X142647004Y-114608428D01*
X142707480Y-114487476D01*
X142767957Y-114427000D01*
X142888909Y-114366523D01*
X143130814Y-114366523D01*
X143251766Y-114427000D01*
X143312242Y-114487476D01*
X143372719Y-114608428D01*
X143372719Y-114668904D01*
X143312242Y-114789857D01*
X143251766Y-114850333D01*
X143130814Y-114910809D01*
X142888909Y-114910809D01*
X142767957Y-114971285D01*
X142707480Y-115031761D01*
X142647004Y-115152714D01*
X142647004Y-115394619D01*
X142707480Y-115515571D01*
X142767957Y-115576047D01*
X142888909Y-115636523D01*
X143130814Y-115636523D01*
X143251766Y-115576047D01*
X143312242Y-115515571D01*
X143372719Y-115394619D01*
X143372719Y-115152714D01*
X143312242Y-115031761D01*
X143251766Y-114971285D01*
X143130814Y-114910809D01*
X143917004Y-115636523D02*
X143917004Y-114366523D01*
X144642719Y-115636523D02*
X144098433Y-114910809D01*
X144642719Y-114366523D02*
X143917004Y-115092238D01*
X142647004Y-112733666D02*
X143251766Y-112733666D01*
X142526052Y-113096523D02*
X142949385Y-111826523D01*
X143372719Y-113096523D01*
X144461290Y-113096523D02*
X143735576Y-113096523D01*
X144098433Y-113096523D02*
X144098433Y-111826523D01*
X143977480Y-112007952D01*
X143856528Y-112128904D01*
X143735576Y-112189380D01*
X144884623Y-111826523D02*
X145670814Y-111826523D01*
X145247480Y-112310333D01*
X145428909Y-112310333D01*
X145549861Y-112370809D01*
X145610338Y-112431285D01*
X145670814Y-112552238D01*
X145670814Y-112854619D01*
X145610338Y-112975571D01*
X145549861Y-113036047D01*
X145428909Y-113096523D01*
X145066052Y-113096523D01*
X144945100Y-113036047D01*
X144884623Y-112975571D01*
X142647004Y-110193666D02*
X143251766Y-110193666D01*
X142526052Y-110556523D02*
X142949385Y-109286523D01*
X143372719Y-110556523D01*
X144461290Y-110556523D02*
X143735576Y-110556523D01*
X144098433Y-110556523D02*
X144098433Y-109286523D01*
X143977480Y-109467952D01*
X143856528Y-109588904D01*
X143735576Y-109649380D01*
X145549861Y-109709857D02*
X145549861Y-110556523D01*
X145247480Y-109226047D02*
X144945100Y-110133190D01*
X145731290Y-110133190D01*
X142647004Y-107653666D02*
X143251766Y-107653666D01*
X142526052Y-108016523D02*
X142949385Y-106746523D01*
X143372719Y-108016523D01*
X144461290Y-108016523D02*
X143735576Y-108016523D01*
X144098433Y-108016523D02*
X144098433Y-106746523D01*
X143977480Y-106927952D01*
X143856528Y-107048904D01*
X143735576Y-107109380D01*
X145610338Y-106746523D02*
X145005576Y-106746523D01*
X144945100Y-107351285D01*
X145005576Y-107290809D01*
X145126528Y-107230333D01*
X145428909Y-107230333D01*
X145549861Y-107290809D01*
X145610338Y-107351285D01*
X145670814Y-107472238D01*
X145670814Y-107774619D01*
X145610338Y-107895571D01*
X145549861Y-107956047D01*
X145428909Y-108016523D01*
X145126528Y-108016523D01*
X145005576Y-107956047D01*
X144945100Y-107895571D01*
X142647004Y-105113666D02*
X143251766Y-105113666D01*
X142526052Y-105476523D02*
X142949385Y-104206523D01*
X143372719Y-105476523D01*
X144461290Y-105476523D02*
X143735576Y-105476523D01*
X144098433Y-105476523D02*
X144098433Y-104206523D01*
X143977480Y-104387952D01*
X143856528Y-104508904D01*
X143735576Y-104569380D01*
X145549861Y-104206523D02*
X145307957Y-104206523D01*
X145187004Y-104267000D01*
X145126528Y-104327476D01*
X145005576Y-104508904D01*
X144945100Y-104750809D01*
X144945100Y-105234619D01*
X145005576Y-105355571D01*
X145066052Y-105416047D01*
X145187004Y-105476523D01*
X145428909Y-105476523D01*
X145549861Y-105416047D01*
X145610338Y-105355571D01*
X145670814Y-105234619D01*
X145670814Y-104932238D01*
X145610338Y-104811285D01*
X145549861Y-104750809D01*
X145428909Y-104690333D01*
X145187004Y-104690333D01*
X145066052Y-104750809D01*
X145005576Y-104811285D01*
X144945100Y-104932238D01*
X142707480Y-120051285D02*
X143130814Y-120051285D01*
X143312242Y-120716523D02*
X142707480Y-120716523D01*
X142707480Y-119446523D01*
X143312242Y-119446523D01*
X143856528Y-120716523D02*
X143856528Y-119446523D01*
X144582242Y-120716523D01*
X144582242Y-119446523D01*
X145126528Y-120353666D02*
X145731290Y-120353666D01*
X145005576Y-120716523D02*
X145428909Y-119446523D01*
X145852242Y-120716523D01*
X142586528Y-121986523D02*
X142888909Y-123256523D01*
X143130814Y-122349380D01*
X143372719Y-123256523D01*
X143675100Y-121986523D01*
X144884623Y-123256523D02*
X144461290Y-122651761D01*
X144158909Y-123256523D02*
X144158909Y-121986523D01*
X144642719Y-121986523D01*
X144763671Y-122047000D01*
X144824147Y-122107476D01*
X144884623Y-122228428D01*
X144884623Y-122409857D01*
X144824147Y-122530809D01*
X144763671Y-122591285D01*
X144642719Y-122651761D01*
X144158909Y-122651761D01*
X50318004Y-119591666D02*
X50922766Y-119591666D01*
X50197052Y-119954523D02*
X50620385Y-118684523D01*
X51043719Y-119954523D01*
X52011338Y-119107857D02*
X52011338Y-119954523D01*
X51708957Y-118624047D02*
X51406576Y-119531190D01*
X52192766Y-119531190D01*
X50318004Y-117051666D02*
X50922766Y-117051666D01*
X50197052Y-117414523D02*
X50620385Y-116144523D01*
X51043719Y-117414523D01*
X52071814Y-116144523D02*
X51467052Y-116144523D01*
X51406576Y-116749285D01*
X51467052Y-116688809D01*
X51588004Y-116628333D01*
X51890385Y-116628333D01*
X52011338Y-116688809D01*
X52071814Y-116749285D01*
X52132290Y-116870238D01*
X52132290Y-117172619D01*
X52071814Y-117293571D01*
X52011338Y-117354047D01*
X51890385Y-117414523D01*
X51588004Y-117414523D01*
X51467052Y-117354047D01*
X51406576Y-117293571D01*
X50318004Y-114511666D02*
X50922766Y-114511666D01*
X50197052Y-114874523D02*
X50620385Y-113604523D01*
X51043719Y-114874523D01*
X52011338Y-113604523D02*
X51769433Y-113604523D01*
X51648480Y-113665000D01*
X51588004Y-113725476D01*
X51467052Y-113906904D01*
X51406576Y-114148809D01*
X51406576Y-114632619D01*
X51467052Y-114753571D01*
X51527528Y-114814047D01*
X51648480Y-114874523D01*
X51890385Y-114874523D01*
X52011338Y-114814047D01*
X52071814Y-114753571D01*
X52132290Y-114632619D01*
X52132290Y-114330238D01*
X52071814Y-114209285D01*
X52011338Y-114148809D01*
X51890385Y-114088333D01*
X51648480Y-114088333D01*
X51527528Y-114148809D01*
X51467052Y-114209285D01*
X51406576Y-114330238D01*
X50318004Y-111971666D02*
X50922766Y-111971666D01*
X50197052Y-112334523D02*
X50620385Y-111064523D01*
X51043719Y-112334523D01*
X51346100Y-111064523D02*
X52192766Y-111064523D01*
X51648480Y-112334523D01*
X50318004Y-109431666D02*
X50922766Y-109431666D01*
X50197052Y-109794523D02*
X50620385Y-108524523D01*
X51043719Y-109794523D01*
X51648480Y-109068809D02*
X51527528Y-109008333D01*
X51467052Y-108947857D01*
X51406576Y-108826904D01*
X51406576Y-108766428D01*
X51467052Y-108645476D01*
X51527528Y-108585000D01*
X51648480Y-108524523D01*
X51890385Y-108524523D01*
X52011338Y-108585000D01*
X52071814Y-108645476D01*
X52132290Y-108766428D01*
X52132290Y-108826904D01*
X52071814Y-108947857D01*
X52011338Y-109008333D01*
X51890385Y-109068809D01*
X51648480Y-109068809D01*
X51527528Y-109129285D01*
X51467052Y-109189761D01*
X51406576Y-109310714D01*
X51406576Y-109552619D01*
X51467052Y-109673571D01*
X51527528Y-109734047D01*
X51648480Y-109794523D01*
X51890385Y-109794523D01*
X52011338Y-109734047D01*
X52071814Y-109673571D01*
X52132290Y-109552619D01*
X52132290Y-109310714D01*
X52071814Y-109189761D01*
X52011338Y-109129285D01*
X51890385Y-109068809D01*
X50318004Y-106891666D02*
X50922766Y-106891666D01*
X50197052Y-107254523D02*
X50620385Y-105984523D01*
X51043719Y-107254523D01*
X51527528Y-107254523D02*
X51769433Y-107254523D01*
X51890385Y-107194047D01*
X51950861Y-107133571D01*
X52071814Y-106952142D01*
X52132290Y-106710238D01*
X52132290Y-106226428D01*
X52071814Y-106105476D01*
X52011338Y-106045000D01*
X51890385Y-105984523D01*
X51648480Y-105984523D01*
X51527528Y-106045000D01*
X51467052Y-106105476D01*
X51406576Y-106226428D01*
X51406576Y-106528809D01*
X51467052Y-106649761D01*
X51527528Y-106710238D01*
X51648480Y-106770714D01*
X51890385Y-106770714D01*
X52011338Y-106710238D01*
X52071814Y-106649761D01*
X52132290Y-106528809D01*
X145433142Y-89722476D02*
X145493619Y-89662000D01*
X145614571Y-89601523D01*
X145916952Y-89601523D01*
X146037904Y-89662000D01*
X146098380Y-89722476D01*
X146158857Y-89843428D01*
X146158857Y-89964380D01*
X146098380Y-90145809D01*
X145372666Y-90871523D01*
X146158857Y-90871523D01*
X155532666Y-89601523D02*
X156379333Y-89601523D01*
X155835047Y-90871523D01*
X153718380Y-89601523D02*
X153113619Y-89601523D01*
X153053142Y-90206285D01*
X153113619Y-90145809D01*
X153234571Y-90085333D01*
X153536952Y-90085333D01*
X153657904Y-90145809D01*
X153718380Y-90206285D01*
X153778857Y-90327238D01*
X153778857Y-90629619D01*
X153718380Y-90750571D01*
X153657904Y-90811047D01*
X153536952Y-90871523D01*
X153234571Y-90871523D01*
X153113619Y-90811047D01*
X153053142Y-90750571D01*
X151117904Y-90024857D02*
X151117904Y-90871523D01*
X150815523Y-89541047D02*
X150513142Y-90448190D01*
X151299333Y-90448190D01*
X147912666Y-89601523D02*
X148698857Y-89601523D01*
X148275523Y-90085333D01*
X148456952Y-90085333D01*
X148577904Y-90145809D01*
X148638380Y-90206285D01*
X148698857Y-90327238D01*
X148698857Y-90629619D01*
X148638380Y-90750571D01*
X148577904Y-90811047D01*
X148456952Y-90871523D01*
X148094095Y-90871523D01*
X147973142Y-90811047D01*
X147912666Y-90750571D01*
%TO.C,REF\u002A\u002A*%
X57277000Y-101727000D02*
X56007000Y-101092000D01*
X57277000Y-100457000D02*
X57277000Y-101727000D01*
X56007000Y-101092000D02*
X57277000Y-100457000D01*
X57277000Y-101092000D02*
X56007000Y-101092000D01*
X57150000Y-100838000D02*
X56515000Y-100838000D01*
X57277000Y-100711000D02*
X57023000Y-100711000D01*
X57277000Y-101346000D02*
X56515000Y-101346000D01*
X57277000Y-101600000D02*
X57023000Y-101473000D01*
D13*
%TO.C,BUS1*%
X166795000Y-138765000D02*
X166195000Y-139065000D01*
X166795000Y-139365000D02*
X166795000Y-138765000D01*
X166195000Y-139065000D02*
X166795000Y-139365000D01*
X85490000Y-139805000D02*
X83990000Y-139805000D01*
X88030000Y-139805000D02*
X87229000Y-139805000D01*
X90570000Y-139805000D02*
X89769000Y-139805000D01*
X93110000Y-139805000D02*
X92309000Y-139805000D01*
X95650000Y-139805000D02*
X94849000Y-139805000D01*
X98190000Y-139805000D02*
X97389000Y-139805000D01*
X100730000Y-139805000D02*
X99929000Y-139805000D01*
X103270000Y-139805000D02*
X102469000Y-139805000D01*
X105810000Y-139805000D02*
X105009000Y-139805000D01*
X108350000Y-139805000D02*
X107549000Y-139805000D01*
X110890000Y-139805000D02*
X110089000Y-139805000D01*
X113430000Y-139805000D02*
X112629000Y-139805000D01*
X115970000Y-139805000D02*
X115169000Y-139805000D01*
X118510000Y-139805000D02*
X117709000Y-139805000D01*
X121050000Y-139805000D02*
X120249000Y-139805000D01*
X123590000Y-139805000D02*
X122789000Y-139805000D01*
X126130000Y-139805000D02*
X125329000Y-139805000D01*
X128670000Y-139805000D02*
X127869000Y-139805000D01*
X131210000Y-139805000D02*
X130409000Y-139805000D01*
X133750000Y-139805000D02*
X132949000Y-139805000D01*
X136290000Y-139805000D02*
X135489000Y-139805000D01*
X138830000Y-139805000D02*
X138029000Y-139805000D01*
X141370000Y-139805000D02*
X140569000Y-139805000D01*
X143910000Y-139805000D02*
X143109000Y-139805000D01*
X146450000Y-139805000D02*
X145649000Y-139805000D01*
X148990000Y-139805000D02*
X148189000Y-139805000D01*
X151530000Y-139805000D02*
X150729000Y-139805000D01*
X154070000Y-139805000D02*
X153269000Y-139805000D01*
X156610000Y-139805000D02*
X155809000Y-139805000D01*
X159150000Y-139805000D02*
X158349000Y-139805000D01*
X161690000Y-139805000D02*
X160889000Y-139805000D01*
X164005000Y-139805000D02*
X163429000Y-139805000D01*
X167471000Y-139805000D02*
X166195000Y-139805000D01*
X83990000Y-138805000D02*
X83990000Y-139805000D01*
X78470000Y-138805000D02*
X83990000Y-138805000D01*
X78470000Y-144365000D02*
X78470000Y-138805000D01*
X167470000Y-138805000D02*
X167470000Y-139805000D01*
X172990000Y-138805000D02*
X167470000Y-138805000D01*
X172990000Y-144365000D02*
X172990000Y-138805000D01*
D12*
%TO.C,U9*%
X106807000Y-126746000D02*
X106807000Y-125857000D01*
X91567000Y-126746000D02*
X91567000Y-125857000D01*
X106807000Y-126746000D02*
X91567000Y-126746000D01*
X106807000Y-89916000D02*
X106807000Y-90805000D01*
X91567000Y-89916000D02*
X91567000Y-90805000D01*
X100457000Y-89916000D02*
X106807000Y-89916000D01*
X97917000Y-89916000D02*
X91567000Y-89916000D01*
X99187000Y-91186000D02*
G75*
G03*
X100457000Y-89916000I0J1270000D01*
G01*
X97917000Y-89916000D02*
G75*
G03*
X99187000Y-91186000I1270000J0D01*
G01*
%TO.C,C9*%
X113411000Y-90551000D02*
X118491000Y-90551000D01*
X118491000Y-90551000D02*
X118491000Y-93091000D01*
X118491000Y-93091000D02*
X113411000Y-93091000D01*
X113411000Y-93091000D02*
X113411000Y-90551000D01*
X113411000Y-91821000D02*
X112141000Y-91821000D01*
X118491000Y-91821000D02*
X119761000Y-91821000D01*
%TO.C,R3*%
X118491000Y-95631000D02*
X113411000Y-95631000D01*
X113411000Y-95631000D02*
X113411000Y-93091000D01*
X113411000Y-93091000D02*
X118491000Y-93091000D01*
X118491000Y-93091000D02*
X118491000Y-95631000D01*
X118491000Y-94361000D02*
X119761000Y-94361000D01*
X113411000Y-94361000D02*
X112141000Y-94361000D01*
%TO.C,R4*%
X113411000Y-95631000D02*
X118491000Y-95631000D01*
X118491000Y-95631000D02*
X118491000Y-98171000D01*
X118491000Y-98171000D02*
X113411000Y-98171000D01*
X113411000Y-98171000D02*
X113411000Y-95631000D01*
X113411000Y-96901000D02*
X112141000Y-96901000D01*
X118491000Y-96901000D02*
X119761000Y-96901000D01*
%TO.C,U1*%
X64897000Y-83566000D02*
X64897000Y-82677000D01*
X72517000Y-83566000D02*
X72517000Y-82677000D01*
X64897000Y-83566000D02*
X72517000Y-83566000D01*
X72517000Y-56896000D02*
X72517000Y-57785000D01*
X64897000Y-56896000D02*
X64897000Y-57785000D01*
X69977000Y-56896000D02*
X72517000Y-56896000D01*
X67437000Y-56896000D02*
X64897000Y-56896000D01*
X68707000Y-58166000D02*
G75*
G03*
X69977000Y-56896000I0J1270000D01*
G01*
X67437000Y-56896000D02*
G75*
G03*
X68707000Y-58166000I1270000J0D01*
G01*
%TO.C,U3*%
X104648000Y-83566000D02*
X104648000Y-82677000D01*
X112268000Y-83566000D02*
X112268000Y-82677000D01*
X104648000Y-83566000D02*
X112268000Y-83566000D01*
X112268000Y-56896000D02*
X112268000Y-57785000D01*
X104648000Y-56896000D02*
X104648000Y-57785000D01*
X109728000Y-56896000D02*
X112268000Y-56896000D01*
X107188000Y-56896000D02*
X104648000Y-56896000D01*
X108458000Y-58166000D02*
G75*
G03*
X109728000Y-56896000I0J1270000D01*
G01*
X107188000Y-56896000D02*
G75*
G03*
X108458000Y-58166000I1270000J0D01*
G01*
%TO.C,J5*%
X144526000Y-91567000D02*
X157226000Y-91567000D01*
X157226000Y-91567000D02*
X157226000Y-96647000D01*
X157226000Y-96647000D02*
X144526000Y-96647000D01*
X144526000Y-96647000D02*
X144526000Y-91567000D01*
%TO.C,J2*%
X145923000Y-47942500D02*
X148463000Y-47942500D01*
X148463000Y-47942500D02*
X148463000Y-55562500D01*
X148463000Y-55562500D02*
X145923000Y-55562500D01*
X145923000Y-55562500D02*
X145923000Y-47942500D01*
X148463000Y-50482500D02*
X145923000Y-50482500D01*
%TO.C,J1*%
X138303000Y-47942500D02*
X140843000Y-47942500D01*
X140843000Y-47942500D02*
X140843000Y-55562500D01*
X140843000Y-55562500D02*
X138303000Y-55562500D01*
X138303000Y-55562500D02*
X138303000Y-47942500D01*
X140843000Y-50482500D02*
X138303000Y-50482500D01*
%TO.C,J3*%
X187833000Y-50482500D02*
X187833000Y-53022500D01*
X187833000Y-53022500D02*
X182753000Y-53022500D01*
X182753000Y-53022500D02*
X182753000Y-50482500D01*
X182753000Y-50482500D02*
X187833000Y-50482500D01*
%TO.C,J4*%
X47879000Y-120650000D02*
X45339000Y-120650000D01*
X45339000Y-120650000D02*
X45339000Y-115570000D01*
X45339000Y-115570000D02*
X47879000Y-115570000D01*
X47879000Y-115570000D02*
X47879000Y-120650000D01*
%TO.C,D1*%
X180808000Y-50252500D02*
X180808000Y-53252500D01*
X180792888Y-50227596D02*
G75*
G03*
X180808000Y-53252500I-2484888J-1524904D01*
G01*
D14*
%TO.C,C12*%
X57476000Y-141071000D02*
X57476000Y-134773000D01*
X57336000Y-141065000D02*
X57336000Y-134779000D01*
X57196000Y-141052000D02*
X57196000Y-138368000D01*
X57196000Y-137476000D02*
X57196000Y-134792000D01*
X57056000Y-141033000D02*
X57056000Y-138578000D01*
X57056000Y-137266000D02*
X57056000Y-134811000D01*
X56916000Y-141007000D02*
X56916000Y-138711000D01*
X56916000Y-137133000D02*
X56916000Y-134837000D01*
X56776000Y-140975000D02*
X56776000Y-138802000D01*
X56776000Y-137042000D02*
X56776000Y-134869000D01*
X56636000Y-140936000D02*
X56636000Y-138864000D01*
X56636000Y-136980000D02*
X56636000Y-134908000D01*
X56496000Y-140890000D02*
X56496000Y-138903000D01*
X56496000Y-136941000D02*
X56496000Y-134954000D01*
X56356000Y-140837000D02*
X56356000Y-138920000D01*
X56356000Y-136924000D02*
X56356000Y-135007000D01*
X56216000Y-140775000D02*
X56216000Y-138918000D01*
X56216000Y-136926000D02*
X56216000Y-135069000D01*
X56076000Y-140705000D02*
X56076000Y-138896000D01*
X56076000Y-136948000D02*
X56076000Y-135139000D01*
X55936000Y-140626000D02*
X55936000Y-138853000D01*
X55936000Y-136991000D02*
X55936000Y-135218000D01*
X55796000Y-140538000D02*
X55796000Y-138785000D01*
X55796000Y-137059000D02*
X55796000Y-135306000D01*
X55656000Y-140438000D02*
X55656000Y-138686000D01*
X55656000Y-137158000D02*
X55656000Y-135406000D01*
X55516000Y-140326000D02*
X55516000Y-138541000D01*
X55516000Y-137303000D02*
X55516000Y-135518000D01*
X55376000Y-140201000D02*
X55376000Y-138302000D01*
X55376000Y-137542000D02*
X55376000Y-135643000D01*
X55236000Y-140058000D02*
X55236000Y-135786000D01*
X55096000Y-139896000D02*
X55096000Y-135948000D01*
X54956000Y-139708000D02*
X54956000Y-136136000D01*
X54816000Y-139485000D02*
X54816000Y-136359000D01*
X54676000Y-139209000D02*
X54676000Y-136635000D01*
X54536000Y-138834000D02*
X54536000Y-137010000D01*
X57301000Y-137922000D02*
G75*
G03*
X57301000Y-137922000I-1000000J0D01*
G01*
D12*
X60738500Y-137922000D02*
G75*
G03*
X60738500Y-137922000I-3187500J0D01*
G01*
%TO.C,REF\u002A\u002A*%
X45974000Y-122428000D02*
X46101000Y-122174000D01*
X46228000Y-122428000D02*
X46228000Y-121666000D01*
X46863000Y-122428000D02*
X46863000Y-122174000D01*
X46736000Y-122301000D02*
X46736000Y-121666000D01*
X46482000Y-122428000D02*
X46482000Y-121158000D01*
X46482000Y-121158000D02*
X47117000Y-122428000D01*
X47117000Y-122428000D02*
X45847000Y-122428000D01*
X45847000Y-122428000D02*
X46482000Y-121158000D01*
%TO.C,IDE1*%
X49784000Y-51435000D02*
X49784000Y-102235000D01*
X54864000Y-102235000D02*
X54864000Y-51435000D01*
X49784000Y-51435000D02*
X54864000Y-51435000D01*
X54864000Y-102235000D02*
X49784000Y-102235000D01*
%TO.C,U2*%
X78232000Y-83566000D02*
X78232000Y-82677000D01*
X85852000Y-83566000D02*
X85852000Y-82677000D01*
X78232000Y-83566000D02*
X85852000Y-83566000D01*
X85852000Y-56896000D02*
X85852000Y-57785000D01*
X78232000Y-56896000D02*
X78232000Y-57785000D01*
X83312000Y-56896000D02*
X85852000Y-56896000D01*
X80772000Y-56896000D02*
X78232000Y-56896000D01*
X82042000Y-58166000D02*
G75*
G03*
X83312000Y-56896000I0J1270000D01*
G01*
X80772000Y-56896000D02*
G75*
G03*
X82042000Y-58166000I1270000J0D01*
G01*
%TO.C,U5*%
X145034000Y-82296000D02*
X145034000Y-83185000D01*
X145034000Y-83185000D02*
X152654000Y-83185000D01*
X152654000Y-83185000D02*
X152654000Y-82296000D01*
X152654000Y-64135000D02*
X152654000Y-65024000D01*
X145034000Y-64135000D02*
X145034000Y-65024000D01*
X150114000Y-64135000D02*
X152654000Y-64135000D01*
X147574000Y-64135000D02*
X145034000Y-64135000D01*
X148844000Y-65405000D02*
G75*
G03*
X150114000Y-64135000I0J1270000D01*
G01*
X147574000Y-64135000D02*
G75*
G03*
X148844000Y-65405000I1270000J0D01*
G01*
%TO.C,U6*%
X156464000Y-82296000D02*
X156464000Y-83185000D01*
X156464000Y-83185000D02*
X164084000Y-83185000D01*
X164084000Y-83185000D02*
X164084000Y-82296000D01*
X164084000Y-64135000D02*
X164084000Y-65024000D01*
X156464000Y-64135000D02*
X156464000Y-65024000D01*
X161544000Y-64135000D02*
X164084000Y-64135000D01*
X159004000Y-64135000D02*
X156464000Y-64135000D01*
X160274000Y-65405000D02*
G75*
G03*
X161544000Y-64135000I0J1270000D01*
G01*
X159004000Y-64135000D02*
G75*
G03*
X160274000Y-65405000I1270000J0D01*
G01*
%TO.C,U7*%
X167894000Y-83185000D02*
X167894000Y-82296000D01*
X167894000Y-83185000D02*
X175514000Y-83185000D01*
X175514000Y-83185000D02*
X175514000Y-82296000D01*
X175514000Y-61595000D02*
X175514000Y-62484000D01*
X167894000Y-61595000D02*
X167894000Y-62484000D01*
X172974000Y-61595000D02*
X175514000Y-61595000D01*
X170434000Y-61595000D02*
X167894000Y-61595000D01*
X170434000Y-61595000D02*
G75*
G03*
X171704000Y-62865000I1270000J0D01*
G01*
X171704000Y-62865000D02*
G75*
G03*
X172974000Y-61595000I0J1270000D01*
G01*
%TO.C,U8*%
X78359000Y-126746000D02*
X78359000Y-125857000D01*
X85979000Y-126746000D02*
X85979000Y-125857000D01*
X78359000Y-126746000D02*
X85979000Y-126746000D01*
X85979000Y-100076000D02*
X85979000Y-100965000D01*
X78359000Y-100076000D02*
X78359000Y-100965000D01*
X83439000Y-100076000D02*
X85979000Y-100076000D01*
X80899000Y-100076000D02*
X78359000Y-100076000D01*
X82169000Y-101346000D02*
G75*
G03*
X83439000Y-100076000I0J1270000D01*
G01*
X80899000Y-100076000D02*
G75*
G03*
X82169000Y-101346000I1270000J0D01*
G01*
%TO.C,U10*%
X167894000Y-125603000D02*
X167894000Y-124714000D01*
X175514000Y-125603000D02*
X175514000Y-124714000D01*
X167894000Y-125603000D02*
X175514000Y-125603000D01*
X175514000Y-98933000D02*
X175514000Y-99822000D01*
X167894000Y-98933000D02*
X167894000Y-99822000D01*
X172974000Y-98933000D02*
X175514000Y-98933000D01*
X170434000Y-98933000D02*
X167894000Y-98933000D01*
X171704000Y-100203000D02*
G75*
G03*
X172974000Y-98933000I0J1270000D01*
G01*
X170434000Y-98933000D02*
G75*
G03*
X171704000Y-100203000I1270000J0D01*
G01*
%TO.C,U11*%
X91440000Y-83566000D02*
X91440000Y-82677000D01*
X99060000Y-83566000D02*
X99060000Y-82677000D01*
X91440000Y-83566000D02*
X99060000Y-83566000D01*
X99060000Y-56896000D02*
X99060000Y-57785000D01*
X91440000Y-56896000D02*
X91440000Y-57785000D01*
X96520000Y-56896000D02*
X99060000Y-56896000D01*
X93980000Y-56896000D02*
X91440000Y-56896000D01*
X95250000Y-58166000D02*
G75*
G03*
X96520000Y-56896000I0J1270000D01*
G01*
X93980000Y-56896000D02*
G75*
G03*
X95250000Y-58166000I1270000J0D01*
G01*
%TO.C,SW2*%
X147320000Y-102997000D02*
X154940000Y-102997000D01*
X147320000Y-124587000D02*
X147320000Y-123698000D01*
X147320000Y-124587000D02*
X154940000Y-124587000D01*
X154940000Y-124587000D02*
X154940000Y-123698000D01*
X154940000Y-102997000D02*
X154940000Y-103886000D01*
X147320000Y-102997000D02*
X147320000Y-103886000D01*
%TO.C,SW1*%
X54991000Y-104775000D02*
X62611000Y-104775000D01*
X54991000Y-126365000D02*
X54991000Y-125476000D01*
X54991000Y-126365000D02*
X62611000Y-126365000D01*
X62611000Y-126365000D02*
X62611000Y-125476000D01*
X62611000Y-104775000D02*
X62611000Y-105664000D01*
X54991000Y-104775000D02*
X54991000Y-105664000D01*
%TO.C,RP1*%
X66421000Y-100330000D02*
X68961000Y-100330000D01*
X68961000Y-100330000D02*
X68961000Y-125730000D01*
X68961000Y-125730000D02*
X66421000Y-125730000D01*
X66421000Y-125730000D02*
X66421000Y-100330000D01*
X66421000Y-102870000D02*
X68961000Y-102870000D01*
%TO.C,RP2*%
X161671000Y-99568000D02*
X164211000Y-99568000D01*
X164211000Y-99568000D02*
X164211000Y-124968000D01*
X164211000Y-124968000D02*
X161671000Y-124968000D01*
X161671000Y-124968000D02*
X161671000Y-99568000D01*
X161671000Y-102108000D02*
X164211000Y-102108000D01*
%TO.C,C1*%
X71247000Y-52197000D02*
X66167000Y-52197000D01*
X66167000Y-52197000D02*
X66167000Y-49657000D01*
X66167000Y-49657000D02*
X71247000Y-49657000D01*
X71247000Y-49657000D02*
X71247000Y-52197000D01*
%TO.C,C2*%
X84582000Y-52197000D02*
X79502000Y-52197000D01*
X79502000Y-52197000D02*
X79502000Y-49657000D01*
X79502000Y-49657000D02*
X84582000Y-49657000D01*
X84582000Y-49657000D02*
X84582000Y-52197000D01*
%TO.C,C3*%
X110998000Y-52197000D02*
X105918000Y-52197000D01*
X105918000Y-52197000D02*
X105918000Y-49657000D01*
X105918000Y-49657000D02*
X110998000Y-49657000D01*
X110998000Y-49657000D02*
X110998000Y-52197000D01*
%TO.C,C4*%
X139954000Y-62865000D02*
X134874000Y-62865000D01*
X134874000Y-62865000D02*
X134874000Y-60325000D01*
X134874000Y-60325000D02*
X139954000Y-60325000D01*
X139954000Y-60325000D02*
X139954000Y-62865000D01*
%TO.C,C5*%
X151384000Y-62865000D02*
X146304000Y-62865000D01*
X146304000Y-62865000D02*
X146304000Y-60325000D01*
X146304000Y-60325000D02*
X151384000Y-60325000D01*
X151384000Y-60325000D02*
X151384000Y-62865000D01*
%TO.C,C6*%
X162814000Y-62865000D02*
X157734000Y-62865000D01*
X157734000Y-62865000D02*
X157734000Y-60325000D01*
X157734000Y-60325000D02*
X162814000Y-60325000D01*
X162814000Y-60325000D02*
X162814000Y-62865000D01*
%TO.C,C7*%
X174244000Y-60515500D02*
X169164000Y-60515500D01*
X169164000Y-60515500D02*
X169164000Y-57975500D01*
X169164000Y-57975500D02*
X174244000Y-57975500D01*
X174244000Y-57975500D02*
X174244000Y-60515500D01*
%TO.C,C8*%
X84709000Y-98806000D02*
X79629000Y-98806000D01*
X79629000Y-98806000D02*
X79629000Y-96266000D01*
X79629000Y-96266000D02*
X84709000Y-96266000D01*
X84709000Y-96266000D02*
X84709000Y-98806000D01*
%TO.C,C10*%
X174244000Y-97663000D02*
X169164000Y-97663000D01*
X169164000Y-97663000D02*
X169164000Y-95123000D01*
X169164000Y-95123000D02*
X174244000Y-95123000D01*
X174244000Y-95123000D02*
X174244000Y-97663000D01*
%TO.C,R1*%
X170053000Y-53022500D02*
X164973000Y-53022500D01*
X164973000Y-53022500D02*
X164973000Y-50482500D01*
X164973000Y-50482500D02*
X170053000Y-50482500D01*
X170053000Y-50482500D02*
X170053000Y-53022500D01*
X170053000Y-51752500D02*
X171323000Y-51752500D01*
X164973000Y-51752500D02*
X163703000Y-51752500D01*
%TO.C,R2*%
X187833000Y-63246000D02*
X187833000Y-68326000D01*
X187833000Y-68326000D02*
X185293000Y-68326000D01*
X185293000Y-68326000D02*
X185293000Y-63246000D01*
X185293000Y-63246000D02*
X187833000Y-63246000D01*
X186563000Y-63246000D02*
X186563000Y-61976000D01*
X186563000Y-68326000D02*
X186563000Y-69596000D01*
%TO.C,U4*%
X133604000Y-82296000D02*
X133604000Y-83185000D01*
X133604000Y-83185000D02*
X141224000Y-83185000D01*
X141224000Y-83185000D02*
X141224000Y-82296000D01*
X141224000Y-64135000D02*
X141224000Y-65024000D01*
X133604000Y-64135000D02*
X133604000Y-65024000D01*
X138684000Y-64135000D02*
X141224000Y-64135000D01*
X136144000Y-64135000D02*
X133604000Y-64135000D01*
X137414000Y-65405000D02*
G75*
G03*
X138684000Y-64135000I0J1270000D01*
G01*
X136144000Y-64135000D02*
G75*
G03*
X137414000Y-65405000I1270000J0D01*
G01*
%TO.C,C11*%
X97790000Y-52197000D02*
X92710000Y-52197000D01*
X92710000Y-52197000D02*
X92710000Y-49657000D01*
X92710000Y-49657000D02*
X97790000Y-49657000D01*
X97790000Y-49657000D02*
X97790000Y-52197000D01*
%TO.C,BUS1*%
D14*
X168775238Y-137993571D02*
X168918095Y-138041190D01*
X168965714Y-138088809D01*
X169013333Y-138184047D01*
X169013333Y-138326904D01*
X168965714Y-138422142D01*
X168918095Y-138469761D01*
X168822857Y-138517380D01*
X168441904Y-138517380D01*
X168441904Y-137517380D01*
X168775238Y-137517380D01*
X168870476Y-137565000D01*
X168918095Y-137612619D01*
X168965714Y-137707857D01*
X168965714Y-137803095D01*
X168918095Y-137898333D01*
X168870476Y-137945952D01*
X168775238Y-137993571D01*
X168441904Y-137993571D01*
X169441904Y-137517380D02*
X169441904Y-138326904D01*
X169489523Y-138422142D01*
X169537142Y-138469761D01*
X169632380Y-138517380D01*
X169822857Y-138517380D01*
X169918095Y-138469761D01*
X169965714Y-138422142D01*
X170013333Y-138326904D01*
X170013333Y-137517380D01*
X170441904Y-138469761D02*
X170584761Y-138517380D01*
X170822857Y-138517380D01*
X170918095Y-138469761D01*
X170965714Y-138422142D01*
X171013333Y-138326904D01*
X171013333Y-138231666D01*
X170965714Y-138136428D01*
X170918095Y-138088809D01*
X170822857Y-138041190D01*
X170632380Y-137993571D01*
X170537142Y-137945952D01*
X170489523Y-137898333D01*
X170441904Y-137803095D01*
X170441904Y-137707857D01*
X170489523Y-137612619D01*
X170537142Y-137565000D01*
X170632380Y-137517380D01*
X170870476Y-137517380D01*
X171013333Y-137565000D01*
X171965714Y-138517380D02*
X171394285Y-138517380D01*
X171680000Y-138517380D02*
X171680000Y-137517380D01*
X171584761Y-137660238D01*
X171489523Y-137755476D01*
X171394285Y-137803095D01*
%TO.C,U9*%
D12*
X91234380Y-127955523D02*
X91234380Y-128983619D01*
X91294857Y-129104571D01*
X91355333Y-129165047D01*
X91476285Y-129225523D01*
X91718190Y-129225523D01*
X91839142Y-129165047D01*
X91899619Y-129104571D01*
X91960095Y-128983619D01*
X91960095Y-127955523D01*
X92625333Y-129225523D02*
X92867238Y-129225523D01*
X92988190Y-129165047D01*
X93048666Y-129104571D01*
X93169619Y-128923142D01*
X93230095Y-128681238D01*
X93230095Y-128197428D01*
X93169619Y-128076476D01*
X93109142Y-128016000D01*
X92988190Y-127955523D01*
X92746285Y-127955523D01*
X92625333Y-128016000D01*
X92564857Y-128076476D01*
X92504380Y-128197428D01*
X92504380Y-128499809D01*
X92564857Y-128620761D01*
X92625333Y-128681238D01*
X92746285Y-128741714D01*
X92988190Y-128741714D01*
X93109142Y-128681238D01*
X93169619Y-128620761D01*
X93230095Y-128499809D01*
%TO.C,C9*%
X123486333Y-92274571D02*
X123425857Y-92335047D01*
X123244428Y-92395523D01*
X123123476Y-92395523D01*
X122942047Y-92335047D01*
X122821095Y-92214095D01*
X122760619Y-92093142D01*
X122700142Y-91851238D01*
X122700142Y-91669809D01*
X122760619Y-91427904D01*
X122821095Y-91306952D01*
X122942047Y-91186000D01*
X123123476Y-91125523D01*
X123244428Y-91125523D01*
X123425857Y-91186000D01*
X123486333Y-91246476D01*
X124091095Y-92395523D02*
X124333000Y-92395523D01*
X124453952Y-92335047D01*
X124514428Y-92274571D01*
X124635380Y-92093142D01*
X124695857Y-91851238D01*
X124695857Y-91367428D01*
X124635380Y-91246476D01*
X124574904Y-91186000D01*
X124453952Y-91125523D01*
X124212047Y-91125523D01*
X124091095Y-91186000D01*
X124030619Y-91246476D01*
X123970142Y-91367428D01*
X123970142Y-91669809D01*
X124030619Y-91790761D01*
X124091095Y-91851238D01*
X124212047Y-91911714D01*
X124453952Y-91911714D01*
X124574904Y-91851238D01*
X124635380Y-91790761D01*
X124695857Y-91669809D01*
X116344095Y-92274571D02*
X116283619Y-92335047D01*
X116102190Y-92395523D01*
X115981238Y-92395523D01*
X115799809Y-92335047D01*
X115678857Y-92214095D01*
X115618380Y-92093142D01*
X115557904Y-91851238D01*
X115557904Y-91669809D01*
X115618380Y-91427904D01*
X115678857Y-91306952D01*
X115799809Y-91186000D01*
X115981238Y-91125523D01*
X116102190Y-91125523D01*
X116283619Y-91186000D01*
X116344095Y-91246476D01*
%TO.C,R3*%
X107992333Y-94935523D02*
X107569000Y-94330761D01*
X107266619Y-94935523D02*
X107266619Y-93665523D01*
X107750428Y-93665523D01*
X107871380Y-93726000D01*
X107931857Y-93786476D01*
X107992333Y-93907428D01*
X107992333Y-94088857D01*
X107931857Y-94209809D01*
X107871380Y-94270285D01*
X107750428Y-94330761D01*
X107266619Y-94330761D01*
X108415666Y-93665523D02*
X109201857Y-93665523D01*
X108778523Y-94149333D01*
X108959952Y-94149333D01*
X109080904Y-94209809D01*
X109141380Y-94270285D01*
X109201857Y-94391238D01*
X109201857Y-94693619D01*
X109141380Y-94814571D01*
X109080904Y-94875047D01*
X108959952Y-94935523D01*
X108597095Y-94935523D01*
X108476142Y-94875047D01*
X108415666Y-94814571D01*
X115074095Y-94935523D02*
X114348380Y-94935523D01*
X114711238Y-94935523D02*
X114711238Y-93665523D01*
X114590285Y-93846952D01*
X114469333Y-93967904D01*
X114348380Y-94028380D01*
X115860285Y-93665523D02*
X115981238Y-93665523D01*
X116102190Y-93726000D01*
X116162666Y-93786476D01*
X116223142Y-93907428D01*
X116283619Y-94149333D01*
X116283619Y-94451714D01*
X116223142Y-94693619D01*
X116162666Y-94814571D01*
X116102190Y-94875047D01*
X115981238Y-94935523D01*
X115860285Y-94935523D01*
X115739333Y-94875047D01*
X115678857Y-94814571D01*
X115618380Y-94693619D01*
X115557904Y-94451714D01*
X115557904Y-94149333D01*
X115618380Y-93907428D01*
X115678857Y-93786476D01*
X115739333Y-93726000D01*
X115860285Y-93665523D01*
X116827904Y-94935523D02*
X116827904Y-93665523D01*
X117553619Y-94935523D02*
X117009333Y-94209809D01*
X117553619Y-93665523D02*
X116827904Y-94391238D01*
%TO.C,R4*%
X123486333Y-97475523D02*
X123063000Y-96870761D01*
X122760619Y-97475523D02*
X122760619Y-96205523D01*
X123244428Y-96205523D01*
X123365380Y-96266000D01*
X123425857Y-96326476D01*
X123486333Y-96447428D01*
X123486333Y-96628857D01*
X123425857Y-96749809D01*
X123365380Y-96810285D01*
X123244428Y-96870761D01*
X122760619Y-96870761D01*
X124574904Y-96628857D02*
X124574904Y-97475523D01*
X124272523Y-96145047D02*
X123970142Y-97052190D01*
X124756333Y-97052190D01*
X115074095Y-97475523D02*
X114348380Y-97475523D01*
X114711238Y-97475523D02*
X114711238Y-96205523D01*
X114590285Y-96386952D01*
X114469333Y-96507904D01*
X114348380Y-96568380D01*
X115860285Y-96205523D02*
X115981238Y-96205523D01*
X116102190Y-96266000D01*
X116162666Y-96326476D01*
X116223142Y-96447428D01*
X116283619Y-96689333D01*
X116283619Y-96991714D01*
X116223142Y-97233619D01*
X116162666Y-97354571D01*
X116102190Y-97415047D01*
X115981238Y-97475523D01*
X115860285Y-97475523D01*
X115739333Y-97415047D01*
X115678857Y-97354571D01*
X115618380Y-97233619D01*
X115557904Y-96991714D01*
X115557904Y-96689333D01*
X115618380Y-96447428D01*
X115678857Y-96326476D01*
X115739333Y-96266000D01*
X115860285Y-96205523D01*
X116827904Y-97475523D02*
X116827904Y-96205523D01*
X117553619Y-97475523D02*
X117009333Y-96749809D01*
X117553619Y-96205523D02*
X116827904Y-96931238D01*
%TO.C,U1*%
X64564380Y-84775523D02*
X64564380Y-85803619D01*
X64624857Y-85924571D01*
X64685333Y-85985047D01*
X64806285Y-86045523D01*
X65048190Y-86045523D01*
X65169142Y-85985047D01*
X65229619Y-85924571D01*
X65290095Y-85803619D01*
X65290095Y-84775523D01*
X66560095Y-86045523D02*
X65834380Y-86045523D01*
X66197238Y-86045523D02*
X66197238Y-84775523D01*
X66076285Y-84956952D01*
X65955333Y-85077904D01*
X65834380Y-85138380D01*
%TO.C,U3*%
X104315380Y-84775523D02*
X104315380Y-85803619D01*
X104375857Y-85924571D01*
X104436333Y-85985047D01*
X104557285Y-86045523D01*
X104799190Y-86045523D01*
X104920142Y-85985047D01*
X104980619Y-85924571D01*
X105041095Y-85803619D01*
X105041095Y-84775523D01*
X105524904Y-84775523D02*
X106311095Y-84775523D01*
X105887761Y-85259333D01*
X106069190Y-85259333D01*
X106190142Y-85319809D01*
X106250619Y-85380285D01*
X106311095Y-85501238D01*
X106311095Y-85803619D01*
X106250619Y-85924571D01*
X106190142Y-85985047D01*
X106069190Y-86045523D01*
X105706333Y-86045523D01*
X105585380Y-85985047D01*
X105524904Y-85924571D01*
%TO.C,J5*%
X142197666Y-95316523D02*
X142197666Y-96223666D01*
X142137190Y-96405095D01*
X142016238Y-96526047D01*
X141834809Y-96586523D01*
X141713857Y-96586523D01*
X143407190Y-95316523D02*
X142802428Y-95316523D01*
X142741952Y-95921285D01*
X142802428Y-95860809D01*
X142923380Y-95800333D01*
X143225761Y-95800333D01*
X143346714Y-95860809D01*
X143407190Y-95921285D01*
X143467666Y-96042238D01*
X143467666Y-96344619D01*
X143407190Y-96465571D01*
X143346714Y-96526047D01*
X143225761Y-96586523D01*
X142923380Y-96586523D01*
X142802428Y-96526047D01*
X142741952Y-96465571D01*
X145717380Y-98618523D02*
X145717380Y-97348523D01*
X146322142Y-98618523D02*
X146322142Y-97348523D01*
X147047857Y-98618523D01*
X147047857Y-97348523D01*
X147471190Y-97348523D02*
X148196904Y-97348523D01*
X147834047Y-98618523D02*
X147834047Y-97348523D01*
X148620238Y-97953285D02*
X149043571Y-97953285D01*
X149225000Y-98618523D02*
X148620238Y-98618523D01*
X148620238Y-97348523D01*
X149225000Y-97348523D01*
X150495000Y-98618523D02*
X150071666Y-98013761D01*
X149769285Y-98618523D02*
X149769285Y-97348523D01*
X150253095Y-97348523D01*
X150374047Y-97409000D01*
X150434523Y-97469476D01*
X150495000Y-97590428D01*
X150495000Y-97771857D01*
X150434523Y-97892809D01*
X150374047Y-97953285D01*
X150253095Y-98013761D01*
X149769285Y-98013761D01*
X151765000Y-98618523D02*
X151341666Y-98013761D01*
X151039285Y-98618523D02*
X151039285Y-97348523D01*
X151523095Y-97348523D01*
X151644047Y-97409000D01*
X151704523Y-97469476D01*
X151765000Y-97590428D01*
X151765000Y-97771857D01*
X151704523Y-97892809D01*
X151644047Y-97953285D01*
X151523095Y-98013761D01*
X151039285Y-98013761D01*
X152309285Y-97348523D02*
X152309285Y-98376619D01*
X152369761Y-98497571D01*
X152430238Y-98558047D01*
X152551190Y-98618523D01*
X152793095Y-98618523D01*
X152914047Y-98558047D01*
X152974523Y-98497571D01*
X153035000Y-98376619D01*
X153035000Y-97348523D01*
X153639761Y-98618523D02*
X153639761Y-97348523D01*
X154123571Y-97348523D01*
X154244523Y-97409000D01*
X154305000Y-97469476D01*
X154365476Y-97590428D01*
X154365476Y-97771857D01*
X154305000Y-97892809D01*
X154244523Y-97953285D01*
X154123571Y-98013761D01*
X153639761Y-98013761D01*
X154728333Y-97348523D02*
X155454047Y-97348523D01*
X155091190Y-98618523D02*
X155091190Y-97348523D01*
%TO.C,J2*%
X144229666Y-54232023D02*
X144229666Y-55139166D01*
X144169190Y-55320595D01*
X144048238Y-55441547D01*
X143866809Y-55502023D01*
X143745857Y-55502023D01*
X144773952Y-54352976D02*
X144834428Y-54292500D01*
X144955380Y-54232023D01*
X145257761Y-54232023D01*
X145378714Y-54292500D01*
X145439190Y-54352976D01*
X145499666Y-54473928D01*
X145499666Y-54594880D01*
X145439190Y-54776309D01*
X144713476Y-55502023D01*
X145499666Y-55502023D01*
%TO.C,J1*%
X136609666Y-54232023D02*
X136609666Y-55139166D01*
X136549190Y-55320595D01*
X136428238Y-55441547D01*
X136246809Y-55502023D01*
X136125857Y-55502023D01*
X137879666Y-55502023D02*
X137153952Y-55502023D01*
X137516809Y-55502023D02*
X137516809Y-54232023D01*
X137395857Y-54413452D01*
X137274904Y-54534404D01*
X137153952Y-54594880D01*
%TO.C,J3*%
X186139666Y-53597023D02*
X186139666Y-54504166D01*
X186079190Y-54685595D01*
X185958238Y-54806547D01*
X185776809Y-54867023D01*
X185655857Y-54867023D01*
X186623476Y-53597023D02*
X187409666Y-53597023D01*
X186986333Y-54080833D01*
X187167761Y-54080833D01*
X187288714Y-54141309D01*
X187349190Y-54201785D01*
X187409666Y-54322738D01*
X187409666Y-54625119D01*
X187349190Y-54746071D01*
X187288714Y-54806547D01*
X187167761Y-54867023D01*
X186804904Y-54867023D01*
X186683952Y-54806547D01*
X186623476Y-54746071D01*
%TO.C,J4*%
X45913523Y-114088333D02*
X46820666Y-114088333D01*
X47002095Y-114148809D01*
X47123047Y-114269761D01*
X47183523Y-114451190D01*
X47183523Y-114572142D01*
X46336857Y-112939285D02*
X47183523Y-112939285D01*
X45853047Y-113241666D02*
X46760190Y-113544047D01*
X46760190Y-112757857D01*
%TO.C,D1*%
X173560619Y-49787023D02*
X173560619Y-48517023D01*
X173863000Y-48517023D01*
X174044428Y-48577500D01*
X174165380Y-48698452D01*
X174225857Y-48819404D01*
X174286333Y-49061309D01*
X174286333Y-49242738D01*
X174225857Y-49484642D01*
X174165380Y-49605595D01*
X174044428Y-49726547D01*
X173863000Y-49787023D01*
X173560619Y-49787023D01*
X175495857Y-49787023D02*
X174770142Y-49787023D01*
X175133000Y-49787023D02*
X175133000Y-48517023D01*
X175012047Y-48698452D01*
X174891095Y-48819404D01*
X174770142Y-48879880D01*
%TO.C,C12*%
X52269571Y-141550571D02*
X52209095Y-141611047D01*
X52027666Y-141671523D01*
X51906714Y-141671523D01*
X51725285Y-141611047D01*
X51604333Y-141490095D01*
X51543857Y-141369142D01*
X51483380Y-141127238D01*
X51483380Y-140945809D01*
X51543857Y-140703904D01*
X51604333Y-140582952D01*
X51725285Y-140462000D01*
X51906714Y-140401523D01*
X52027666Y-140401523D01*
X52209095Y-140462000D01*
X52269571Y-140522476D01*
X53479095Y-141671523D02*
X52753380Y-141671523D01*
X53116238Y-141671523D02*
X53116238Y-140401523D01*
X52995285Y-140582952D01*
X52874333Y-140703904D01*
X52753380Y-140764380D01*
X53962904Y-140522476D02*
X54023380Y-140462000D01*
X54144333Y-140401523D01*
X54446714Y-140401523D01*
X54567666Y-140462000D01*
X54628142Y-140522476D01*
X54688619Y-140643428D01*
X54688619Y-140764380D01*
X54628142Y-140945809D01*
X53902428Y-141671523D01*
X54688619Y-141671523D01*
%TO.C,U2*%
X77899380Y-84775523D02*
X77899380Y-85803619D01*
X77959857Y-85924571D01*
X78020333Y-85985047D01*
X78141285Y-86045523D01*
X78383190Y-86045523D01*
X78504142Y-85985047D01*
X78564619Y-85924571D01*
X78625095Y-85803619D01*
X78625095Y-84775523D01*
X79169380Y-84896476D02*
X79229857Y-84836000D01*
X79350809Y-84775523D01*
X79653190Y-84775523D01*
X79774142Y-84836000D01*
X79834619Y-84896476D01*
X79895095Y-85017428D01*
X79895095Y-85138380D01*
X79834619Y-85319809D01*
X79108904Y-86045523D01*
X79895095Y-86045523D01*
%TO.C,U5*%
X146606380Y-84521523D02*
X146606380Y-85549619D01*
X146666857Y-85670571D01*
X146727333Y-85731047D01*
X146848285Y-85791523D01*
X147090190Y-85791523D01*
X147211142Y-85731047D01*
X147271619Y-85670571D01*
X147332095Y-85549619D01*
X147332095Y-84521523D01*
X148541619Y-84521523D02*
X147936857Y-84521523D01*
X147876380Y-85126285D01*
X147936857Y-85065809D01*
X148057809Y-85005333D01*
X148360190Y-85005333D01*
X148481142Y-85065809D01*
X148541619Y-85126285D01*
X148602095Y-85247238D01*
X148602095Y-85549619D01*
X148541619Y-85670571D01*
X148481142Y-85731047D01*
X148360190Y-85791523D01*
X148057809Y-85791523D01*
X147936857Y-85731047D01*
X147876380Y-85670571D01*
%TO.C,U6*%
X156131380Y-84394523D02*
X156131380Y-85422619D01*
X156191857Y-85543571D01*
X156252333Y-85604047D01*
X156373285Y-85664523D01*
X156615190Y-85664523D01*
X156736142Y-85604047D01*
X156796619Y-85543571D01*
X156857095Y-85422619D01*
X156857095Y-84394523D01*
X158006142Y-84394523D02*
X157764238Y-84394523D01*
X157643285Y-84455000D01*
X157582809Y-84515476D01*
X157461857Y-84696904D01*
X157401380Y-84938809D01*
X157401380Y-85422619D01*
X157461857Y-85543571D01*
X157522333Y-85604047D01*
X157643285Y-85664523D01*
X157885190Y-85664523D01*
X158006142Y-85604047D01*
X158066619Y-85543571D01*
X158127095Y-85422619D01*
X158127095Y-85120238D01*
X158066619Y-84999285D01*
X158006142Y-84938809D01*
X157885190Y-84878333D01*
X157643285Y-84878333D01*
X157522333Y-84938809D01*
X157461857Y-84999285D01*
X157401380Y-85120238D01*
%TO.C,U7*%
X167561380Y-84394523D02*
X167561380Y-85422619D01*
X167621857Y-85543571D01*
X167682333Y-85604047D01*
X167803285Y-85664523D01*
X168045190Y-85664523D01*
X168166142Y-85604047D01*
X168226619Y-85543571D01*
X168287095Y-85422619D01*
X168287095Y-84394523D01*
X168770904Y-84394523D02*
X169617571Y-84394523D01*
X169073285Y-85664523D01*
%TO.C,U8*%
X78026380Y-127955523D02*
X78026380Y-128983619D01*
X78086857Y-129104571D01*
X78147333Y-129165047D01*
X78268285Y-129225523D01*
X78510190Y-129225523D01*
X78631142Y-129165047D01*
X78691619Y-129104571D01*
X78752095Y-128983619D01*
X78752095Y-127955523D01*
X79538285Y-128499809D02*
X79417333Y-128439333D01*
X79356857Y-128378857D01*
X79296380Y-128257904D01*
X79296380Y-128197428D01*
X79356857Y-128076476D01*
X79417333Y-128016000D01*
X79538285Y-127955523D01*
X79780190Y-127955523D01*
X79901142Y-128016000D01*
X79961619Y-128076476D01*
X80022095Y-128197428D01*
X80022095Y-128257904D01*
X79961619Y-128378857D01*
X79901142Y-128439333D01*
X79780190Y-128499809D01*
X79538285Y-128499809D01*
X79417333Y-128560285D01*
X79356857Y-128620761D01*
X79296380Y-128741714D01*
X79296380Y-128983619D01*
X79356857Y-129104571D01*
X79417333Y-129165047D01*
X79538285Y-129225523D01*
X79780190Y-129225523D01*
X79901142Y-129165047D01*
X79961619Y-129104571D01*
X80022095Y-128983619D01*
X80022095Y-128741714D01*
X79961619Y-128620761D01*
X79901142Y-128560285D01*
X79780190Y-128499809D01*
%TO.C,U10*%
X166956619Y-126812523D02*
X166956619Y-127840619D01*
X167017095Y-127961571D01*
X167077571Y-128022047D01*
X167198523Y-128082523D01*
X167440428Y-128082523D01*
X167561380Y-128022047D01*
X167621857Y-127961571D01*
X167682333Y-127840619D01*
X167682333Y-126812523D01*
X168952333Y-128082523D02*
X168226619Y-128082523D01*
X168589476Y-128082523D02*
X168589476Y-126812523D01*
X168468523Y-126993952D01*
X168347571Y-127114904D01*
X168226619Y-127175380D01*
X169738523Y-126812523D02*
X169859476Y-126812523D01*
X169980428Y-126873000D01*
X170040904Y-126933476D01*
X170101380Y-127054428D01*
X170161857Y-127296333D01*
X170161857Y-127598714D01*
X170101380Y-127840619D01*
X170040904Y-127961571D01*
X169980428Y-128022047D01*
X169859476Y-128082523D01*
X169738523Y-128082523D01*
X169617571Y-128022047D01*
X169557095Y-127961571D01*
X169496619Y-127840619D01*
X169436142Y-127598714D01*
X169436142Y-127296333D01*
X169496619Y-127054428D01*
X169557095Y-126933476D01*
X169617571Y-126873000D01*
X169738523Y-126812523D01*
%TO.C,U11*%
X90502619Y-84775523D02*
X90502619Y-85803619D01*
X90563095Y-85924571D01*
X90623571Y-85985047D01*
X90744523Y-86045523D01*
X90986428Y-86045523D01*
X91107380Y-85985047D01*
X91167857Y-85924571D01*
X91228333Y-85803619D01*
X91228333Y-84775523D01*
X92498333Y-86045523D02*
X91772619Y-86045523D01*
X92135476Y-86045523D02*
X92135476Y-84775523D01*
X92014523Y-84956952D01*
X91893571Y-85077904D01*
X91772619Y-85138380D01*
X93707857Y-86045523D02*
X92982142Y-86045523D01*
X93345000Y-86045523D02*
X93345000Y-84775523D01*
X93224047Y-84956952D01*
X93103095Y-85077904D01*
X92982142Y-85138380D01*
%TO.C,SW2*%
X146261666Y-127006047D02*
X146443095Y-127066523D01*
X146745476Y-127066523D01*
X146866428Y-127006047D01*
X146926904Y-126945571D01*
X146987380Y-126824619D01*
X146987380Y-126703666D01*
X146926904Y-126582714D01*
X146866428Y-126522238D01*
X146745476Y-126461761D01*
X146503571Y-126401285D01*
X146382619Y-126340809D01*
X146322142Y-126280333D01*
X146261666Y-126159380D01*
X146261666Y-126038428D01*
X146322142Y-125917476D01*
X146382619Y-125857000D01*
X146503571Y-125796523D01*
X146805952Y-125796523D01*
X146987380Y-125857000D01*
X147410714Y-125796523D02*
X147713095Y-127066523D01*
X147955000Y-126159380D01*
X148196904Y-127066523D01*
X148499285Y-125796523D01*
X148922619Y-125917476D02*
X148983095Y-125857000D01*
X149104047Y-125796523D01*
X149406428Y-125796523D01*
X149527380Y-125857000D01*
X149587857Y-125917476D01*
X149648333Y-126038428D01*
X149648333Y-126159380D01*
X149587857Y-126340809D01*
X148862142Y-127066523D01*
X149648333Y-127066523D01*
X147864285Y-101666523D02*
X147440952Y-101061761D01*
X147138571Y-101666523D02*
X147138571Y-100396523D01*
X147622380Y-100396523D01*
X147743333Y-100457000D01*
X147803809Y-100517476D01*
X147864285Y-100638428D01*
X147864285Y-100819857D01*
X147803809Y-100940809D01*
X147743333Y-101001285D01*
X147622380Y-101061761D01*
X147138571Y-101061761D01*
X148650476Y-100396523D02*
X148892380Y-100396523D01*
X149013333Y-100457000D01*
X149134285Y-100577952D01*
X149194761Y-100819857D01*
X149194761Y-101243190D01*
X149134285Y-101485095D01*
X149013333Y-101606047D01*
X148892380Y-101666523D01*
X148650476Y-101666523D01*
X148529523Y-101606047D01*
X148408571Y-101485095D01*
X148348095Y-101243190D01*
X148348095Y-100819857D01*
X148408571Y-100577952D01*
X148529523Y-100457000D01*
X148650476Y-100396523D01*
X149739047Y-101666523D02*
X149739047Y-100396523D01*
X150162380Y-101303666D01*
X150585714Y-100396523D01*
X150585714Y-101666523D01*
X152400000Y-100396523D02*
X152641904Y-100396523D01*
X152762857Y-100457000D01*
X152883809Y-100577952D01*
X152944285Y-100819857D01*
X152944285Y-101243190D01*
X152883809Y-101485095D01*
X152762857Y-101606047D01*
X152641904Y-101666523D01*
X152400000Y-101666523D01*
X152279047Y-101606047D01*
X152158095Y-101485095D01*
X152097619Y-101243190D01*
X152097619Y-100819857D01*
X152158095Y-100577952D01*
X152279047Y-100457000D01*
X152400000Y-100396523D01*
X153488571Y-101666523D02*
X153488571Y-100396523D01*
X153972380Y-100396523D01*
X154093333Y-100457000D01*
X154153809Y-100517476D01*
X154214285Y-100638428D01*
X154214285Y-100819857D01*
X154153809Y-100940809D01*
X154093333Y-101001285D01*
X153972380Y-101061761D01*
X153488571Y-101061761D01*
X154577142Y-100396523D02*
X155302857Y-100396523D01*
X154940000Y-101666523D02*
X154940000Y-100396523D01*
%TO.C,SW1*%
X53932666Y-128784047D02*
X54114095Y-128844523D01*
X54416476Y-128844523D01*
X54537428Y-128784047D01*
X54597904Y-128723571D01*
X54658380Y-128602619D01*
X54658380Y-128481666D01*
X54597904Y-128360714D01*
X54537428Y-128300238D01*
X54416476Y-128239761D01*
X54174571Y-128179285D01*
X54053619Y-128118809D01*
X53993142Y-128058333D01*
X53932666Y-127937380D01*
X53932666Y-127816428D01*
X53993142Y-127695476D01*
X54053619Y-127635000D01*
X54174571Y-127574523D01*
X54476952Y-127574523D01*
X54658380Y-127635000D01*
X55081714Y-127574523D02*
X55384095Y-128844523D01*
X55626000Y-127937380D01*
X55867904Y-128844523D01*
X56170285Y-127574523D01*
X57319333Y-128844523D02*
X56593619Y-128844523D01*
X56956476Y-128844523D02*
X56956476Y-127574523D01*
X56835523Y-127755952D01*
X56714571Y-127876904D01*
X56593619Y-127937380D01*
X55680428Y-103698523D02*
X55680428Y-102428523D01*
X57192333Y-102368047D02*
X56103761Y-104000904D01*
X57857571Y-102428523D02*
X58099476Y-102428523D01*
X58220428Y-102489000D01*
X58341380Y-102609952D01*
X58401857Y-102851857D01*
X58401857Y-103275190D01*
X58341380Y-103517095D01*
X58220428Y-103638047D01*
X58099476Y-103698523D01*
X57857571Y-103698523D01*
X57736619Y-103638047D01*
X57615666Y-103517095D01*
X57555190Y-103275190D01*
X57555190Y-102851857D01*
X57615666Y-102609952D01*
X57736619Y-102489000D01*
X57857571Y-102428523D01*
X59853285Y-103335666D02*
X60458047Y-103335666D01*
X59732333Y-103698523D02*
X60155666Y-102428523D01*
X60579000Y-103698523D01*
X61002333Y-103698523D02*
X61002333Y-102428523D01*
X61304714Y-102428523D01*
X61486142Y-102489000D01*
X61607095Y-102609952D01*
X61667571Y-102730904D01*
X61728047Y-102972809D01*
X61728047Y-103154238D01*
X61667571Y-103396142D01*
X61607095Y-103517095D01*
X61486142Y-103638047D01*
X61304714Y-103698523D01*
X61002333Y-103698523D01*
X62272333Y-103698523D02*
X62272333Y-102428523D01*
X62574714Y-102428523D01*
X62756142Y-102489000D01*
X62877095Y-102609952D01*
X62937571Y-102730904D01*
X62998047Y-102972809D01*
X62998047Y-103154238D01*
X62937571Y-103396142D01*
X62877095Y-103517095D01*
X62756142Y-103638047D01*
X62574714Y-103698523D01*
X62272333Y-103698523D01*
X64268047Y-103698523D02*
X63844714Y-103093761D01*
X63542333Y-103698523D02*
X63542333Y-102428523D01*
X64026142Y-102428523D01*
X64147095Y-102489000D01*
X64207571Y-102549476D01*
X64268047Y-102670428D01*
X64268047Y-102851857D01*
X64207571Y-102972809D01*
X64147095Y-103033285D01*
X64026142Y-103093761D01*
X63542333Y-103093761D01*
%TO.C,RP1*%
X66844333Y-128844523D02*
X66421000Y-128239761D01*
X66118619Y-128844523D02*
X66118619Y-127574523D01*
X66602428Y-127574523D01*
X66723380Y-127635000D01*
X66783857Y-127695476D01*
X66844333Y-127816428D01*
X66844333Y-127997857D01*
X66783857Y-128118809D01*
X66723380Y-128179285D01*
X66602428Y-128239761D01*
X66118619Y-128239761D01*
X67388619Y-128844523D02*
X67388619Y-127574523D01*
X67872428Y-127574523D01*
X67993380Y-127635000D01*
X68053857Y-127695476D01*
X68114333Y-127816428D01*
X68114333Y-127997857D01*
X68053857Y-128118809D01*
X67993380Y-128179285D01*
X67872428Y-128239761D01*
X67388619Y-128239761D01*
X69323857Y-128844523D02*
X68598142Y-128844523D01*
X68961000Y-128844523D02*
X68961000Y-127574523D01*
X68840047Y-127755952D01*
X68719095Y-127876904D01*
X68598142Y-127937380D01*
%TO.C,RP2*%
X162094333Y-128082523D02*
X161671000Y-127477761D01*
X161368619Y-128082523D02*
X161368619Y-126812523D01*
X161852428Y-126812523D01*
X161973380Y-126873000D01*
X162033857Y-126933476D01*
X162094333Y-127054428D01*
X162094333Y-127235857D01*
X162033857Y-127356809D01*
X161973380Y-127417285D01*
X161852428Y-127477761D01*
X161368619Y-127477761D01*
X162638619Y-128082523D02*
X162638619Y-126812523D01*
X163122428Y-126812523D01*
X163243380Y-126873000D01*
X163303857Y-126933476D01*
X163364333Y-127054428D01*
X163364333Y-127235857D01*
X163303857Y-127356809D01*
X163243380Y-127417285D01*
X163122428Y-127477761D01*
X162638619Y-127477761D01*
X163848142Y-126933476D02*
X163908619Y-126873000D01*
X164029571Y-126812523D01*
X164331952Y-126812523D01*
X164452904Y-126873000D01*
X164513380Y-126933476D01*
X164573857Y-127054428D01*
X164573857Y-127175380D01*
X164513380Y-127356809D01*
X163787666Y-128082523D01*
X164573857Y-128082523D01*
%TO.C,C1*%
X68495333Y-53920571D02*
X68434857Y-53981047D01*
X68253428Y-54041523D01*
X68132476Y-54041523D01*
X67951047Y-53981047D01*
X67830095Y-53860095D01*
X67769619Y-53739142D01*
X67709142Y-53497238D01*
X67709142Y-53315809D01*
X67769619Y-53073904D01*
X67830095Y-52952952D01*
X67951047Y-52832000D01*
X68132476Y-52771523D01*
X68253428Y-52771523D01*
X68434857Y-52832000D01*
X68495333Y-52892476D01*
X69704857Y-54041523D02*
X68979142Y-54041523D01*
X69342000Y-54041523D02*
X69342000Y-52771523D01*
X69221047Y-52952952D01*
X69100095Y-53073904D01*
X68979142Y-53134380D01*
X69100095Y-51380571D02*
X69039619Y-51441047D01*
X68858190Y-51501523D01*
X68737238Y-51501523D01*
X68555809Y-51441047D01*
X68434857Y-51320095D01*
X68374380Y-51199142D01*
X68313904Y-50957238D01*
X68313904Y-50775809D01*
X68374380Y-50533904D01*
X68434857Y-50412952D01*
X68555809Y-50292000D01*
X68737238Y-50231523D01*
X68858190Y-50231523D01*
X69039619Y-50292000D01*
X69100095Y-50352476D01*
%TO.C,C2*%
X81830333Y-53920571D02*
X81769857Y-53981047D01*
X81588428Y-54041523D01*
X81467476Y-54041523D01*
X81286047Y-53981047D01*
X81165095Y-53860095D01*
X81104619Y-53739142D01*
X81044142Y-53497238D01*
X81044142Y-53315809D01*
X81104619Y-53073904D01*
X81165095Y-52952952D01*
X81286047Y-52832000D01*
X81467476Y-52771523D01*
X81588428Y-52771523D01*
X81769857Y-52832000D01*
X81830333Y-52892476D01*
X82314142Y-52892476D02*
X82374619Y-52832000D01*
X82495571Y-52771523D01*
X82797952Y-52771523D01*
X82918904Y-52832000D01*
X82979380Y-52892476D01*
X83039857Y-53013428D01*
X83039857Y-53134380D01*
X82979380Y-53315809D01*
X82253666Y-54041523D01*
X83039857Y-54041523D01*
X82435095Y-51380571D02*
X82374619Y-51441047D01*
X82193190Y-51501523D01*
X82072238Y-51501523D01*
X81890809Y-51441047D01*
X81769857Y-51320095D01*
X81709380Y-51199142D01*
X81648904Y-50957238D01*
X81648904Y-50775809D01*
X81709380Y-50533904D01*
X81769857Y-50412952D01*
X81890809Y-50292000D01*
X82072238Y-50231523D01*
X82193190Y-50231523D01*
X82374619Y-50292000D01*
X82435095Y-50352476D01*
%TO.C,C3*%
X108246333Y-53920571D02*
X108185857Y-53981047D01*
X108004428Y-54041523D01*
X107883476Y-54041523D01*
X107702047Y-53981047D01*
X107581095Y-53860095D01*
X107520619Y-53739142D01*
X107460142Y-53497238D01*
X107460142Y-53315809D01*
X107520619Y-53073904D01*
X107581095Y-52952952D01*
X107702047Y-52832000D01*
X107883476Y-52771523D01*
X108004428Y-52771523D01*
X108185857Y-52832000D01*
X108246333Y-52892476D01*
X108669666Y-52771523D02*
X109455857Y-52771523D01*
X109032523Y-53255333D01*
X109213952Y-53255333D01*
X109334904Y-53315809D01*
X109395380Y-53376285D01*
X109455857Y-53497238D01*
X109455857Y-53799619D01*
X109395380Y-53920571D01*
X109334904Y-53981047D01*
X109213952Y-54041523D01*
X108851095Y-54041523D01*
X108730142Y-53981047D01*
X108669666Y-53920571D01*
X108851095Y-51380571D02*
X108790619Y-51441047D01*
X108609190Y-51501523D01*
X108488238Y-51501523D01*
X108306809Y-51441047D01*
X108185857Y-51320095D01*
X108125380Y-51199142D01*
X108064904Y-50957238D01*
X108064904Y-50775809D01*
X108125380Y-50533904D01*
X108185857Y-50412952D01*
X108306809Y-50292000D01*
X108488238Y-50231523D01*
X108609190Y-50231523D01*
X108790619Y-50292000D01*
X108851095Y-50352476D01*
%TO.C,C4*%
X137202333Y-59508571D02*
X137141857Y-59569047D01*
X136960428Y-59629523D01*
X136839476Y-59629523D01*
X136658047Y-59569047D01*
X136537095Y-59448095D01*
X136476619Y-59327142D01*
X136416142Y-59085238D01*
X136416142Y-58903809D01*
X136476619Y-58661904D01*
X136537095Y-58540952D01*
X136658047Y-58420000D01*
X136839476Y-58359523D01*
X136960428Y-58359523D01*
X137141857Y-58420000D01*
X137202333Y-58480476D01*
X138290904Y-58782857D02*
X138290904Y-59629523D01*
X137988523Y-58299047D02*
X137686142Y-59206190D01*
X138472333Y-59206190D01*
X137807095Y-62048571D02*
X137746619Y-62109047D01*
X137565190Y-62169523D01*
X137444238Y-62169523D01*
X137262809Y-62109047D01*
X137141857Y-61988095D01*
X137081380Y-61867142D01*
X137020904Y-61625238D01*
X137020904Y-61443809D01*
X137081380Y-61201904D01*
X137141857Y-61080952D01*
X137262809Y-60960000D01*
X137444238Y-60899523D01*
X137565190Y-60899523D01*
X137746619Y-60960000D01*
X137807095Y-61020476D01*
%TO.C,C5*%
X148632333Y-59508571D02*
X148571857Y-59569047D01*
X148390428Y-59629523D01*
X148269476Y-59629523D01*
X148088047Y-59569047D01*
X147967095Y-59448095D01*
X147906619Y-59327142D01*
X147846142Y-59085238D01*
X147846142Y-58903809D01*
X147906619Y-58661904D01*
X147967095Y-58540952D01*
X148088047Y-58420000D01*
X148269476Y-58359523D01*
X148390428Y-58359523D01*
X148571857Y-58420000D01*
X148632333Y-58480476D01*
X149781380Y-58359523D02*
X149176619Y-58359523D01*
X149116142Y-58964285D01*
X149176619Y-58903809D01*
X149297571Y-58843333D01*
X149599952Y-58843333D01*
X149720904Y-58903809D01*
X149781380Y-58964285D01*
X149841857Y-59085238D01*
X149841857Y-59387619D01*
X149781380Y-59508571D01*
X149720904Y-59569047D01*
X149599952Y-59629523D01*
X149297571Y-59629523D01*
X149176619Y-59569047D01*
X149116142Y-59508571D01*
X149237095Y-62048571D02*
X149176619Y-62109047D01*
X148995190Y-62169523D01*
X148874238Y-62169523D01*
X148692809Y-62109047D01*
X148571857Y-61988095D01*
X148511380Y-61867142D01*
X148450904Y-61625238D01*
X148450904Y-61443809D01*
X148511380Y-61201904D01*
X148571857Y-61080952D01*
X148692809Y-60960000D01*
X148874238Y-60899523D01*
X148995190Y-60899523D01*
X149176619Y-60960000D01*
X149237095Y-61020476D01*
%TO.C,C6*%
X160062333Y-59508571D02*
X160001857Y-59569047D01*
X159820428Y-59629523D01*
X159699476Y-59629523D01*
X159518047Y-59569047D01*
X159397095Y-59448095D01*
X159336619Y-59327142D01*
X159276142Y-59085238D01*
X159276142Y-58903809D01*
X159336619Y-58661904D01*
X159397095Y-58540952D01*
X159518047Y-58420000D01*
X159699476Y-58359523D01*
X159820428Y-58359523D01*
X160001857Y-58420000D01*
X160062333Y-58480476D01*
X161150904Y-58359523D02*
X160909000Y-58359523D01*
X160788047Y-58420000D01*
X160727571Y-58480476D01*
X160606619Y-58661904D01*
X160546142Y-58903809D01*
X160546142Y-59387619D01*
X160606619Y-59508571D01*
X160667095Y-59569047D01*
X160788047Y-59629523D01*
X161029952Y-59629523D01*
X161150904Y-59569047D01*
X161211380Y-59508571D01*
X161271857Y-59387619D01*
X161271857Y-59085238D01*
X161211380Y-58964285D01*
X161150904Y-58903809D01*
X161029952Y-58843333D01*
X160788047Y-58843333D01*
X160667095Y-58903809D01*
X160606619Y-58964285D01*
X160546142Y-59085238D01*
X160667095Y-62048571D02*
X160606619Y-62109047D01*
X160425190Y-62169523D01*
X160304238Y-62169523D01*
X160122809Y-62109047D01*
X160001857Y-61988095D01*
X159941380Y-61867142D01*
X159880904Y-61625238D01*
X159880904Y-61443809D01*
X159941380Y-61201904D01*
X160001857Y-61080952D01*
X160122809Y-60960000D01*
X160304238Y-60899523D01*
X160425190Y-60899523D01*
X160606619Y-60960000D01*
X160667095Y-61020476D01*
%TO.C,C7*%
X177842333Y-59699071D02*
X177781857Y-59759547D01*
X177600428Y-59820023D01*
X177479476Y-59820023D01*
X177298047Y-59759547D01*
X177177095Y-59638595D01*
X177116619Y-59517642D01*
X177056142Y-59275738D01*
X177056142Y-59094309D01*
X177116619Y-58852404D01*
X177177095Y-58731452D01*
X177298047Y-58610500D01*
X177479476Y-58550023D01*
X177600428Y-58550023D01*
X177781857Y-58610500D01*
X177842333Y-58670976D01*
X178265666Y-58550023D02*
X179112333Y-58550023D01*
X178568047Y-59820023D01*
X172097095Y-59699071D02*
X172036619Y-59759547D01*
X171855190Y-59820023D01*
X171734238Y-59820023D01*
X171552809Y-59759547D01*
X171431857Y-59638595D01*
X171371380Y-59517642D01*
X171310904Y-59275738D01*
X171310904Y-59094309D01*
X171371380Y-58852404D01*
X171431857Y-58731452D01*
X171552809Y-58610500D01*
X171734238Y-58550023D01*
X171855190Y-58550023D01*
X172036619Y-58610500D01*
X172097095Y-58670976D01*
%TO.C,C8*%
X74972333Y-97989571D02*
X74911857Y-98050047D01*
X74730428Y-98110523D01*
X74609476Y-98110523D01*
X74428047Y-98050047D01*
X74307095Y-97929095D01*
X74246619Y-97808142D01*
X74186142Y-97566238D01*
X74186142Y-97384809D01*
X74246619Y-97142904D01*
X74307095Y-97021952D01*
X74428047Y-96901000D01*
X74609476Y-96840523D01*
X74730428Y-96840523D01*
X74911857Y-96901000D01*
X74972333Y-96961476D01*
X75698047Y-97384809D02*
X75577095Y-97324333D01*
X75516619Y-97263857D01*
X75456142Y-97142904D01*
X75456142Y-97082428D01*
X75516619Y-96961476D01*
X75577095Y-96901000D01*
X75698047Y-96840523D01*
X75939952Y-96840523D01*
X76060904Y-96901000D01*
X76121380Y-96961476D01*
X76181857Y-97082428D01*
X76181857Y-97142904D01*
X76121380Y-97263857D01*
X76060904Y-97324333D01*
X75939952Y-97384809D01*
X75698047Y-97384809D01*
X75577095Y-97445285D01*
X75516619Y-97505761D01*
X75456142Y-97626714D01*
X75456142Y-97868619D01*
X75516619Y-97989571D01*
X75577095Y-98050047D01*
X75698047Y-98110523D01*
X75939952Y-98110523D01*
X76060904Y-98050047D01*
X76121380Y-97989571D01*
X76181857Y-97868619D01*
X76181857Y-97626714D01*
X76121380Y-97505761D01*
X76060904Y-97445285D01*
X75939952Y-97384809D01*
X82562095Y-97989571D02*
X82501619Y-98050047D01*
X82320190Y-98110523D01*
X82199238Y-98110523D01*
X82017809Y-98050047D01*
X81896857Y-97929095D01*
X81836380Y-97808142D01*
X81775904Y-97566238D01*
X81775904Y-97384809D01*
X81836380Y-97142904D01*
X81896857Y-97021952D01*
X82017809Y-96901000D01*
X82199238Y-96840523D01*
X82320190Y-96840523D01*
X82501619Y-96901000D01*
X82562095Y-96961476D01*
%TO.C,C10*%
X170887571Y-94306571D02*
X170827095Y-94367047D01*
X170645666Y-94427523D01*
X170524714Y-94427523D01*
X170343285Y-94367047D01*
X170222333Y-94246095D01*
X170161857Y-94125142D01*
X170101380Y-93883238D01*
X170101380Y-93701809D01*
X170161857Y-93459904D01*
X170222333Y-93338952D01*
X170343285Y-93218000D01*
X170524714Y-93157523D01*
X170645666Y-93157523D01*
X170827095Y-93218000D01*
X170887571Y-93278476D01*
X172097095Y-94427523D02*
X171371380Y-94427523D01*
X171734238Y-94427523D02*
X171734238Y-93157523D01*
X171613285Y-93338952D01*
X171492333Y-93459904D01*
X171371380Y-93520380D01*
X172883285Y-93157523D02*
X173004238Y-93157523D01*
X173125190Y-93218000D01*
X173185666Y-93278476D01*
X173246142Y-93399428D01*
X173306619Y-93641333D01*
X173306619Y-93943714D01*
X173246142Y-94185619D01*
X173185666Y-94306571D01*
X173125190Y-94367047D01*
X173004238Y-94427523D01*
X172883285Y-94427523D01*
X172762333Y-94367047D01*
X172701857Y-94306571D01*
X172641380Y-94185619D01*
X172580904Y-93943714D01*
X172580904Y-93641333D01*
X172641380Y-93399428D01*
X172701857Y-93278476D01*
X172762333Y-93218000D01*
X172883285Y-93157523D01*
X172097095Y-96846571D02*
X172036619Y-96907047D01*
X171855190Y-96967523D01*
X171734238Y-96967523D01*
X171552809Y-96907047D01*
X171431857Y-96786095D01*
X171371380Y-96665142D01*
X171310904Y-96423238D01*
X171310904Y-96241809D01*
X171371380Y-95999904D01*
X171431857Y-95878952D01*
X171552809Y-95758000D01*
X171734238Y-95697523D01*
X171855190Y-95697523D01*
X172036619Y-95758000D01*
X172097095Y-95818476D01*
%TO.C,R1*%
X167301333Y-49787023D02*
X166878000Y-49182261D01*
X166575619Y-49787023D02*
X166575619Y-48517023D01*
X167059428Y-48517023D01*
X167180380Y-48577500D01*
X167240857Y-48637976D01*
X167301333Y-48758928D01*
X167301333Y-48940357D01*
X167240857Y-49061309D01*
X167180380Y-49121785D01*
X167059428Y-49182261D01*
X166575619Y-49182261D01*
X168510857Y-49787023D02*
X167785142Y-49787023D01*
X168148000Y-49787023D02*
X168148000Y-48517023D01*
X168027047Y-48698452D01*
X167906095Y-48819404D01*
X167785142Y-48879880D01*
X165910380Y-51480357D02*
X165910380Y-52327023D01*
X165608000Y-50996547D02*
X165305619Y-51903690D01*
X166091809Y-51903690D01*
X166454666Y-51057023D02*
X167301333Y-51057023D01*
X166757047Y-52327023D01*
X168027047Y-51057023D02*
X168148000Y-51057023D01*
X168268952Y-51117500D01*
X168329428Y-51177976D01*
X168389904Y-51298928D01*
X168450380Y-51540833D01*
X168450380Y-51843214D01*
X168389904Y-52085119D01*
X168329428Y-52206071D01*
X168268952Y-52266547D01*
X168148000Y-52327023D01*
X168027047Y-52327023D01*
X167906095Y-52266547D01*
X167845619Y-52206071D01*
X167785142Y-52085119D01*
X167724666Y-51843214D01*
X167724666Y-51540833D01*
X167785142Y-51298928D01*
X167845619Y-51177976D01*
X167906095Y-51117500D01*
X168027047Y-51057023D01*
X169720380Y-52327023D02*
X169297047Y-51722261D01*
X168994666Y-52327023D02*
X168994666Y-51057023D01*
X169478476Y-51057023D01*
X169599428Y-51117500D01*
X169659904Y-51177976D01*
X169720380Y-51298928D01*
X169720380Y-51480357D01*
X169659904Y-51601309D01*
X169599428Y-51661785D01*
X169478476Y-51722261D01*
X168994666Y-51722261D01*
%TO.C,R2*%
X186351333Y-74615523D02*
X185928000Y-74010761D01*
X185625619Y-74615523D02*
X185625619Y-73345523D01*
X186109428Y-73345523D01*
X186230380Y-73406000D01*
X186290857Y-73466476D01*
X186351333Y-73587428D01*
X186351333Y-73768857D01*
X186290857Y-73889809D01*
X186230380Y-73950285D01*
X186109428Y-74010761D01*
X185625619Y-74010761D01*
X186835142Y-73466476D02*
X186895619Y-73406000D01*
X187016571Y-73345523D01*
X187318952Y-73345523D01*
X187439904Y-73406000D01*
X187500380Y-73466476D01*
X187560857Y-73587428D01*
X187560857Y-73708380D01*
X187500380Y-73889809D01*
X186774666Y-74615523D01*
X187560857Y-74615523D01*
%TO.C,U4*%
X133271380Y-84394523D02*
X133271380Y-85422619D01*
X133331857Y-85543571D01*
X133392333Y-85604047D01*
X133513285Y-85664523D01*
X133755190Y-85664523D01*
X133876142Y-85604047D01*
X133936619Y-85543571D01*
X133997095Y-85422619D01*
X133997095Y-84394523D01*
X135146142Y-84817857D02*
X135146142Y-85664523D01*
X134843761Y-84334047D02*
X134541380Y-85241190D01*
X135327571Y-85241190D01*
%TO.C,C11*%
X94687571Y-53793571D02*
X94627095Y-53854047D01*
X94445666Y-53914523D01*
X94324714Y-53914523D01*
X94143285Y-53854047D01*
X94022333Y-53733095D01*
X93961857Y-53612142D01*
X93901380Y-53370238D01*
X93901380Y-53188809D01*
X93961857Y-52946904D01*
X94022333Y-52825952D01*
X94143285Y-52705000D01*
X94324714Y-52644523D01*
X94445666Y-52644523D01*
X94627095Y-52705000D01*
X94687571Y-52765476D01*
X95897095Y-53914523D02*
X95171380Y-53914523D01*
X95534238Y-53914523D02*
X95534238Y-52644523D01*
X95413285Y-52825952D01*
X95292333Y-52946904D01*
X95171380Y-53007380D01*
X97106619Y-53914523D02*
X96380904Y-53914523D01*
X96743761Y-53914523D02*
X96743761Y-52644523D01*
X96622809Y-52825952D01*
X96501857Y-52946904D01*
X96380904Y-53007380D01*
X95643095Y-51380571D02*
X95582619Y-51441047D01*
X95401190Y-51501523D01*
X95280238Y-51501523D01*
X95098809Y-51441047D01*
X94977857Y-51320095D01*
X94917380Y-51199142D01*
X94856904Y-50957238D01*
X94856904Y-50775809D01*
X94917380Y-50533904D01*
X94977857Y-50412952D01*
X95098809Y-50292000D01*
X95280238Y-50231523D01*
X95401190Y-50231523D01*
X95582619Y-50292000D01*
X95643095Y-50352476D01*
%TD*%
M02*
