%TF.GenerationSoftware,KiCad,Pcbnew,(5.1.12)-1*%
%TF.CreationDate,2022-05-27T21:25:41+02:00*%
%TF.ProjectId,EC1834-XT-IDE,45433138-3334-42d5-9854-2d4944452e6b,4b*%
%TF.SameCoordinates,Original*%
%TF.FileFunction,Soldermask,Bot*%
%TF.FilePolarity,Negative*%
%FSLAX46Y46*%
G04 Gerber Fmt 4.6, Leading zero omitted, Abs format (unit mm)*
G04 Created by KiCad (PCBNEW (5.1.12)-1) date 2022-05-27 21:25:41*
%MOMM*%
%LPD*%
G01*
G04 APERTURE LIST*
%ADD10C,0.254000*%
%ADD11C,0.381000*%
%ADD12C,2.058000*%
%ADD13C,3.358000*%
%ADD14O,2.808000X2.108000*%
%ADD15C,2.506980*%
%ADD16C,4.572000*%
%ADD17C,2.235200*%
%ADD18C,2.408000*%
%ADD19O,2.235200X2.235200*%
G04 APERTURE END LIST*
D10*
X77300666Y-131680857D02*
X77058761Y-132527523D01*
X76816857Y-131922761D01*
X76574952Y-132527523D01*
X76333047Y-131680857D01*
X75970190Y-131680857D02*
X75728285Y-132527523D01*
X75486380Y-131922761D01*
X75244476Y-132527523D01*
X75002571Y-131680857D01*
X74639714Y-131680857D02*
X74397809Y-132527523D01*
X74155904Y-131922761D01*
X73914000Y-132527523D01*
X73672095Y-131680857D01*
X73188285Y-132406571D02*
X73127809Y-132467047D01*
X73188285Y-132527523D01*
X73248761Y-132467047D01*
X73188285Y-132406571D01*
X73188285Y-132527523D01*
X72039238Y-131680857D02*
X72039238Y-132708952D01*
X72099714Y-132829904D01*
X72160190Y-132890380D01*
X72281142Y-132950857D01*
X72462571Y-132950857D01*
X72583523Y-132890380D01*
X72039238Y-132467047D02*
X72160190Y-132527523D01*
X72402095Y-132527523D01*
X72523047Y-132467047D01*
X72583523Y-132406571D01*
X72644000Y-132285619D01*
X72644000Y-131922761D01*
X72583523Y-131801809D01*
X72523047Y-131741333D01*
X72402095Y-131680857D01*
X72160190Y-131680857D01*
X72039238Y-131741333D01*
X71253047Y-132527523D02*
X71374000Y-132467047D01*
X71434476Y-132346095D01*
X71434476Y-131257523D01*
X70769238Y-132527523D02*
X70769238Y-131680857D01*
X70769238Y-131257523D02*
X70829714Y-131318000D01*
X70769238Y-131378476D01*
X70708761Y-131318000D01*
X70769238Y-131257523D01*
X70769238Y-131378476D01*
X70345904Y-131680857D02*
X69862095Y-131680857D01*
X70164476Y-131257523D02*
X70164476Y-132346095D01*
X70104000Y-132467047D01*
X69983047Y-132527523D01*
X69862095Y-132527523D01*
X68894476Y-132467047D02*
X69015428Y-132527523D01*
X69257333Y-132527523D01*
X69378285Y-132467047D01*
X69438761Y-132406571D01*
X69499238Y-132285619D01*
X69499238Y-131922761D01*
X69438761Y-131801809D01*
X69378285Y-131741333D01*
X69257333Y-131680857D01*
X69015428Y-131680857D01*
X68894476Y-131741333D01*
X68350190Y-132527523D02*
X68350190Y-131257523D01*
X67805904Y-132527523D02*
X67805904Y-131862285D01*
X67866380Y-131741333D01*
X67987333Y-131680857D01*
X68168761Y-131680857D01*
X68289714Y-131741333D01*
X68350190Y-131801809D01*
X67322095Y-131680857D02*
X67080190Y-132527523D01*
X66838285Y-131922761D01*
X66596380Y-132527523D01*
X66354476Y-131680857D01*
X65870666Y-132527523D02*
X65870666Y-131680857D01*
X65870666Y-131922761D02*
X65810190Y-131801809D01*
X65749714Y-131741333D01*
X65628761Y-131680857D01*
X65507809Y-131680857D01*
X65084476Y-132527523D02*
X65084476Y-131257523D01*
X64963523Y-132043714D02*
X64600666Y-132527523D01*
X64600666Y-131680857D02*
X65084476Y-132164666D01*
X64116857Y-132467047D02*
X63995904Y-132527523D01*
X63754000Y-132527523D01*
X63633047Y-132467047D01*
X63572571Y-132346095D01*
X63572571Y-132285619D01*
X63633047Y-132164666D01*
X63754000Y-132104190D01*
X63935428Y-132104190D01*
X64056380Y-132043714D01*
X64116857Y-131922761D01*
X64116857Y-131862285D01*
X64056380Y-131741333D01*
X63935428Y-131680857D01*
X63754000Y-131680857D01*
X63633047Y-131741333D01*
X63028285Y-132406571D02*
X62967809Y-132467047D01*
X63028285Y-132527523D01*
X63088761Y-132467047D01*
X63028285Y-132406571D01*
X63028285Y-132527523D01*
X61879238Y-132467047D02*
X62000190Y-132527523D01*
X62242095Y-132527523D01*
X62363047Y-132467047D01*
X62423523Y-132406571D01*
X62484000Y-132285619D01*
X62484000Y-131922761D01*
X62423523Y-131801809D01*
X62363047Y-131741333D01*
X62242095Y-131680857D01*
X62000190Y-131680857D01*
X61879238Y-131741333D01*
X61153523Y-132527523D02*
X61274476Y-132467047D01*
X61334952Y-132406571D01*
X61395428Y-132285619D01*
X61395428Y-131922761D01*
X61334952Y-131801809D01*
X61274476Y-131741333D01*
X61153523Y-131680857D01*
X60972095Y-131680857D01*
X60851142Y-131741333D01*
X60790666Y-131801809D01*
X60730190Y-131922761D01*
X60730190Y-132285619D01*
X60790666Y-132406571D01*
X60851142Y-132467047D01*
X60972095Y-132527523D01*
X61153523Y-132527523D01*
X60185904Y-132527523D02*
X60185904Y-131680857D01*
X60185904Y-131801809D02*
X60125428Y-131741333D01*
X60004476Y-131680857D01*
X59823047Y-131680857D01*
X59702095Y-131741333D01*
X59641619Y-131862285D01*
X59641619Y-132527523D01*
X59641619Y-131862285D02*
X59581142Y-131741333D01*
X59460190Y-131680857D01*
X59278761Y-131680857D01*
X59157809Y-131741333D01*
X59097333Y-131862285D01*
X59097333Y-132527523D01*
X57585428Y-131197047D02*
X58674000Y-132829904D01*
X57283047Y-132527523D02*
X56617809Y-131680857D01*
X57283047Y-131680857D02*
X56617809Y-132527523D01*
X56315428Y-131680857D02*
X55831619Y-131680857D01*
X56134000Y-131257523D02*
X56134000Y-132346095D01*
X56073523Y-132467047D01*
X55952571Y-132527523D01*
X55831619Y-132527523D01*
X55408285Y-132043714D02*
X54440666Y-132043714D01*
X53835904Y-132527523D02*
X53835904Y-131680857D01*
X53835904Y-131257523D02*
X53896380Y-131318000D01*
X53835904Y-131378476D01*
X53775428Y-131318000D01*
X53835904Y-131257523D01*
X53835904Y-131378476D01*
X52686857Y-132527523D02*
X52686857Y-131257523D01*
X52686857Y-132467047D02*
X52807809Y-132527523D01*
X53049714Y-132527523D01*
X53170666Y-132467047D01*
X53231142Y-132406571D01*
X53291619Y-132285619D01*
X53291619Y-131922761D01*
X53231142Y-131801809D01*
X53170666Y-131741333D01*
X53049714Y-131680857D01*
X52807809Y-131680857D01*
X52686857Y-131741333D01*
X51598285Y-132467047D02*
X51719238Y-132527523D01*
X51961142Y-132527523D01*
X52082095Y-132467047D01*
X52142571Y-132346095D01*
X52142571Y-131862285D01*
X52082095Y-131741333D01*
X51961142Y-131680857D01*
X51719238Y-131680857D01*
X51598285Y-131741333D01*
X51537809Y-131862285D01*
X51537809Y-131983238D01*
X52142571Y-132104190D01*
X81896857Y-133839857D02*
X81896857Y-134867952D01*
X81957333Y-134988904D01*
X82017809Y-135049380D01*
X82138761Y-135109857D01*
X82320190Y-135109857D01*
X82441142Y-135049380D01*
X81896857Y-134626047D02*
X82017809Y-134686523D01*
X82259714Y-134686523D01*
X82380666Y-134626047D01*
X82441142Y-134565571D01*
X82501619Y-134444619D01*
X82501619Y-134081761D01*
X82441142Y-133960809D01*
X82380666Y-133900333D01*
X82259714Y-133839857D01*
X82017809Y-133839857D01*
X81896857Y-133900333D01*
X81292095Y-134686523D02*
X81292095Y-133839857D01*
X81292095Y-133416523D02*
X81352571Y-133477000D01*
X81292095Y-133537476D01*
X81231619Y-133477000D01*
X81292095Y-133416523D01*
X81292095Y-133537476D01*
X80868761Y-133839857D02*
X80384952Y-133839857D01*
X80687333Y-133416523D02*
X80687333Y-134505095D01*
X80626857Y-134626047D01*
X80505904Y-134686523D01*
X80384952Y-134686523D01*
X79961619Y-134686523D02*
X79961619Y-133416523D01*
X79417333Y-134686523D02*
X79417333Y-134021285D01*
X79477809Y-133900333D01*
X79598761Y-133839857D01*
X79780190Y-133839857D01*
X79901142Y-133900333D01*
X79961619Y-133960809D01*
X78268285Y-133839857D02*
X78268285Y-134686523D01*
X78812571Y-133839857D02*
X78812571Y-134505095D01*
X78752095Y-134626047D01*
X78631142Y-134686523D01*
X78449714Y-134686523D01*
X78328761Y-134626047D01*
X78268285Y-134565571D01*
X77663523Y-134686523D02*
X77663523Y-133416523D01*
X77663523Y-133900333D02*
X77542571Y-133839857D01*
X77300666Y-133839857D01*
X77179714Y-133900333D01*
X77119238Y-133960809D01*
X77058761Y-134081761D01*
X77058761Y-134444619D01*
X77119238Y-134565571D01*
X77179714Y-134626047D01*
X77300666Y-134686523D01*
X77542571Y-134686523D01*
X77663523Y-134626047D01*
X76514476Y-134565571D02*
X76454000Y-134626047D01*
X76514476Y-134686523D01*
X76574952Y-134626047D01*
X76514476Y-134565571D01*
X76514476Y-134686523D01*
X75365428Y-134626047D02*
X75486380Y-134686523D01*
X75728285Y-134686523D01*
X75849238Y-134626047D01*
X75909714Y-134565571D01*
X75970190Y-134444619D01*
X75970190Y-134081761D01*
X75909714Y-133960809D01*
X75849238Y-133900333D01*
X75728285Y-133839857D01*
X75486380Y-133839857D01*
X75365428Y-133900333D01*
X74639714Y-134686523D02*
X74760666Y-134626047D01*
X74821142Y-134565571D01*
X74881619Y-134444619D01*
X74881619Y-134081761D01*
X74821142Y-133960809D01*
X74760666Y-133900333D01*
X74639714Y-133839857D01*
X74458285Y-133839857D01*
X74337333Y-133900333D01*
X74276857Y-133960809D01*
X74216380Y-134081761D01*
X74216380Y-134444619D01*
X74276857Y-134565571D01*
X74337333Y-134626047D01*
X74458285Y-134686523D01*
X74639714Y-134686523D01*
X73672095Y-134686523D02*
X73672095Y-133839857D01*
X73672095Y-133960809D02*
X73611619Y-133900333D01*
X73490666Y-133839857D01*
X73309238Y-133839857D01*
X73188285Y-133900333D01*
X73127809Y-134021285D01*
X73127809Y-134686523D01*
X73127809Y-134021285D02*
X73067333Y-133900333D01*
X72946380Y-133839857D01*
X72764952Y-133839857D01*
X72644000Y-133900333D01*
X72583523Y-134021285D01*
X72583523Y-134686523D01*
X71071619Y-133356047D02*
X72160190Y-134988904D01*
X70648285Y-134686523D02*
X70648285Y-133839857D01*
X70648285Y-133960809D02*
X70587809Y-133900333D01*
X70466857Y-133839857D01*
X70285428Y-133839857D01*
X70164476Y-133900333D01*
X70104000Y-134021285D01*
X70104000Y-134686523D01*
X70104000Y-134021285D02*
X70043523Y-133900333D01*
X69922571Y-133839857D01*
X69741142Y-133839857D01*
X69620190Y-133900333D01*
X69559714Y-134021285D01*
X69559714Y-134686523D01*
X68410666Y-133839857D02*
X68410666Y-134867952D01*
X68471142Y-134988904D01*
X68531619Y-135049380D01*
X68652571Y-135109857D01*
X68834000Y-135109857D01*
X68954952Y-135049380D01*
X68410666Y-134626047D02*
X68531619Y-134686523D01*
X68773523Y-134686523D01*
X68894476Y-134626047D01*
X68954952Y-134565571D01*
X69015428Y-134444619D01*
X69015428Y-134081761D01*
X68954952Y-133960809D01*
X68894476Y-133900333D01*
X68773523Y-133839857D01*
X68531619Y-133839857D01*
X68410666Y-133900333D01*
X67624476Y-134686523D02*
X67745428Y-134626047D01*
X67805904Y-134565571D01*
X67866380Y-134444619D01*
X67866380Y-134081761D01*
X67805904Y-133960809D01*
X67745428Y-133900333D01*
X67624476Y-133839857D01*
X67443047Y-133839857D01*
X67322095Y-133900333D01*
X67261619Y-133960809D01*
X67201142Y-134081761D01*
X67201142Y-134444619D01*
X67261619Y-134565571D01*
X67322095Y-134626047D01*
X67443047Y-134686523D01*
X67624476Y-134686523D01*
X66173047Y-134626047D02*
X66294000Y-134686523D01*
X66535904Y-134686523D01*
X66656857Y-134626047D01*
X66717333Y-134505095D01*
X66717333Y-134021285D01*
X66656857Y-133900333D01*
X66535904Y-133839857D01*
X66294000Y-133839857D01*
X66173047Y-133900333D01*
X66112571Y-134021285D01*
X66112571Y-134142238D01*
X66717333Y-134263190D01*
X65024000Y-133839857D02*
X65024000Y-134867952D01*
X65084476Y-134988904D01*
X65144952Y-135049380D01*
X65265904Y-135109857D01*
X65447333Y-135109857D01*
X65568285Y-135049380D01*
X65024000Y-134626047D02*
X65144952Y-134686523D01*
X65386857Y-134686523D01*
X65507809Y-134626047D01*
X65568285Y-134565571D01*
X65628761Y-134444619D01*
X65628761Y-134081761D01*
X65568285Y-133960809D01*
X65507809Y-133900333D01*
X65386857Y-133839857D01*
X65144952Y-133839857D01*
X65024000Y-133900333D01*
X63935428Y-134626047D02*
X64056380Y-134686523D01*
X64298285Y-134686523D01*
X64419238Y-134626047D01*
X64479714Y-134505095D01*
X64479714Y-134021285D01*
X64419238Y-133900333D01*
X64298285Y-133839857D01*
X64056380Y-133839857D01*
X63935428Y-133900333D01*
X63874952Y-134021285D01*
X63874952Y-134142238D01*
X64479714Y-134263190D01*
X63149238Y-134686523D02*
X63270190Y-134626047D01*
X63330666Y-134505095D01*
X63330666Y-133416523D01*
X61758285Y-133356047D02*
X62846857Y-134988904D01*
X61334952Y-134021285D02*
X60911619Y-134021285D01*
X60730190Y-134686523D02*
X61334952Y-134686523D01*
X61334952Y-133416523D01*
X60730190Y-133416523D01*
X59460190Y-134565571D02*
X59520666Y-134626047D01*
X59702095Y-134686523D01*
X59823047Y-134686523D01*
X60004476Y-134626047D01*
X60125428Y-134505095D01*
X60185904Y-134384142D01*
X60246380Y-134142238D01*
X60246380Y-133960809D01*
X60185904Y-133718904D01*
X60125428Y-133597952D01*
X60004476Y-133477000D01*
X59823047Y-133416523D01*
X59702095Y-133416523D01*
X59520666Y-133477000D01*
X59460190Y-133537476D01*
X58250666Y-134686523D02*
X58976380Y-134686523D01*
X58613523Y-134686523D02*
X58613523Y-133416523D01*
X58734476Y-133597952D01*
X58855428Y-133718904D01*
X58976380Y-133779380D01*
X57524952Y-133960809D02*
X57645904Y-133900333D01*
X57706380Y-133839857D01*
X57766857Y-133718904D01*
X57766857Y-133658428D01*
X57706380Y-133537476D01*
X57645904Y-133477000D01*
X57524952Y-133416523D01*
X57283047Y-133416523D01*
X57162095Y-133477000D01*
X57101619Y-133537476D01*
X57041142Y-133658428D01*
X57041142Y-133718904D01*
X57101619Y-133839857D01*
X57162095Y-133900333D01*
X57283047Y-133960809D01*
X57524952Y-133960809D01*
X57645904Y-134021285D01*
X57706380Y-134081761D01*
X57766857Y-134202714D01*
X57766857Y-134444619D01*
X57706380Y-134565571D01*
X57645904Y-134626047D01*
X57524952Y-134686523D01*
X57283047Y-134686523D01*
X57162095Y-134626047D01*
X57101619Y-134565571D01*
X57041142Y-134444619D01*
X57041142Y-134202714D01*
X57101619Y-134081761D01*
X57162095Y-134021285D01*
X57283047Y-133960809D01*
X56617809Y-133416523D02*
X55831619Y-133416523D01*
X56254952Y-133900333D01*
X56073523Y-133900333D01*
X55952571Y-133960809D01*
X55892095Y-134021285D01*
X55831619Y-134142238D01*
X55831619Y-134444619D01*
X55892095Y-134565571D01*
X55952571Y-134626047D01*
X56073523Y-134686523D01*
X56436380Y-134686523D01*
X56557333Y-134626047D01*
X56617809Y-134565571D01*
X54743047Y-133839857D02*
X54743047Y-134686523D01*
X55045428Y-133356047D02*
X55347809Y-134263190D01*
X54561619Y-134263190D01*
X54077809Y-134202714D02*
X53110190Y-134202714D01*
X52626380Y-133416523D02*
X51779714Y-134686523D01*
X51779714Y-133416523D02*
X52626380Y-134686523D01*
X51477333Y-133416523D02*
X50751619Y-133416523D01*
X51114476Y-134686523D02*
X51114476Y-133416523D01*
X50328285Y-134202714D02*
X49360666Y-134202714D01*
X48755904Y-134686523D02*
X48755904Y-133416523D01*
X48151142Y-134686523D02*
X48151142Y-133416523D01*
X47848761Y-133416523D01*
X47667333Y-133477000D01*
X47546380Y-133597952D01*
X47485904Y-133718904D01*
X47425428Y-133960809D01*
X47425428Y-134142238D01*
X47485904Y-134384142D01*
X47546380Y-134505095D01*
X47667333Y-134626047D01*
X47848761Y-134686523D01*
X48151142Y-134686523D01*
X46881142Y-134021285D02*
X46457809Y-134021285D01*
X46276380Y-134686523D02*
X46881142Y-134686523D01*
X46881142Y-133416523D01*
X46276380Y-133416523D01*
D11*
X75238428Y-127571500D02*
X75480333Y-127450547D01*
X75843190Y-127450547D01*
X76206047Y-127571500D01*
X76447952Y-127813404D01*
X76568904Y-128055309D01*
X76689857Y-128539119D01*
X76689857Y-128901976D01*
X76568904Y-129385785D01*
X76447952Y-129627690D01*
X76206047Y-129869595D01*
X75843190Y-129990547D01*
X75601285Y-129990547D01*
X75238428Y-129869595D01*
X75117476Y-129748642D01*
X75117476Y-128901976D01*
X75601285Y-128901976D01*
X74270809Y-127450547D02*
X73666047Y-129990547D01*
X73182238Y-128176261D01*
X72698428Y-129990547D01*
X72093666Y-127450547D01*
X71126047Y-129022928D02*
X69190809Y-129022928D01*
X68223190Y-127450547D02*
X66529857Y-129990547D01*
X66529857Y-127450547D02*
X68223190Y-129990547D01*
X65925095Y-127450547D02*
X64473666Y-127450547D01*
X65199380Y-129990547D02*
X65199380Y-127450547D01*
X63627000Y-129990547D02*
X63627000Y-127450547D01*
X62417476Y-129990547D02*
X62417476Y-127450547D01*
X61812714Y-127450547D01*
X61449857Y-127571500D01*
X61207952Y-127813404D01*
X61087000Y-128055309D01*
X60966047Y-128539119D01*
X60966047Y-128901976D01*
X61087000Y-129385785D01*
X61207952Y-129627690D01*
X61449857Y-129869595D01*
X61812714Y-129990547D01*
X62417476Y-129990547D01*
X59877476Y-128660071D02*
X59030809Y-128660071D01*
X58667952Y-129990547D02*
X59877476Y-129990547D01*
X59877476Y-127450547D01*
X58667952Y-127450547D01*
X57579380Y-129022928D02*
X55644142Y-129022928D01*
X53346047Y-128297214D02*
X53346047Y-129990547D01*
X53950809Y-127329595D02*
X54555571Y-129143880D01*
X52983190Y-129143880D01*
D12*
%TO.C,BUS1*%
X86360000Y-133985000D03*
X88900000Y-133985000D03*
X91440000Y-133985000D03*
X93980000Y-133985000D03*
X96520000Y-133985000D03*
X99060000Y-133985000D03*
X101600000Y-133985000D03*
X104140000Y-133985000D03*
X106680000Y-133985000D03*
X109220000Y-133985000D03*
X111760000Y-133985000D03*
X114300000Y-133985000D03*
X116840000Y-133985000D03*
X119380000Y-133985000D03*
X121920000Y-133985000D03*
X124460000Y-133985000D03*
X127000000Y-133985000D03*
X129540000Y-133985000D03*
X132080000Y-133985000D03*
X134620000Y-133985000D03*
X137160000Y-133985000D03*
X139700000Y-133985000D03*
X142240000Y-133985000D03*
X144780000Y-133985000D03*
X147320000Y-133985000D03*
X149860000Y-133985000D03*
X152400000Y-133985000D03*
X154940000Y-133985000D03*
X157480000Y-133985000D03*
X160020000Y-133985000D03*
X162560000Y-133985000D03*
X165100000Y-133985000D03*
X86360000Y-136525000D03*
X88900000Y-136525000D03*
X91440000Y-136525000D03*
X93980000Y-136525000D03*
X96520000Y-136525000D03*
X99060000Y-136525000D03*
X101600000Y-136525000D03*
X104140000Y-136525000D03*
X106680000Y-136525000D03*
X109220000Y-136525000D03*
X111760000Y-136525000D03*
X114300000Y-136525000D03*
X116840000Y-136525000D03*
X119380000Y-136525000D03*
X121920000Y-136525000D03*
X124460000Y-136525000D03*
X127000000Y-136525000D03*
X129540000Y-136525000D03*
X132080000Y-136525000D03*
X134620000Y-136525000D03*
X137160000Y-136525000D03*
X139700000Y-136525000D03*
X142240000Y-136525000D03*
X144780000Y-136525000D03*
X147320000Y-136525000D03*
X149860000Y-136525000D03*
X152400000Y-136525000D03*
X154940000Y-136525000D03*
X157480000Y-136525000D03*
X160020000Y-136525000D03*
X162560000Y-136525000D03*
X165100000Y-136525000D03*
X86360000Y-139065000D03*
X88900000Y-139065000D03*
X91440000Y-139065000D03*
X93980000Y-139065000D03*
X96520000Y-139065000D03*
X99060000Y-139065000D03*
X101600000Y-139065000D03*
X104140000Y-139065000D03*
X106680000Y-139065000D03*
X109220000Y-139065000D03*
X111760000Y-139065000D03*
X114300000Y-139065000D03*
X116840000Y-139065000D03*
X119380000Y-139065000D03*
X121920000Y-139065000D03*
X124460000Y-139065000D03*
X127000000Y-139065000D03*
X129540000Y-139065000D03*
X132080000Y-139065000D03*
X134620000Y-139065000D03*
X137160000Y-139065000D03*
X139700000Y-139065000D03*
X142240000Y-139065000D03*
X144780000Y-139065000D03*
X147320000Y-139065000D03*
X149860000Y-139065000D03*
X152400000Y-139065000D03*
X154940000Y-139065000D03*
X157480000Y-139065000D03*
X160020000Y-139065000D03*
X162560000Y-139065000D03*
G36*
G01*
X166129000Y-138367934D02*
X166129000Y-139762066D01*
G75*
G02*
X165797066Y-140094000I-331934J0D01*
G01*
X164402934Y-140094000D01*
G75*
G02*
X164071000Y-139762066I0J331934D01*
G01*
X164071000Y-138367934D01*
G75*
G02*
X164402934Y-138036000I331934J0D01*
G01*
X165797066Y-138036000D01*
G75*
G02*
X166129000Y-138367934I0J-331934D01*
G01*
G37*
D13*
X81280000Y-141605000D03*
X170180000Y-141605000D03*
%TD*%
%TO.C,U9*%
G36*
G01*
X90163000Y-92621000D02*
X90163000Y-91021000D01*
G75*
G02*
X90417000Y-90767000I254000J0D01*
G01*
X92717000Y-90767000D01*
G75*
G02*
X92971000Y-91021000I0J-254000D01*
G01*
X92971000Y-92621000D01*
G75*
G02*
X92717000Y-92875000I-254000J0D01*
G01*
X90417000Y-92875000D01*
G75*
G02*
X90163000Y-92621000I0J254000D01*
G01*
G37*
D14*
X91567000Y-94361000D03*
X91567000Y-96901000D03*
X91567000Y-99441000D03*
X91567000Y-101981000D03*
X91567000Y-104521000D03*
X91567000Y-107061000D03*
X91567000Y-109601000D03*
X91567000Y-112141000D03*
X91567000Y-114681000D03*
X91567000Y-117221000D03*
X91567000Y-119761000D03*
X91567000Y-122301000D03*
X91567000Y-124841000D03*
X106807000Y-124841000D03*
X106807000Y-122301000D03*
X106807000Y-119761000D03*
X106807000Y-117221000D03*
X106807000Y-114681000D03*
X106807000Y-112141000D03*
X106807000Y-109601000D03*
X106807000Y-107061000D03*
X106807000Y-104521000D03*
X106807000Y-101981000D03*
X106807000Y-99441000D03*
X106807000Y-96901000D03*
X106807000Y-94361000D03*
X106807000Y-91821000D03*
%TD*%
D15*
%TO.C,C9*%
X110871000Y-91821000D03*
X121031000Y-91821000D03*
%TD*%
%TO.C,R3*%
X121031000Y-94361000D03*
X110871000Y-94361000D03*
%TD*%
%TO.C,R4*%
X110871000Y-96901000D03*
X121031000Y-96901000D03*
%TD*%
%TO.C,U1*%
G36*
G01*
X63493000Y-59601000D02*
X63493000Y-58001000D01*
G75*
G02*
X63747000Y-57747000I254000J0D01*
G01*
X66047000Y-57747000D01*
G75*
G02*
X66301000Y-58001000I0J-254000D01*
G01*
X66301000Y-59601000D01*
G75*
G02*
X66047000Y-59855000I-254000J0D01*
G01*
X63747000Y-59855000D01*
G75*
G02*
X63493000Y-59601000I0J254000D01*
G01*
G37*
D14*
X64897000Y-61341000D03*
X64897000Y-63881000D03*
X64897000Y-66421000D03*
X64897000Y-68961000D03*
X64897000Y-71501000D03*
X64897000Y-74041000D03*
X64897000Y-76581000D03*
X64897000Y-79121000D03*
X64897000Y-81661000D03*
X72517000Y-81661000D03*
X72517000Y-79121000D03*
X72517000Y-76581000D03*
X72517000Y-74041000D03*
X72517000Y-71501000D03*
X72517000Y-68961000D03*
X72517000Y-66421000D03*
X72517000Y-63881000D03*
X72517000Y-61341000D03*
X72517000Y-58801000D03*
%TD*%
%TO.C,U3*%
G36*
G01*
X103244000Y-59601000D02*
X103244000Y-58001000D01*
G75*
G02*
X103498000Y-57747000I254000J0D01*
G01*
X105798000Y-57747000D01*
G75*
G02*
X106052000Y-58001000I0J-254000D01*
G01*
X106052000Y-59601000D01*
G75*
G02*
X105798000Y-59855000I-254000J0D01*
G01*
X103498000Y-59855000D01*
G75*
G02*
X103244000Y-59601000I0J254000D01*
G01*
G37*
X104648000Y-61341000D03*
X104648000Y-63881000D03*
X104648000Y-66421000D03*
X104648000Y-68961000D03*
X104648000Y-71501000D03*
X104648000Y-74041000D03*
X104648000Y-76581000D03*
X104648000Y-79121000D03*
X104648000Y-81661000D03*
X112268000Y-81661000D03*
X112268000Y-79121000D03*
X112268000Y-76581000D03*
X112268000Y-74041000D03*
X112268000Y-71501000D03*
X112268000Y-68961000D03*
X112268000Y-66421000D03*
X112268000Y-63881000D03*
X112268000Y-61341000D03*
X112268000Y-58801000D03*
%TD*%
D16*
%TO.C,P6*%
X186690000Y-140335000D03*
%TD*%
%TO.C,P7*%
X186690000Y-83820000D03*
%TD*%
%TO.C,J5*%
G36*
G01*
X144678400Y-96240600D02*
X144678400Y-94513400D01*
G75*
G02*
X144932400Y-94259400I254000J0D01*
G01*
X146659600Y-94259400D01*
G75*
G02*
X146913600Y-94513400I0J-254000D01*
G01*
X146913600Y-96240600D01*
G75*
G02*
X146659600Y-96494600I-254000J0D01*
G01*
X144932400Y-96494600D01*
G75*
G02*
X144678400Y-96240600I0J254000D01*
G01*
G37*
D17*
X145796000Y-92837000D03*
X148336000Y-95377000D03*
X148336000Y-92837000D03*
X150876000Y-95377000D03*
X150876000Y-92837000D03*
X153416000Y-95377000D03*
X153416000Y-92837000D03*
X155956000Y-95377000D03*
X155956000Y-92837000D03*
%TD*%
%TO.C,J2*%
G36*
G01*
X146329400Y-48094900D02*
X148056600Y-48094900D01*
G75*
G02*
X148310600Y-48348900I0J-254000D01*
G01*
X148310600Y-50076100D01*
G75*
G02*
X148056600Y-50330100I-254000J0D01*
G01*
X146329400Y-50330100D01*
G75*
G02*
X146075400Y-50076100I0J254000D01*
G01*
X146075400Y-48348900D01*
G75*
G02*
X146329400Y-48094900I254000J0D01*
G01*
G37*
X147193000Y-51752500D03*
X147193000Y-54292500D03*
%TD*%
%TO.C,J1*%
G36*
G01*
X138709400Y-48094900D02*
X140436600Y-48094900D01*
G75*
G02*
X140690600Y-48348900I0J-254000D01*
G01*
X140690600Y-50076100D01*
G75*
G02*
X140436600Y-50330100I-254000J0D01*
G01*
X138709400Y-50330100D01*
G75*
G02*
X138455400Y-50076100I0J254000D01*
G01*
X138455400Y-48348900D01*
G75*
G02*
X138709400Y-48094900I254000J0D01*
G01*
G37*
X139573000Y-51752500D03*
X139573000Y-54292500D03*
%TD*%
%TO.C,J3*%
G36*
G01*
X187680600Y-50888900D02*
X187680600Y-52616100D01*
G75*
G02*
X187426600Y-52870100I-254000J0D01*
G01*
X185699400Y-52870100D01*
G75*
G02*
X185445400Y-52616100I0J254000D01*
G01*
X185445400Y-50888900D01*
G75*
G02*
X185699400Y-50634900I254000J0D01*
G01*
X187426600Y-50634900D01*
G75*
G02*
X187680600Y-50888900I0J-254000D01*
G01*
G37*
X184023000Y-51752500D03*
%TD*%
%TO.C,J4*%
G36*
G01*
X61061600Y-97434400D02*
X61061600Y-99161600D01*
G75*
G02*
X60807600Y-99415600I-254000J0D01*
G01*
X59080400Y-99415600D01*
G75*
G02*
X58826400Y-99161600I0J254000D01*
G01*
X58826400Y-97434400D01*
G75*
G02*
X59080400Y-97180400I254000J0D01*
G01*
X60807600Y-97180400D01*
G75*
G02*
X61061600Y-97434400I0J-254000D01*
G01*
G37*
X57404000Y-98298000D03*
%TD*%
%TO.C,D1*%
G36*
G01*
X178628000Y-50498500D02*
X180528000Y-50498500D01*
G75*
G02*
X180782000Y-50752500I0J-254000D01*
G01*
X180782000Y-52752500D01*
G75*
G02*
X180528000Y-53006500I-254000J0D01*
G01*
X178628000Y-53006500D01*
G75*
G02*
X178374000Y-52752500I0J254000D01*
G01*
X178374000Y-50752500D01*
G75*
G02*
X178628000Y-50498500I254000J0D01*
G01*
G37*
D18*
X177038000Y-51752500D03*
%TD*%
D17*
%TO.C,C12*%
X50205000Y-138430000D03*
G36*
G01*
X53822600Y-137566400D02*
X53822600Y-139293600D01*
G75*
G02*
X53568600Y-139547600I-254000J0D01*
G01*
X51841400Y-139547600D01*
G75*
G02*
X51587400Y-139293600I0J254000D01*
G01*
X51587400Y-137566400D01*
G75*
G02*
X51841400Y-137312400I254000J0D01*
G01*
X53568600Y-137312400D01*
G75*
G02*
X53822600Y-137566400I0J-254000D01*
G01*
G37*
%TD*%
%TO.C,IDE1*%
G36*
G01*
X46837600Y-97561400D02*
X46837600Y-99288600D01*
G75*
G02*
X46583600Y-99542600I-254000J0D01*
G01*
X44856400Y-99542600D01*
G75*
G02*
X44602400Y-99288600I0J254000D01*
G01*
X44602400Y-97561400D01*
G75*
G02*
X44856400Y-97307400I254000J0D01*
G01*
X46583600Y-97307400D01*
G75*
G02*
X46837600Y-97561400I0J-254000D01*
G01*
G37*
D19*
X43180000Y-98425000D03*
X45720000Y-95885000D03*
X43180000Y-95885000D03*
X45720000Y-93345000D03*
X43180000Y-93345000D03*
X45720000Y-90805000D03*
X43180000Y-90805000D03*
X45720000Y-88265000D03*
X43180000Y-88265000D03*
X45720000Y-85725000D03*
X43180000Y-85725000D03*
X45720000Y-83185000D03*
X43180000Y-83185000D03*
X45720000Y-80645000D03*
X43180000Y-80645000D03*
X45720000Y-78105000D03*
X43180000Y-78105000D03*
X45720000Y-75565000D03*
X43180000Y-75565000D03*
X45720000Y-73025000D03*
X43180000Y-73025000D03*
X45720000Y-70485000D03*
X43180000Y-70485000D03*
X45720000Y-67945000D03*
X43180000Y-67945000D03*
X45720000Y-65405000D03*
X43180000Y-65405000D03*
X45720000Y-62865000D03*
X43180000Y-62865000D03*
X45720000Y-60325000D03*
X43180000Y-60325000D03*
X45720000Y-57785000D03*
X43180000Y-57785000D03*
X45720000Y-55245000D03*
X43180000Y-55245000D03*
X45720000Y-52705000D03*
X43180000Y-52705000D03*
X45720000Y-50165000D03*
X43180000Y-50165000D03*
%TD*%
%TO.C,U2*%
G36*
G01*
X76828000Y-59601000D02*
X76828000Y-58001000D01*
G75*
G02*
X77082000Y-57747000I254000J0D01*
G01*
X79382000Y-57747000D01*
G75*
G02*
X79636000Y-58001000I0J-254000D01*
G01*
X79636000Y-59601000D01*
G75*
G02*
X79382000Y-59855000I-254000J0D01*
G01*
X77082000Y-59855000D01*
G75*
G02*
X76828000Y-59601000I0J254000D01*
G01*
G37*
D14*
X78232000Y-61341000D03*
X78232000Y-63881000D03*
X78232000Y-66421000D03*
X78232000Y-68961000D03*
X78232000Y-71501000D03*
X78232000Y-74041000D03*
X78232000Y-76581000D03*
X78232000Y-79121000D03*
X78232000Y-81661000D03*
X85852000Y-81661000D03*
X85852000Y-79121000D03*
X85852000Y-76581000D03*
X85852000Y-74041000D03*
X85852000Y-71501000D03*
X85852000Y-68961000D03*
X85852000Y-66421000D03*
X85852000Y-63881000D03*
X85852000Y-61341000D03*
X85852000Y-58801000D03*
%TD*%
%TO.C,U5*%
G36*
G01*
X143630000Y-66840000D02*
X143630000Y-65240000D01*
G75*
G02*
X143884000Y-64986000I254000J0D01*
G01*
X146184000Y-64986000D01*
G75*
G02*
X146438000Y-65240000I0J-254000D01*
G01*
X146438000Y-66840000D01*
G75*
G02*
X146184000Y-67094000I-254000J0D01*
G01*
X143884000Y-67094000D01*
G75*
G02*
X143630000Y-66840000I0J254000D01*
G01*
G37*
X145034000Y-68580000D03*
X145034000Y-71120000D03*
X145034000Y-73660000D03*
X145034000Y-76200000D03*
X145034000Y-78740000D03*
X145034000Y-81280000D03*
X152654000Y-81280000D03*
X152654000Y-78740000D03*
X152654000Y-76200000D03*
X152654000Y-73660000D03*
X152654000Y-71120000D03*
X152654000Y-68580000D03*
X152654000Y-66040000D03*
%TD*%
%TO.C,U6*%
G36*
G01*
X155060000Y-66840000D02*
X155060000Y-65240000D01*
G75*
G02*
X155314000Y-64986000I254000J0D01*
G01*
X157614000Y-64986000D01*
G75*
G02*
X157868000Y-65240000I0J-254000D01*
G01*
X157868000Y-66840000D01*
G75*
G02*
X157614000Y-67094000I-254000J0D01*
G01*
X155314000Y-67094000D01*
G75*
G02*
X155060000Y-66840000I0J254000D01*
G01*
G37*
X156464000Y-68580000D03*
X156464000Y-71120000D03*
X156464000Y-73660000D03*
X156464000Y-76200000D03*
X156464000Y-78740000D03*
X156464000Y-81280000D03*
X164084000Y-81280000D03*
X164084000Y-78740000D03*
X164084000Y-76200000D03*
X164084000Y-73660000D03*
X164084000Y-71120000D03*
X164084000Y-68580000D03*
X164084000Y-66040000D03*
%TD*%
%TO.C,U7*%
G36*
G01*
X166490000Y-64300000D02*
X166490000Y-62700000D01*
G75*
G02*
X166744000Y-62446000I254000J0D01*
G01*
X169044000Y-62446000D01*
G75*
G02*
X169298000Y-62700000I0J-254000D01*
G01*
X169298000Y-64300000D01*
G75*
G02*
X169044000Y-64554000I-254000J0D01*
G01*
X166744000Y-64554000D01*
G75*
G02*
X166490000Y-64300000I0J254000D01*
G01*
G37*
X167894000Y-66040000D03*
X167894000Y-68580000D03*
X167894000Y-71120000D03*
X167894000Y-73660000D03*
X167894000Y-76200000D03*
X167894000Y-78740000D03*
X167894000Y-81280000D03*
X175514000Y-81280000D03*
X175514000Y-78740000D03*
X175514000Y-76200000D03*
X175514000Y-73660000D03*
X175514000Y-71120000D03*
X175514000Y-68580000D03*
X175514000Y-66040000D03*
X175514000Y-63500000D03*
%TD*%
%TO.C,U8*%
G36*
G01*
X76955000Y-102781000D02*
X76955000Y-101181000D01*
G75*
G02*
X77209000Y-100927000I254000J0D01*
G01*
X79509000Y-100927000D01*
G75*
G02*
X79763000Y-101181000I0J-254000D01*
G01*
X79763000Y-102781000D01*
G75*
G02*
X79509000Y-103035000I-254000J0D01*
G01*
X77209000Y-103035000D01*
G75*
G02*
X76955000Y-102781000I0J254000D01*
G01*
G37*
X78359000Y-104521000D03*
X78359000Y-107061000D03*
X78359000Y-109601000D03*
X78359000Y-112141000D03*
X78359000Y-114681000D03*
X78359000Y-117221000D03*
X78359000Y-119761000D03*
X78359000Y-122301000D03*
X78359000Y-124841000D03*
X85979000Y-124841000D03*
X85979000Y-122301000D03*
X85979000Y-119761000D03*
X85979000Y-117221000D03*
X85979000Y-114681000D03*
X85979000Y-112141000D03*
X85979000Y-109601000D03*
X85979000Y-107061000D03*
X85979000Y-104521000D03*
X85979000Y-101981000D03*
%TD*%
%TO.C,U10*%
G36*
G01*
X166490000Y-101638000D02*
X166490000Y-100038000D01*
G75*
G02*
X166744000Y-99784000I254000J0D01*
G01*
X169044000Y-99784000D01*
G75*
G02*
X169298000Y-100038000I0J-254000D01*
G01*
X169298000Y-101638000D01*
G75*
G02*
X169044000Y-101892000I-254000J0D01*
G01*
X166744000Y-101892000D01*
G75*
G02*
X166490000Y-101638000I0J254000D01*
G01*
G37*
X167894000Y-103378000D03*
X167894000Y-105918000D03*
X167894000Y-108458000D03*
X167894000Y-110998000D03*
X167894000Y-113538000D03*
X167894000Y-116078000D03*
X167894000Y-118618000D03*
X167894000Y-121158000D03*
X167894000Y-123698000D03*
X175514000Y-123698000D03*
X175514000Y-121158000D03*
X175514000Y-118618000D03*
X175514000Y-116078000D03*
X175514000Y-113538000D03*
X175514000Y-110998000D03*
X175514000Y-108458000D03*
X175514000Y-105918000D03*
X175514000Y-103378000D03*
X175514000Y-100838000D03*
%TD*%
%TO.C,U11*%
G36*
G01*
X90036000Y-59601000D02*
X90036000Y-58001000D01*
G75*
G02*
X90290000Y-57747000I254000J0D01*
G01*
X92590000Y-57747000D01*
G75*
G02*
X92844000Y-58001000I0J-254000D01*
G01*
X92844000Y-59601000D01*
G75*
G02*
X92590000Y-59855000I-254000J0D01*
G01*
X90290000Y-59855000D01*
G75*
G02*
X90036000Y-59601000I0J254000D01*
G01*
G37*
X91440000Y-61341000D03*
X91440000Y-63881000D03*
X91440000Y-66421000D03*
X91440000Y-68961000D03*
X91440000Y-71501000D03*
X91440000Y-74041000D03*
X91440000Y-76581000D03*
X91440000Y-79121000D03*
X91440000Y-81661000D03*
X99060000Y-81661000D03*
X99060000Y-79121000D03*
X99060000Y-76581000D03*
X99060000Y-74041000D03*
X99060000Y-71501000D03*
X99060000Y-68961000D03*
X99060000Y-66421000D03*
X99060000Y-63881000D03*
X99060000Y-61341000D03*
X99060000Y-58801000D03*
%TD*%
%TO.C,SW2*%
G36*
G01*
X145916000Y-105702000D02*
X145916000Y-104102000D01*
G75*
G02*
X146170000Y-103848000I254000J0D01*
G01*
X148470000Y-103848000D01*
G75*
G02*
X148724000Y-104102000I0J-254000D01*
G01*
X148724000Y-105702000D01*
G75*
G02*
X148470000Y-105956000I-254000J0D01*
G01*
X146170000Y-105956000D01*
G75*
G02*
X145916000Y-105702000I0J254000D01*
G01*
G37*
X147320000Y-107442000D03*
X147320000Y-109982000D03*
X147320000Y-112522000D03*
X147320000Y-115062000D03*
X147320000Y-117602000D03*
X147320000Y-120142000D03*
X147320000Y-122682000D03*
X154940000Y-122682000D03*
X154940000Y-120142000D03*
X154940000Y-117602000D03*
X154940000Y-115062000D03*
X154940000Y-112522000D03*
X154940000Y-109982000D03*
X154940000Y-107442000D03*
X154940000Y-104902000D03*
%TD*%
%TO.C,SW1*%
G36*
G01*
X53587000Y-107480000D02*
X53587000Y-105880000D01*
G75*
G02*
X53841000Y-105626000I254000J0D01*
G01*
X56141000Y-105626000D01*
G75*
G02*
X56395000Y-105880000I0J-254000D01*
G01*
X56395000Y-107480000D01*
G75*
G02*
X56141000Y-107734000I-254000J0D01*
G01*
X53841000Y-107734000D01*
G75*
G02*
X53587000Y-107480000I0J254000D01*
G01*
G37*
X54991000Y-109220000D03*
X54991000Y-111760000D03*
X54991000Y-114300000D03*
X54991000Y-116840000D03*
X54991000Y-119380000D03*
X54991000Y-121920000D03*
X54991000Y-124460000D03*
X62611000Y-124460000D03*
X62611000Y-121920000D03*
X62611000Y-119380000D03*
X62611000Y-116840000D03*
X62611000Y-114300000D03*
X62611000Y-111760000D03*
X62611000Y-109220000D03*
X62611000Y-106680000D03*
%TD*%
%TO.C,RP1*%
G36*
G01*
X66827400Y-100482400D02*
X68554600Y-100482400D01*
G75*
G02*
X68808600Y-100736400I0J-254000D01*
G01*
X68808600Y-102463600D01*
G75*
G02*
X68554600Y-102717600I-254000J0D01*
G01*
X66827400Y-102717600D01*
G75*
G02*
X66573400Y-102463600I0J254000D01*
G01*
X66573400Y-100736400D01*
G75*
G02*
X66827400Y-100482400I254000J0D01*
G01*
G37*
D17*
X67691000Y-104140000D03*
X67691000Y-106680000D03*
X67691000Y-109220000D03*
X67691000Y-111760000D03*
X67691000Y-114300000D03*
X67691000Y-116840000D03*
X67691000Y-119380000D03*
X67691000Y-121920000D03*
X67691000Y-124460000D03*
%TD*%
%TO.C,RP2*%
G36*
G01*
X162077400Y-99720400D02*
X163804600Y-99720400D01*
G75*
G02*
X164058600Y-99974400I0J-254000D01*
G01*
X164058600Y-101701600D01*
G75*
G02*
X163804600Y-101955600I-254000J0D01*
G01*
X162077400Y-101955600D01*
G75*
G02*
X161823400Y-101701600I0J254000D01*
G01*
X161823400Y-99974400D01*
G75*
G02*
X162077400Y-99720400I254000J0D01*
G01*
G37*
X162941000Y-103378000D03*
X162941000Y-105918000D03*
X162941000Y-108458000D03*
X162941000Y-110998000D03*
X162941000Y-113538000D03*
X162941000Y-116078000D03*
X162941000Y-118618000D03*
X162941000Y-121158000D03*
X162941000Y-123698000D03*
%TD*%
D15*
%TO.C,C1*%
X72517000Y-50927000D03*
X64897000Y-50927000D03*
%TD*%
%TO.C,C2*%
X85852000Y-50927000D03*
X78232000Y-50927000D03*
%TD*%
%TO.C,C3*%
X112268000Y-50927000D03*
X104648000Y-50927000D03*
%TD*%
%TO.C,C4*%
X141224000Y-61595000D03*
X133604000Y-61595000D03*
%TD*%
%TO.C,C5*%
X152654000Y-61595000D03*
X145034000Y-61595000D03*
%TD*%
%TO.C,C6*%
X164084000Y-61595000D03*
X156464000Y-61595000D03*
%TD*%
%TO.C,C7*%
X175514000Y-59245500D03*
X167894000Y-59245500D03*
%TD*%
%TO.C,C8*%
X85979000Y-97536000D03*
X78359000Y-97536000D03*
%TD*%
%TO.C,C10*%
X175514000Y-96393000D03*
X167894000Y-96393000D03*
%TD*%
%TO.C,R1*%
X172593000Y-51752500D03*
X162433000Y-51752500D03*
%TD*%
%TO.C,R2*%
X186563000Y-60706000D03*
X186563000Y-70866000D03*
%TD*%
%TO.C,U4*%
G36*
G01*
X132200000Y-66840000D02*
X132200000Y-65240000D01*
G75*
G02*
X132454000Y-64986000I254000J0D01*
G01*
X134754000Y-64986000D01*
G75*
G02*
X135008000Y-65240000I0J-254000D01*
G01*
X135008000Y-66840000D01*
G75*
G02*
X134754000Y-67094000I-254000J0D01*
G01*
X132454000Y-67094000D01*
G75*
G02*
X132200000Y-66840000I0J254000D01*
G01*
G37*
D14*
X133604000Y-68580000D03*
X133604000Y-71120000D03*
X133604000Y-73660000D03*
X133604000Y-76200000D03*
X133604000Y-78740000D03*
X133604000Y-81280000D03*
X141224000Y-81280000D03*
X141224000Y-78740000D03*
X141224000Y-76200000D03*
X141224000Y-73660000D03*
X141224000Y-71120000D03*
X141224000Y-68580000D03*
X141224000Y-66040000D03*
%TD*%
D15*
%TO.C,C11*%
X99060000Y-50927000D03*
X91440000Y-50927000D03*
%TD*%
M02*
