%TF.GenerationSoftware,KiCad,Pcbnew,(5.1.12)-1*%
%TF.CreationDate,2022-05-27T21:25:41+02:00*%
%TF.ProjectId,EC1834-XT-IDE,45433138-3334-42d5-9854-2d4944452e6b,4b*%
%TF.SameCoordinates,Original*%
%TF.FileFunction,Legend,Top*%
%TF.FilePolarity,Positive*%
%FSLAX46Y46*%
G04 Gerber Fmt 4.6, Leading zero omitted, Abs format (unit mm)*
G04 Created by KiCad (PCBNEW (5.1.12)-1) date 2022-05-27 21:25:41*
%MOMM*%
%LPD*%
G01*
G04 APERTURE LIST*
%ADD10C,0.254000*%
%ADD11C,0.120000*%
%ADD12C,0.150000*%
G04 APERTURE END LIST*
D10*
X102936523Y-115170857D02*
X102997000Y-115231333D01*
X103057476Y-115352285D01*
X103057476Y-115654666D01*
X102997000Y-115775619D01*
X102936523Y-115836095D01*
X102815571Y-115896571D01*
X102694619Y-115896571D01*
X102513190Y-115836095D01*
X101787476Y-115110380D01*
X101787476Y-115896571D01*
X102513190Y-116622285D02*
X102573666Y-116501333D01*
X102634142Y-116440857D01*
X102755095Y-116380380D01*
X102815571Y-116380380D01*
X102936523Y-116440857D01*
X102997000Y-116501333D01*
X103057476Y-116622285D01*
X103057476Y-116864190D01*
X102997000Y-116985142D01*
X102936523Y-117045619D01*
X102815571Y-117106095D01*
X102755095Y-117106095D01*
X102634142Y-117045619D01*
X102573666Y-116985142D01*
X102513190Y-116864190D01*
X102513190Y-116622285D01*
X102452714Y-116501333D01*
X102392238Y-116440857D01*
X102271285Y-116380380D01*
X102029380Y-116380380D01*
X101908428Y-116440857D01*
X101847952Y-116501333D01*
X101787476Y-116622285D01*
X101787476Y-116864190D01*
X101847952Y-116985142D01*
X101908428Y-117045619D01*
X102029380Y-117106095D01*
X102271285Y-117106095D01*
X102392238Y-117045619D01*
X102452714Y-116985142D01*
X102513190Y-116864190D01*
X101908428Y-118376095D02*
X101847952Y-118315619D01*
X101787476Y-118134190D01*
X101787476Y-118013238D01*
X101847952Y-117831809D01*
X101968904Y-117710857D01*
X102089857Y-117650380D01*
X102331761Y-117589904D01*
X102513190Y-117589904D01*
X102755095Y-117650380D01*
X102876047Y-117710857D01*
X102997000Y-117831809D01*
X103057476Y-118013238D01*
X103057476Y-118134190D01*
X102997000Y-118315619D01*
X102936523Y-118376095D01*
X103057476Y-119464666D02*
X103057476Y-119222761D01*
X102997000Y-119101809D01*
X102936523Y-119041333D01*
X102755095Y-118920380D01*
X102513190Y-118859904D01*
X102029380Y-118859904D01*
X101908428Y-118920380D01*
X101847952Y-118980857D01*
X101787476Y-119101809D01*
X101787476Y-119343714D01*
X101847952Y-119464666D01*
X101908428Y-119525142D01*
X102029380Y-119585619D01*
X102331761Y-119585619D01*
X102452714Y-119525142D01*
X102513190Y-119464666D01*
X102573666Y-119343714D01*
X102573666Y-119101809D01*
X102513190Y-118980857D01*
X102452714Y-118920380D01*
X102331761Y-118859904D01*
X102634142Y-120674190D02*
X101787476Y-120674190D01*
X103117952Y-120371809D02*
X102210809Y-120069428D01*
X102210809Y-120855619D01*
X100898476Y-117227047D02*
X100898476Y-117468952D01*
X100838000Y-117589904D01*
X100717047Y-117710857D01*
X100475142Y-117771333D01*
X100051809Y-117771333D01*
X99809904Y-117710857D01*
X99688952Y-117589904D01*
X99628476Y-117468952D01*
X99628476Y-117227047D01*
X99688952Y-117106095D01*
X99809904Y-116985142D01*
X100051809Y-116924666D01*
X100475142Y-116924666D01*
X100717047Y-116985142D01*
X100838000Y-117106095D01*
X100898476Y-117227047D01*
X99628476Y-119041333D02*
X100233238Y-118618000D01*
X99628476Y-118315619D02*
X100898476Y-118315619D01*
X100898476Y-118799428D01*
X100838000Y-118920380D01*
X100777523Y-118980857D01*
X100656571Y-119041333D01*
X100475142Y-119041333D01*
X100354190Y-118980857D01*
X100293714Y-118920380D01*
X100233238Y-118799428D01*
X100233238Y-118315619D01*
X98618523Y-114566095D02*
X98679000Y-114626571D01*
X98739476Y-114747523D01*
X98739476Y-115049904D01*
X98679000Y-115170857D01*
X98618523Y-115231333D01*
X98497571Y-115291809D01*
X98376619Y-115291809D01*
X98195190Y-115231333D01*
X97469476Y-114505619D01*
X97469476Y-115291809D01*
X98195190Y-116017523D02*
X98255666Y-115896571D01*
X98316142Y-115836095D01*
X98437095Y-115775619D01*
X98497571Y-115775619D01*
X98618523Y-115836095D01*
X98679000Y-115896571D01*
X98739476Y-116017523D01*
X98739476Y-116259428D01*
X98679000Y-116380380D01*
X98618523Y-116440857D01*
X98497571Y-116501333D01*
X98437095Y-116501333D01*
X98316142Y-116440857D01*
X98255666Y-116380380D01*
X98195190Y-116259428D01*
X98195190Y-116017523D01*
X98134714Y-115896571D01*
X98074238Y-115836095D01*
X97953285Y-115775619D01*
X97711380Y-115775619D01*
X97590428Y-115836095D01*
X97529952Y-115896571D01*
X97469476Y-116017523D01*
X97469476Y-116259428D01*
X97529952Y-116380380D01*
X97590428Y-116440857D01*
X97711380Y-116501333D01*
X97953285Y-116501333D01*
X98074238Y-116440857D01*
X98134714Y-116380380D01*
X98195190Y-116259428D01*
X97590428Y-117771333D02*
X97529952Y-117710857D01*
X97469476Y-117529428D01*
X97469476Y-117408476D01*
X97529952Y-117227047D01*
X97650904Y-117106095D01*
X97771857Y-117045619D01*
X98013761Y-116985142D01*
X98195190Y-116985142D01*
X98437095Y-117045619D01*
X98558047Y-117106095D01*
X98679000Y-117227047D01*
X98739476Y-117408476D01*
X98739476Y-117529428D01*
X98679000Y-117710857D01*
X98618523Y-117771333D01*
X98618523Y-118255142D02*
X98679000Y-118315619D01*
X98739476Y-118436571D01*
X98739476Y-118738952D01*
X98679000Y-118859904D01*
X98618523Y-118920380D01*
X98497571Y-118980857D01*
X98376619Y-118980857D01*
X98195190Y-118920380D01*
X97469476Y-118194666D01*
X97469476Y-118980857D01*
X98739476Y-120129904D02*
X98739476Y-119525142D01*
X98134714Y-119464666D01*
X98195190Y-119525142D01*
X98255666Y-119646095D01*
X98255666Y-119948476D01*
X98195190Y-120069428D01*
X98134714Y-120129904D01*
X98013761Y-120190380D01*
X97711380Y-120190380D01*
X97590428Y-120129904D01*
X97529952Y-120069428D01*
X97469476Y-119948476D01*
X97469476Y-119646095D01*
X97529952Y-119525142D01*
X97590428Y-119464666D01*
X98739476Y-121278952D02*
X98739476Y-121037047D01*
X98679000Y-120916095D01*
X98618523Y-120855619D01*
X98437095Y-120734666D01*
X98195190Y-120674190D01*
X97711380Y-120674190D01*
X97590428Y-120734666D01*
X97529952Y-120795142D01*
X97469476Y-120916095D01*
X97469476Y-121158000D01*
X97529952Y-121278952D01*
X97590428Y-121339428D01*
X97711380Y-121399904D01*
X98013761Y-121399904D01*
X98134714Y-121339428D01*
X98195190Y-121278952D01*
X98255666Y-121158000D01*
X98255666Y-120916095D01*
X98195190Y-120795142D01*
X98134714Y-120734666D01*
X98013761Y-120674190D01*
X53414385Y-134239000D02*
X53341814Y-134166428D01*
X53196671Y-133948714D01*
X53124100Y-133803571D01*
X53051528Y-133585857D01*
X52978957Y-133223000D01*
X52978957Y-132932714D01*
X53051528Y-132569857D01*
X53124100Y-132352142D01*
X53196671Y-132207000D01*
X53341814Y-131989285D01*
X53414385Y-131916714D01*
X54648100Y-133585857D02*
X54502957Y-133658428D01*
X54212671Y-133658428D01*
X54067528Y-133585857D01*
X53994957Y-133513285D01*
X53922385Y-133368142D01*
X53922385Y-132932714D01*
X53994957Y-132787571D01*
X54067528Y-132715000D01*
X54212671Y-132642428D01*
X54502957Y-132642428D01*
X54648100Y-132715000D01*
X55156100Y-134239000D02*
X55228671Y-134166428D01*
X55373814Y-133948714D01*
X55446385Y-133803571D01*
X55518957Y-133585857D01*
X55591528Y-133223000D01*
X55591528Y-132932714D01*
X55518957Y-132569857D01*
X55446385Y-132352142D01*
X55373814Y-132207000D01*
X55228671Y-131989285D01*
X55156100Y-131916714D01*
X56244671Y-132279571D02*
X56317242Y-132207000D01*
X56462385Y-132134428D01*
X56825242Y-132134428D01*
X56970385Y-132207000D01*
X57042957Y-132279571D01*
X57115528Y-132424714D01*
X57115528Y-132569857D01*
X57042957Y-132787571D01*
X56172100Y-133658428D01*
X57115528Y-133658428D01*
X58058957Y-132134428D02*
X58204100Y-132134428D01*
X58349242Y-132207000D01*
X58421814Y-132279571D01*
X58494385Y-132424714D01*
X58566957Y-132715000D01*
X58566957Y-133077857D01*
X58494385Y-133368142D01*
X58421814Y-133513285D01*
X58349242Y-133585857D01*
X58204100Y-133658428D01*
X58058957Y-133658428D01*
X57913814Y-133585857D01*
X57841242Y-133513285D01*
X57768671Y-133368142D01*
X57696100Y-133077857D01*
X57696100Y-132715000D01*
X57768671Y-132424714D01*
X57841242Y-132279571D01*
X57913814Y-132207000D01*
X58058957Y-132134428D01*
X59147528Y-132279571D02*
X59220100Y-132207000D01*
X59365242Y-132134428D01*
X59728100Y-132134428D01*
X59873242Y-132207000D01*
X59945814Y-132279571D01*
X60018385Y-132424714D01*
X60018385Y-132569857D01*
X59945814Y-132787571D01*
X59074957Y-133658428D01*
X60018385Y-133658428D01*
X60598957Y-132279571D02*
X60671528Y-132207000D01*
X60816671Y-132134428D01*
X61179528Y-132134428D01*
X61324671Y-132207000D01*
X61397242Y-132279571D01*
X61469814Y-132424714D01*
X61469814Y-132569857D01*
X61397242Y-132787571D01*
X60526385Y-133658428D01*
X61469814Y-133658428D01*
X63284100Y-133658428D02*
X63284100Y-132134428D01*
X63792100Y-133223000D01*
X64300100Y-132134428D01*
X64300100Y-133658428D01*
X65025814Y-133513285D02*
X65098385Y-133585857D01*
X65025814Y-133658428D01*
X64953242Y-133585857D01*
X65025814Y-133513285D01*
X65025814Y-133658428D01*
X67710957Y-132207000D02*
X67565814Y-132134428D01*
X67348100Y-132134428D01*
X67130385Y-132207000D01*
X66985242Y-132352142D01*
X66912671Y-132497285D01*
X66840100Y-132787571D01*
X66840100Y-133005285D01*
X66912671Y-133295571D01*
X66985242Y-133440714D01*
X67130385Y-133585857D01*
X67348100Y-133658428D01*
X67493242Y-133658428D01*
X67710957Y-133585857D01*
X67783528Y-133513285D01*
X67783528Y-133005285D01*
X67493242Y-133005285D01*
X68654385Y-133658428D02*
X68509242Y-133585857D01*
X68436671Y-133513285D01*
X68364100Y-133368142D01*
X68364100Y-132932714D01*
X68436671Y-132787571D01*
X68509242Y-132715000D01*
X68654385Y-132642428D01*
X68872100Y-132642428D01*
X69017242Y-132715000D01*
X69089814Y-132787571D01*
X69162385Y-132932714D01*
X69162385Y-133368142D01*
X69089814Y-133513285D01*
X69017242Y-133585857D01*
X68872100Y-133658428D01*
X68654385Y-133658428D01*
X70396100Y-133585857D02*
X70250957Y-133658428D01*
X69960671Y-133658428D01*
X69815528Y-133585857D01*
X69742957Y-133440714D01*
X69742957Y-132860142D01*
X69815528Y-132715000D01*
X69960671Y-132642428D01*
X70250957Y-132642428D01*
X70396100Y-132715000D01*
X70468671Y-132860142D01*
X70468671Y-133005285D01*
X69742957Y-133150428D01*
X71774957Y-132642428D02*
X71774957Y-133876142D01*
X71702385Y-134021285D01*
X71629814Y-134093857D01*
X71484671Y-134166428D01*
X71266957Y-134166428D01*
X71121814Y-134093857D01*
X71774957Y-133585857D02*
X71629814Y-133658428D01*
X71339528Y-133658428D01*
X71194385Y-133585857D01*
X71121814Y-133513285D01*
X71049242Y-133368142D01*
X71049242Y-132932714D01*
X71121814Y-132787571D01*
X71194385Y-132715000D01*
X71339528Y-132642428D01*
X71629814Y-132642428D01*
X71774957Y-132715000D01*
X73081242Y-133585857D02*
X72936100Y-133658428D01*
X72645814Y-133658428D01*
X72500671Y-133585857D01*
X72428100Y-133440714D01*
X72428100Y-132860142D01*
X72500671Y-132715000D01*
X72645814Y-132642428D01*
X72936100Y-132642428D01*
X73081242Y-132715000D01*
X73153814Y-132860142D01*
X73153814Y-133005285D01*
X72428100Y-133150428D01*
X74024671Y-133658428D02*
X73879528Y-133585857D01*
X73806957Y-133440714D01*
X73806957Y-132134428D01*
X138109476Y-70303571D02*
X138109476Y-71150238D01*
X136839476Y-70605952D01*
X137686142Y-72178333D02*
X136839476Y-72178333D01*
X138169952Y-71875952D02*
X137262809Y-71573571D01*
X137262809Y-72359761D01*
X136839476Y-73448333D02*
X136839476Y-72843571D01*
X138109476Y-72843571D01*
X136899952Y-73811190D02*
X136839476Y-73992619D01*
X136839476Y-74295000D01*
X136899952Y-74415952D01*
X136960428Y-74476428D01*
X137081380Y-74536904D01*
X137202333Y-74536904D01*
X137323285Y-74476428D01*
X137383761Y-74415952D01*
X137444238Y-74295000D01*
X137504714Y-74053095D01*
X137565190Y-73932142D01*
X137625666Y-73871666D01*
X137746619Y-73811190D01*
X137867571Y-73811190D01*
X137988523Y-73871666D01*
X138049000Y-73932142D01*
X138109476Y-74053095D01*
X138109476Y-74355476D01*
X138049000Y-74536904D01*
X138109476Y-75323095D02*
X138109476Y-75444047D01*
X138049000Y-75565000D01*
X137988523Y-75625476D01*
X137867571Y-75685952D01*
X137625666Y-75746428D01*
X137323285Y-75746428D01*
X137081380Y-75685952D01*
X136960428Y-75625476D01*
X136899952Y-75565000D01*
X136839476Y-75444047D01*
X136839476Y-75323095D01*
X136899952Y-75202142D01*
X136960428Y-75141666D01*
X137081380Y-75081190D01*
X137323285Y-75020714D01*
X137625666Y-75020714D01*
X137867571Y-75081190D01*
X137988523Y-75141666D01*
X138049000Y-75202142D01*
X138109476Y-75323095D01*
X137686142Y-76835000D02*
X136839476Y-76835000D01*
X138169952Y-76532619D02*
X137262809Y-76230238D01*
X137262809Y-77016428D01*
X181724904Y-49121785D02*
X182148238Y-49121785D01*
X182329666Y-49787023D02*
X181724904Y-49787023D01*
X181724904Y-48517023D01*
X182329666Y-48517023D01*
X182753000Y-48517023D02*
X183599666Y-49787023D01*
X183599666Y-48517023D02*
X182753000Y-49787023D01*
X183902047Y-48517023D02*
X184627761Y-48517023D01*
X184264904Y-49787023D02*
X184264904Y-48517023D01*
X186623476Y-49787023D02*
X186018714Y-49787023D01*
X186018714Y-48517023D01*
X187046809Y-49121785D02*
X187470142Y-49121785D01*
X187651571Y-49787023D02*
X187046809Y-49787023D01*
X187046809Y-48517023D01*
X187651571Y-48517023D01*
X188195857Y-49787023D02*
X188195857Y-48517023D01*
X188498238Y-48517023D01*
X188679666Y-48577500D01*
X188800619Y-48698452D01*
X188861095Y-48819404D01*
X188921571Y-49061309D01*
X188921571Y-49242738D01*
X188861095Y-49484642D01*
X188800619Y-49605595D01*
X188679666Y-49726547D01*
X188498238Y-49787023D01*
X188195857Y-49787023D01*
X186708142Y-64310380D02*
X185861476Y-64310380D01*
X187191952Y-64008000D02*
X186284809Y-63705619D01*
X186284809Y-64491809D01*
X187131476Y-64854666D02*
X187131476Y-65701333D01*
X185861476Y-65157047D01*
X187131476Y-66427047D02*
X187131476Y-66548000D01*
X187071000Y-66668952D01*
X187010523Y-66729428D01*
X186889571Y-66789904D01*
X186647666Y-66850380D01*
X186345285Y-66850380D01*
X186103380Y-66789904D01*
X185982428Y-66729428D01*
X185921952Y-66668952D01*
X185861476Y-66548000D01*
X185861476Y-66427047D01*
X185921952Y-66306095D01*
X185982428Y-66245619D01*
X186103380Y-66185142D01*
X186345285Y-66124666D01*
X186647666Y-66124666D01*
X186889571Y-66185142D01*
X187010523Y-66245619D01*
X187071000Y-66306095D01*
X187131476Y-66427047D01*
X185861476Y-68120380D02*
X186466238Y-67697047D01*
X185861476Y-67394666D02*
X187131476Y-67394666D01*
X187131476Y-67878476D01*
X187071000Y-67999428D01*
X187010523Y-68059904D01*
X186889571Y-68120380D01*
X186708142Y-68120380D01*
X186587190Y-68059904D01*
X186526714Y-67999428D01*
X186466238Y-67878476D01*
X186466238Y-67394666D01*
X49548142Y-125034523D02*
X49548142Y-123764523D01*
X50273857Y-125034523D01*
X50273857Y-123764523D01*
X51604333Y-124913571D02*
X51543857Y-124974047D01*
X51362428Y-125034523D01*
X51241476Y-125034523D01*
X51060047Y-124974047D01*
X50939095Y-124853095D01*
X50878619Y-124732142D01*
X50818142Y-124490238D01*
X50818142Y-124308809D01*
X50878619Y-124066904D01*
X50939095Y-123945952D01*
X51060047Y-123825000D01*
X51241476Y-123764523D01*
X51362428Y-123764523D01*
X51543857Y-123825000D01*
X51604333Y-123885476D01*
X95691476Y-66015809D02*
X95691476Y-66862476D01*
X94421476Y-66318190D01*
X95268142Y-67890571D02*
X94421476Y-67890571D01*
X95751952Y-67588190D02*
X94844809Y-67285809D01*
X94844809Y-68072000D01*
X94421476Y-69160571D02*
X94421476Y-68555809D01*
X95691476Y-68555809D01*
X94481952Y-69523428D02*
X94421476Y-69704857D01*
X94421476Y-70007238D01*
X94481952Y-70128190D01*
X94542428Y-70188666D01*
X94663380Y-70249142D01*
X94784333Y-70249142D01*
X94905285Y-70188666D01*
X94965761Y-70128190D01*
X95026238Y-70007238D01*
X95086714Y-69765333D01*
X95147190Y-69644380D01*
X95207666Y-69583904D01*
X95328619Y-69523428D01*
X95449571Y-69523428D01*
X95570523Y-69583904D01*
X95631000Y-69644380D01*
X95691476Y-69765333D01*
X95691476Y-70067714D01*
X95631000Y-70249142D01*
X95570523Y-70732952D02*
X95631000Y-70793428D01*
X95691476Y-70914380D01*
X95691476Y-71216761D01*
X95631000Y-71337714D01*
X95570523Y-71398190D01*
X95449571Y-71458666D01*
X95328619Y-71458666D01*
X95147190Y-71398190D01*
X94421476Y-70672476D01*
X94421476Y-71458666D01*
X95268142Y-72547238D02*
X94421476Y-72547238D01*
X95751952Y-72244857D02*
X94844809Y-71942476D01*
X94844809Y-72728666D01*
X95691476Y-73817238D02*
X95691476Y-73212476D01*
X95086714Y-73152000D01*
X95147190Y-73212476D01*
X95207666Y-73333428D01*
X95207666Y-73635809D01*
X95147190Y-73756761D01*
X95086714Y-73817238D01*
X94965761Y-73877714D01*
X94663380Y-73877714D01*
X94542428Y-73817238D01*
X94481952Y-73756761D01*
X94421476Y-73635809D01*
X94421476Y-73333428D01*
X94481952Y-73212476D01*
X94542428Y-73152000D01*
X172399476Y-106274809D02*
X172399476Y-107121476D01*
X171129476Y-106577190D01*
X171976142Y-108149571D02*
X171129476Y-108149571D01*
X172459952Y-107847190D02*
X171552809Y-107544809D01*
X171552809Y-108331000D01*
X171129476Y-109419571D02*
X171129476Y-108814809D01*
X172399476Y-108814809D01*
X171189952Y-109782428D02*
X171129476Y-109963857D01*
X171129476Y-110266238D01*
X171189952Y-110387190D01*
X171250428Y-110447666D01*
X171371380Y-110508142D01*
X171492333Y-110508142D01*
X171613285Y-110447666D01*
X171673761Y-110387190D01*
X171734238Y-110266238D01*
X171794714Y-110024333D01*
X171855190Y-109903380D01*
X171915666Y-109842904D01*
X172036619Y-109782428D01*
X172157571Y-109782428D01*
X172278523Y-109842904D01*
X172339000Y-109903380D01*
X172399476Y-110024333D01*
X172399476Y-110326714D01*
X172339000Y-110508142D01*
X172399476Y-111596714D02*
X172399476Y-111354809D01*
X172339000Y-111233857D01*
X172278523Y-111173380D01*
X172097095Y-111052428D01*
X171855190Y-110991952D01*
X171371380Y-110991952D01*
X171250428Y-111052428D01*
X171189952Y-111112904D01*
X171129476Y-111233857D01*
X171129476Y-111475761D01*
X171189952Y-111596714D01*
X171250428Y-111657190D01*
X171371380Y-111717666D01*
X171673761Y-111717666D01*
X171794714Y-111657190D01*
X171855190Y-111596714D01*
X171915666Y-111475761D01*
X171915666Y-111233857D01*
X171855190Y-111112904D01*
X171794714Y-111052428D01*
X171673761Y-110991952D01*
X171855190Y-112443380D02*
X171915666Y-112322428D01*
X171976142Y-112261952D01*
X172097095Y-112201476D01*
X172157571Y-112201476D01*
X172278523Y-112261952D01*
X172339000Y-112322428D01*
X172399476Y-112443380D01*
X172399476Y-112685285D01*
X172339000Y-112806238D01*
X172278523Y-112866714D01*
X172157571Y-112927190D01*
X172097095Y-112927190D01*
X171976142Y-112866714D01*
X171915666Y-112806238D01*
X171855190Y-112685285D01*
X171855190Y-112443380D01*
X171794714Y-112322428D01*
X171734238Y-112261952D01*
X171613285Y-112201476D01*
X171371380Y-112201476D01*
X171250428Y-112261952D01*
X171189952Y-112322428D01*
X171129476Y-112443380D01*
X171129476Y-112685285D01*
X171189952Y-112806238D01*
X171250428Y-112866714D01*
X171371380Y-112927190D01*
X171613285Y-112927190D01*
X171734238Y-112866714D01*
X171794714Y-112806238D01*
X171855190Y-112685285D01*
X171855190Y-113652904D02*
X171915666Y-113531952D01*
X171976142Y-113471476D01*
X172097095Y-113411000D01*
X172157571Y-113411000D01*
X172278523Y-113471476D01*
X172339000Y-113531952D01*
X172399476Y-113652904D01*
X172399476Y-113894809D01*
X172339000Y-114015761D01*
X172278523Y-114076238D01*
X172157571Y-114136714D01*
X172097095Y-114136714D01*
X171976142Y-114076238D01*
X171915666Y-114015761D01*
X171855190Y-113894809D01*
X171855190Y-113652904D01*
X171794714Y-113531952D01*
X171734238Y-113471476D01*
X171613285Y-113411000D01*
X171371380Y-113411000D01*
X171250428Y-113471476D01*
X171189952Y-113531952D01*
X171129476Y-113652904D01*
X171129476Y-113894809D01*
X171189952Y-114015761D01*
X171250428Y-114076238D01*
X171371380Y-114136714D01*
X171613285Y-114136714D01*
X171734238Y-114076238D01*
X171794714Y-114015761D01*
X171855190Y-113894809D01*
X82864476Y-109449809D02*
X82864476Y-110296476D01*
X81594476Y-109752190D01*
X82441142Y-111324571D02*
X81594476Y-111324571D01*
X82924952Y-111022190D02*
X82017809Y-110719809D01*
X82017809Y-111506000D01*
X81594476Y-112594571D02*
X81594476Y-111989809D01*
X82864476Y-111989809D01*
X81654952Y-112957428D02*
X81594476Y-113138857D01*
X81594476Y-113441238D01*
X81654952Y-113562190D01*
X81715428Y-113622666D01*
X81836380Y-113683142D01*
X81957333Y-113683142D01*
X82078285Y-113622666D01*
X82138761Y-113562190D01*
X82199238Y-113441238D01*
X82259714Y-113199333D01*
X82320190Y-113078380D01*
X82380666Y-113017904D01*
X82501619Y-112957428D01*
X82622571Y-112957428D01*
X82743523Y-113017904D01*
X82804000Y-113078380D01*
X82864476Y-113199333D01*
X82864476Y-113501714D01*
X82804000Y-113683142D01*
X82864476Y-114771714D02*
X82864476Y-114529809D01*
X82804000Y-114408857D01*
X82743523Y-114348380D01*
X82562095Y-114227428D01*
X82320190Y-114166952D01*
X81836380Y-114166952D01*
X81715428Y-114227428D01*
X81654952Y-114287904D01*
X81594476Y-114408857D01*
X81594476Y-114650761D01*
X81654952Y-114771714D01*
X81715428Y-114832190D01*
X81836380Y-114892666D01*
X82138761Y-114892666D01*
X82259714Y-114832190D01*
X82320190Y-114771714D01*
X82380666Y-114650761D01*
X82380666Y-114408857D01*
X82320190Y-114287904D01*
X82259714Y-114227428D01*
X82138761Y-114166952D01*
X82320190Y-115618380D02*
X82380666Y-115497428D01*
X82441142Y-115436952D01*
X82562095Y-115376476D01*
X82622571Y-115376476D01*
X82743523Y-115436952D01*
X82804000Y-115497428D01*
X82864476Y-115618380D01*
X82864476Y-115860285D01*
X82804000Y-115981238D01*
X82743523Y-116041714D01*
X82622571Y-116102190D01*
X82562095Y-116102190D01*
X82441142Y-116041714D01*
X82380666Y-115981238D01*
X82320190Y-115860285D01*
X82320190Y-115618380D01*
X82259714Y-115497428D01*
X82199238Y-115436952D01*
X82078285Y-115376476D01*
X81836380Y-115376476D01*
X81715428Y-115436952D01*
X81654952Y-115497428D01*
X81594476Y-115618380D01*
X81594476Y-115860285D01*
X81654952Y-115981238D01*
X81715428Y-116041714D01*
X81836380Y-116102190D01*
X82078285Y-116102190D01*
X82199238Y-116041714D01*
X82259714Y-115981238D01*
X82320190Y-115860285D01*
X82320190Y-116827904D02*
X82380666Y-116706952D01*
X82441142Y-116646476D01*
X82562095Y-116586000D01*
X82622571Y-116586000D01*
X82743523Y-116646476D01*
X82804000Y-116706952D01*
X82864476Y-116827904D01*
X82864476Y-117069809D01*
X82804000Y-117190761D01*
X82743523Y-117251238D01*
X82622571Y-117311714D01*
X82562095Y-117311714D01*
X82441142Y-117251238D01*
X82380666Y-117190761D01*
X82320190Y-117069809D01*
X82320190Y-116827904D01*
X82259714Y-116706952D01*
X82199238Y-116646476D01*
X82078285Y-116586000D01*
X81836380Y-116586000D01*
X81715428Y-116646476D01*
X81654952Y-116706952D01*
X81594476Y-116827904D01*
X81594476Y-117069809D01*
X81654952Y-117190761D01*
X81715428Y-117251238D01*
X81836380Y-117311714D01*
X82078285Y-117311714D01*
X82199238Y-117251238D01*
X82259714Y-117190761D01*
X82320190Y-117069809D01*
X172399476Y-68428809D02*
X172399476Y-69275476D01*
X171129476Y-68731190D01*
X171976142Y-70303571D02*
X171129476Y-70303571D01*
X172459952Y-70001190D02*
X171552809Y-69698809D01*
X171552809Y-70485000D01*
X171129476Y-71573571D02*
X171129476Y-70968809D01*
X172399476Y-70968809D01*
X171189952Y-71936428D02*
X171129476Y-72117857D01*
X171129476Y-72420238D01*
X171189952Y-72541190D01*
X171250428Y-72601666D01*
X171371380Y-72662142D01*
X171492333Y-72662142D01*
X171613285Y-72601666D01*
X171673761Y-72541190D01*
X171734238Y-72420238D01*
X171794714Y-72178333D01*
X171855190Y-72057380D01*
X171915666Y-71996904D01*
X172036619Y-71936428D01*
X172157571Y-71936428D01*
X172278523Y-71996904D01*
X172339000Y-72057380D01*
X172399476Y-72178333D01*
X172399476Y-72480714D01*
X172339000Y-72662142D01*
X171129476Y-73871666D02*
X171129476Y-73145952D01*
X171129476Y-73508809D02*
X172399476Y-73508809D01*
X172218047Y-73387857D01*
X172097095Y-73266904D01*
X172036619Y-73145952D01*
X172399476Y-74295000D02*
X172399476Y-75081190D01*
X171915666Y-74657857D01*
X171915666Y-74839285D01*
X171855190Y-74960238D01*
X171794714Y-75020714D01*
X171673761Y-75081190D01*
X171371380Y-75081190D01*
X171250428Y-75020714D01*
X171189952Y-74960238D01*
X171129476Y-74839285D01*
X171129476Y-74476428D01*
X171189952Y-74355476D01*
X171250428Y-74295000D01*
X171855190Y-75806904D02*
X171915666Y-75685952D01*
X171976142Y-75625476D01*
X172097095Y-75565000D01*
X172157571Y-75565000D01*
X172278523Y-75625476D01*
X172339000Y-75685952D01*
X172399476Y-75806904D01*
X172399476Y-76048809D01*
X172339000Y-76169761D01*
X172278523Y-76230238D01*
X172157571Y-76290714D01*
X172097095Y-76290714D01*
X171976142Y-76230238D01*
X171915666Y-76169761D01*
X171855190Y-76048809D01*
X171855190Y-75806904D01*
X171794714Y-75685952D01*
X171734238Y-75625476D01*
X171613285Y-75565000D01*
X171371380Y-75565000D01*
X171250428Y-75625476D01*
X171189952Y-75685952D01*
X171129476Y-75806904D01*
X171129476Y-76048809D01*
X171189952Y-76169761D01*
X171250428Y-76230238D01*
X171371380Y-76290714D01*
X171613285Y-76290714D01*
X171734238Y-76230238D01*
X171794714Y-76169761D01*
X171855190Y-76048809D01*
X160969476Y-70303571D02*
X160969476Y-71150238D01*
X159699476Y-70605952D01*
X160546142Y-72178333D02*
X159699476Y-72178333D01*
X161029952Y-71875952D02*
X160122809Y-71573571D01*
X160122809Y-72359761D01*
X159699476Y-73448333D02*
X159699476Y-72843571D01*
X160969476Y-72843571D01*
X159759952Y-73811190D02*
X159699476Y-73992619D01*
X159699476Y-74295000D01*
X159759952Y-74415952D01*
X159820428Y-74476428D01*
X159941380Y-74536904D01*
X160062333Y-74536904D01*
X160183285Y-74476428D01*
X160243761Y-74415952D01*
X160304238Y-74295000D01*
X160364714Y-74053095D01*
X160425190Y-73932142D01*
X160485666Y-73871666D01*
X160606619Y-73811190D01*
X160727571Y-73811190D01*
X160848523Y-73871666D01*
X160909000Y-73932142D01*
X160969476Y-74053095D01*
X160969476Y-74355476D01*
X160909000Y-74536904D01*
X160969476Y-75323095D02*
X160969476Y-75444047D01*
X160909000Y-75565000D01*
X160848523Y-75625476D01*
X160727571Y-75685952D01*
X160485666Y-75746428D01*
X160183285Y-75746428D01*
X159941380Y-75685952D01*
X159820428Y-75625476D01*
X159759952Y-75565000D01*
X159699476Y-75444047D01*
X159699476Y-75323095D01*
X159759952Y-75202142D01*
X159820428Y-75141666D01*
X159941380Y-75081190D01*
X160183285Y-75020714D01*
X160485666Y-75020714D01*
X160727571Y-75081190D01*
X160848523Y-75141666D01*
X160909000Y-75202142D01*
X160969476Y-75323095D01*
X160546142Y-76835000D02*
X159699476Y-76835000D01*
X161029952Y-76532619D02*
X160122809Y-76230238D01*
X160122809Y-77016428D01*
X149539476Y-70303571D02*
X149539476Y-71150238D01*
X148269476Y-70605952D01*
X149116142Y-72178333D02*
X148269476Y-72178333D01*
X149599952Y-71875952D02*
X148692809Y-71573571D01*
X148692809Y-72359761D01*
X148269476Y-73448333D02*
X148269476Y-72843571D01*
X149539476Y-72843571D01*
X148329952Y-73811190D02*
X148269476Y-73992619D01*
X148269476Y-74295000D01*
X148329952Y-74415952D01*
X148390428Y-74476428D01*
X148511380Y-74536904D01*
X148632333Y-74536904D01*
X148753285Y-74476428D01*
X148813761Y-74415952D01*
X148874238Y-74295000D01*
X148934714Y-74053095D01*
X148995190Y-73932142D01*
X149055666Y-73871666D01*
X149176619Y-73811190D01*
X149297571Y-73811190D01*
X149418523Y-73871666D01*
X149479000Y-73932142D01*
X149539476Y-74053095D01*
X149539476Y-74355476D01*
X149479000Y-74536904D01*
X149539476Y-74960238D02*
X149539476Y-75746428D01*
X149055666Y-75323095D01*
X149055666Y-75504523D01*
X148995190Y-75625476D01*
X148934714Y-75685952D01*
X148813761Y-75746428D01*
X148511380Y-75746428D01*
X148390428Y-75685952D01*
X148329952Y-75625476D01*
X148269476Y-75504523D01*
X148269476Y-75141666D01*
X148329952Y-75020714D01*
X148390428Y-74960238D01*
X149418523Y-76230238D02*
X149479000Y-76290714D01*
X149539476Y-76411666D01*
X149539476Y-76714047D01*
X149479000Y-76835000D01*
X149418523Y-76895476D01*
X149297571Y-76955952D01*
X149176619Y-76955952D01*
X148995190Y-76895476D01*
X148269476Y-76169761D01*
X148269476Y-76955952D01*
X109153476Y-66269809D02*
X109153476Y-67116476D01*
X107883476Y-66572190D01*
X108730142Y-68144571D02*
X107883476Y-68144571D01*
X109213952Y-67842190D02*
X108306809Y-67539809D01*
X108306809Y-68326000D01*
X107883476Y-69414571D02*
X107883476Y-68809809D01*
X109153476Y-68809809D01*
X107943952Y-69777428D02*
X107883476Y-69958857D01*
X107883476Y-70261238D01*
X107943952Y-70382190D01*
X108004428Y-70442666D01*
X108125380Y-70503142D01*
X108246333Y-70503142D01*
X108367285Y-70442666D01*
X108427761Y-70382190D01*
X108488238Y-70261238D01*
X108548714Y-70019333D01*
X108609190Y-69898380D01*
X108669666Y-69837904D01*
X108790619Y-69777428D01*
X108911571Y-69777428D01*
X109032523Y-69837904D01*
X109093000Y-69898380D01*
X109153476Y-70019333D01*
X109153476Y-70321714D01*
X109093000Y-70503142D01*
X109032523Y-70986952D02*
X109093000Y-71047428D01*
X109153476Y-71168380D01*
X109153476Y-71470761D01*
X109093000Y-71591714D01*
X109032523Y-71652190D01*
X108911571Y-71712666D01*
X108790619Y-71712666D01*
X108609190Y-71652190D01*
X107883476Y-70926476D01*
X107883476Y-71712666D01*
X108730142Y-72801238D02*
X107883476Y-72801238D01*
X109213952Y-72498857D02*
X108306809Y-72196476D01*
X108306809Y-72982666D01*
X109153476Y-74071238D02*
X109153476Y-73466476D01*
X108548714Y-73406000D01*
X108609190Y-73466476D01*
X108669666Y-73587428D01*
X108669666Y-73889809D01*
X108609190Y-74010761D01*
X108548714Y-74071238D01*
X108427761Y-74131714D01*
X108125380Y-74131714D01*
X108004428Y-74071238D01*
X107943952Y-74010761D01*
X107883476Y-73889809D01*
X107883476Y-73587428D01*
X107943952Y-73466476D01*
X108004428Y-73406000D01*
X82737476Y-64999809D02*
X82737476Y-65846476D01*
X81467476Y-65302190D01*
X82314142Y-66874571D02*
X81467476Y-66874571D01*
X82797952Y-66572190D02*
X81890809Y-66269809D01*
X81890809Y-67056000D01*
X81467476Y-68144571D02*
X81467476Y-67539809D01*
X82737476Y-67539809D01*
X81527952Y-68507428D02*
X81467476Y-68688857D01*
X81467476Y-68991238D01*
X81527952Y-69112190D01*
X81588428Y-69172666D01*
X81709380Y-69233142D01*
X81830333Y-69233142D01*
X81951285Y-69172666D01*
X82011761Y-69112190D01*
X82072238Y-68991238D01*
X82132714Y-68749333D01*
X82193190Y-68628380D01*
X82253666Y-68567904D01*
X82374619Y-68507428D01*
X82495571Y-68507428D01*
X82616523Y-68567904D01*
X82677000Y-68628380D01*
X82737476Y-68749333D01*
X82737476Y-69051714D01*
X82677000Y-69233142D01*
X82737476Y-70382190D02*
X82737476Y-69777428D01*
X82132714Y-69716952D01*
X82193190Y-69777428D01*
X82253666Y-69898380D01*
X82253666Y-70200761D01*
X82193190Y-70321714D01*
X82132714Y-70382190D01*
X82011761Y-70442666D01*
X81709380Y-70442666D01*
X81588428Y-70382190D01*
X81527952Y-70321714D01*
X81467476Y-70200761D01*
X81467476Y-69898380D01*
X81527952Y-69777428D01*
X81588428Y-69716952D01*
X82737476Y-70866000D02*
X82737476Y-71712666D01*
X81467476Y-71168380D01*
X82737476Y-72075523D02*
X82737476Y-72861714D01*
X82253666Y-72438380D01*
X82253666Y-72619809D01*
X82193190Y-72740761D01*
X82132714Y-72801238D01*
X82011761Y-72861714D01*
X81709380Y-72861714D01*
X81588428Y-72801238D01*
X81527952Y-72740761D01*
X81467476Y-72619809D01*
X81467476Y-72256952D01*
X81527952Y-72136000D01*
X81588428Y-72075523D01*
X69402476Y-66269809D02*
X69402476Y-67116476D01*
X68132476Y-66572190D01*
X68979142Y-68144571D02*
X68132476Y-68144571D01*
X69462952Y-67842190D02*
X68555809Y-67539809D01*
X68555809Y-68326000D01*
X68132476Y-69414571D02*
X68132476Y-68809809D01*
X69402476Y-68809809D01*
X68192952Y-69777428D02*
X68132476Y-69958857D01*
X68132476Y-70261238D01*
X68192952Y-70382190D01*
X68253428Y-70442666D01*
X68374380Y-70503142D01*
X68495333Y-70503142D01*
X68616285Y-70442666D01*
X68676761Y-70382190D01*
X68737238Y-70261238D01*
X68797714Y-70019333D01*
X68858190Y-69898380D01*
X68918666Y-69837904D01*
X69039619Y-69777428D01*
X69160571Y-69777428D01*
X69281523Y-69837904D01*
X69342000Y-69898380D01*
X69402476Y-70019333D01*
X69402476Y-70321714D01*
X69342000Y-70503142D01*
X69402476Y-71652190D02*
X69402476Y-71047428D01*
X68797714Y-70986952D01*
X68858190Y-71047428D01*
X68918666Y-71168380D01*
X68918666Y-71470761D01*
X68858190Y-71591714D01*
X68797714Y-71652190D01*
X68676761Y-71712666D01*
X68374380Y-71712666D01*
X68253428Y-71652190D01*
X68192952Y-71591714D01*
X68132476Y-71470761D01*
X68132476Y-71168380D01*
X68192952Y-71047428D01*
X68253428Y-70986952D01*
X69402476Y-72136000D02*
X69402476Y-72982666D01*
X68132476Y-72438380D01*
X69402476Y-73345523D02*
X69402476Y-74131714D01*
X68918666Y-73708380D01*
X68918666Y-73889809D01*
X68858190Y-74010761D01*
X68797714Y-74071238D01*
X68676761Y-74131714D01*
X68374380Y-74131714D01*
X68253428Y-74071238D01*
X68192952Y-74010761D01*
X68132476Y-73889809D01*
X68132476Y-73526952D01*
X68192952Y-73406000D01*
X68253428Y-73345523D01*
X183442428Y-54782357D02*
X184603571Y-54782357D01*
X184023000Y-55362928D02*
X184023000Y-54201785D01*
X185528857Y-87395957D02*
X185528857Y-87903957D01*
X184730571Y-88121671D02*
X184730571Y-87395957D01*
X186254571Y-87395957D01*
X186254571Y-88121671D01*
X184875714Y-89645671D02*
X184803142Y-89573100D01*
X184730571Y-89355385D01*
X184730571Y-89210242D01*
X184803142Y-88992528D01*
X184948285Y-88847385D01*
X185093428Y-88774814D01*
X185383714Y-88702242D01*
X185601428Y-88702242D01*
X185891714Y-88774814D01*
X186036857Y-88847385D01*
X186182000Y-88992528D01*
X186254571Y-89210242D01*
X186254571Y-89355385D01*
X186182000Y-89573100D01*
X186109428Y-89645671D01*
X184730571Y-91097100D02*
X184730571Y-90226242D01*
X184730571Y-90661671D02*
X186254571Y-90661671D01*
X186036857Y-90516528D01*
X185891714Y-90371385D01*
X185819142Y-90226242D01*
X185601428Y-91967957D02*
X185674000Y-91822814D01*
X185746571Y-91750242D01*
X185891714Y-91677671D01*
X185964285Y-91677671D01*
X186109428Y-91750242D01*
X186182000Y-91822814D01*
X186254571Y-91967957D01*
X186254571Y-92258242D01*
X186182000Y-92403385D01*
X186109428Y-92475957D01*
X185964285Y-92548528D01*
X185891714Y-92548528D01*
X185746571Y-92475957D01*
X185674000Y-92403385D01*
X185601428Y-92258242D01*
X185601428Y-91967957D01*
X185528857Y-91822814D01*
X185456285Y-91750242D01*
X185311142Y-91677671D01*
X185020857Y-91677671D01*
X184875714Y-91750242D01*
X184803142Y-91822814D01*
X184730571Y-91967957D01*
X184730571Y-92258242D01*
X184803142Y-92403385D01*
X184875714Y-92475957D01*
X185020857Y-92548528D01*
X185311142Y-92548528D01*
X185456285Y-92475957D01*
X185528857Y-92403385D01*
X185601428Y-92258242D01*
X186254571Y-93056528D02*
X186254571Y-93999957D01*
X185674000Y-93491957D01*
X185674000Y-93709671D01*
X185601428Y-93854814D01*
X185528857Y-93927385D01*
X185383714Y-93999957D01*
X185020857Y-93999957D01*
X184875714Y-93927385D01*
X184803142Y-93854814D01*
X184730571Y-93709671D01*
X184730571Y-93274242D01*
X184803142Y-93129100D01*
X184875714Y-93056528D01*
X185746571Y-95306242D02*
X184730571Y-95306242D01*
X186327142Y-94943385D02*
X185238571Y-94580528D01*
X185238571Y-95523957D01*
X185311142Y-96104528D02*
X185311142Y-97265671D01*
X186254571Y-97846242D02*
X184730571Y-98862242D01*
X186254571Y-98862242D02*
X184730571Y-97846242D01*
X186254571Y-99225100D02*
X186254571Y-100095957D01*
X184730571Y-99660528D02*
X186254571Y-99660528D01*
X185311142Y-100603957D02*
X185311142Y-101765100D01*
X184730571Y-102490814D02*
X186254571Y-102490814D01*
X184730571Y-103216528D02*
X186254571Y-103216528D01*
X186254571Y-103579385D01*
X186182000Y-103797100D01*
X186036857Y-103942242D01*
X185891714Y-104014814D01*
X185601428Y-104087385D01*
X185383714Y-104087385D01*
X185093428Y-104014814D01*
X184948285Y-103942242D01*
X184803142Y-103797100D01*
X184730571Y-103579385D01*
X184730571Y-103216528D01*
X185528857Y-104740528D02*
X185528857Y-105248528D01*
X184730571Y-105466242D02*
X184730571Y-104740528D01*
X186254571Y-104740528D01*
X186254571Y-105466242D01*
X184730571Y-107280528D02*
X186254571Y-107280528D01*
X185674000Y-107280528D02*
X185746571Y-107425671D01*
X185746571Y-107715957D01*
X185674000Y-107861100D01*
X185601428Y-107933671D01*
X185456285Y-108006242D01*
X185020857Y-108006242D01*
X184875714Y-107933671D01*
X184803142Y-107861100D01*
X184730571Y-107715957D01*
X184730571Y-107425671D01*
X184803142Y-107280528D01*
X184730571Y-109312528D02*
X185528857Y-109312528D01*
X185674000Y-109239957D01*
X185746571Y-109094814D01*
X185746571Y-108804528D01*
X185674000Y-108659385D01*
X184803142Y-109312528D02*
X184730571Y-109167385D01*
X184730571Y-108804528D01*
X184803142Y-108659385D01*
X184948285Y-108586814D01*
X185093428Y-108586814D01*
X185238571Y-108659385D01*
X185311142Y-108804528D01*
X185311142Y-109167385D01*
X185383714Y-109312528D01*
X184803142Y-109965671D02*
X184730571Y-110110814D01*
X184730571Y-110401100D01*
X184803142Y-110546242D01*
X184948285Y-110618814D01*
X185020857Y-110618814D01*
X185166000Y-110546242D01*
X185238571Y-110401100D01*
X185238571Y-110183385D01*
X185311142Y-110038242D01*
X185456285Y-109965671D01*
X185528857Y-109965671D01*
X185674000Y-110038242D01*
X185746571Y-110183385D01*
X185746571Y-110401100D01*
X185674000Y-110546242D01*
X184803142Y-111852528D02*
X184730571Y-111707385D01*
X184730571Y-111417100D01*
X184803142Y-111271957D01*
X184948285Y-111199385D01*
X185528857Y-111199385D01*
X185674000Y-111271957D01*
X185746571Y-111417100D01*
X185746571Y-111707385D01*
X185674000Y-111852528D01*
X185528857Y-111925100D01*
X185383714Y-111925100D01*
X185238571Y-111199385D01*
X184730571Y-113231385D02*
X186254571Y-113231385D01*
X184803142Y-113231385D02*
X184730571Y-113086242D01*
X184730571Y-112795957D01*
X184803142Y-112650814D01*
X184875714Y-112578242D01*
X185020857Y-112505671D01*
X185456285Y-112505671D01*
X185601428Y-112578242D01*
X185674000Y-112650814D01*
X185746571Y-112795957D01*
X185746571Y-113086242D01*
X185674000Y-113231385D01*
X184730571Y-115335957D02*
X184803142Y-115190814D01*
X184875714Y-115118242D01*
X185020857Y-115045671D01*
X185456285Y-115045671D01*
X185601428Y-115118242D01*
X185674000Y-115190814D01*
X185746571Y-115335957D01*
X185746571Y-115553671D01*
X185674000Y-115698814D01*
X185601428Y-115771385D01*
X185456285Y-115843957D01*
X185020857Y-115843957D01*
X184875714Y-115771385D01*
X184803142Y-115698814D01*
X184730571Y-115553671D01*
X184730571Y-115335957D01*
X185746571Y-116497100D02*
X184730571Y-116497100D01*
X185601428Y-116497100D02*
X185674000Y-116569671D01*
X185746571Y-116714814D01*
X185746571Y-116932528D01*
X185674000Y-117077671D01*
X185528857Y-117150242D01*
X184730571Y-117150242D01*
X184730571Y-119037100D02*
X185746571Y-119037100D01*
X185456285Y-119037100D02*
X185601428Y-119109671D01*
X185674000Y-119182242D01*
X185746571Y-119327385D01*
X185746571Y-119472528D01*
X184803142Y-120561100D02*
X184730571Y-120415957D01*
X184730571Y-120125671D01*
X184803142Y-119980528D01*
X184948285Y-119907957D01*
X185528857Y-119907957D01*
X185674000Y-119980528D01*
X185746571Y-120125671D01*
X185746571Y-120415957D01*
X185674000Y-120561100D01*
X185528857Y-120633671D01*
X185383714Y-120633671D01*
X185238571Y-119907957D01*
X185746571Y-121141671D02*
X184730571Y-121504528D01*
X185746571Y-121867385D01*
X186254571Y-123899385D02*
X186254571Y-124044528D01*
X186182000Y-124189671D01*
X186109428Y-124262242D01*
X185964285Y-124334814D01*
X185674000Y-124407385D01*
X185311142Y-124407385D01*
X185020857Y-124334814D01*
X184875714Y-124262242D01*
X184803142Y-124189671D01*
X184730571Y-124044528D01*
X184730571Y-123899385D01*
X184803142Y-123754242D01*
X184875714Y-123681671D01*
X185020857Y-123609100D01*
X185311142Y-123536528D01*
X185674000Y-123536528D01*
X185964285Y-123609100D01*
X186109428Y-123681671D01*
X186182000Y-123754242D01*
X186254571Y-123899385D01*
X185746571Y-125713671D02*
X184730571Y-125713671D01*
X186327142Y-125350814D02*
X185238571Y-124987957D01*
X185238571Y-125931385D01*
X181610000Y-87831385D02*
X181682571Y-87758814D01*
X181900285Y-87613671D01*
X182045428Y-87541100D01*
X182263142Y-87468528D01*
X182626000Y-87395957D01*
X182916285Y-87395957D01*
X183279142Y-87468528D01*
X183496857Y-87541100D01*
X183642000Y-87613671D01*
X183859714Y-87758814D01*
X183932285Y-87831385D01*
X182263142Y-89065100D02*
X182190571Y-88919957D01*
X182190571Y-88629671D01*
X182263142Y-88484528D01*
X182335714Y-88411957D01*
X182480857Y-88339385D01*
X182916285Y-88339385D01*
X183061428Y-88411957D01*
X183134000Y-88484528D01*
X183206571Y-88629671D01*
X183206571Y-88919957D01*
X183134000Y-89065100D01*
X181610000Y-89573100D02*
X181682571Y-89645671D01*
X181900285Y-89790814D01*
X182045428Y-89863385D01*
X182263142Y-89935957D01*
X182626000Y-90008528D01*
X182916285Y-90008528D01*
X183279142Y-89935957D01*
X183496857Y-89863385D01*
X183642000Y-89790814D01*
X183859714Y-89645671D01*
X183932285Y-89573100D01*
X183569428Y-91822814D02*
X183642000Y-91895385D01*
X183714571Y-92040528D01*
X183714571Y-92403385D01*
X183642000Y-92548528D01*
X183569428Y-92621100D01*
X183424285Y-92693671D01*
X183279142Y-92693671D01*
X183061428Y-92621100D01*
X182190571Y-91750242D01*
X182190571Y-92693671D01*
X183714571Y-93637100D02*
X183714571Y-93782242D01*
X183642000Y-93927385D01*
X183569428Y-93999957D01*
X183424285Y-94072528D01*
X183134000Y-94145100D01*
X182771142Y-94145100D01*
X182480857Y-94072528D01*
X182335714Y-93999957D01*
X182263142Y-93927385D01*
X182190571Y-93782242D01*
X182190571Y-93637100D01*
X182263142Y-93491957D01*
X182335714Y-93419385D01*
X182480857Y-93346814D01*
X182771142Y-93274242D01*
X183134000Y-93274242D01*
X183424285Y-93346814D01*
X183569428Y-93419385D01*
X183642000Y-93491957D01*
X183714571Y-93637100D01*
X182190571Y-95596528D02*
X182190571Y-94725671D01*
X182190571Y-95161100D02*
X183714571Y-95161100D01*
X183496857Y-95015957D01*
X183351714Y-94870814D01*
X183279142Y-94725671D01*
X183714571Y-96104528D02*
X183714571Y-97120528D01*
X182190571Y-96467385D01*
X183714571Y-98644528D02*
X183714571Y-99515385D01*
X182190571Y-99079957D02*
X183714571Y-99079957D01*
X182190571Y-100023385D02*
X183714571Y-100023385D01*
X182190571Y-100676528D02*
X182988857Y-100676528D01*
X183134000Y-100603957D01*
X183206571Y-100458814D01*
X183206571Y-100241100D01*
X183134000Y-100095957D01*
X183061428Y-100023385D01*
X182263142Y-101982814D02*
X182190571Y-101837671D01*
X182190571Y-101547385D01*
X182263142Y-101402242D01*
X182408285Y-101329671D01*
X182988857Y-101329671D01*
X183134000Y-101402242D01*
X183206571Y-101547385D01*
X183206571Y-101837671D01*
X183134000Y-101982814D01*
X182988857Y-102055385D01*
X182843714Y-102055385D01*
X182698571Y-101329671D01*
X183642000Y-104667957D02*
X183714571Y-104522814D01*
X183714571Y-104305100D01*
X183642000Y-104087385D01*
X183496857Y-103942242D01*
X183351714Y-103869671D01*
X183061428Y-103797100D01*
X182843714Y-103797100D01*
X182553428Y-103869671D01*
X182408285Y-103942242D01*
X182263142Y-104087385D01*
X182190571Y-104305100D01*
X182190571Y-104450242D01*
X182263142Y-104667957D01*
X182335714Y-104740528D01*
X182843714Y-104740528D01*
X182843714Y-104450242D01*
X182190571Y-105611385D02*
X182263142Y-105466242D01*
X182408285Y-105393671D01*
X183714571Y-105393671D01*
X182190571Y-106191957D02*
X183206571Y-106191957D01*
X183714571Y-106191957D02*
X183642000Y-106119385D01*
X183569428Y-106191957D01*
X183642000Y-106264528D01*
X183714571Y-106191957D01*
X183569428Y-106191957D01*
X183206571Y-106699957D02*
X183206571Y-107280528D01*
X183714571Y-106917671D02*
X182408285Y-106917671D01*
X182263142Y-106990242D01*
X182190571Y-107135385D01*
X182190571Y-107280528D01*
X182263142Y-108441671D02*
X182190571Y-108296528D01*
X182190571Y-108006242D01*
X182263142Y-107861100D01*
X182335714Y-107788528D01*
X182480857Y-107715957D01*
X182916285Y-107715957D01*
X183061428Y-107788528D01*
X183134000Y-107861100D01*
X183206571Y-108006242D01*
X183206571Y-108296528D01*
X183134000Y-108441671D01*
X182190571Y-109094814D02*
X183714571Y-109094814D01*
X182190571Y-109747957D02*
X182988857Y-109747957D01*
X183134000Y-109675385D01*
X183206571Y-109530242D01*
X183206571Y-109312528D01*
X183134000Y-109167385D01*
X183061428Y-109094814D01*
X183714571Y-111489671D02*
X182190571Y-111852528D01*
X183279142Y-112142814D01*
X182190571Y-112433100D01*
X183714571Y-112795957D01*
X182190571Y-113594242D02*
X182263142Y-113449100D01*
X182335714Y-113376528D01*
X182480857Y-113303957D01*
X182916285Y-113303957D01*
X183061428Y-113376528D01*
X183134000Y-113449100D01*
X183206571Y-113594242D01*
X183206571Y-113811957D01*
X183134000Y-113957100D01*
X183061428Y-114029671D01*
X182916285Y-114102242D01*
X182480857Y-114102242D01*
X182335714Y-114029671D01*
X182263142Y-113957100D01*
X182190571Y-113811957D01*
X182190571Y-113594242D01*
X182190571Y-114755385D02*
X183206571Y-114755385D01*
X182916285Y-114755385D02*
X183061428Y-114827957D01*
X183134000Y-114900528D01*
X183206571Y-115045671D01*
X183206571Y-115190814D01*
X182190571Y-115698814D02*
X183714571Y-115698814D01*
X182771142Y-115843957D02*
X182190571Y-116279385D01*
X183206571Y-116279385D02*
X182626000Y-115698814D01*
X182263142Y-116859957D02*
X182190571Y-117005100D01*
X182190571Y-117295385D01*
X182263142Y-117440528D01*
X182408285Y-117513100D01*
X182480857Y-117513100D01*
X182626000Y-117440528D01*
X182698571Y-117295385D01*
X182698571Y-117077671D01*
X182771142Y-116932528D01*
X182916285Y-116859957D01*
X182988857Y-116859957D01*
X183134000Y-116932528D01*
X183206571Y-117077671D01*
X183206571Y-117295385D01*
X183134000Y-117440528D01*
X180666571Y-88049100D02*
X179432857Y-88049100D01*
X179287714Y-87976528D01*
X179215142Y-87903957D01*
X179142571Y-87758814D01*
X179142571Y-87541100D01*
X179215142Y-87395957D01*
X179723142Y-88049100D02*
X179650571Y-87903957D01*
X179650571Y-87613671D01*
X179723142Y-87468528D01*
X179795714Y-87395957D01*
X179940857Y-87323385D01*
X180376285Y-87323385D01*
X180521428Y-87395957D01*
X180594000Y-87468528D01*
X180666571Y-87613671D01*
X180666571Y-87903957D01*
X180594000Y-88049100D01*
X179650571Y-88774814D02*
X180666571Y-88774814D01*
X181174571Y-88774814D02*
X181102000Y-88702242D01*
X181029428Y-88774814D01*
X181102000Y-88847385D01*
X181174571Y-88774814D01*
X181029428Y-88774814D01*
X180666571Y-89282814D02*
X180666571Y-89863385D01*
X181174571Y-89500528D02*
X179868285Y-89500528D01*
X179723142Y-89573100D01*
X179650571Y-89718242D01*
X179650571Y-89863385D01*
X179650571Y-90371385D02*
X181174571Y-90371385D01*
X179650571Y-91024528D02*
X180448857Y-91024528D01*
X180594000Y-90951957D01*
X180666571Y-90806814D01*
X180666571Y-90589100D01*
X180594000Y-90443957D01*
X180521428Y-90371385D01*
X180666571Y-92403385D02*
X179650571Y-92403385D01*
X180666571Y-91750242D02*
X179868285Y-91750242D01*
X179723142Y-91822814D01*
X179650571Y-91967957D01*
X179650571Y-92185671D01*
X179723142Y-92330814D01*
X179795714Y-92403385D01*
X179650571Y-93129100D02*
X181174571Y-93129100D01*
X180594000Y-93129100D02*
X180666571Y-93274242D01*
X180666571Y-93564528D01*
X180594000Y-93709671D01*
X180521428Y-93782242D01*
X180376285Y-93854814D01*
X179940857Y-93854814D01*
X179795714Y-93782242D01*
X179723142Y-93709671D01*
X179650571Y-93564528D01*
X179650571Y-93274242D01*
X179723142Y-93129100D01*
X179795714Y-94507957D02*
X179723142Y-94580528D01*
X179650571Y-94507957D01*
X179723142Y-94435385D01*
X179795714Y-94507957D01*
X179650571Y-94507957D01*
X179723142Y-95886814D02*
X179650571Y-95741671D01*
X179650571Y-95451385D01*
X179723142Y-95306242D01*
X179795714Y-95233671D01*
X179940857Y-95161100D01*
X180376285Y-95161100D01*
X180521428Y-95233671D01*
X180594000Y-95306242D01*
X180666571Y-95451385D01*
X180666571Y-95741671D01*
X180594000Y-95886814D01*
X179650571Y-96757671D02*
X179723142Y-96612528D01*
X179795714Y-96539957D01*
X179940857Y-96467385D01*
X180376285Y-96467385D01*
X180521428Y-96539957D01*
X180594000Y-96612528D01*
X180666571Y-96757671D01*
X180666571Y-96975385D01*
X180594000Y-97120528D01*
X180521428Y-97193100D01*
X180376285Y-97265671D01*
X179940857Y-97265671D01*
X179795714Y-97193100D01*
X179723142Y-97120528D01*
X179650571Y-96975385D01*
X179650571Y-96757671D01*
X179650571Y-97918814D02*
X180666571Y-97918814D01*
X180521428Y-97918814D02*
X180594000Y-97991385D01*
X180666571Y-98136528D01*
X180666571Y-98354242D01*
X180594000Y-98499385D01*
X180448857Y-98571957D01*
X179650571Y-98571957D01*
X180448857Y-98571957D02*
X180594000Y-98644528D01*
X180666571Y-98789671D01*
X180666571Y-99007385D01*
X180594000Y-99152528D01*
X180448857Y-99225100D01*
X179650571Y-99225100D01*
X181247142Y-101039385D02*
X179287714Y-99733100D01*
X179650571Y-101547385D02*
X180666571Y-101547385D01*
X180521428Y-101547385D02*
X180594000Y-101619957D01*
X180666571Y-101765100D01*
X180666571Y-101982814D01*
X180594000Y-102127957D01*
X180448857Y-102200528D01*
X179650571Y-102200528D01*
X180448857Y-102200528D02*
X180594000Y-102273100D01*
X180666571Y-102418242D01*
X180666571Y-102635957D01*
X180594000Y-102781100D01*
X180448857Y-102853671D01*
X179650571Y-102853671D01*
X180666571Y-104232528D02*
X179432857Y-104232528D01*
X179287714Y-104159957D01*
X179215142Y-104087385D01*
X179142571Y-103942242D01*
X179142571Y-103724528D01*
X179215142Y-103579385D01*
X179723142Y-104232528D02*
X179650571Y-104087385D01*
X179650571Y-103797100D01*
X179723142Y-103651957D01*
X179795714Y-103579385D01*
X179940857Y-103506814D01*
X180376285Y-103506814D01*
X180521428Y-103579385D01*
X180594000Y-103651957D01*
X180666571Y-103797100D01*
X180666571Y-104087385D01*
X180594000Y-104232528D01*
X179650571Y-105175957D02*
X179723142Y-105030814D01*
X179795714Y-104958242D01*
X179940857Y-104885671D01*
X180376285Y-104885671D01*
X180521428Y-104958242D01*
X180594000Y-105030814D01*
X180666571Y-105175957D01*
X180666571Y-105393671D01*
X180594000Y-105538814D01*
X180521428Y-105611385D01*
X180376285Y-105683957D01*
X179940857Y-105683957D01*
X179795714Y-105611385D01*
X179723142Y-105538814D01*
X179650571Y-105393671D01*
X179650571Y-105175957D01*
X179723142Y-106917671D02*
X179650571Y-106772528D01*
X179650571Y-106482242D01*
X179723142Y-106337100D01*
X179868285Y-106264528D01*
X180448857Y-106264528D01*
X180594000Y-106337100D01*
X180666571Y-106482242D01*
X180666571Y-106772528D01*
X180594000Y-106917671D01*
X180448857Y-106990242D01*
X180303714Y-106990242D01*
X180158571Y-106264528D01*
X180666571Y-108296528D02*
X179432857Y-108296528D01*
X179287714Y-108223957D01*
X179215142Y-108151385D01*
X179142571Y-108006242D01*
X179142571Y-107788528D01*
X179215142Y-107643385D01*
X179723142Y-108296528D02*
X179650571Y-108151385D01*
X179650571Y-107861100D01*
X179723142Y-107715957D01*
X179795714Y-107643385D01*
X179940857Y-107570814D01*
X180376285Y-107570814D01*
X180521428Y-107643385D01*
X180594000Y-107715957D01*
X180666571Y-107861100D01*
X180666571Y-108151385D01*
X180594000Y-108296528D01*
X179723142Y-109602814D02*
X179650571Y-109457671D01*
X179650571Y-109167385D01*
X179723142Y-109022242D01*
X179868285Y-108949671D01*
X180448857Y-108949671D01*
X180594000Y-109022242D01*
X180666571Y-109167385D01*
X180666571Y-109457671D01*
X180594000Y-109602814D01*
X180448857Y-109675385D01*
X180303714Y-109675385D01*
X180158571Y-108949671D01*
X179650571Y-110546242D02*
X179723142Y-110401100D01*
X179868285Y-110328528D01*
X181174571Y-110328528D01*
X181247142Y-112215385D02*
X179287714Y-110909100D01*
X180448857Y-112723385D02*
X180448857Y-113231385D01*
X179650571Y-113449100D02*
X179650571Y-112723385D01*
X181174571Y-112723385D01*
X181174571Y-113449100D01*
X179795714Y-114973100D02*
X179723142Y-114900528D01*
X179650571Y-114682814D01*
X179650571Y-114537671D01*
X179723142Y-114319957D01*
X179868285Y-114174814D01*
X180013428Y-114102242D01*
X180303714Y-114029671D01*
X180521428Y-114029671D01*
X180811714Y-114102242D01*
X180956857Y-114174814D01*
X181102000Y-114319957D01*
X181174571Y-114537671D01*
X181174571Y-114682814D01*
X181102000Y-114900528D01*
X181029428Y-114973100D01*
X179650571Y-116424528D02*
X179650571Y-115553671D01*
X179650571Y-115989100D02*
X181174571Y-115989100D01*
X180956857Y-115843957D01*
X180811714Y-115698814D01*
X180739142Y-115553671D01*
X180521428Y-117295385D02*
X180594000Y-117150242D01*
X180666571Y-117077671D01*
X180811714Y-117005100D01*
X180884285Y-117005100D01*
X181029428Y-117077671D01*
X181102000Y-117150242D01*
X181174571Y-117295385D01*
X181174571Y-117585671D01*
X181102000Y-117730814D01*
X181029428Y-117803385D01*
X180884285Y-117875957D01*
X180811714Y-117875957D01*
X180666571Y-117803385D01*
X180594000Y-117730814D01*
X180521428Y-117585671D01*
X180521428Y-117295385D01*
X180448857Y-117150242D01*
X180376285Y-117077671D01*
X180231142Y-117005100D01*
X179940857Y-117005100D01*
X179795714Y-117077671D01*
X179723142Y-117150242D01*
X179650571Y-117295385D01*
X179650571Y-117585671D01*
X179723142Y-117730814D01*
X179795714Y-117803385D01*
X179940857Y-117875957D01*
X180231142Y-117875957D01*
X180376285Y-117803385D01*
X180448857Y-117730814D01*
X180521428Y-117585671D01*
X181174571Y-118383957D02*
X181174571Y-119327385D01*
X180594000Y-118819385D01*
X180594000Y-119037100D01*
X180521428Y-119182242D01*
X180448857Y-119254814D01*
X180303714Y-119327385D01*
X179940857Y-119327385D01*
X179795714Y-119254814D01*
X179723142Y-119182242D01*
X179650571Y-119037100D01*
X179650571Y-118601671D01*
X179723142Y-118456528D01*
X179795714Y-118383957D01*
X180666571Y-120633671D02*
X179650571Y-120633671D01*
X181247142Y-120270814D02*
X180158571Y-119907957D01*
X180158571Y-120851385D01*
X180231142Y-121431957D02*
X180231142Y-122593100D01*
X181174571Y-123173671D02*
X179650571Y-124189671D01*
X181174571Y-124189671D02*
X179650571Y-123173671D01*
X181174571Y-124552528D02*
X181174571Y-125423385D01*
X179650571Y-124987957D02*
X181174571Y-124987957D01*
X180231142Y-125931385D02*
X180231142Y-127092528D01*
X179650571Y-127818242D02*
X181174571Y-127818242D01*
X179650571Y-128543957D02*
X181174571Y-128543957D01*
X181174571Y-128906814D01*
X181102000Y-129124528D01*
X180956857Y-129269671D01*
X180811714Y-129342242D01*
X180521428Y-129414814D01*
X180303714Y-129414814D01*
X180013428Y-129342242D01*
X179868285Y-129269671D01*
X179723142Y-129124528D01*
X179650571Y-128906814D01*
X179650571Y-128543957D01*
X180448857Y-130067957D02*
X180448857Y-130575957D01*
X179650571Y-130793671D02*
X179650571Y-130067957D01*
X181174571Y-130067957D01*
X181174571Y-130793671D01*
X52253242Y-94681523D02*
X51648480Y-94681523D01*
X51588004Y-95286285D01*
X51648480Y-95225809D01*
X51769433Y-95165333D01*
X52071814Y-95165333D01*
X52192766Y-95225809D01*
X52253242Y-95286285D01*
X52313719Y-95407238D01*
X52313719Y-95709619D01*
X52253242Y-95830571D01*
X52192766Y-95891047D01*
X52071814Y-95951523D01*
X51769433Y-95951523D01*
X51648480Y-95891047D01*
X51588004Y-95830571D01*
X52676576Y-94681523D02*
X53099909Y-95951523D01*
X53523242Y-94681523D01*
X55156100Y-94681523D02*
X55398004Y-94681523D01*
X55518957Y-94742000D01*
X55639909Y-94862952D01*
X55700385Y-95104857D01*
X55700385Y-95528190D01*
X55639909Y-95770095D01*
X55518957Y-95891047D01*
X55398004Y-95951523D01*
X55156100Y-95951523D01*
X55035147Y-95891047D01*
X54914195Y-95770095D01*
X54853719Y-95528190D01*
X54853719Y-95104857D01*
X54914195Y-94862952D01*
X55035147Y-94742000D01*
X55156100Y-94681523D01*
X56244671Y-95951523D02*
X56244671Y-94681523D01*
X56970385Y-95951523D01*
X56970385Y-94681523D01*
X58542766Y-95951523D02*
X58542766Y-94681523D01*
X59147528Y-95951523D02*
X59147528Y-94681523D01*
X59449909Y-94681523D01*
X59631338Y-94742000D01*
X59752290Y-94862952D01*
X59812766Y-94983904D01*
X59873242Y-95225809D01*
X59873242Y-95407238D01*
X59812766Y-95649142D01*
X59752290Y-95770095D01*
X59631338Y-95891047D01*
X59449909Y-95951523D01*
X59147528Y-95951523D01*
X60417528Y-95286285D02*
X60840861Y-95286285D01*
X61022290Y-95951523D02*
X60417528Y-95951523D01*
X60417528Y-94681523D01*
X61022290Y-94681523D01*
X62534195Y-95951523D02*
X62534195Y-94681523D01*
X63018004Y-94681523D01*
X63138957Y-94742000D01*
X63199433Y-94802476D01*
X63259909Y-94923428D01*
X63259909Y-95104857D01*
X63199433Y-95225809D01*
X63138957Y-95286285D01*
X63018004Y-95346761D01*
X62534195Y-95346761D01*
X63804195Y-95951523D02*
X63804195Y-94681523D01*
X64408957Y-95951523D02*
X64408957Y-94681523D01*
X65134671Y-95951523D01*
X65134671Y-94681523D01*
X66646576Y-94802476D02*
X66707052Y-94742000D01*
X66828004Y-94681523D01*
X67130385Y-94681523D01*
X67251338Y-94742000D01*
X67311814Y-94802476D01*
X67372290Y-94923428D01*
X67372290Y-95044380D01*
X67311814Y-95225809D01*
X66586100Y-95951523D01*
X67372290Y-95951523D01*
X68158480Y-94681523D02*
X68279433Y-94681523D01*
X68400385Y-94742000D01*
X68460861Y-94802476D01*
X68521338Y-94923428D01*
X68581814Y-95165333D01*
X68581814Y-95467714D01*
X68521338Y-95709619D01*
X68460861Y-95830571D01*
X68400385Y-95891047D01*
X68279433Y-95951523D01*
X68158480Y-95951523D01*
X68037528Y-95891047D01*
X67977052Y-95830571D01*
X67916576Y-95709619D01*
X67856100Y-95467714D01*
X67856100Y-95165333D01*
X67916576Y-94923428D01*
X67977052Y-94802476D01*
X68037528Y-94742000D01*
X68158480Y-94681523D01*
X149505004Y-53717976D02*
X149565480Y-53657500D01*
X149686433Y-53597023D01*
X149988814Y-53597023D01*
X150109766Y-53657500D01*
X150170242Y-53717976D01*
X150230719Y-53838928D01*
X150230719Y-53959880D01*
X150170242Y-54141309D01*
X149444528Y-54867023D01*
X150230719Y-54867023D01*
X150775004Y-54383214D02*
X151742623Y-54383214D01*
X152226433Y-53597023D02*
X153012623Y-53597023D01*
X152589290Y-54080833D01*
X152770719Y-54080833D01*
X152891671Y-54141309D01*
X152952147Y-54201785D01*
X153012623Y-54322738D01*
X153012623Y-54625119D01*
X152952147Y-54746071D01*
X152891671Y-54806547D01*
X152770719Y-54867023D01*
X152407861Y-54867023D01*
X152286909Y-54806547D01*
X152226433Y-54746071D01*
X154524528Y-54867023D02*
X154524528Y-53597023D01*
X154524528Y-54201785D02*
X155250242Y-54201785D01*
X155250242Y-54867023D02*
X155250242Y-53597023D01*
X155855004Y-54867023D02*
X155855004Y-53597023D01*
X157366909Y-54806547D02*
X157548338Y-54867023D01*
X157850719Y-54867023D01*
X157971671Y-54806547D01*
X158032147Y-54746071D01*
X158092623Y-54625119D01*
X158092623Y-54504166D01*
X158032147Y-54383214D01*
X157971671Y-54322738D01*
X157850719Y-54262261D01*
X157608814Y-54201785D01*
X157487861Y-54141309D01*
X157427385Y-54080833D01*
X157366909Y-53959880D01*
X157366909Y-53838928D01*
X157427385Y-53717976D01*
X157487861Y-53657500D01*
X157608814Y-53597023D01*
X157911195Y-53597023D01*
X158092623Y-53657500D01*
X158636909Y-54867023D02*
X158636909Y-53597023D01*
X159120719Y-53597023D01*
X159241671Y-53657500D01*
X159302147Y-53717976D01*
X159362623Y-53838928D01*
X159362623Y-54020357D01*
X159302147Y-54141309D01*
X159241671Y-54201785D01*
X159120719Y-54262261D01*
X158636909Y-54262261D01*
X159906909Y-54201785D02*
X160330242Y-54201785D01*
X160511671Y-54867023D02*
X159906909Y-54867023D01*
X159906909Y-53597023D01*
X160511671Y-53597023D01*
X161055957Y-54201785D02*
X161479290Y-54201785D01*
X161660719Y-54867023D02*
X161055957Y-54867023D01*
X161055957Y-53597023D01*
X161660719Y-53597023D01*
X162205004Y-54867023D02*
X162205004Y-53597023D01*
X162507385Y-53597023D01*
X162688814Y-53657500D01*
X162809766Y-53778452D01*
X162870242Y-53899404D01*
X162930719Y-54141309D01*
X162930719Y-54322738D01*
X162870242Y-54564642D01*
X162809766Y-54685595D01*
X162688814Y-54806547D01*
X162507385Y-54867023D01*
X162205004Y-54867023D01*
X150230719Y-49787023D02*
X149505004Y-49787023D01*
X149867861Y-49787023D02*
X149867861Y-48517023D01*
X149746909Y-48698452D01*
X149625957Y-48819404D01*
X149505004Y-48879880D01*
X150775004Y-49303214D02*
X151742623Y-49303214D01*
X152286909Y-48637976D02*
X152347385Y-48577500D01*
X152468338Y-48517023D01*
X152770719Y-48517023D01*
X152891671Y-48577500D01*
X152952147Y-48637976D01*
X153012623Y-48758928D01*
X153012623Y-48879880D01*
X152952147Y-49061309D01*
X152226433Y-49787023D01*
X153012623Y-49787023D01*
X155250242Y-49666071D02*
X155189766Y-49726547D01*
X155008338Y-49787023D01*
X154887385Y-49787023D01*
X154705957Y-49726547D01*
X154585004Y-49605595D01*
X154524528Y-49484642D01*
X154464052Y-49242738D01*
X154464052Y-49061309D01*
X154524528Y-48819404D01*
X154585004Y-48698452D01*
X154705957Y-48577500D01*
X154887385Y-48517023D01*
X155008338Y-48517023D01*
X155189766Y-48577500D01*
X155250242Y-48637976D01*
X156036433Y-48517023D02*
X156278338Y-48517023D01*
X156399290Y-48577500D01*
X156520242Y-48698452D01*
X156580719Y-48940357D01*
X156580719Y-49363690D01*
X156520242Y-49605595D01*
X156399290Y-49726547D01*
X156278338Y-49787023D01*
X156036433Y-49787023D01*
X155915480Y-49726547D01*
X155794528Y-49605595D01*
X155734052Y-49363690D01*
X155734052Y-48940357D01*
X155794528Y-48698452D01*
X155915480Y-48577500D01*
X156036433Y-48517023D01*
X157125004Y-49787023D02*
X157125004Y-48517023D01*
X157548338Y-49424166D01*
X157971671Y-48517023D01*
X157971671Y-49787023D01*
X158576433Y-49787023D02*
X158576433Y-48517023D01*
X159060242Y-48517023D01*
X159181195Y-48577500D01*
X159241671Y-48637976D01*
X159302147Y-48758928D01*
X159302147Y-48940357D01*
X159241671Y-49061309D01*
X159181195Y-49121785D01*
X159060242Y-49182261D01*
X158576433Y-49182261D01*
X159785957Y-49424166D02*
X160390719Y-49424166D01*
X159665004Y-49787023D02*
X160088338Y-48517023D01*
X160511671Y-49787023D01*
X160753576Y-48517023D02*
X161479290Y-48517023D01*
X161116433Y-49787023D02*
X161116433Y-48517023D01*
X142888909Y-117450809D02*
X142767957Y-117390333D01*
X142707480Y-117329857D01*
X142647004Y-117208904D01*
X142647004Y-117148428D01*
X142707480Y-117027476D01*
X142767957Y-116967000D01*
X142888909Y-116906523D01*
X143130814Y-116906523D01*
X143251766Y-116967000D01*
X143312242Y-117027476D01*
X143372719Y-117148428D01*
X143372719Y-117208904D01*
X143312242Y-117329857D01*
X143251766Y-117390333D01*
X143130814Y-117450809D01*
X142888909Y-117450809D01*
X142767957Y-117511285D01*
X142707480Y-117571761D01*
X142647004Y-117692714D01*
X142647004Y-117934619D01*
X142707480Y-118055571D01*
X142767957Y-118116047D01*
X142888909Y-118176523D01*
X143130814Y-118176523D01*
X143251766Y-118116047D01*
X143312242Y-118055571D01*
X143372719Y-117934619D01*
X143372719Y-117692714D01*
X143312242Y-117571761D01*
X143251766Y-117511285D01*
X143130814Y-117450809D01*
X143917004Y-118176523D02*
X143917004Y-116906523D01*
X144642719Y-118176523D02*
X144098433Y-117450809D01*
X144642719Y-116906523D02*
X143917004Y-117632238D01*
X142888909Y-114910809D02*
X142767957Y-114850333D01*
X142707480Y-114789857D01*
X142647004Y-114668904D01*
X142647004Y-114608428D01*
X142707480Y-114487476D01*
X142767957Y-114427000D01*
X142888909Y-114366523D01*
X143130814Y-114366523D01*
X143251766Y-114427000D01*
X143312242Y-114487476D01*
X143372719Y-114608428D01*
X143372719Y-114668904D01*
X143312242Y-114789857D01*
X143251766Y-114850333D01*
X143130814Y-114910809D01*
X142888909Y-114910809D01*
X142767957Y-114971285D01*
X142707480Y-115031761D01*
X142647004Y-115152714D01*
X142647004Y-115394619D01*
X142707480Y-115515571D01*
X142767957Y-115576047D01*
X142888909Y-115636523D01*
X143130814Y-115636523D01*
X143251766Y-115576047D01*
X143312242Y-115515571D01*
X143372719Y-115394619D01*
X143372719Y-115152714D01*
X143312242Y-115031761D01*
X143251766Y-114971285D01*
X143130814Y-114910809D01*
X143917004Y-115636523D02*
X143917004Y-114366523D01*
X144642719Y-115636523D02*
X144098433Y-114910809D01*
X144642719Y-114366523D02*
X143917004Y-115092238D01*
X142647004Y-112733666D02*
X143251766Y-112733666D01*
X142526052Y-113096523D02*
X142949385Y-111826523D01*
X143372719Y-113096523D01*
X144461290Y-113096523D02*
X143735576Y-113096523D01*
X144098433Y-113096523D02*
X144098433Y-111826523D01*
X143977480Y-112007952D01*
X143856528Y-112128904D01*
X143735576Y-112189380D01*
X144884623Y-111826523D02*
X145670814Y-111826523D01*
X145247480Y-112310333D01*
X145428909Y-112310333D01*
X145549861Y-112370809D01*
X145610338Y-112431285D01*
X145670814Y-112552238D01*
X145670814Y-112854619D01*
X145610338Y-112975571D01*
X145549861Y-113036047D01*
X145428909Y-113096523D01*
X145066052Y-113096523D01*
X144945100Y-113036047D01*
X144884623Y-112975571D01*
X142647004Y-110193666D02*
X143251766Y-110193666D01*
X142526052Y-110556523D02*
X142949385Y-109286523D01*
X143372719Y-110556523D01*
X144461290Y-110556523D02*
X143735576Y-110556523D01*
X144098433Y-110556523D02*
X144098433Y-109286523D01*
X143977480Y-109467952D01*
X143856528Y-109588904D01*
X143735576Y-109649380D01*
X145549861Y-109709857D02*
X145549861Y-110556523D01*
X145247480Y-109226047D02*
X144945100Y-110133190D01*
X145731290Y-110133190D01*
X142647004Y-107653666D02*
X143251766Y-107653666D01*
X142526052Y-108016523D02*
X142949385Y-106746523D01*
X143372719Y-108016523D01*
X144461290Y-108016523D02*
X143735576Y-108016523D01*
X144098433Y-108016523D02*
X144098433Y-106746523D01*
X143977480Y-106927952D01*
X143856528Y-107048904D01*
X143735576Y-107109380D01*
X145610338Y-106746523D02*
X145005576Y-106746523D01*
X144945100Y-107351285D01*
X145005576Y-107290809D01*
X145126528Y-107230333D01*
X145428909Y-107230333D01*
X145549861Y-107290809D01*
X145610338Y-107351285D01*
X145670814Y-107472238D01*
X145670814Y-107774619D01*
X145610338Y-107895571D01*
X145549861Y-107956047D01*
X145428909Y-108016523D01*
X145126528Y-108016523D01*
X145005576Y-107956047D01*
X144945100Y-107895571D01*
X142647004Y-105113666D02*
X143251766Y-105113666D01*
X142526052Y-105476523D02*
X142949385Y-104206523D01*
X143372719Y-105476523D01*
X144461290Y-105476523D02*
X143735576Y-105476523D01*
X144098433Y-105476523D02*
X144098433Y-104206523D01*
X143977480Y-104387952D01*
X143856528Y-104508904D01*
X143735576Y-104569380D01*
X145549861Y-104206523D02*
X145307957Y-104206523D01*
X145187004Y-104267000D01*
X145126528Y-104327476D01*
X145005576Y-104508904D01*
X144945100Y-104750809D01*
X144945100Y-105234619D01*
X145005576Y-105355571D01*
X145066052Y-105416047D01*
X145187004Y-105476523D01*
X145428909Y-105476523D01*
X145549861Y-105416047D01*
X145610338Y-105355571D01*
X145670814Y-105234619D01*
X145670814Y-104932238D01*
X145610338Y-104811285D01*
X145549861Y-104750809D01*
X145428909Y-104690333D01*
X145187004Y-104690333D01*
X145066052Y-104750809D01*
X145005576Y-104811285D01*
X144945100Y-104932238D01*
X142707480Y-120051285D02*
X143130814Y-120051285D01*
X143312242Y-120716523D02*
X142707480Y-120716523D01*
X142707480Y-119446523D01*
X143312242Y-119446523D01*
X143856528Y-120716523D02*
X143856528Y-119446523D01*
X144582242Y-120716523D01*
X144582242Y-119446523D01*
X145126528Y-120353666D02*
X145731290Y-120353666D01*
X145005576Y-120716523D02*
X145428909Y-119446523D01*
X145852242Y-120716523D01*
X142586528Y-121986523D02*
X142888909Y-123256523D01*
X143130814Y-122349380D01*
X143372719Y-123256523D01*
X143675100Y-121986523D01*
X144884623Y-123256523D02*
X144461290Y-122651761D01*
X144158909Y-123256523D02*
X144158909Y-121986523D01*
X144642719Y-121986523D01*
X144763671Y-122047000D01*
X144824147Y-122107476D01*
X144884623Y-122228428D01*
X144884623Y-122409857D01*
X144824147Y-122530809D01*
X144763671Y-122591285D01*
X144642719Y-122651761D01*
X144158909Y-122651761D01*
X50318004Y-119591666D02*
X50922766Y-119591666D01*
X50197052Y-119954523D02*
X50620385Y-118684523D01*
X51043719Y-119954523D01*
X52011338Y-119107857D02*
X52011338Y-119954523D01*
X51708957Y-118624047D02*
X51406576Y-119531190D01*
X52192766Y-119531190D01*
X50318004Y-117051666D02*
X50922766Y-117051666D01*
X50197052Y-117414523D02*
X50620385Y-116144523D01*
X51043719Y-117414523D01*
X52071814Y-116144523D02*
X51467052Y-116144523D01*
X51406576Y-116749285D01*
X51467052Y-116688809D01*
X51588004Y-116628333D01*
X51890385Y-116628333D01*
X52011338Y-116688809D01*
X52071814Y-116749285D01*
X52132290Y-116870238D01*
X52132290Y-117172619D01*
X52071814Y-117293571D01*
X52011338Y-117354047D01*
X51890385Y-117414523D01*
X51588004Y-117414523D01*
X51467052Y-117354047D01*
X51406576Y-117293571D01*
X50318004Y-114511666D02*
X50922766Y-114511666D01*
X50197052Y-114874523D02*
X50620385Y-113604523D01*
X51043719Y-114874523D01*
X52011338Y-113604523D02*
X51769433Y-113604523D01*
X51648480Y-113665000D01*
X51588004Y-113725476D01*
X51467052Y-113906904D01*
X51406576Y-114148809D01*
X51406576Y-114632619D01*
X51467052Y-114753571D01*
X51527528Y-114814047D01*
X51648480Y-114874523D01*
X51890385Y-114874523D01*
X52011338Y-114814047D01*
X52071814Y-114753571D01*
X52132290Y-114632619D01*
X52132290Y-114330238D01*
X52071814Y-114209285D01*
X52011338Y-114148809D01*
X51890385Y-114088333D01*
X51648480Y-114088333D01*
X51527528Y-114148809D01*
X51467052Y-114209285D01*
X51406576Y-114330238D01*
X50318004Y-111971666D02*
X50922766Y-111971666D01*
X50197052Y-112334523D02*
X50620385Y-111064523D01*
X51043719Y-112334523D01*
X51346100Y-111064523D02*
X52192766Y-111064523D01*
X51648480Y-112334523D01*
X50318004Y-109431666D02*
X50922766Y-109431666D01*
X50197052Y-109794523D02*
X50620385Y-108524523D01*
X51043719Y-109794523D01*
X51648480Y-109068809D02*
X51527528Y-109008333D01*
X51467052Y-108947857D01*
X51406576Y-108826904D01*
X51406576Y-108766428D01*
X51467052Y-108645476D01*
X51527528Y-108585000D01*
X51648480Y-108524523D01*
X51890385Y-108524523D01*
X52011338Y-108585000D01*
X52071814Y-108645476D01*
X52132290Y-108766428D01*
X52132290Y-108826904D01*
X52071814Y-108947857D01*
X52011338Y-109008333D01*
X51890385Y-109068809D01*
X51648480Y-109068809D01*
X51527528Y-109129285D01*
X51467052Y-109189761D01*
X51406576Y-109310714D01*
X51406576Y-109552619D01*
X51467052Y-109673571D01*
X51527528Y-109734047D01*
X51648480Y-109794523D01*
X51890385Y-109794523D01*
X52011338Y-109734047D01*
X52071814Y-109673571D01*
X52132290Y-109552619D01*
X52132290Y-109310714D01*
X52071814Y-109189761D01*
X52011338Y-109129285D01*
X51890385Y-109068809D01*
X50318004Y-106891666D02*
X50922766Y-106891666D01*
X50197052Y-107254523D02*
X50620385Y-105984523D01*
X51043719Y-107254523D01*
X51527528Y-107254523D02*
X51769433Y-107254523D01*
X51890385Y-107194047D01*
X51950861Y-107133571D01*
X52071814Y-106952142D01*
X52132290Y-106710238D01*
X52132290Y-106226428D01*
X52071814Y-106105476D01*
X52011338Y-106045000D01*
X51890385Y-105984523D01*
X51648480Y-105984523D01*
X51527528Y-106045000D01*
X51467052Y-106105476D01*
X51406576Y-106226428D01*
X51406576Y-106528809D01*
X51467052Y-106649761D01*
X51527528Y-106710238D01*
X51648480Y-106770714D01*
X51890385Y-106770714D01*
X52011338Y-106710238D01*
X52071814Y-106649761D01*
X52132290Y-106528809D01*
X145433142Y-89722476D02*
X145493619Y-89662000D01*
X145614571Y-89601523D01*
X145916952Y-89601523D01*
X146037904Y-89662000D01*
X146098380Y-89722476D01*
X146158857Y-89843428D01*
X146158857Y-89964380D01*
X146098380Y-90145809D01*
X145372666Y-90871523D01*
X146158857Y-90871523D01*
X155532666Y-89601523D02*
X156379333Y-89601523D01*
X155835047Y-90871523D01*
X153718380Y-89601523D02*
X153113619Y-89601523D01*
X153053142Y-90206285D01*
X153113619Y-90145809D01*
X153234571Y-90085333D01*
X153536952Y-90085333D01*
X153657904Y-90145809D01*
X153718380Y-90206285D01*
X153778857Y-90327238D01*
X153778857Y-90629619D01*
X153718380Y-90750571D01*
X153657904Y-90811047D01*
X153536952Y-90871523D01*
X153234571Y-90871523D01*
X153113619Y-90811047D01*
X153053142Y-90750571D01*
X151117904Y-90024857D02*
X151117904Y-90871523D01*
X150815523Y-89541047D02*
X150513142Y-90448190D01*
X151299333Y-90448190D01*
X147912666Y-89601523D02*
X148698857Y-89601523D01*
X148275523Y-90085333D01*
X148456952Y-90085333D01*
X148577904Y-90145809D01*
X148638380Y-90206285D01*
X148698857Y-90327238D01*
X148698857Y-90629619D01*
X148638380Y-90750571D01*
X148577904Y-90811047D01*
X148456952Y-90871523D01*
X148094095Y-90871523D01*
X147973142Y-90811047D01*
X147912666Y-90750571D01*
D11*
%TO.C,BUS1*%
X172990000Y-144365000D02*
X172990000Y-138805000D01*
X172990000Y-138805000D02*
X167470000Y-138805000D01*
X167470000Y-138805000D02*
X167470000Y-139805000D01*
X78470000Y-144365000D02*
X78470000Y-138805000D01*
X78470000Y-138805000D02*
X83990000Y-138805000D01*
X83990000Y-138805000D02*
X83990000Y-139805000D01*
X167471000Y-139805000D02*
X166195000Y-139805000D01*
X164005000Y-139805000D02*
X163429000Y-139805000D01*
X161690000Y-139805000D02*
X160889000Y-139805000D01*
X159150000Y-139805000D02*
X158349000Y-139805000D01*
X156610000Y-139805000D02*
X155809000Y-139805000D01*
X154070000Y-139805000D02*
X153269000Y-139805000D01*
X151530000Y-139805000D02*
X150729000Y-139805000D01*
X148990000Y-139805000D02*
X148189000Y-139805000D01*
X146450000Y-139805000D02*
X145649000Y-139805000D01*
X143910000Y-139805000D02*
X143109000Y-139805000D01*
X141370000Y-139805000D02*
X140569000Y-139805000D01*
X138830000Y-139805000D02*
X138029000Y-139805000D01*
X136290000Y-139805000D02*
X135489000Y-139805000D01*
X133750000Y-139805000D02*
X132949000Y-139805000D01*
X131210000Y-139805000D02*
X130409000Y-139805000D01*
X128670000Y-139805000D02*
X127869000Y-139805000D01*
X126130000Y-139805000D02*
X125329000Y-139805000D01*
X123590000Y-139805000D02*
X122789000Y-139805000D01*
X121050000Y-139805000D02*
X120249000Y-139805000D01*
X118510000Y-139805000D02*
X117709000Y-139805000D01*
X115970000Y-139805000D02*
X115169000Y-139805000D01*
X113430000Y-139805000D02*
X112629000Y-139805000D01*
X110890000Y-139805000D02*
X110089000Y-139805000D01*
X108350000Y-139805000D02*
X107549000Y-139805000D01*
X105810000Y-139805000D02*
X105009000Y-139805000D01*
X103270000Y-139805000D02*
X102469000Y-139805000D01*
X100730000Y-139805000D02*
X99929000Y-139805000D01*
X98190000Y-139805000D02*
X97389000Y-139805000D01*
X95650000Y-139805000D02*
X94849000Y-139805000D01*
X93110000Y-139805000D02*
X92309000Y-139805000D01*
X90570000Y-139805000D02*
X89769000Y-139805000D01*
X88030000Y-139805000D02*
X87229000Y-139805000D01*
X85490000Y-139805000D02*
X83990000Y-139805000D01*
X166195000Y-139065000D02*
X166795000Y-139365000D01*
X166795000Y-139365000D02*
X166795000Y-138765000D01*
X166795000Y-138765000D02*
X166195000Y-139065000D01*
D10*
%TO.C,U9*%
X97917000Y-89916000D02*
X91567000Y-89916000D01*
X100457000Y-89916000D02*
X106807000Y-89916000D01*
X91567000Y-89916000D02*
X91567000Y-90805000D01*
X106807000Y-89916000D02*
X106807000Y-90805000D01*
X106807000Y-126746000D02*
X91567000Y-126746000D01*
X91567000Y-126746000D02*
X91567000Y-125857000D01*
X106807000Y-126746000D02*
X106807000Y-125857000D01*
X99187000Y-91186000D02*
G75*
G03*
X100457000Y-89916000I0J1270000D01*
G01*
X97917000Y-89916000D02*
G75*
G03*
X99187000Y-91186000I1270000J0D01*
G01*
%TO.C,C9*%
X118491000Y-91821000D02*
X119761000Y-91821000D01*
X113411000Y-91821000D02*
X112141000Y-91821000D01*
X113411000Y-93091000D02*
X113411000Y-90551000D01*
X118491000Y-93091000D02*
X113411000Y-93091000D01*
X118491000Y-90551000D02*
X118491000Y-93091000D01*
X113411000Y-90551000D02*
X118491000Y-90551000D01*
%TO.C,R3*%
X113411000Y-94361000D02*
X112141000Y-94361000D01*
X118491000Y-94361000D02*
X119761000Y-94361000D01*
X118491000Y-93091000D02*
X118491000Y-95631000D01*
X113411000Y-93091000D02*
X118491000Y-93091000D01*
X113411000Y-95631000D02*
X113411000Y-93091000D01*
X118491000Y-95631000D02*
X113411000Y-95631000D01*
%TO.C,R4*%
X118491000Y-96901000D02*
X119761000Y-96901000D01*
X113411000Y-96901000D02*
X112141000Y-96901000D01*
X113411000Y-98171000D02*
X113411000Y-95631000D01*
X118491000Y-98171000D02*
X113411000Y-98171000D01*
X118491000Y-95631000D02*
X118491000Y-98171000D01*
X113411000Y-95631000D02*
X118491000Y-95631000D01*
%TO.C,U1*%
X67437000Y-56896000D02*
X64897000Y-56896000D01*
X69977000Y-56896000D02*
X72517000Y-56896000D01*
X64897000Y-56896000D02*
X64897000Y-57785000D01*
X72517000Y-56896000D02*
X72517000Y-57785000D01*
X64897000Y-83566000D02*
X72517000Y-83566000D01*
X72517000Y-83566000D02*
X72517000Y-82677000D01*
X64897000Y-83566000D02*
X64897000Y-82677000D01*
X68707000Y-58166000D02*
G75*
G03*
X69977000Y-56896000I0J1270000D01*
G01*
X67437000Y-56896000D02*
G75*
G03*
X68707000Y-58166000I1270000J0D01*
G01*
%TO.C,U3*%
X107188000Y-56896000D02*
X104648000Y-56896000D01*
X109728000Y-56896000D02*
X112268000Y-56896000D01*
X104648000Y-56896000D02*
X104648000Y-57785000D01*
X112268000Y-56896000D02*
X112268000Y-57785000D01*
X104648000Y-83566000D02*
X112268000Y-83566000D01*
X112268000Y-83566000D02*
X112268000Y-82677000D01*
X104648000Y-83566000D02*
X104648000Y-82677000D01*
X108458000Y-58166000D02*
G75*
G03*
X109728000Y-56896000I0J1270000D01*
G01*
X107188000Y-56896000D02*
G75*
G03*
X108458000Y-58166000I1270000J0D01*
G01*
%TO.C,J5*%
X144526000Y-96647000D02*
X144526000Y-91567000D01*
X157226000Y-96647000D02*
X144526000Y-96647000D01*
X157226000Y-91567000D02*
X157226000Y-96647000D01*
X144526000Y-91567000D02*
X157226000Y-91567000D01*
%TO.C,J2*%
X148463000Y-50482500D02*
X145923000Y-50482500D01*
X145923000Y-55562500D02*
X145923000Y-47942500D01*
X148463000Y-55562500D02*
X145923000Y-55562500D01*
X148463000Y-47942500D02*
X148463000Y-55562500D01*
X145923000Y-47942500D02*
X148463000Y-47942500D01*
%TO.C,J1*%
X140843000Y-50482500D02*
X138303000Y-50482500D01*
X138303000Y-55562500D02*
X138303000Y-47942500D01*
X140843000Y-55562500D02*
X138303000Y-55562500D01*
X140843000Y-47942500D02*
X140843000Y-55562500D01*
X138303000Y-47942500D02*
X140843000Y-47942500D01*
%TO.C,J3*%
X182753000Y-50482500D02*
X187833000Y-50482500D01*
X182753000Y-53022500D02*
X182753000Y-50482500D01*
X187833000Y-53022500D02*
X182753000Y-53022500D01*
X187833000Y-50482500D02*
X187833000Y-53022500D01*
%TO.C,J4*%
X56134000Y-97028000D02*
X61214000Y-97028000D01*
X56134000Y-99568000D02*
X56134000Y-97028000D01*
X61214000Y-99568000D02*
X56134000Y-99568000D01*
X61214000Y-97028000D02*
X61214000Y-99568000D01*
%TO.C,D1*%
X180808000Y-50252500D02*
X180808000Y-53252500D01*
X180792888Y-50227596D02*
G75*
G03*
X180808000Y-53252500I-2484888J-1524904D01*
G01*
%TO.C,C12*%
X54642500Y-138430000D02*
G75*
G03*
X54642500Y-138430000I-3187500J0D01*
G01*
D12*
X51205000Y-138430000D02*
G75*
G03*
X51205000Y-138430000I-1000000J0D01*
G01*
X48440000Y-139342000D02*
X48440000Y-137518000D01*
X48580000Y-139717000D02*
X48580000Y-137143000D01*
X48720000Y-139993000D02*
X48720000Y-136867000D01*
X48860000Y-140216000D02*
X48860000Y-136644000D01*
X49000000Y-140404000D02*
X49000000Y-136456000D01*
X49140000Y-140566000D02*
X49140000Y-136294000D01*
X49280000Y-138050000D02*
X49280000Y-136151000D01*
X49280000Y-140709000D02*
X49280000Y-138810000D01*
X49420000Y-137811000D02*
X49420000Y-136026000D01*
X49420000Y-140834000D02*
X49420000Y-139049000D01*
X49560000Y-137666000D02*
X49560000Y-135914000D01*
X49560000Y-140946000D02*
X49560000Y-139194000D01*
X49700000Y-137567000D02*
X49700000Y-135814000D01*
X49700000Y-141046000D02*
X49700000Y-139293000D01*
X49840000Y-137499000D02*
X49840000Y-135726000D01*
X49840000Y-141134000D02*
X49840000Y-139361000D01*
X49980000Y-137456000D02*
X49980000Y-135647000D01*
X49980000Y-141213000D02*
X49980000Y-139404000D01*
X50120000Y-137434000D02*
X50120000Y-135577000D01*
X50120000Y-141283000D02*
X50120000Y-139426000D01*
X50260000Y-137432000D02*
X50260000Y-135515000D01*
X50260000Y-141345000D02*
X50260000Y-139428000D01*
X50400000Y-137449000D02*
X50400000Y-135462000D01*
X50400000Y-141398000D02*
X50400000Y-139411000D01*
X50540000Y-137488000D02*
X50540000Y-135416000D01*
X50540000Y-141444000D02*
X50540000Y-139372000D01*
X50680000Y-137550000D02*
X50680000Y-135377000D01*
X50680000Y-141483000D02*
X50680000Y-139310000D01*
X50820000Y-137641000D02*
X50820000Y-135345000D01*
X50820000Y-141515000D02*
X50820000Y-139219000D01*
X50960000Y-137774000D02*
X50960000Y-135319000D01*
X50960000Y-141541000D02*
X50960000Y-139086000D01*
X51100000Y-137984000D02*
X51100000Y-135300000D01*
X51100000Y-141560000D02*
X51100000Y-138876000D01*
X51240000Y-141573000D02*
X51240000Y-135287000D01*
X51380000Y-141579000D02*
X51380000Y-135281000D01*
D10*
%TO.C,REF\u002A\u002A*%
X63119000Y-99060000D02*
X61849000Y-98425000D01*
X63119000Y-97790000D02*
X63119000Y-99060000D01*
X61849000Y-98425000D02*
X63119000Y-97790000D01*
X63119000Y-98425000D02*
X61849000Y-98425000D01*
X62992000Y-98171000D02*
X62357000Y-98171000D01*
X63119000Y-98044000D02*
X62865000Y-98044000D01*
X63119000Y-98679000D02*
X62357000Y-98679000D01*
X63119000Y-98933000D02*
X62865000Y-98806000D01*
%TO.C,IDE1*%
X46990000Y-99695000D02*
X41910000Y-99695000D01*
X41910000Y-48895000D02*
X46990000Y-48895000D01*
X46990000Y-99695000D02*
X46990000Y-48895000D01*
X41910000Y-48895000D02*
X41910000Y-99695000D01*
%TO.C,U2*%
X80772000Y-56896000D02*
X78232000Y-56896000D01*
X83312000Y-56896000D02*
X85852000Y-56896000D01*
X78232000Y-56896000D02*
X78232000Y-57785000D01*
X85852000Y-56896000D02*
X85852000Y-57785000D01*
X78232000Y-83566000D02*
X85852000Y-83566000D01*
X85852000Y-83566000D02*
X85852000Y-82677000D01*
X78232000Y-83566000D02*
X78232000Y-82677000D01*
X82042000Y-58166000D02*
G75*
G03*
X83312000Y-56896000I0J1270000D01*
G01*
X80772000Y-56896000D02*
G75*
G03*
X82042000Y-58166000I1270000J0D01*
G01*
%TO.C,U5*%
X147574000Y-64135000D02*
X145034000Y-64135000D01*
X150114000Y-64135000D02*
X152654000Y-64135000D01*
X145034000Y-64135000D02*
X145034000Y-65024000D01*
X152654000Y-64135000D02*
X152654000Y-65024000D01*
X152654000Y-83185000D02*
X152654000Y-82296000D01*
X145034000Y-83185000D02*
X152654000Y-83185000D01*
X145034000Y-82296000D02*
X145034000Y-83185000D01*
X148844000Y-65405000D02*
G75*
G03*
X150114000Y-64135000I0J1270000D01*
G01*
X147574000Y-64135000D02*
G75*
G03*
X148844000Y-65405000I1270000J0D01*
G01*
%TO.C,U6*%
X159004000Y-64135000D02*
X156464000Y-64135000D01*
X161544000Y-64135000D02*
X164084000Y-64135000D01*
X156464000Y-64135000D02*
X156464000Y-65024000D01*
X164084000Y-64135000D02*
X164084000Y-65024000D01*
X164084000Y-83185000D02*
X164084000Y-82296000D01*
X156464000Y-83185000D02*
X164084000Y-83185000D01*
X156464000Y-82296000D02*
X156464000Y-83185000D01*
X160274000Y-65405000D02*
G75*
G03*
X161544000Y-64135000I0J1270000D01*
G01*
X159004000Y-64135000D02*
G75*
G03*
X160274000Y-65405000I1270000J0D01*
G01*
%TO.C,U7*%
X170434000Y-61595000D02*
X167894000Y-61595000D01*
X172974000Y-61595000D02*
X175514000Y-61595000D01*
X167894000Y-61595000D02*
X167894000Y-62484000D01*
X175514000Y-61595000D02*
X175514000Y-62484000D01*
X175514000Y-83185000D02*
X175514000Y-82296000D01*
X167894000Y-83185000D02*
X175514000Y-83185000D01*
X167894000Y-83185000D02*
X167894000Y-82296000D01*
X170434000Y-61595000D02*
G75*
G03*
X171704000Y-62865000I1270000J0D01*
G01*
X171704000Y-62865000D02*
G75*
G03*
X172974000Y-61595000I0J1270000D01*
G01*
%TO.C,U8*%
X80899000Y-100076000D02*
X78359000Y-100076000D01*
X83439000Y-100076000D02*
X85979000Y-100076000D01*
X78359000Y-100076000D02*
X78359000Y-100965000D01*
X85979000Y-100076000D02*
X85979000Y-100965000D01*
X78359000Y-126746000D02*
X85979000Y-126746000D01*
X85979000Y-126746000D02*
X85979000Y-125857000D01*
X78359000Y-126746000D02*
X78359000Y-125857000D01*
X82169000Y-101346000D02*
G75*
G03*
X83439000Y-100076000I0J1270000D01*
G01*
X80899000Y-100076000D02*
G75*
G03*
X82169000Y-101346000I1270000J0D01*
G01*
%TO.C,U10*%
X170434000Y-98933000D02*
X167894000Y-98933000D01*
X172974000Y-98933000D02*
X175514000Y-98933000D01*
X167894000Y-98933000D02*
X167894000Y-99822000D01*
X175514000Y-98933000D02*
X175514000Y-99822000D01*
X167894000Y-125603000D02*
X175514000Y-125603000D01*
X175514000Y-125603000D02*
X175514000Y-124714000D01*
X167894000Y-125603000D02*
X167894000Y-124714000D01*
X171704000Y-100203000D02*
G75*
G03*
X172974000Y-98933000I0J1270000D01*
G01*
X170434000Y-98933000D02*
G75*
G03*
X171704000Y-100203000I1270000J0D01*
G01*
%TO.C,U11*%
X93980000Y-56896000D02*
X91440000Y-56896000D01*
X96520000Y-56896000D02*
X99060000Y-56896000D01*
X91440000Y-56896000D02*
X91440000Y-57785000D01*
X99060000Y-56896000D02*
X99060000Y-57785000D01*
X91440000Y-83566000D02*
X99060000Y-83566000D01*
X99060000Y-83566000D02*
X99060000Y-82677000D01*
X91440000Y-83566000D02*
X91440000Y-82677000D01*
X95250000Y-58166000D02*
G75*
G03*
X96520000Y-56896000I0J1270000D01*
G01*
X93980000Y-56896000D02*
G75*
G03*
X95250000Y-58166000I1270000J0D01*
G01*
%TO.C,SW2*%
X147320000Y-102997000D02*
X147320000Y-103886000D01*
X154940000Y-102997000D02*
X154940000Y-103886000D01*
X154940000Y-124587000D02*
X154940000Y-123698000D01*
X147320000Y-124587000D02*
X154940000Y-124587000D01*
X147320000Y-124587000D02*
X147320000Y-123698000D01*
X147320000Y-102997000D02*
X154940000Y-102997000D01*
%TO.C,SW1*%
X54991000Y-104775000D02*
X54991000Y-105664000D01*
X62611000Y-104775000D02*
X62611000Y-105664000D01*
X62611000Y-126365000D02*
X62611000Y-125476000D01*
X54991000Y-126365000D02*
X62611000Y-126365000D01*
X54991000Y-126365000D02*
X54991000Y-125476000D01*
X54991000Y-104775000D02*
X62611000Y-104775000D01*
%TO.C,RP1*%
X66421000Y-102870000D02*
X68961000Y-102870000D01*
X66421000Y-125730000D02*
X66421000Y-100330000D01*
X68961000Y-125730000D02*
X66421000Y-125730000D01*
X68961000Y-100330000D02*
X68961000Y-125730000D01*
X66421000Y-100330000D02*
X68961000Y-100330000D01*
%TO.C,RP2*%
X161671000Y-102108000D02*
X164211000Y-102108000D01*
X161671000Y-124968000D02*
X161671000Y-99568000D01*
X164211000Y-124968000D02*
X161671000Y-124968000D01*
X164211000Y-99568000D02*
X164211000Y-124968000D01*
X161671000Y-99568000D02*
X164211000Y-99568000D01*
%TO.C,C1*%
X71247000Y-49657000D02*
X71247000Y-52197000D01*
X66167000Y-49657000D02*
X71247000Y-49657000D01*
X66167000Y-52197000D02*
X66167000Y-49657000D01*
X71247000Y-52197000D02*
X66167000Y-52197000D01*
%TO.C,C2*%
X84582000Y-49657000D02*
X84582000Y-52197000D01*
X79502000Y-49657000D02*
X84582000Y-49657000D01*
X79502000Y-52197000D02*
X79502000Y-49657000D01*
X84582000Y-52197000D02*
X79502000Y-52197000D01*
%TO.C,C3*%
X110998000Y-49657000D02*
X110998000Y-52197000D01*
X105918000Y-49657000D02*
X110998000Y-49657000D01*
X105918000Y-52197000D02*
X105918000Y-49657000D01*
X110998000Y-52197000D02*
X105918000Y-52197000D01*
%TO.C,C4*%
X139954000Y-60325000D02*
X139954000Y-62865000D01*
X134874000Y-60325000D02*
X139954000Y-60325000D01*
X134874000Y-62865000D02*
X134874000Y-60325000D01*
X139954000Y-62865000D02*
X134874000Y-62865000D01*
%TO.C,C5*%
X151384000Y-60325000D02*
X151384000Y-62865000D01*
X146304000Y-60325000D02*
X151384000Y-60325000D01*
X146304000Y-62865000D02*
X146304000Y-60325000D01*
X151384000Y-62865000D02*
X146304000Y-62865000D01*
%TO.C,C6*%
X162814000Y-60325000D02*
X162814000Y-62865000D01*
X157734000Y-60325000D02*
X162814000Y-60325000D01*
X157734000Y-62865000D02*
X157734000Y-60325000D01*
X162814000Y-62865000D02*
X157734000Y-62865000D01*
%TO.C,C7*%
X174244000Y-57975500D02*
X174244000Y-60515500D01*
X169164000Y-57975500D02*
X174244000Y-57975500D01*
X169164000Y-60515500D02*
X169164000Y-57975500D01*
X174244000Y-60515500D02*
X169164000Y-60515500D01*
%TO.C,C8*%
X84709000Y-96266000D02*
X84709000Y-98806000D01*
X79629000Y-96266000D02*
X84709000Y-96266000D01*
X79629000Y-98806000D02*
X79629000Y-96266000D01*
X84709000Y-98806000D02*
X79629000Y-98806000D01*
%TO.C,C10*%
X174244000Y-95123000D02*
X174244000Y-97663000D01*
X169164000Y-95123000D02*
X174244000Y-95123000D01*
X169164000Y-97663000D02*
X169164000Y-95123000D01*
X174244000Y-97663000D02*
X169164000Y-97663000D01*
%TO.C,R1*%
X164973000Y-51752500D02*
X163703000Y-51752500D01*
X170053000Y-51752500D02*
X171323000Y-51752500D01*
X170053000Y-50482500D02*
X170053000Y-53022500D01*
X164973000Y-50482500D02*
X170053000Y-50482500D01*
X164973000Y-53022500D02*
X164973000Y-50482500D01*
X170053000Y-53022500D02*
X164973000Y-53022500D01*
%TO.C,R2*%
X186563000Y-68326000D02*
X186563000Y-69596000D01*
X186563000Y-63246000D02*
X186563000Y-61976000D01*
X185293000Y-63246000D02*
X187833000Y-63246000D01*
X185293000Y-68326000D02*
X185293000Y-63246000D01*
X187833000Y-68326000D02*
X185293000Y-68326000D01*
X187833000Y-63246000D02*
X187833000Y-68326000D01*
%TO.C,U4*%
X136144000Y-64135000D02*
X133604000Y-64135000D01*
X138684000Y-64135000D02*
X141224000Y-64135000D01*
X133604000Y-64135000D02*
X133604000Y-65024000D01*
X141224000Y-64135000D02*
X141224000Y-65024000D01*
X141224000Y-83185000D02*
X141224000Y-82296000D01*
X133604000Y-83185000D02*
X141224000Y-83185000D01*
X133604000Y-82296000D02*
X133604000Y-83185000D01*
X137414000Y-65405000D02*
G75*
G03*
X138684000Y-64135000I0J1270000D01*
G01*
X136144000Y-64135000D02*
G75*
G03*
X137414000Y-65405000I1270000J0D01*
G01*
%TO.C,C11*%
X97790000Y-49657000D02*
X97790000Y-52197000D01*
X92710000Y-49657000D02*
X97790000Y-49657000D01*
X92710000Y-52197000D02*
X92710000Y-49657000D01*
X97790000Y-52197000D02*
X92710000Y-52197000D01*
%TO.C,BUS1*%
D12*
X168775238Y-137993571D02*
X168918095Y-138041190D01*
X168965714Y-138088809D01*
X169013333Y-138184047D01*
X169013333Y-138326904D01*
X168965714Y-138422142D01*
X168918095Y-138469761D01*
X168822857Y-138517380D01*
X168441904Y-138517380D01*
X168441904Y-137517380D01*
X168775238Y-137517380D01*
X168870476Y-137565000D01*
X168918095Y-137612619D01*
X168965714Y-137707857D01*
X168965714Y-137803095D01*
X168918095Y-137898333D01*
X168870476Y-137945952D01*
X168775238Y-137993571D01*
X168441904Y-137993571D01*
X169441904Y-137517380D02*
X169441904Y-138326904D01*
X169489523Y-138422142D01*
X169537142Y-138469761D01*
X169632380Y-138517380D01*
X169822857Y-138517380D01*
X169918095Y-138469761D01*
X169965714Y-138422142D01*
X170013333Y-138326904D01*
X170013333Y-137517380D01*
X170441904Y-138469761D02*
X170584761Y-138517380D01*
X170822857Y-138517380D01*
X170918095Y-138469761D01*
X170965714Y-138422142D01*
X171013333Y-138326904D01*
X171013333Y-138231666D01*
X170965714Y-138136428D01*
X170918095Y-138088809D01*
X170822857Y-138041190D01*
X170632380Y-137993571D01*
X170537142Y-137945952D01*
X170489523Y-137898333D01*
X170441904Y-137803095D01*
X170441904Y-137707857D01*
X170489523Y-137612619D01*
X170537142Y-137565000D01*
X170632380Y-137517380D01*
X170870476Y-137517380D01*
X171013333Y-137565000D01*
X171965714Y-138517380D02*
X171394285Y-138517380D01*
X171680000Y-138517380D02*
X171680000Y-137517380D01*
X171584761Y-137660238D01*
X171489523Y-137755476D01*
X171394285Y-137803095D01*
%TO.C,U9*%
D10*
X91234380Y-127955523D02*
X91234380Y-128983619D01*
X91294857Y-129104571D01*
X91355333Y-129165047D01*
X91476285Y-129225523D01*
X91718190Y-129225523D01*
X91839142Y-129165047D01*
X91899619Y-129104571D01*
X91960095Y-128983619D01*
X91960095Y-127955523D01*
X92625333Y-129225523D02*
X92867238Y-129225523D01*
X92988190Y-129165047D01*
X93048666Y-129104571D01*
X93169619Y-128923142D01*
X93230095Y-128681238D01*
X93230095Y-128197428D01*
X93169619Y-128076476D01*
X93109142Y-128016000D01*
X92988190Y-127955523D01*
X92746285Y-127955523D01*
X92625333Y-128016000D01*
X92564857Y-128076476D01*
X92504380Y-128197428D01*
X92504380Y-128499809D01*
X92564857Y-128620761D01*
X92625333Y-128681238D01*
X92746285Y-128741714D01*
X92988190Y-128741714D01*
X93109142Y-128681238D01*
X93169619Y-128620761D01*
X93230095Y-128499809D01*
%TO.C,C9*%
X123486333Y-92274571D02*
X123425857Y-92335047D01*
X123244428Y-92395523D01*
X123123476Y-92395523D01*
X122942047Y-92335047D01*
X122821095Y-92214095D01*
X122760619Y-92093142D01*
X122700142Y-91851238D01*
X122700142Y-91669809D01*
X122760619Y-91427904D01*
X122821095Y-91306952D01*
X122942047Y-91186000D01*
X123123476Y-91125523D01*
X123244428Y-91125523D01*
X123425857Y-91186000D01*
X123486333Y-91246476D01*
X124091095Y-92395523D02*
X124333000Y-92395523D01*
X124453952Y-92335047D01*
X124514428Y-92274571D01*
X124635380Y-92093142D01*
X124695857Y-91851238D01*
X124695857Y-91367428D01*
X124635380Y-91246476D01*
X124574904Y-91186000D01*
X124453952Y-91125523D01*
X124212047Y-91125523D01*
X124091095Y-91186000D01*
X124030619Y-91246476D01*
X123970142Y-91367428D01*
X123970142Y-91669809D01*
X124030619Y-91790761D01*
X124091095Y-91851238D01*
X124212047Y-91911714D01*
X124453952Y-91911714D01*
X124574904Y-91851238D01*
X124635380Y-91790761D01*
X124695857Y-91669809D01*
X116344095Y-92274571D02*
X116283619Y-92335047D01*
X116102190Y-92395523D01*
X115981238Y-92395523D01*
X115799809Y-92335047D01*
X115678857Y-92214095D01*
X115618380Y-92093142D01*
X115557904Y-91851238D01*
X115557904Y-91669809D01*
X115618380Y-91427904D01*
X115678857Y-91306952D01*
X115799809Y-91186000D01*
X115981238Y-91125523D01*
X116102190Y-91125523D01*
X116283619Y-91186000D01*
X116344095Y-91246476D01*
%TO.C,R3*%
X107992333Y-94935523D02*
X107569000Y-94330761D01*
X107266619Y-94935523D02*
X107266619Y-93665523D01*
X107750428Y-93665523D01*
X107871380Y-93726000D01*
X107931857Y-93786476D01*
X107992333Y-93907428D01*
X107992333Y-94088857D01*
X107931857Y-94209809D01*
X107871380Y-94270285D01*
X107750428Y-94330761D01*
X107266619Y-94330761D01*
X108415666Y-93665523D02*
X109201857Y-93665523D01*
X108778523Y-94149333D01*
X108959952Y-94149333D01*
X109080904Y-94209809D01*
X109141380Y-94270285D01*
X109201857Y-94391238D01*
X109201857Y-94693619D01*
X109141380Y-94814571D01*
X109080904Y-94875047D01*
X108959952Y-94935523D01*
X108597095Y-94935523D01*
X108476142Y-94875047D01*
X108415666Y-94814571D01*
X115074095Y-94935523D02*
X114348380Y-94935523D01*
X114711238Y-94935523D02*
X114711238Y-93665523D01*
X114590285Y-93846952D01*
X114469333Y-93967904D01*
X114348380Y-94028380D01*
X115860285Y-93665523D02*
X115981238Y-93665523D01*
X116102190Y-93726000D01*
X116162666Y-93786476D01*
X116223142Y-93907428D01*
X116283619Y-94149333D01*
X116283619Y-94451714D01*
X116223142Y-94693619D01*
X116162666Y-94814571D01*
X116102190Y-94875047D01*
X115981238Y-94935523D01*
X115860285Y-94935523D01*
X115739333Y-94875047D01*
X115678857Y-94814571D01*
X115618380Y-94693619D01*
X115557904Y-94451714D01*
X115557904Y-94149333D01*
X115618380Y-93907428D01*
X115678857Y-93786476D01*
X115739333Y-93726000D01*
X115860285Y-93665523D01*
X116827904Y-94935523D02*
X116827904Y-93665523D01*
X117553619Y-94935523D02*
X117009333Y-94209809D01*
X117553619Y-93665523D02*
X116827904Y-94391238D01*
%TO.C,R4*%
X123486333Y-97475523D02*
X123063000Y-96870761D01*
X122760619Y-97475523D02*
X122760619Y-96205523D01*
X123244428Y-96205523D01*
X123365380Y-96266000D01*
X123425857Y-96326476D01*
X123486333Y-96447428D01*
X123486333Y-96628857D01*
X123425857Y-96749809D01*
X123365380Y-96810285D01*
X123244428Y-96870761D01*
X122760619Y-96870761D01*
X124574904Y-96628857D02*
X124574904Y-97475523D01*
X124272523Y-96145047D02*
X123970142Y-97052190D01*
X124756333Y-97052190D01*
X115074095Y-97475523D02*
X114348380Y-97475523D01*
X114711238Y-97475523D02*
X114711238Y-96205523D01*
X114590285Y-96386952D01*
X114469333Y-96507904D01*
X114348380Y-96568380D01*
X115860285Y-96205523D02*
X115981238Y-96205523D01*
X116102190Y-96266000D01*
X116162666Y-96326476D01*
X116223142Y-96447428D01*
X116283619Y-96689333D01*
X116283619Y-96991714D01*
X116223142Y-97233619D01*
X116162666Y-97354571D01*
X116102190Y-97415047D01*
X115981238Y-97475523D01*
X115860285Y-97475523D01*
X115739333Y-97415047D01*
X115678857Y-97354571D01*
X115618380Y-97233619D01*
X115557904Y-96991714D01*
X115557904Y-96689333D01*
X115618380Y-96447428D01*
X115678857Y-96326476D01*
X115739333Y-96266000D01*
X115860285Y-96205523D01*
X116827904Y-97475523D02*
X116827904Y-96205523D01*
X117553619Y-97475523D02*
X117009333Y-96749809D01*
X117553619Y-96205523D02*
X116827904Y-96931238D01*
%TO.C,U1*%
X64564380Y-84775523D02*
X64564380Y-85803619D01*
X64624857Y-85924571D01*
X64685333Y-85985047D01*
X64806285Y-86045523D01*
X65048190Y-86045523D01*
X65169142Y-85985047D01*
X65229619Y-85924571D01*
X65290095Y-85803619D01*
X65290095Y-84775523D01*
X66560095Y-86045523D02*
X65834380Y-86045523D01*
X66197238Y-86045523D02*
X66197238Y-84775523D01*
X66076285Y-84956952D01*
X65955333Y-85077904D01*
X65834380Y-85138380D01*
%TO.C,U3*%
X104315380Y-84775523D02*
X104315380Y-85803619D01*
X104375857Y-85924571D01*
X104436333Y-85985047D01*
X104557285Y-86045523D01*
X104799190Y-86045523D01*
X104920142Y-85985047D01*
X104980619Y-85924571D01*
X105041095Y-85803619D01*
X105041095Y-84775523D01*
X105524904Y-84775523D02*
X106311095Y-84775523D01*
X105887761Y-85259333D01*
X106069190Y-85259333D01*
X106190142Y-85319809D01*
X106250619Y-85380285D01*
X106311095Y-85501238D01*
X106311095Y-85803619D01*
X106250619Y-85924571D01*
X106190142Y-85985047D01*
X106069190Y-86045523D01*
X105706333Y-86045523D01*
X105585380Y-85985047D01*
X105524904Y-85924571D01*
%TO.C,J5*%
X142197666Y-95316523D02*
X142197666Y-96223666D01*
X142137190Y-96405095D01*
X142016238Y-96526047D01*
X141834809Y-96586523D01*
X141713857Y-96586523D01*
X143407190Y-95316523D02*
X142802428Y-95316523D01*
X142741952Y-95921285D01*
X142802428Y-95860809D01*
X142923380Y-95800333D01*
X143225761Y-95800333D01*
X143346714Y-95860809D01*
X143407190Y-95921285D01*
X143467666Y-96042238D01*
X143467666Y-96344619D01*
X143407190Y-96465571D01*
X143346714Y-96526047D01*
X143225761Y-96586523D01*
X142923380Y-96586523D01*
X142802428Y-96526047D01*
X142741952Y-96465571D01*
X145717380Y-98618523D02*
X145717380Y-97348523D01*
X146322142Y-98618523D02*
X146322142Y-97348523D01*
X147047857Y-98618523D01*
X147047857Y-97348523D01*
X147471190Y-97348523D02*
X148196904Y-97348523D01*
X147834047Y-98618523D02*
X147834047Y-97348523D01*
X148620238Y-97953285D02*
X149043571Y-97953285D01*
X149225000Y-98618523D02*
X148620238Y-98618523D01*
X148620238Y-97348523D01*
X149225000Y-97348523D01*
X150495000Y-98618523D02*
X150071666Y-98013761D01*
X149769285Y-98618523D02*
X149769285Y-97348523D01*
X150253095Y-97348523D01*
X150374047Y-97409000D01*
X150434523Y-97469476D01*
X150495000Y-97590428D01*
X150495000Y-97771857D01*
X150434523Y-97892809D01*
X150374047Y-97953285D01*
X150253095Y-98013761D01*
X149769285Y-98013761D01*
X151765000Y-98618523D02*
X151341666Y-98013761D01*
X151039285Y-98618523D02*
X151039285Y-97348523D01*
X151523095Y-97348523D01*
X151644047Y-97409000D01*
X151704523Y-97469476D01*
X151765000Y-97590428D01*
X151765000Y-97771857D01*
X151704523Y-97892809D01*
X151644047Y-97953285D01*
X151523095Y-98013761D01*
X151039285Y-98013761D01*
X152309285Y-97348523D02*
X152309285Y-98376619D01*
X152369761Y-98497571D01*
X152430238Y-98558047D01*
X152551190Y-98618523D01*
X152793095Y-98618523D01*
X152914047Y-98558047D01*
X152974523Y-98497571D01*
X153035000Y-98376619D01*
X153035000Y-97348523D01*
X153639761Y-98618523D02*
X153639761Y-97348523D01*
X154123571Y-97348523D01*
X154244523Y-97409000D01*
X154305000Y-97469476D01*
X154365476Y-97590428D01*
X154365476Y-97771857D01*
X154305000Y-97892809D01*
X154244523Y-97953285D01*
X154123571Y-98013761D01*
X153639761Y-98013761D01*
X154728333Y-97348523D02*
X155454047Y-97348523D01*
X155091190Y-98618523D02*
X155091190Y-97348523D01*
%TO.C,J2*%
X144229666Y-54232023D02*
X144229666Y-55139166D01*
X144169190Y-55320595D01*
X144048238Y-55441547D01*
X143866809Y-55502023D01*
X143745857Y-55502023D01*
X144773952Y-54352976D02*
X144834428Y-54292500D01*
X144955380Y-54232023D01*
X145257761Y-54232023D01*
X145378714Y-54292500D01*
X145439190Y-54352976D01*
X145499666Y-54473928D01*
X145499666Y-54594880D01*
X145439190Y-54776309D01*
X144713476Y-55502023D01*
X145499666Y-55502023D01*
%TO.C,J1*%
X136609666Y-54232023D02*
X136609666Y-55139166D01*
X136549190Y-55320595D01*
X136428238Y-55441547D01*
X136246809Y-55502023D01*
X136125857Y-55502023D01*
X137879666Y-55502023D02*
X137153952Y-55502023D01*
X137516809Y-55502023D02*
X137516809Y-54232023D01*
X137395857Y-54413452D01*
X137274904Y-54534404D01*
X137153952Y-54594880D01*
%TO.C,J3*%
X186139666Y-53597023D02*
X186139666Y-54504166D01*
X186079190Y-54685595D01*
X185958238Y-54806547D01*
X185776809Y-54867023D01*
X185655857Y-54867023D01*
X186623476Y-53597023D02*
X187409666Y-53597023D01*
X186986333Y-54080833D01*
X187167761Y-54080833D01*
X187288714Y-54141309D01*
X187349190Y-54201785D01*
X187409666Y-54322738D01*
X187409666Y-54625119D01*
X187349190Y-54746071D01*
X187288714Y-54806547D01*
X187167761Y-54867023D01*
X186804904Y-54867023D01*
X186683952Y-54806547D01*
X186623476Y-54746071D01*
%TO.C,J4*%
X53805666Y-97602523D02*
X53805666Y-98509666D01*
X53745190Y-98691095D01*
X53624238Y-98812047D01*
X53442809Y-98872523D01*
X53321857Y-98872523D01*
X54954714Y-98025857D02*
X54954714Y-98872523D01*
X54652333Y-97542047D02*
X54349952Y-98449190D01*
X55136142Y-98449190D01*
%TO.C,D1*%
X173560619Y-49787023D02*
X173560619Y-48517023D01*
X173863000Y-48517023D01*
X174044428Y-48577500D01*
X174165380Y-48698452D01*
X174225857Y-48819404D01*
X174286333Y-49061309D01*
X174286333Y-49242738D01*
X174225857Y-49484642D01*
X174165380Y-49605595D01*
X174044428Y-49726547D01*
X173863000Y-49787023D01*
X173560619Y-49787023D01*
X175495857Y-49787023D02*
X174770142Y-49787023D01*
X175133000Y-49787023D02*
X175133000Y-48517023D01*
X175012047Y-48698452D01*
X174891095Y-48819404D01*
X174770142Y-48879880D01*
%TO.C,C12*%
X46173571Y-142058571D02*
X46113095Y-142119047D01*
X45931666Y-142179523D01*
X45810714Y-142179523D01*
X45629285Y-142119047D01*
X45508333Y-141998095D01*
X45447857Y-141877142D01*
X45387380Y-141635238D01*
X45387380Y-141453809D01*
X45447857Y-141211904D01*
X45508333Y-141090952D01*
X45629285Y-140970000D01*
X45810714Y-140909523D01*
X45931666Y-140909523D01*
X46113095Y-140970000D01*
X46173571Y-141030476D01*
X47383095Y-142179523D02*
X46657380Y-142179523D01*
X47020238Y-142179523D02*
X47020238Y-140909523D01*
X46899285Y-141090952D01*
X46778333Y-141211904D01*
X46657380Y-141272380D01*
X47866904Y-141030476D02*
X47927380Y-140970000D01*
X48048333Y-140909523D01*
X48350714Y-140909523D01*
X48471666Y-140970000D01*
X48532142Y-141030476D01*
X48592619Y-141151428D01*
X48592619Y-141272380D01*
X48532142Y-141453809D01*
X47806428Y-142179523D01*
X48592619Y-142179523D01*
%TO.C,U2*%
X77899380Y-84775523D02*
X77899380Y-85803619D01*
X77959857Y-85924571D01*
X78020333Y-85985047D01*
X78141285Y-86045523D01*
X78383190Y-86045523D01*
X78504142Y-85985047D01*
X78564619Y-85924571D01*
X78625095Y-85803619D01*
X78625095Y-84775523D01*
X79169380Y-84896476D02*
X79229857Y-84836000D01*
X79350809Y-84775523D01*
X79653190Y-84775523D01*
X79774142Y-84836000D01*
X79834619Y-84896476D01*
X79895095Y-85017428D01*
X79895095Y-85138380D01*
X79834619Y-85319809D01*
X79108904Y-86045523D01*
X79895095Y-86045523D01*
%TO.C,U5*%
X146606380Y-84521523D02*
X146606380Y-85549619D01*
X146666857Y-85670571D01*
X146727333Y-85731047D01*
X146848285Y-85791523D01*
X147090190Y-85791523D01*
X147211142Y-85731047D01*
X147271619Y-85670571D01*
X147332095Y-85549619D01*
X147332095Y-84521523D01*
X148541619Y-84521523D02*
X147936857Y-84521523D01*
X147876380Y-85126285D01*
X147936857Y-85065809D01*
X148057809Y-85005333D01*
X148360190Y-85005333D01*
X148481142Y-85065809D01*
X148541619Y-85126285D01*
X148602095Y-85247238D01*
X148602095Y-85549619D01*
X148541619Y-85670571D01*
X148481142Y-85731047D01*
X148360190Y-85791523D01*
X148057809Y-85791523D01*
X147936857Y-85731047D01*
X147876380Y-85670571D01*
%TO.C,U6*%
X156131380Y-84394523D02*
X156131380Y-85422619D01*
X156191857Y-85543571D01*
X156252333Y-85604047D01*
X156373285Y-85664523D01*
X156615190Y-85664523D01*
X156736142Y-85604047D01*
X156796619Y-85543571D01*
X156857095Y-85422619D01*
X156857095Y-84394523D01*
X158006142Y-84394523D02*
X157764238Y-84394523D01*
X157643285Y-84455000D01*
X157582809Y-84515476D01*
X157461857Y-84696904D01*
X157401380Y-84938809D01*
X157401380Y-85422619D01*
X157461857Y-85543571D01*
X157522333Y-85604047D01*
X157643285Y-85664523D01*
X157885190Y-85664523D01*
X158006142Y-85604047D01*
X158066619Y-85543571D01*
X158127095Y-85422619D01*
X158127095Y-85120238D01*
X158066619Y-84999285D01*
X158006142Y-84938809D01*
X157885190Y-84878333D01*
X157643285Y-84878333D01*
X157522333Y-84938809D01*
X157461857Y-84999285D01*
X157401380Y-85120238D01*
%TO.C,U7*%
X167561380Y-84394523D02*
X167561380Y-85422619D01*
X167621857Y-85543571D01*
X167682333Y-85604047D01*
X167803285Y-85664523D01*
X168045190Y-85664523D01*
X168166142Y-85604047D01*
X168226619Y-85543571D01*
X168287095Y-85422619D01*
X168287095Y-84394523D01*
X168770904Y-84394523D02*
X169617571Y-84394523D01*
X169073285Y-85664523D01*
%TO.C,U8*%
X78026380Y-127955523D02*
X78026380Y-128983619D01*
X78086857Y-129104571D01*
X78147333Y-129165047D01*
X78268285Y-129225523D01*
X78510190Y-129225523D01*
X78631142Y-129165047D01*
X78691619Y-129104571D01*
X78752095Y-128983619D01*
X78752095Y-127955523D01*
X79538285Y-128499809D02*
X79417333Y-128439333D01*
X79356857Y-128378857D01*
X79296380Y-128257904D01*
X79296380Y-128197428D01*
X79356857Y-128076476D01*
X79417333Y-128016000D01*
X79538285Y-127955523D01*
X79780190Y-127955523D01*
X79901142Y-128016000D01*
X79961619Y-128076476D01*
X80022095Y-128197428D01*
X80022095Y-128257904D01*
X79961619Y-128378857D01*
X79901142Y-128439333D01*
X79780190Y-128499809D01*
X79538285Y-128499809D01*
X79417333Y-128560285D01*
X79356857Y-128620761D01*
X79296380Y-128741714D01*
X79296380Y-128983619D01*
X79356857Y-129104571D01*
X79417333Y-129165047D01*
X79538285Y-129225523D01*
X79780190Y-129225523D01*
X79901142Y-129165047D01*
X79961619Y-129104571D01*
X80022095Y-128983619D01*
X80022095Y-128741714D01*
X79961619Y-128620761D01*
X79901142Y-128560285D01*
X79780190Y-128499809D01*
%TO.C,U10*%
X166956619Y-126812523D02*
X166956619Y-127840619D01*
X167017095Y-127961571D01*
X167077571Y-128022047D01*
X167198523Y-128082523D01*
X167440428Y-128082523D01*
X167561380Y-128022047D01*
X167621857Y-127961571D01*
X167682333Y-127840619D01*
X167682333Y-126812523D01*
X168952333Y-128082523D02*
X168226619Y-128082523D01*
X168589476Y-128082523D02*
X168589476Y-126812523D01*
X168468523Y-126993952D01*
X168347571Y-127114904D01*
X168226619Y-127175380D01*
X169738523Y-126812523D02*
X169859476Y-126812523D01*
X169980428Y-126873000D01*
X170040904Y-126933476D01*
X170101380Y-127054428D01*
X170161857Y-127296333D01*
X170161857Y-127598714D01*
X170101380Y-127840619D01*
X170040904Y-127961571D01*
X169980428Y-128022047D01*
X169859476Y-128082523D01*
X169738523Y-128082523D01*
X169617571Y-128022047D01*
X169557095Y-127961571D01*
X169496619Y-127840619D01*
X169436142Y-127598714D01*
X169436142Y-127296333D01*
X169496619Y-127054428D01*
X169557095Y-126933476D01*
X169617571Y-126873000D01*
X169738523Y-126812523D01*
%TO.C,U11*%
X90502619Y-84775523D02*
X90502619Y-85803619D01*
X90563095Y-85924571D01*
X90623571Y-85985047D01*
X90744523Y-86045523D01*
X90986428Y-86045523D01*
X91107380Y-85985047D01*
X91167857Y-85924571D01*
X91228333Y-85803619D01*
X91228333Y-84775523D01*
X92498333Y-86045523D02*
X91772619Y-86045523D01*
X92135476Y-86045523D02*
X92135476Y-84775523D01*
X92014523Y-84956952D01*
X91893571Y-85077904D01*
X91772619Y-85138380D01*
X93707857Y-86045523D02*
X92982142Y-86045523D01*
X93345000Y-86045523D02*
X93345000Y-84775523D01*
X93224047Y-84956952D01*
X93103095Y-85077904D01*
X92982142Y-85138380D01*
%TO.C,SW2*%
X146261666Y-127006047D02*
X146443095Y-127066523D01*
X146745476Y-127066523D01*
X146866428Y-127006047D01*
X146926904Y-126945571D01*
X146987380Y-126824619D01*
X146987380Y-126703666D01*
X146926904Y-126582714D01*
X146866428Y-126522238D01*
X146745476Y-126461761D01*
X146503571Y-126401285D01*
X146382619Y-126340809D01*
X146322142Y-126280333D01*
X146261666Y-126159380D01*
X146261666Y-126038428D01*
X146322142Y-125917476D01*
X146382619Y-125857000D01*
X146503571Y-125796523D01*
X146805952Y-125796523D01*
X146987380Y-125857000D01*
X147410714Y-125796523D02*
X147713095Y-127066523D01*
X147955000Y-126159380D01*
X148196904Y-127066523D01*
X148499285Y-125796523D01*
X148922619Y-125917476D02*
X148983095Y-125857000D01*
X149104047Y-125796523D01*
X149406428Y-125796523D01*
X149527380Y-125857000D01*
X149587857Y-125917476D01*
X149648333Y-126038428D01*
X149648333Y-126159380D01*
X149587857Y-126340809D01*
X148862142Y-127066523D01*
X149648333Y-127066523D01*
X147864285Y-101666523D02*
X147440952Y-101061761D01*
X147138571Y-101666523D02*
X147138571Y-100396523D01*
X147622380Y-100396523D01*
X147743333Y-100457000D01*
X147803809Y-100517476D01*
X147864285Y-100638428D01*
X147864285Y-100819857D01*
X147803809Y-100940809D01*
X147743333Y-101001285D01*
X147622380Y-101061761D01*
X147138571Y-101061761D01*
X148650476Y-100396523D02*
X148892380Y-100396523D01*
X149013333Y-100457000D01*
X149134285Y-100577952D01*
X149194761Y-100819857D01*
X149194761Y-101243190D01*
X149134285Y-101485095D01*
X149013333Y-101606047D01*
X148892380Y-101666523D01*
X148650476Y-101666523D01*
X148529523Y-101606047D01*
X148408571Y-101485095D01*
X148348095Y-101243190D01*
X148348095Y-100819857D01*
X148408571Y-100577952D01*
X148529523Y-100457000D01*
X148650476Y-100396523D01*
X149739047Y-101666523D02*
X149739047Y-100396523D01*
X150162380Y-101303666D01*
X150585714Y-100396523D01*
X150585714Y-101666523D01*
X152400000Y-100396523D02*
X152641904Y-100396523D01*
X152762857Y-100457000D01*
X152883809Y-100577952D01*
X152944285Y-100819857D01*
X152944285Y-101243190D01*
X152883809Y-101485095D01*
X152762857Y-101606047D01*
X152641904Y-101666523D01*
X152400000Y-101666523D01*
X152279047Y-101606047D01*
X152158095Y-101485095D01*
X152097619Y-101243190D01*
X152097619Y-100819857D01*
X152158095Y-100577952D01*
X152279047Y-100457000D01*
X152400000Y-100396523D01*
X153488571Y-101666523D02*
X153488571Y-100396523D01*
X153972380Y-100396523D01*
X154093333Y-100457000D01*
X154153809Y-100517476D01*
X154214285Y-100638428D01*
X154214285Y-100819857D01*
X154153809Y-100940809D01*
X154093333Y-101001285D01*
X153972380Y-101061761D01*
X153488571Y-101061761D01*
X154577142Y-100396523D02*
X155302857Y-100396523D01*
X154940000Y-101666523D02*
X154940000Y-100396523D01*
%TO.C,SW1*%
X53932666Y-128784047D02*
X54114095Y-128844523D01*
X54416476Y-128844523D01*
X54537428Y-128784047D01*
X54597904Y-128723571D01*
X54658380Y-128602619D01*
X54658380Y-128481666D01*
X54597904Y-128360714D01*
X54537428Y-128300238D01*
X54416476Y-128239761D01*
X54174571Y-128179285D01*
X54053619Y-128118809D01*
X53993142Y-128058333D01*
X53932666Y-127937380D01*
X53932666Y-127816428D01*
X53993142Y-127695476D01*
X54053619Y-127635000D01*
X54174571Y-127574523D01*
X54476952Y-127574523D01*
X54658380Y-127635000D01*
X55081714Y-127574523D02*
X55384095Y-128844523D01*
X55626000Y-127937380D01*
X55867904Y-128844523D01*
X56170285Y-127574523D01*
X57319333Y-128844523D02*
X56593619Y-128844523D01*
X56956476Y-128844523D02*
X56956476Y-127574523D01*
X56835523Y-127755952D01*
X56714571Y-127876904D01*
X56593619Y-127937380D01*
X54537428Y-103444523D02*
X54537428Y-102174523D01*
X56049333Y-102114047D02*
X54960761Y-103746904D01*
X56714571Y-102174523D02*
X56956476Y-102174523D01*
X57077428Y-102235000D01*
X57198380Y-102355952D01*
X57258857Y-102597857D01*
X57258857Y-103021190D01*
X57198380Y-103263095D01*
X57077428Y-103384047D01*
X56956476Y-103444523D01*
X56714571Y-103444523D01*
X56593619Y-103384047D01*
X56472666Y-103263095D01*
X56412190Y-103021190D01*
X56412190Y-102597857D01*
X56472666Y-102355952D01*
X56593619Y-102235000D01*
X56714571Y-102174523D01*
X58710285Y-103081666D02*
X59315047Y-103081666D01*
X58589333Y-103444523D02*
X59012666Y-102174523D01*
X59436000Y-103444523D01*
X59859333Y-103444523D02*
X59859333Y-102174523D01*
X60161714Y-102174523D01*
X60343142Y-102235000D01*
X60464095Y-102355952D01*
X60524571Y-102476904D01*
X60585047Y-102718809D01*
X60585047Y-102900238D01*
X60524571Y-103142142D01*
X60464095Y-103263095D01*
X60343142Y-103384047D01*
X60161714Y-103444523D01*
X59859333Y-103444523D01*
X61129333Y-103444523D02*
X61129333Y-102174523D01*
X61431714Y-102174523D01*
X61613142Y-102235000D01*
X61734095Y-102355952D01*
X61794571Y-102476904D01*
X61855047Y-102718809D01*
X61855047Y-102900238D01*
X61794571Y-103142142D01*
X61734095Y-103263095D01*
X61613142Y-103384047D01*
X61431714Y-103444523D01*
X61129333Y-103444523D01*
X63125047Y-103444523D02*
X62701714Y-102839761D01*
X62399333Y-103444523D02*
X62399333Y-102174523D01*
X62883142Y-102174523D01*
X63004095Y-102235000D01*
X63064571Y-102295476D01*
X63125047Y-102416428D01*
X63125047Y-102597857D01*
X63064571Y-102718809D01*
X63004095Y-102779285D01*
X62883142Y-102839761D01*
X62399333Y-102839761D01*
%TO.C,RP1*%
X66844333Y-128844523D02*
X66421000Y-128239761D01*
X66118619Y-128844523D02*
X66118619Y-127574523D01*
X66602428Y-127574523D01*
X66723380Y-127635000D01*
X66783857Y-127695476D01*
X66844333Y-127816428D01*
X66844333Y-127997857D01*
X66783857Y-128118809D01*
X66723380Y-128179285D01*
X66602428Y-128239761D01*
X66118619Y-128239761D01*
X67388619Y-128844523D02*
X67388619Y-127574523D01*
X67872428Y-127574523D01*
X67993380Y-127635000D01*
X68053857Y-127695476D01*
X68114333Y-127816428D01*
X68114333Y-127997857D01*
X68053857Y-128118809D01*
X67993380Y-128179285D01*
X67872428Y-128239761D01*
X67388619Y-128239761D01*
X69323857Y-128844523D02*
X68598142Y-128844523D01*
X68961000Y-128844523D02*
X68961000Y-127574523D01*
X68840047Y-127755952D01*
X68719095Y-127876904D01*
X68598142Y-127937380D01*
%TO.C,RP2*%
X162094333Y-128082523D02*
X161671000Y-127477761D01*
X161368619Y-128082523D02*
X161368619Y-126812523D01*
X161852428Y-126812523D01*
X161973380Y-126873000D01*
X162033857Y-126933476D01*
X162094333Y-127054428D01*
X162094333Y-127235857D01*
X162033857Y-127356809D01*
X161973380Y-127417285D01*
X161852428Y-127477761D01*
X161368619Y-127477761D01*
X162638619Y-128082523D02*
X162638619Y-126812523D01*
X163122428Y-126812523D01*
X163243380Y-126873000D01*
X163303857Y-126933476D01*
X163364333Y-127054428D01*
X163364333Y-127235857D01*
X163303857Y-127356809D01*
X163243380Y-127417285D01*
X163122428Y-127477761D01*
X162638619Y-127477761D01*
X163848142Y-126933476D02*
X163908619Y-126873000D01*
X164029571Y-126812523D01*
X164331952Y-126812523D01*
X164452904Y-126873000D01*
X164513380Y-126933476D01*
X164573857Y-127054428D01*
X164573857Y-127175380D01*
X164513380Y-127356809D01*
X163787666Y-128082523D01*
X164573857Y-128082523D01*
%TO.C,C1*%
X68495333Y-53920571D02*
X68434857Y-53981047D01*
X68253428Y-54041523D01*
X68132476Y-54041523D01*
X67951047Y-53981047D01*
X67830095Y-53860095D01*
X67769619Y-53739142D01*
X67709142Y-53497238D01*
X67709142Y-53315809D01*
X67769619Y-53073904D01*
X67830095Y-52952952D01*
X67951047Y-52832000D01*
X68132476Y-52771523D01*
X68253428Y-52771523D01*
X68434857Y-52832000D01*
X68495333Y-52892476D01*
X69704857Y-54041523D02*
X68979142Y-54041523D01*
X69342000Y-54041523D02*
X69342000Y-52771523D01*
X69221047Y-52952952D01*
X69100095Y-53073904D01*
X68979142Y-53134380D01*
X69100095Y-51380571D02*
X69039619Y-51441047D01*
X68858190Y-51501523D01*
X68737238Y-51501523D01*
X68555809Y-51441047D01*
X68434857Y-51320095D01*
X68374380Y-51199142D01*
X68313904Y-50957238D01*
X68313904Y-50775809D01*
X68374380Y-50533904D01*
X68434857Y-50412952D01*
X68555809Y-50292000D01*
X68737238Y-50231523D01*
X68858190Y-50231523D01*
X69039619Y-50292000D01*
X69100095Y-50352476D01*
%TO.C,C2*%
X81830333Y-53920571D02*
X81769857Y-53981047D01*
X81588428Y-54041523D01*
X81467476Y-54041523D01*
X81286047Y-53981047D01*
X81165095Y-53860095D01*
X81104619Y-53739142D01*
X81044142Y-53497238D01*
X81044142Y-53315809D01*
X81104619Y-53073904D01*
X81165095Y-52952952D01*
X81286047Y-52832000D01*
X81467476Y-52771523D01*
X81588428Y-52771523D01*
X81769857Y-52832000D01*
X81830333Y-52892476D01*
X82314142Y-52892476D02*
X82374619Y-52832000D01*
X82495571Y-52771523D01*
X82797952Y-52771523D01*
X82918904Y-52832000D01*
X82979380Y-52892476D01*
X83039857Y-53013428D01*
X83039857Y-53134380D01*
X82979380Y-53315809D01*
X82253666Y-54041523D01*
X83039857Y-54041523D01*
X82435095Y-51380571D02*
X82374619Y-51441047D01*
X82193190Y-51501523D01*
X82072238Y-51501523D01*
X81890809Y-51441047D01*
X81769857Y-51320095D01*
X81709380Y-51199142D01*
X81648904Y-50957238D01*
X81648904Y-50775809D01*
X81709380Y-50533904D01*
X81769857Y-50412952D01*
X81890809Y-50292000D01*
X82072238Y-50231523D01*
X82193190Y-50231523D01*
X82374619Y-50292000D01*
X82435095Y-50352476D01*
%TO.C,C3*%
X108246333Y-53920571D02*
X108185857Y-53981047D01*
X108004428Y-54041523D01*
X107883476Y-54041523D01*
X107702047Y-53981047D01*
X107581095Y-53860095D01*
X107520619Y-53739142D01*
X107460142Y-53497238D01*
X107460142Y-53315809D01*
X107520619Y-53073904D01*
X107581095Y-52952952D01*
X107702047Y-52832000D01*
X107883476Y-52771523D01*
X108004428Y-52771523D01*
X108185857Y-52832000D01*
X108246333Y-52892476D01*
X108669666Y-52771523D02*
X109455857Y-52771523D01*
X109032523Y-53255333D01*
X109213952Y-53255333D01*
X109334904Y-53315809D01*
X109395380Y-53376285D01*
X109455857Y-53497238D01*
X109455857Y-53799619D01*
X109395380Y-53920571D01*
X109334904Y-53981047D01*
X109213952Y-54041523D01*
X108851095Y-54041523D01*
X108730142Y-53981047D01*
X108669666Y-53920571D01*
X108851095Y-51380571D02*
X108790619Y-51441047D01*
X108609190Y-51501523D01*
X108488238Y-51501523D01*
X108306809Y-51441047D01*
X108185857Y-51320095D01*
X108125380Y-51199142D01*
X108064904Y-50957238D01*
X108064904Y-50775809D01*
X108125380Y-50533904D01*
X108185857Y-50412952D01*
X108306809Y-50292000D01*
X108488238Y-50231523D01*
X108609190Y-50231523D01*
X108790619Y-50292000D01*
X108851095Y-50352476D01*
%TO.C,C4*%
X137202333Y-59508571D02*
X137141857Y-59569047D01*
X136960428Y-59629523D01*
X136839476Y-59629523D01*
X136658047Y-59569047D01*
X136537095Y-59448095D01*
X136476619Y-59327142D01*
X136416142Y-59085238D01*
X136416142Y-58903809D01*
X136476619Y-58661904D01*
X136537095Y-58540952D01*
X136658047Y-58420000D01*
X136839476Y-58359523D01*
X136960428Y-58359523D01*
X137141857Y-58420000D01*
X137202333Y-58480476D01*
X138290904Y-58782857D02*
X138290904Y-59629523D01*
X137988523Y-58299047D02*
X137686142Y-59206190D01*
X138472333Y-59206190D01*
X137807095Y-62048571D02*
X137746619Y-62109047D01*
X137565190Y-62169523D01*
X137444238Y-62169523D01*
X137262809Y-62109047D01*
X137141857Y-61988095D01*
X137081380Y-61867142D01*
X137020904Y-61625238D01*
X137020904Y-61443809D01*
X137081380Y-61201904D01*
X137141857Y-61080952D01*
X137262809Y-60960000D01*
X137444238Y-60899523D01*
X137565190Y-60899523D01*
X137746619Y-60960000D01*
X137807095Y-61020476D01*
%TO.C,C5*%
X148632333Y-59508571D02*
X148571857Y-59569047D01*
X148390428Y-59629523D01*
X148269476Y-59629523D01*
X148088047Y-59569047D01*
X147967095Y-59448095D01*
X147906619Y-59327142D01*
X147846142Y-59085238D01*
X147846142Y-58903809D01*
X147906619Y-58661904D01*
X147967095Y-58540952D01*
X148088047Y-58420000D01*
X148269476Y-58359523D01*
X148390428Y-58359523D01*
X148571857Y-58420000D01*
X148632333Y-58480476D01*
X149781380Y-58359523D02*
X149176619Y-58359523D01*
X149116142Y-58964285D01*
X149176619Y-58903809D01*
X149297571Y-58843333D01*
X149599952Y-58843333D01*
X149720904Y-58903809D01*
X149781380Y-58964285D01*
X149841857Y-59085238D01*
X149841857Y-59387619D01*
X149781380Y-59508571D01*
X149720904Y-59569047D01*
X149599952Y-59629523D01*
X149297571Y-59629523D01*
X149176619Y-59569047D01*
X149116142Y-59508571D01*
X149237095Y-62048571D02*
X149176619Y-62109047D01*
X148995190Y-62169523D01*
X148874238Y-62169523D01*
X148692809Y-62109047D01*
X148571857Y-61988095D01*
X148511380Y-61867142D01*
X148450904Y-61625238D01*
X148450904Y-61443809D01*
X148511380Y-61201904D01*
X148571857Y-61080952D01*
X148692809Y-60960000D01*
X148874238Y-60899523D01*
X148995190Y-60899523D01*
X149176619Y-60960000D01*
X149237095Y-61020476D01*
%TO.C,C6*%
X160062333Y-59508571D02*
X160001857Y-59569047D01*
X159820428Y-59629523D01*
X159699476Y-59629523D01*
X159518047Y-59569047D01*
X159397095Y-59448095D01*
X159336619Y-59327142D01*
X159276142Y-59085238D01*
X159276142Y-58903809D01*
X159336619Y-58661904D01*
X159397095Y-58540952D01*
X159518047Y-58420000D01*
X159699476Y-58359523D01*
X159820428Y-58359523D01*
X160001857Y-58420000D01*
X160062333Y-58480476D01*
X161150904Y-58359523D02*
X160909000Y-58359523D01*
X160788047Y-58420000D01*
X160727571Y-58480476D01*
X160606619Y-58661904D01*
X160546142Y-58903809D01*
X160546142Y-59387619D01*
X160606619Y-59508571D01*
X160667095Y-59569047D01*
X160788047Y-59629523D01*
X161029952Y-59629523D01*
X161150904Y-59569047D01*
X161211380Y-59508571D01*
X161271857Y-59387619D01*
X161271857Y-59085238D01*
X161211380Y-58964285D01*
X161150904Y-58903809D01*
X161029952Y-58843333D01*
X160788047Y-58843333D01*
X160667095Y-58903809D01*
X160606619Y-58964285D01*
X160546142Y-59085238D01*
X160667095Y-62048571D02*
X160606619Y-62109047D01*
X160425190Y-62169523D01*
X160304238Y-62169523D01*
X160122809Y-62109047D01*
X160001857Y-61988095D01*
X159941380Y-61867142D01*
X159880904Y-61625238D01*
X159880904Y-61443809D01*
X159941380Y-61201904D01*
X160001857Y-61080952D01*
X160122809Y-60960000D01*
X160304238Y-60899523D01*
X160425190Y-60899523D01*
X160606619Y-60960000D01*
X160667095Y-61020476D01*
%TO.C,C7*%
X177842333Y-59699071D02*
X177781857Y-59759547D01*
X177600428Y-59820023D01*
X177479476Y-59820023D01*
X177298047Y-59759547D01*
X177177095Y-59638595D01*
X177116619Y-59517642D01*
X177056142Y-59275738D01*
X177056142Y-59094309D01*
X177116619Y-58852404D01*
X177177095Y-58731452D01*
X177298047Y-58610500D01*
X177479476Y-58550023D01*
X177600428Y-58550023D01*
X177781857Y-58610500D01*
X177842333Y-58670976D01*
X178265666Y-58550023D02*
X179112333Y-58550023D01*
X178568047Y-59820023D01*
X172097095Y-59699071D02*
X172036619Y-59759547D01*
X171855190Y-59820023D01*
X171734238Y-59820023D01*
X171552809Y-59759547D01*
X171431857Y-59638595D01*
X171371380Y-59517642D01*
X171310904Y-59275738D01*
X171310904Y-59094309D01*
X171371380Y-58852404D01*
X171431857Y-58731452D01*
X171552809Y-58610500D01*
X171734238Y-58550023D01*
X171855190Y-58550023D01*
X172036619Y-58610500D01*
X172097095Y-58670976D01*
%TO.C,C8*%
X74972333Y-97989571D02*
X74911857Y-98050047D01*
X74730428Y-98110523D01*
X74609476Y-98110523D01*
X74428047Y-98050047D01*
X74307095Y-97929095D01*
X74246619Y-97808142D01*
X74186142Y-97566238D01*
X74186142Y-97384809D01*
X74246619Y-97142904D01*
X74307095Y-97021952D01*
X74428047Y-96901000D01*
X74609476Y-96840523D01*
X74730428Y-96840523D01*
X74911857Y-96901000D01*
X74972333Y-96961476D01*
X75698047Y-97384809D02*
X75577095Y-97324333D01*
X75516619Y-97263857D01*
X75456142Y-97142904D01*
X75456142Y-97082428D01*
X75516619Y-96961476D01*
X75577095Y-96901000D01*
X75698047Y-96840523D01*
X75939952Y-96840523D01*
X76060904Y-96901000D01*
X76121380Y-96961476D01*
X76181857Y-97082428D01*
X76181857Y-97142904D01*
X76121380Y-97263857D01*
X76060904Y-97324333D01*
X75939952Y-97384809D01*
X75698047Y-97384809D01*
X75577095Y-97445285D01*
X75516619Y-97505761D01*
X75456142Y-97626714D01*
X75456142Y-97868619D01*
X75516619Y-97989571D01*
X75577095Y-98050047D01*
X75698047Y-98110523D01*
X75939952Y-98110523D01*
X76060904Y-98050047D01*
X76121380Y-97989571D01*
X76181857Y-97868619D01*
X76181857Y-97626714D01*
X76121380Y-97505761D01*
X76060904Y-97445285D01*
X75939952Y-97384809D01*
X82562095Y-97989571D02*
X82501619Y-98050047D01*
X82320190Y-98110523D01*
X82199238Y-98110523D01*
X82017809Y-98050047D01*
X81896857Y-97929095D01*
X81836380Y-97808142D01*
X81775904Y-97566238D01*
X81775904Y-97384809D01*
X81836380Y-97142904D01*
X81896857Y-97021952D01*
X82017809Y-96901000D01*
X82199238Y-96840523D01*
X82320190Y-96840523D01*
X82501619Y-96901000D01*
X82562095Y-96961476D01*
%TO.C,C10*%
X170887571Y-94306571D02*
X170827095Y-94367047D01*
X170645666Y-94427523D01*
X170524714Y-94427523D01*
X170343285Y-94367047D01*
X170222333Y-94246095D01*
X170161857Y-94125142D01*
X170101380Y-93883238D01*
X170101380Y-93701809D01*
X170161857Y-93459904D01*
X170222333Y-93338952D01*
X170343285Y-93218000D01*
X170524714Y-93157523D01*
X170645666Y-93157523D01*
X170827095Y-93218000D01*
X170887571Y-93278476D01*
X172097095Y-94427523D02*
X171371380Y-94427523D01*
X171734238Y-94427523D02*
X171734238Y-93157523D01*
X171613285Y-93338952D01*
X171492333Y-93459904D01*
X171371380Y-93520380D01*
X172883285Y-93157523D02*
X173004238Y-93157523D01*
X173125190Y-93218000D01*
X173185666Y-93278476D01*
X173246142Y-93399428D01*
X173306619Y-93641333D01*
X173306619Y-93943714D01*
X173246142Y-94185619D01*
X173185666Y-94306571D01*
X173125190Y-94367047D01*
X173004238Y-94427523D01*
X172883285Y-94427523D01*
X172762333Y-94367047D01*
X172701857Y-94306571D01*
X172641380Y-94185619D01*
X172580904Y-93943714D01*
X172580904Y-93641333D01*
X172641380Y-93399428D01*
X172701857Y-93278476D01*
X172762333Y-93218000D01*
X172883285Y-93157523D01*
X172097095Y-96846571D02*
X172036619Y-96907047D01*
X171855190Y-96967523D01*
X171734238Y-96967523D01*
X171552809Y-96907047D01*
X171431857Y-96786095D01*
X171371380Y-96665142D01*
X171310904Y-96423238D01*
X171310904Y-96241809D01*
X171371380Y-95999904D01*
X171431857Y-95878952D01*
X171552809Y-95758000D01*
X171734238Y-95697523D01*
X171855190Y-95697523D01*
X172036619Y-95758000D01*
X172097095Y-95818476D01*
%TO.C,R1*%
X167301333Y-49787023D02*
X166878000Y-49182261D01*
X166575619Y-49787023D02*
X166575619Y-48517023D01*
X167059428Y-48517023D01*
X167180380Y-48577500D01*
X167240857Y-48637976D01*
X167301333Y-48758928D01*
X167301333Y-48940357D01*
X167240857Y-49061309D01*
X167180380Y-49121785D01*
X167059428Y-49182261D01*
X166575619Y-49182261D01*
X168510857Y-49787023D02*
X167785142Y-49787023D01*
X168148000Y-49787023D02*
X168148000Y-48517023D01*
X168027047Y-48698452D01*
X167906095Y-48819404D01*
X167785142Y-48879880D01*
X165910380Y-51480357D02*
X165910380Y-52327023D01*
X165608000Y-50996547D02*
X165305619Y-51903690D01*
X166091809Y-51903690D01*
X166454666Y-51057023D02*
X167301333Y-51057023D01*
X166757047Y-52327023D01*
X168027047Y-51057023D02*
X168148000Y-51057023D01*
X168268952Y-51117500D01*
X168329428Y-51177976D01*
X168389904Y-51298928D01*
X168450380Y-51540833D01*
X168450380Y-51843214D01*
X168389904Y-52085119D01*
X168329428Y-52206071D01*
X168268952Y-52266547D01*
X168148000Y-52327023D01*
X168027047Y-52327023D01*
X167906095Y-52266547D01*
X167845619Y-52206071D01*
X167785142Y-52085119D01*
X167724666Y-51843214D01*
X167724666Y-51540833D01*
X167785142Y-51298928D01*
X167845619Y-51177976D01*
X167906095Y-51117500D01*
X168027047Y-51057023D01*
X169720380Y-52327023D02*
X169297047Y-51722261D01*
X168994666Y-52327023D02*
X168994666Y-51057023D01*
X169478476Y-51057023D01*
X169599428Y-51117500D01*
X169659904Y-51177976D01*
X169720380Y-51298928D01*
X169720380Y-51480357D01*
X169659904Y-51601309D01*
X169599428Y-51661785D01*
X169478476Y-51722261D01*
X168994666Y-51722261D01*
%TO.C,R2*%
X186351333Y-74615523D02*
X185928000Y-74010761D01*
X185625619Y-74615523D02*
X185625619Y-73345523D01*
X186109428Y-73345523D01*
X186230380Y-73406000D01*
X186290857Y-73466476D01*
X186351333Y-73587428D01*
X186351333Y-73768857D01*
X186290857Y-73889809D01*
X186230380Y-73950285D01*
X186109428Y-74010761D01*
X185625619Y-74010761D01*
X186835142Y-73466476D02*
X186895619Y-73406000D01*
X187016571Y-73345523D01*
X187318952Y-73345523D01*
X187439904Y-73406000D01*
X187500380Y-73466476D01*
X187560857Y-73587428D01*
X187560857Y-73708380D01*
X187500380Y-73889809D01*
X186774666Y-74615523D01*
X187560857Y-74615523D01*
%TO.C,U4*%
X133271380Y-84394523D02*
X133271380Y-85422619D01*
X133331857Y-85543571D01*
X133392333Y-85604047D01*
X133513285Y-85664523D01*
X133755190Y-85664523D01*
X133876142Y-85604047D01*
X133936619Y-85543571D01*
X133997095Y-85422619D01*
X133997095Y-84394523D01*
X135146142Y-84817857D02*
X135146142Y-85664523D01*
X134843761Y-84334047D02*
X134541380Y-85241190D01*
X135327571Y-85241190D01*
%TO.C,C11*%
X94687571Y-53793571D02*
X94627095Y-53854047D01*
X94445666Y-53914523D01*
X94324714Y-53914523D01*
X94143285Y-53854047D01*
X94022333Y-53733095D01*
X93961857Y-53612142D01*
X93901380Y-53370238D01*
X93901380Y-53188809D01*
X93961857Y-52946904D01*
X94022333Y-52825952D01*
X94143285Y-52705000D01*
X94324714Y-52644523D01*
X94445666Y-52644523D01*
X94627095Y-52705000D01*
X94687571Y-52765476D01*
X95897095Y-53914523D02*
X95171380Y-53914523D01*
X95534238Y-53914523D02*
X95534238Y-52644523D01*
X95413285Y-52825952D01*
X95292333Y-52946904D01*
X95171380Y-53007380D01*
X97106619Y-53914523D02*
X96380904Y-53914523D01*
X96743761Y-53914523D02*
X96743761Y-52644523D01*
X96622809Y-52825952D01*
X96501857Y-52946904D01*
X96380904Y-53007380D01*
X95643095Y-51380571D02*
X95582619Y-51441047D01*
X95401190Y-51501523D01*
X95280238Y-51501523D01*
X95098809Y-51441047D01*
X94977857Y-51320095D01*
X94917380Y-51199142D01*
X94856904Y-50957238D01*
X94856904Y-50775809D01*
X94917380Y-50533904D01*
X94977857Y-50412952D01*
X95098809Y-50292000D01*
X95280238Y-50231523D01*
X95401190Y-50231523D01*
X95582619Y-50292000D01*
X95643095Y-50352476D01*
%TD*%
M02*
