%TF.GenerationSoftware,KiCad,Pcbnew,(5.1.12)-1*%
%TF.CreationDate,2022-07-22T17:46:44+02:00*%
%TF.ProjectId,EC1834-XT-IDE,45433138-3334-42d5-9854-2d4944452e6b,4c*%
%TF.SameCoordinates,Original*%
%TF.FileFunction,Legend,Bot*%
%TF.FilePolarity,Positive*%
%FSLAX46Y46*%
G04 Gerber Fmt 4.6, Leading zero omitted, Abs format (unit mm)*
G04 Created by KiCad (PCBNEW (5.1.12)-1) date 2022-07-22 17:46:44*
%MOMM*%
%LPD*%
G01*
G04 APERTURE LIST*
%ADD10C,0.304800*%
%ADD11C,0.254000*%
%ADD12C,0.120000*%
%ADD13C,0.150000*%
G04 APERTURE END LIST*
D10*
X127790665Y-54156428D02*
X128298665Y-53430714D01*
X128661522Y-54156428D02*
X128661522Y-52632428D01*
X128080951Y-52632428D01*
X127935808Y-52705000D01*
X127863237Y-52777571D01*
X127790665Y-52922714D01*
X127790665Y-53140428D01*
X127863237Y-53285571D01*
X127935808Y-53358142D01*
X128080951Y-53430714D01*
X128661522Y-53430714D01*
X126847237Y-52632428D02*
X126556951Y-52632428D01*
X126411808Y-52705000D01*
X126266665Y-52850142D01*
X126194094Y-53140428D01*
X126194094Y-53648428D01*
X126266665Y-53938714D01*
X126411808Y-54083857D01*
X126556951Y-54156428D01*
X126847237Y-54156428D01*
X126992380Y-54083857D01*
X127137522Y-53938714D01*
X127210094Y-53648428D01*
X127210094Y-53140428D01*
X127137522Y-52850142D01*
X126992380Y-52705000D01*
X126847237Y-52632428D01*
X125540951Y-54156428D02*
X125540951Y-52632428D01*
X125032951Y-53721000D01*
X124524951Y-52632428D01*
X124524951Y-54156428D01*
X122710665Y-53721000D02*
X121984951Y-53721000D01*
X122855808Y-54156428D02*
X122347808Y-52632428D01*
X121839808Y-54156428D01*
X121331808Y-54156428D02*
X121331808Y-52632428D01*
X120968951Y-52632428D01*
X120751237Y-52705000D01*
X120606094Y-52850142D01*
X120533522Y-52995285D01*
X120460951Y-53285571D01*
X120460951Y-53503285D01*
X120533522Y-53793571D01*
X120606094Y-53938714D01*
X120751237Y-54083857D01*
X120968951Y-54156428D01*
X121331808Y-54156428D01*
X119807808Y-54156428D02*
X119807808Y-52632428D01*
X119444951Y-52632428D01*
X119227237Y-52705000D01*
X119082094Y-52850142D01*
X119009522Y-52995285D01*
X118936951Y-53285571D01*
X118936951Y-53503285D01*
X119009522Y-53793571D01*
X119082094Y-53938714D01*
X119227237Y-54083857D01*
X119444951Y-54156428D01*
X119807808Y-54156428D01*
X117412951Y-54156428D02*
X117920951Y-53430714D01*
X118283808Y-54156428D02*
X118283808Y-52632428D01*
X117703237Y-52632428D01*
X117558094Y-52705000D01*
X117485522Y-52777571D01*
X117412951Y-52922714D01*
X117412951Y-53140428D01*
X117485522Y-53285571D01*
X117558094Y-53358142D01*
X117703237Y-53430714D01*
X118283808Y-53430714D01*
X128734094Y-55368371D02*
X128661522Y-55295800D01*
X128516380Y-55223228D01*
X128153522Y-55223228D01*
X128008380Y-55295800D01*
X127935808Y-55368371D01*
X127863237Y-55513514D01*
X127863237Y-55658657D01*
X127935808Y-55876371D01*
X128806665Y-56747228D01*
X127863237Y-56747228D01*
X126992380Y-55876371D02*
X127137522Y-55803800D01*
X127210094Y-55731228D01*
X127282665Y-55586085D01*
X127282665Y-55513514D01*
X127210094Y-55368371D01*
X127137522Y-55295800D01*
X126992380Y-55223228D01*
X126702094Y-55223228D01*
X126556951Y-55295800D01*
X126484380Y-55368371D01*
X126411808Y-55513514D01*
X126411808Y-55586085D01*
X126484380Y-55731228D01*
X126556951Y-55803800D01*
X126702094Y-55876371D01*
X126992380Y-55876371D01*
X127137522Y-55948942D01*
X127210094Y-56021514D01*
X127282665Y-56166657D01*
X127282665Y-56456942D01*
X127210094Y-56602085D01*
X127137522Y-56674657D01*
X126992380Y-56747228D01*
X126702094Y-56747228D01*
X126556951Y-56674657D01*
X126484380Y-56602085D01*
X126411808Y-56456942D01*
X126411808Y-56166657D01*
X126484380Y-56021514D01*
X126556951Y-55948942D01*
X126702094Y-55876371D01*
X124887808Y-56602085D02*
X124960380Y-56674657D01*
X125178094Y-56747228D01*
X125323237Y-56747228D01*
X125540951Y-56674657D01*
X125686094Y-56529514D01*
X125758665Y-56384371D01*
X125831237Y-56094085D01*
X125831237Y-55876371D01*
X125758665Y-55586085D01*
X125686094Y-55440942D01*
X125540951Y-55295800D01*
X125323237Y-55223228D01*
X125178094Y-55223228D01*
X124960380Y-55295800D01*
X124887808Y-55368371D01*
X124307237Y-55368371D02*
X124234665Y-55295800D01*
X124089522Y-55223228D01*
X123726665Y-55223228D01*
X123581522Y-55295800D01*
X123508951Y-55368371D01*
X123436380Y-55513514D01*
X123436380Y-55658657D01*
X123508951Y-55876371D01*
X124379808Y-56747228D01*
X123436380Y-56747228D01*
X122057522Y-55223228D02*
X122783237Y-55223228D01*
X122855808Y-55948942D01*
X122783237Y-55876371D01*
X122638094Y-55803800D01*
X122275237Y-55803800D01*
X122130094Y-55876371D01*
X122057522Y-55948942D01*
X121984951Y-56094085D01*
X121984951Y-56456942D01*
X122057522Y-56602085D01*
X122130094Y-56674657D01*
X122275237Y-56747228D01*
X122638094Y-56747228D01*
X122783237Y-56674657D01*
X122855808Y-56602085D01*
X120678665Y-55223228D02*
X120968951Y-55223228D01*
X121114094Y-55295800D01*
X121186665Y-55368371D01*
X121331808Y-55586085D01*
X121404380Y-55876371D01*
X121404380Y-56456942D01*
X121331808Y-56602085D01*
X121259237Y-56674657D01*
X121114094Y-56747228D01*
X120823808Y-56747228D01*
X120678665Y-56674657D01*
X120606094Y-56602085D01*
X120533522Y-56456942D01*
X120533522Y-56094085D01*
X120606094Y-55948942D01*
X120678665Y-55876371D01*
X120823808Y-55803800D01*
X121114094Y-55803800D01*
X121259237Y-55876371D01*
X121331808Y-55948942D01*
X121404380Y-56094085D01*
X121984951Y-59192885D02*
X122057522Y-59265457D01*
X122275237Y-59338028D01*
X122420380Y-59338028D01*
X122638094Y-59265457D01*
X122783237Y-59120314D01*
X122855808Y-58975171D01*
X122928380Y-58684885D01*
X122928380Y-58467171D01*
X122855808Y-58176885D01*
X122783237Y-58031742D01*
X122638094Y-57886600D01*
X122420380Y-57814028D01*
X122275237Y-57814028D01*
X122057522Y-57886600D01*
X121984951Y-57959171D01*
X120170665Y-59338028D02*
X120170665Y-57814028D01*
X119807808Y-57814028D01*
X119590094Y-57886600D01*
X119444951Y-58031742D01*
X119372380Y-58176885D01*
X119299808Y-58467171D01*
X119299808Y-58684885D01*
X119372380Y-58975171D01*
X119444951Y-59120314D01*
X119590094Y-59265457D01*
X119807808Y-59338028D01*
X120170665Y-59338028D01*
X117485522Y-59338028D02*
X117485522Y-57814028D01*
X117122665Y-57814028D01*
X116904951Y-57886600D01*
X116759808Y-58031742D01*
X116687237Y-58176885D01*
X116614665Y-58467171D01*
X116614665Y-58684885D01*
X116687237Y-58975171D01*
X116759808Y-59120314D01*
X116904951Y-59265457D01*
X117122665Y-59338028D01*
X117485522Y-59338028D01*
X122638094Y-61057971D02*
X122783237Y-60985400D01*
X122855808Y-60912828D01*
X122928380Y-60767685D01*
X122928380Y-60695114D01*
X122855808Y-60549971D01*
X122783237Y-60477400D01*
X122638094Y-60404828D01*
X122347808Y-60404828D01*
X122202665Y-60477400D01*
X122130094Y-60549971D01*
X122057522Y-60695114D01*
X122057522Y-60767685D01*
X122130094Y-60912828D01*
X122202665Y-60985400D01*
X122347808Y-61057971D01*
X122638094Y-61057971D01*
X122783237Y-61130542D01*
X122855808Y-61203114D01*
X122928380Y-61348257D01*
X122928380Y-61638542D01*
X122855808Y-61783685D01*
X122783237Y-61856257D01*
X122638094Y-61928828D01*
X122347808Y-61928828D01*
X122202665Y-61856257D01*
X122130094Y-61783685D01*
X122057522Y-61638542D01*
X122057522Y-61348257D01*
X122130094Y-61203114D01*
X122202665Y-61130542D01*
X122347808Y-61057971D01*
X119952951Y-60404828D02*
X119807808Y-60404828D01*
X119662665Y-60477400D01*
X119590094Y-60549971D01*
X119517522Y-60695114D01*
X119444951Y-60985400D01*
X119444951Y-61348257D01*
X119517522Y-61638542D01*
X119590094Y-61783685D01*
X119662665Y-61856257D01*
X119807808Y-61928828D01*
X119952951Y-61928828D01*
X120098094Y-61856257D01*
X120170665Y-61783685D01*
X120243237Y-61638542D01*
X120315808Y-61348257D01*
X120315808Y-60985400D01*
X120243237Y-60695114D01*
X120170665Y-60549971D01*
X120098094Y-60477400D01*
X119952951Y-60404828D01*
X117412951Y-61057971D02*
X117558094Y-60985400D01*
X117630665Y-60912828D01*
X117703237Y-60767685D01*
X117703237Y-60695114D01*
X117630665Y-60549971D01*
X117558094Y-60477400D01*
X117412951Y-60404828D01*
X117122665Y-60404828D01*
X116977522Y-60477400D01*
X116904951Y-60549971D01*
X116832380Y-60695114D01*
X116832380Y-60767685D01*
X116904951Y-60912828D01*
X116977522Y-60985400D01*
X117122665Y-61057971D01*
X117412951Y-61057971D01*
X117558094Y-61130542D01*
X117630665Y-61203114D01*
X117703237Y-61348257D01*
X117703237Y-61638542D01*
X117630665Y-61783685D01*
X117558094Y-61856257D01*
X117412951Y-61928828D01*
X117122665Y-61928828D01*
X116977522Y-61856257D01*
X116904951Y-61783685D01*
X116832380Y-61638542D01*
X116832380Y-61348257D01*
X116904951Y-61203114D01*
X116977522Y-61130542D01*
X117122665Y-61057971D01*
X122565522Y-62995628D02*
X122420380Y-62995628D01*
X122275237Y-63068200D01*
X122202665Y-63140771D01*
X122130094Y-63285914D01*
X122057522Y-63576200D01*
X122057522Y-63939057D01*
X122130094Y-64229342D01*
X122202665Y-64374485D01*
X122275237Y-64447057D01*
X122420380Y-64519628D01*
X122565522Y-64519628D01*
X122710665Y-64447057D01*
X122783237Y-64374485D01*
X122855808Y-64229342D01*
X122928380Y-63939057D01*
X122928380Y-63576200D01*
X122855808Y-63285914D01*
X122783237Y-63140771D01*
X122710665Y-63068200D01*
X122565522Y-62995628D01*
X119952951Y-62995628D02*
X119807808Y-62995628D01*
X119662665Y-63068200D01*
X119590094Y-63140771D01*
X119517522Y-63285914D01*
X119444951Y-63576200D01*
X119444951Y-63939057D01*
X119517522Y-64229342D01*
X119590094Y-64374485D01*
X119662665Y-64447057D01*
X119807808Y-64519628D01*
X119952951Y-64519628D01*
X120098094Y-64447057D01*
X120170665Y-64374485D01*
X120243237Y-64229342D01*
X120315808Y-63939057D01*
X120315808Y-63576200D01*
X120243237Y-63285914D01*
X120170665Y-63140771D01*
X120098094Y-63068200D01*
X119952951Y-62995628D01*
X117340380Y-62995628D02*
X117195237Y-62995628D01*
X117050094Y-63068200D01*
X116977522Y-63140771D01*
X116904951Y-63285914D01*
X116832380Y-63576200D01*
X116832380Y-63939057D01*
X116904951Y-64229342D01*
X116977522Y-64374485D01*
X117050094Y-64447057D01*
X117195237Y-64519628D01*
X117340380Y-64519628D01*
X117485522Y-64447057D01*
X117558094Y-64374485D01*
X117630665Y-64229342D01*
X117703237Y-63939057D01*
X117703237Y-63576200D01*
X117630665Y-63285914D01*
X117558094Y-63140771D01*
X117485522Y-63068200D01*
X117340380Y-62995628D01*
X122565522Y-65586428D02*
X122420380Y-65586428D01*
X122275237Y-65659000D01*
X122202665Y-65731571D01*
X122130094Y-65876714D01*
X122057522Y-66167000D01*
X122057522Y-66529857D01*
X122130094Y-66820142D01*
X122202665Y-66965285D01*
X122275237Y-67037857D01*
X122420380Y-67110428D01*
X122565522Y-67110428D01*
X122710665Y-67037857D01*
X122783237Y-66965285D01*
X122855808Y-66820142D01*
X122928380Y-66529857D01*
X122928380Y-66167000D01*
X122855808Y-65876714D01*
X122783237Y-65731571D01*
X122710665Y-65659000D01*
X122565522Y-65586428D01*
X119952951Y-65586428D02*
X119807808Y-65586428D01*
X119662665Y-65659000D01*
X119590094Y-65731571D01*
X119517522Y-65876714D01*
X119444951Y-66167000D01*
X119444951Y-66529857D01*
X119517522Y-66820142D01*
X119590094Y-66965285D01*
X119662665Y-67037857D01*
X119807808Y-67110428D01*
X119952951Y-67110428D01*
X120098094Y-67037857D01*
X120170665Y-66965285D01*
X120243237Y-66820142D01*
X120315808Y-66529857D01*
X120315808Y-66167000D01*
X120243237Y-65876714D01*
X120170665Y-65731571D01*
X120098094Y-65659000D01*
X119952951Y-65586428D01*
X117340380Y-65586428D02*
X117195237Y-65586428D01*
X117050094Y-65659000D01*
X116977522Y-65731571D01*
X116904951Y-65876714D01*
X116832380Y-66167000D01*
X116832380Y-66529857D01*
X116904951Y-66820142D01*
X116977522Y-66965285D01*
X117050094Y-67037857D01*
X117195237Y-67110428D01*
X117340380Y-67110428D01*
X117485522Y-67037857D01*
X117558094Y-66965285D01*
X117630665Y-66820142D01*
X117703237Y-66529857D01*
X117703237Y-66167000D01*
X117630665Y-65876714D01*
X117558094Y-65731571D01*
X117485522Y-65659000D01*
X117340380Y-65586428D01*
X128734094Y-71856600D02*
X128008380Y-71856600D01*
X128879237Y-72292028D02*
X128371237Y-70768028D01*
X127863237Y-72292028D01*
X126556951Y-72292028D02*
X127427808Y-72292028D01*
X126992380Y-72292028D02*
X126992380Y-70768028D01*
X127137522Y-70985742D01*
X127282665Y-71130885D01*
X127427808Y-71203457D01*
X125250665Y-70768028D02*
X125540951Y-70768028D01*
X125686094Y-70840600D01*
X125758665Y-70913171D01*
X125903808Y-71130885D01*
X125976380Y-71421171D01*
X125976380Y-72001742D01*
X125903808Y-72146885D01*
X125831237Y-72219457D01*
X125686094Y-72292028D01*
X125395808Y-72292028D01*
X125250665Y-72219457D01*
X125178094Y-72146885D01*
X125105522Y-72001742D01*
X125105522Y-71638885D01*
X125178094Y-71493742D01*
X125250665Y-71421171D01*
X125395808Y-71348600D01*
X125686094Y-71348600D01*
X125831237Y-71421171D01*
X125903808Y-71493742D01*
X125976380Y-71638885D01*
X123000951Y-70768028D02*
X122855808Y-70768028D01*
X122710665Y-70840600D01*
X122638094Y-70913171D01*
X122565522Y-71058314D01*
X122492951Y-71348600D01*
X122492951Y-71711457D01*
X122565522Y-72001742D01*
X122638094Y-72146885D01*
X122710665Y-72219457D01*
X122855808Y-72292028D01*
X123000951Y-72292028D01*
X123146094Y-72219457D01*
X123218665Y-72146885D01*
X123291237Y-72001742D01*
X123363808Y-71711457D01*
X123363808Y-71348600D01*
X123291237Y-71058314D01*
X123218665Y-70913171D01*
X123146094Y-70840600D01*
X123000951Y-70768028D01*
X119880380Y-72292028D02*
X120751237Y-72292028D01*
X120315808Y-72292028D02*
X120315808Y-70768028D01*
X120460951Y-70985742D01*
X120606094Y-71130885D01*
X120751237Y-71203457D01*
X117267808Y-72292028D02*
X118138665Y-72292028D01*
X117703237Y-72292028D02*
X117703237Y-70768028D01*
X117848380Y-70985742D01*
X117993522Y-71130885D01*
X118138665Y-71203457D01*
X128734094Y-74447400D02*
X128008380Y-74447400D01*
X128879237Y-74882828D02*
X128371237Y-73358828D01*
X127863237Y-74882828D01*
X126556951Y-74882828D02*
X127427808Y-74882828D01*
X126992380Y-74882828D02*
X126992380Y-73358828D01*
X127137522Y-73576542D01*
X127282665Y-73721685D01*
X127427808Y-73794257D01*
X125178094Y-73358828D02*
X125903808Y-73358828D01*
X125976380Y-74084542D01*
X125903808Y-74011971D01*
X125758665Y-73939400D01*
X125395808Y-73939400D01*
X125250665Y-74011971D01*
X125178094Y-74084542D01*
X125105522Y-74229685D01*
X125105522Y-74592542D01*
X125178094Y-74737685D01*
X125250665Y-74810257D01*
X125395808Y-74882828D01*
X125758665Y-74882828D01*
X125903808Y-74810257D01*
X125976380Y-74737685D01*
X122492951Y-74882828D02*
X123363808Y-74882828D01*
X122928380Y-74882828D02*
X122928380Y-73358828D01*
X123073522Y-73576542D01*
X123218665Y-73721685D01*
X123363808Y-73794257D01*
X120388380Y-73358828D02*
X120243237Y-73358828D01*
X120098094Y-73431400D01*
X120025522Y-73503971D01*
X119952951Y-73649114D01*
X119880380Y-73939400D01*
X119880380Y-74302257D01*
X119952951Y-74592542D01*
X120025522Y-74737685D01*
X120098094Y-74810257D01*
X120243237Y-74882828D01*
X120388380Y-74882828D01*
X120533522Y-74810257D01*
X120606094Y-74737685D01*
X120678665Y-74592542D01*
X120751237Y-74302257D01*
X120751237Y-73939400D01*
X120678665Y-73649114D01*
X120606094Y-73503971D01*
X120533522Y-73431400D01*
X120388380Y-73358828D01*
X117267808Y-74882828D02*
X118138665Y-74882828D01*
X117703237Y-74882828D02*
X117703237Y-73358828D01*
X117848380Y-73576542D01*
X117993522Y-73721685D01*
X118138665Y-73794257D01*
X128734094Y-77038200D02*
X128008380Y-77038200D01*
X128879237Y-77473628D02*
X128371237Y-75949628D01*
X127863237Y-77473628D01*
X126556951Y-77473628D02*
X127427808Y-77473628D01*
X126992380Y-77473628D02*
X126992380Y-75949628D01*
X127137522Y-76167342D01*
X127282665Y-76312485D01*
X127427808Y-76385057D01*
X125250665Y-76457628D02*
X125250665Y-77473628D01*
X125613522Y-75877057D02*
X125976380Y-76965628D01*
X125032951Y-76965628D01*
X123000951Y-75949628D02*
X122855808Y-75949628D01*
X122710665Y-76022200D01*
X122638094Y-76094771D01*
X122565522Y-76239914D01*
X122492951Y-76530200D01*
X122492951Y-76893057D01*
X122565522Y-77183342D01*
X122638094Y-77328485D01*
X122710665Y-77401057D01*
X122855808Y-77473628D01*
X123000951Y-77473628D01*
X123146094Y-77401057D01*
X123218665Y-77328485D01*
X123291237Y-77183342D01*
X123363808Y-76893057D01*
X123363808Y-76530200D01*
X123291237Y-76239914D01*
X123218665Y-76094771D01*
X123146094Y-76022200D01*
X123000951Y-75949628D01*
X120388380Y-75949628D02*
X120243237Y-75949628D01*
X120098094Y-76022200D01*
X120025522Y-76094771D01*
X119952951Y-76239914D01*
X119880380Y-76530200D01*
X119880380Y-76893057D01*
X119952951Y-77183342D01*
X120025522Y-77328485D01*
X120098094Y-77401057D01*
X120243237Y-77473628D01*
X120388380Y-77473628D01*
X120533522Y-77401057D01*
X120606094Y-77328485D01*
X120678665Y-77183342D01*
X120751237Y-76893057D01*
X120751237Y-76530200D01*
X120678665Y-76239914D01*
X120606094Y-76094771D01*
X120533522Y-76022200D01*
X120388380Y-75949628D01*
X117775808Y-75949628D02*
X117630665Y-75949628D01*
X117485522Y-76022200D01*
X117412951Y-76094771D01*
X117340380Y-76239914D01*
X117267808Y-76530200D01*
X117267808Y-76893057D01*
X117340380Y-77183342D01*
X117412951Y-77328485D01*
X117485522Y-77401057D01*
X117630665Y-77473628D01*
X117775808Y-77473628D01*
X117920951Y-77401057D01*
X117993522Y-77328485D01*
X118066094Y-77183342D01*
X118138665Y-76893057D01*
X118138665Y-76530200D01*
X118066094Y-76239914D01*
X117993522Y-76094771D01*
X117920951Y-76022200D01*
X117775808Y-75949628D01*
X128734094Y-79629000D02*
X128008380Y-79629000D01*
X128879237Y-80064428D02*
X128371237Y-78540428D01*
X127863237Y-80064428D01*
X126556951Y-80064428D02*
X127427808Y-80064428D01*
X126992380Y-80064428D02*
X126992380Y-78540428D01*
X127137522Y-78758142D01*
X127282665Y-78903285D01*
X127427808Y-78975857D01*
X126048951Y-78540428D02*
X125105522Y-78540428D01*
X125613522Y-79121000D01*
X125395808Y-79121000D01*
X125250665Y-79193571D01*
X125178094Y-79266142D01*
X125105522Y-79411285D01*
X125105522Y-79774142D01*
X125178094Y-79919285D01*
X125250665Y-79991857D01*
X125395808Y-80064428D01*
X125831237Y-80064428D01*
X125976380Y-79991857D01*
X126048951Y-79919285D01*
X123000951Y-78540428D02*
X122855808Y-78540428D01*
X122710665Y-78613000D01*
X122638094Y-78685571D01*
X122565522Y-78830714D01*
X122492951Y-79121000D01*
X122492951Y-79483857D01*
X122565522Y-79774142D01*
X122638094Y-79919285D01*
X122710665Y-79991857D01*
X122855808Y-80064428D01*
X123000951Y-80064428D01*
X123146094Y-79991857D01*
X123218665Y-79919285D01*
X123291237Y-79774142D01*
X123363808Y-79483857D01*
X123363808Y-79121000D01*
X123291237Y-78830714D01*
X123218665Y-78685571D01*
X123146094Y-78613000D01*
X123000951Y-78540428D01*
X120388380Y-78540428D02*
X120243237Y-78540428D01*
X120098094Y-78613000D01*
X120025522Y-78685571D01*
X119952951Y-78830714D01*
X119880380Y-79121000D01*
X119880380Y-79483857D01*
X119952951Y-79774142D01*
X120025522Y-79919285D01*
X120098094Y-79991857D01*
X120243237Y-80064428D01*
X120388380Y-80064428D01*
X120533522Y-79991857D01*
X120606094Y-79919285D01*
X120678665Y-79774142D01*
X120751237Y-79483857D01*
X120751237Y-79121000D01*
X120678665Y-78830714D01*
X120606094Y-78685571D01*
X120533522Y-78613000D01*
X120388380Y-78540428D01*
X117775808Y-78540428D02*
X117630665Y-78540428D01*
X117485522Y-78613000D01*
X117412951Y-78685571D01*
X117340380Y-78830714D01*
X117267808Y-79121000D01*
X117267808Y-79483857D01*
X117340380Y-79774142D01*
X117412951Y-79919285D01*
X117485522Y-79991857D01*
X117630665Y-80064428D01*
X117775808Y-80064428D01*
X117920951Y-79991857D01*
X117993522Y-79919285D01*
X118066094Y-79774142D01*
X118138665Y-79483857D01*
X118138665Y-79121000D01*
X118066094Y-78830714D01*
X117993522Y-78685571D01*
X117920951Y-78613000D01*
X117775808Y-78540428D01*
X88030594Y-83854471D02*
X87958022Y-83781900D01*
X87812880Y-83709328D01*
X87450022Y-83709328D01*
X87304880Y-83781900D01*
X87232308Y-83854471D01*
X87159737Y-83999614D01*
X87159737Y-84144757D01*
X87232308Y-84362471D01*
X88103165Y-85233328D01*
X87159737Y-85233328D01*
X86288880Y-84362471D02*
X86434022Y-84289900D01*
X86506594Y-84217328D01*
X86579165Y-84072185D01*
X86579165Y-83999614D01*
X86506594Y-83854471D01*
X86434022Y-83781900D01*
X86288880Y-83709328D01*
X85998594Y-83709328D01*
X85853451Y-83781900D01*
X85780880Y-83854471D01*
X85708308Y-83999614D01*
X85708308Y-84072185D01*
X85780880Y-84217328D01*
X85853451Y-84289900D01*
X85998594Y-84362471D01*
X86288880Y-84362471D01*
X86434022Y-84435042D01*
X86506594Y-84507614D01*
X86579165Y-84652757D01*
X86579165Y-84943042D01*
X86506594Y-85088185D01*
X86434022Y-85160757D01*
X86288880Y-85233328D01*
X85998594Y-85233328D01*
X85853451Y-85160757D01*
X85780880Y-85088185D01*
X85708308Y-84943042D01*
X85708308Y-84652757D01*
X85780880Y-84507614D01*
X85853451Y-84435042D01*
X85998594Y-84362471D01*
X84184308Y-85088185D02*
X84256880Y-85160757D01*
X84474594Y-85233328D01*
X84619737Y-85233328D01*
X84837451Y-85160757D01*
X84982594Y-85015614D01*
X85055165Y-84870471D01*
X85127737Y-84580185D01*
X85127737Y-84362471D01*
X85055165Y-84072185D01*
X84982594Y-83927042D01*
X84837451Y-83781900D01*
X84619737Y-83709328D01*
X84474594Y-83709328D01*
X84256880Y-83781900D01*
X84184308Y-83854471D01*
X82878022Y-83709328D02*
X83168308Y-83709328D01*
X83313451Y-83781900D01*
X83386022Y-83854471D01*
X83531165Y-84072185D01*
X83603737Y-84362471D01*
X83603737Y-84943042D01*
X83531165Y-85088185D01*
X83458594Y-85160757D01*
X83313451Y-85233328D01*
X83023165Y-85233328D01*
X82878022Y-85160757D01*
X82805451Y-85088185D01*
X82732880Y-84943042D01*
X82732880Y-84580185D01*
X82805451Y-84435042D01*
X82878022Y-84362471D01*
X83023165Y-84289900D01*
X83313451Y-84289900D01*
X83458594Y-84362471D01*
X83531165Y-84435042D01*
X83603737Y-84580185D01*
X81426594Y-84217328D02*
X81426594Y-85233328D01*
X81789451Y-83636757D02*
X82152308Y-84725328D01*
X81208880Y-84725328D01*
X78306022Y-84435042D02*
X77144880Y-84435042D01*
X77144880Y-84870471D02*
X78306022Y-84870471D01*
X75040308Y-84362471D02*
X75185451Y-84289900D01*
X75258022Y-84217328D01*
X75330594Y-84072185D01*
X75330594Y-83999614D01*
X75258022Y-83854471D01*
X75185451Y-83781900D01*
X75040308Y-83709328D01*
X74750022Y-83709328D01*
X74604880Y-83781900D01*
X74532308Y-83854471D01*
X74459737Y-83999614D01*
X74459737Y-84072185D01*
X74532308Y-84217328D01*
X74604880Y-84289900D01*
X74750022Y-84362471D01*
X75040308Y-84362471D01*
X75185451Y-84435042D01*
X75258022Y-84507614D01*
X75330594Y-84652757D01*
X75330594Y-84943042D01*
X75258022Y-85088185D01*
X75185451Y-85160757D01*
X75040308Y-85233328D01*
X74750022Y-85233328D01*
X74604880Y-85160757D01*
X74532308Y-85088185D01*
X74459737Y-84943042D01*
X74459737Y-84652757D01*
X74532308Y-84507614D01*
X74604880Y-84435042D01*
X74750022Y-84362471D01*
X73806594Y-85233328D02*
X73806594Y-83709328D01*
X72935737Y-85233328D02*
X73588880Y-84362471D01*
X72935737Y-83709328D02*
X73806594Y-84580185D01*
X68581451Y-84362471D02*
X68726594Y-84289900D01*
X68799165Y-84217328D01*
X68871737Y-84072185D01*
X68871737Y-83999614D01*
X68799165Y-83854471D01*
X68726594Y-83781900D01*
X68581451Y-83709328D01*
X68291165Y-83709328D01*
X68146022Y-83781900D01*
X68073451Y-83854471D01*
X68000880Y-83999614D01*
X68000880Y-84072185D01*
X68073451Y-84217328D01*
X68146022Y-84289900D01*
X68291165Y-84362471D01*
X68581451Y-84362471D01*
X68726594Y-84435042D01*
X68799165Y-84507614D01*
X68871737Y-84652757D01*
X68871737Y-84943042D01*
X68799165Y-85088185D01*
X68726594Y-85160757D01*
X68581451Y-85233328D01*
X68291165Y-85233328D01*
X68146022Y-85160757D01*
X68073451Y-85088185D01*
X68000880Y-84943042D01*
X68000880Y-84652757D01*
X68073451Y-84507614D01*
X68146022Y-84435042D01*
X68291165Y-84362471D01*
X67347737Y-85233328D02*
X67347737Y-83709328D01*
X66476880Y-85233328D02*
X67130022Y-84362471D01*
X66476880Y-83709328D02*
X67347737Y-84580185D01*
X64735165Y-85160757D02*
X64517451Y-85233328D01*
X64154594Y-85233328D01*
X64009451Y-85160757D01*
X63936880Y-85088185D01*
X63864308Y-84943042D01*
X63864308Y-84797900D01*
X63936880Y-84652757D01*
X64009451Y-84580185D01*
X64154594Y-84507614D01*
X64444880Y-84435042D01*
X64590022Y-84362471D01*
X64662594Y-84289900D01*
X64735165Y-84144757D01*
X64735165Y-83999614D01*
X64662594Y-83854471D01*
X64590022Y-83781900D01*
X64444880Y-83709328D01*
X64082022Y-83709328D01*
X63864308Y-83781900D01*
X63356308Y-83709328D02*
X62993451Y-85233328D01*
X62703165Y-84144757D01*
X62412880Y-85233328D01*
X62050022Y-83709328D01*
X60018022Y-83709328D02*
X59727737Y-83709328D01*
X59582594Y-83781900D01*
X59437451Y-83927042D01*
X59364880Y-84217328D01*
X59364880Y-84725328D01*
X59437451Y-85015614D01*
X59582594Y-85160757D01*
X59727737Y-85233328D01*
X60018022Y-85233328D01*
X60163165Y-85160757D01*
X60308308Y-85015614D01*
X60380880Y-84725328D01*
X60380880Y-84217328D01*
X60308308Y-83927042D01*
X60163165Y-83781900D01*
X60018022Y-83709328D01*
X58711737Y-85233328D02*
X58711737Y-83709328D01*
X57840880Y-85233328D01*
X57840880Y-83709328D01*
X88030594Y-86445271D02*
X87958022Y-86372700D01*
X87812880Y-86300128D01*
X87450022Y-86300128D01*
X87304880Y-86372700D01*
X87232308Y-86445271D01*
X87159737Y-86590414D01*
X87159737Y-86735557D01*
X87232308Y-86953271D01*
X88103165Y-87824128D01*
X87159737Y-87824128D01*
X86288880Y-86953271D02*
X86434022Y-86880700D01*
X86506594Y-86808128D01*
X86579165Y-86662985D01*
X86579165Y-86590414D01*
X86506594Y-86445271D01*
X86434022Y-86372700D01*
X86288880Y-86300128D01*
X85998594Y-86300128D01*
X85853451Y-86372700D01*
X85780880Y-86445271D01*
X85708308Y-86590414D01*
X85708308Y-86662985D01*
X85780880Y-86808128D01*
X85853451Y-86880700D01*
X85998594Y-86953271D01*
X86288880Y-86953271D01*
X86434022Y-87025842D01*
X86506594Y-87098414D01*
X86579165Y-87243557D01*
X86579165Y-87533842D01*
X86506594Y-87678985D01*
X86434022Y-87751557D01*
X86288880Y-87824128D01*
X85998594Y-87824128D01*
X85853451Y-87751557D01*
X85780880Y-87678985D01*
X85708308Y-87533842D01*
X85708308Y-87243557D01*
X85780880Y-87098414D01*
X85853451Y-87025842D01*
X85998594Y-86953271D01*
X84184308Y-87678985D02*
X84256880Y-87751557D01*
X84474594Y-87824128D01*
X84619737Y-87824128D01*
X84837451Y-87751557D01*
X84982594Y-87606414D01*
X85055165Y-87461271D01*
X85127737Y-87170985D01*
X85127737Y-86953271D01*
X85055165Y-86662985D01*
X84982594Y-86517842D01*
X84837451Y-86372700D01*
X84619737Y-86300128D01*
X84474594Y-86300128D01*
X84256880Y-86372700D01*
X84184308Y-86445271D01*
X83603737Y-86445271D02*
X83531165Y-86372700D01*
X83386022Y-86300128D01*
X83023165Y-86300128D01*
X82878022Y-86372700D01*
X82805451Y-86445271D01*
X82732880Y-86590414D01*
X82732880Y-86735557D01*
X82805451Y-86953271D01*
X83676308Y-87824128D01*
X82732880Y-87824128D01*
X81354022Y-86300128D02*
X82079737Y-86300128D01*
X82152308Y-87025842D01*
X82079737Y-86953271D01*
X81934594Y-86880700D01*
X81571737Y-86880700D01*
X81426594Y-86953271D01*
X81354022Y-87025842D01*
X81281451Y-87170985D01*
X81281451Y-87533842D01*
X81354022Y-87678985D01*
X81426594Y-87751557D01*
X81571737Y-87824128D01*
X81934594Y-87824128D01*
X82079737Y-87751557D01*
X82152308Y-87678985D01*
X79975165Y-86300128D02*
X80265451Y-86300128D01*
X80410594Y-86372700D01*
X80483165Y-86445271D01*
X80628308Y-86662985D01*
X80700880Y-86953271D01*
X80700880Y-87533842D01*
X80628308Y-87678985D01*
X80555737Y-87751557D01*
X80410594Y-87824128D01*
X80120308Y-87824128D01*
X79975165Y-87751557D01*
X79902594Y-87678985D01*
X79830022Y-87533842D01*
X79830022Y-87170985D01*
X79902594Y-87025842D01*
X79975165Y-86953271D01*
X80120308Y-86880700D01*
X80410594Y-86880700D01*
X80555737Y-86953271D01*
X80628308Y-87025842D01*
X80700880Y-87170985D01*
X78015737Y-87025842D02*
X76854594Y-87025842D01*
X76854594Y-87461271D02*
X78015737Y-87461271D01*
X75112880Y-86300128D02*
X74169451Y-86300128D01*
X74677451Y-86880700D01*
X74459737Y-86880700D01*
X74314594Y-86953271D01*
X74242022Y-87025842D01*
X74169451Y-87170985D01*
X74169451Y-87533842D01*
X74242022Y-87678985D01*
X74314594Y-87751557D01*
X74459737Y-87824128D01*
X74895165Y-87824128D01*
X75040308Y-87751557D01*
X75112880Y-87678985D01*
X73588880Y-86445271D02*
X73516308Y-86372700D01*
X73371165Y-86300128D01*
X73008308Y-86300128D01*
X72863165Y-86372700D01*
X72790594Y-86445271D01*
X72718022Y-86590414D01*
X72718022Y-86735557D01*
X72790594Y-86953271D01*
X73661451Y-87824128D01*
X72718022Y-87824128D01*
X72064880Y-87824128D02*
X72064880Y-86300128D01*
X71194022Y-87824128D02*
X71847165Y-86953271D01*
X71194022Y-86300128D02*
X72064880Y-87170985D01*
X68000880Y-86953271D02*
X68146022Y-86880700D01*
X68218594Y-86808128D01*
X68291165Y-86662985D01*
X68291165Y-86590414D01*
X68218594Y-86445271D01*
X68146022Y-86372700D01*
X68000880Y-86300128D01*
X67710594Y-86300128D01*
X67565451Y-86372700D01*
X67492880Y-86445271D01*
X67420308Y-86590414D01*
X67420308Y-86662985D01*
X67492880Y-86808128D01*
X67565451Y-86880700D01*
X67710594Y-86953271D01*
X68000880Y-86953271D01*
X68146022Y-87025842D01*
X68218594Y-87098414D01*
X68291165Y-87243557D01*
X68291165Y-87533842D01*
X68218594Y-87678985D01*
X68146022Y-87751557D01*
X68000880Y-87824128D01*
X67710594Y-87824128D01*
X67565451Y-87751557D01*
X67492880Y-87678985D01*
X67420308Y-87533842D01*
X67420308Y-87243557D01*
X67492880Y-87098414D01*
X67565451Y-87025842D01*
X67710594Y-86953271D01*
X66767165Y-87824128D02*
X66767165Y-86300128D01*
X65896308Y-87824128D02*
X66549451Y-86953271D01*
X65896308Y-86300128D02*
X66767165Y-87170985D01*
X64154594Y-87751557D02*
X63936880Y-87824128D01*
X63574022Y-87824128D01*
X63428880Y-87751557D01*
X63356308Y-87678985D01*
X63283737Y-87533842D01*
X63283737Y-87388700D01*
X63356308Y-87243557D01*
X63428880Y-87170985D01*
X63574022Y-87098414D01*
X63864308Y-87025842D01*
X64009451Y-86953271D01*
X64082022Y-86880700D01*
X64154594Y-86735557D01*
X64154594Y-86590414D01*
X64082022Y-86445271D01*
X64009451Y-86372700D01*
X63864308Y-86300128D01*
X63501451Y-86300128D01*
X63283737Y-86372700D01*
X62775737Y-86300128D02*
X62412880Y-87824128D01*
X62122594Y-86735557D01*
X61832308Y-87824128D01*
X61469451Y-86300128D01*
X59437451Y-86300128D02*
X59147165Y-86300128D01*
X59002022Y-86372700D01*
X58856880Y-86517842D01*
X58784308Y-86808128D01*
X58784308Y-87316128D01*
X58856880Y-87606414D01*
X59002022Y-87751557D01*
X59147165Y-87824128D01*
X59437451Y-87824128D01*
X59582594Y-87751557D01*
X59727737Y-87606414D01*
X59800308Y-87316128D01*
X59800308Y-86808128D01*
X59727737Y-86517842D01*
X59582594Y-86372700D01*
X59437451Y-86300128D01*
X57623165Y-87025842D02*
X58131165Y-87025842D01*
X58131165Y-87824128D02*
X58131165Y-86300128D01*
X57405451Y-86300128D01*
X56316880Y-87025842D02*
X56824880Y-87025842D01*
X56824880Y-87824128D02*
X56824880Y-86300128D01*
X56099165Y-86300128D01*
X87958022Y-92207442D02*
X87450022Y-92207442D01*
X87232308Y-93005728D02*
X87958022Y-93005728D01*
X87958022Y-91481728D01*
X87232308Y-91481728D01*
X86579165Y-93005728D02*
X86579165Y-91481728D01*
X85708308Y-93005728D01*
X85708308Y-91481728D01*
X85055165Y-92570300D02*
X84329451Y-92570300D01*
X85200308Y-93005728D02*
X84692308Y-91481728D01*
X84184308Y-93005728D01*
X82515165Y-92207442D02*
X81354022Y-92207442D01*
X81354022Y-92642871D02*
X82515165Y-92642871D01*
X79176880Y-91481728D02*
X78886594Y-91481728D01*
X78741451Y-91554300D01*
X78596308Y-91699442D01*
X78523737Y-91989728D01*
X78523737Y-92497728D01*
X78596308Y-92788014D01*
X78741451Y-92933157D01*
X78886594Y-93005728D01*
X79176880Y-93005728D01*
X79322022Y-92933157D01*
X79467165Y-92788014D01*
X79539737Y-92497728D01*
X79539737Y-91989728D01*
X79467165Y-91699442D01*
X79322022Y-91554300D01*
X79176880Y-91481728D01*
X77870594Y-93005728D02*
X77870594Y-91481728D01*
X76999737Y-93005728D01*
X76999737Y-91481728D01*
X75112880Y-92425157D02*
X73951737Y-92425157D01*
X71556880Y-92207442D02*
X71339165Y-92280014D01*
X71266594Y-92352585D01*
X71194022Y-92497728D01*
X71194022Y-92715442D01*
X71266594Y-92860585D01*
X71339165Y-92933157D01*
X71484308Y-93005728D01*
X72064880Y-93005728D01*
X72064880Y-91481728D01*
X71556880Y-91481728D01*
X71411737Y-91554300D01*
X71339165Y-91626871D01*
X71266594Y-91772014D01*
X71266594Y-91917157D01*
X71339165Y-92062300D01*
X71411737Y-92134871D01*
X71556880Y-92207442D01*
X72064880Y-92207442D01*
X70540880Y-93005728D02*
X70540880Y-91481728D01*
X69524880Y-91481728D02*
X69234594Y-91481728D01*
X69089451Y-91554300D01*
X68944308Y-91699442D01*
X68871737Y-91989728D01*
X68871737Y-92497728D01*
X68944308Y-92788014D01*
X69089451Y-92933157D01*
X69234594Y-93005728D01*
X69524880Y-93005728D01*
X69670022Y-92933157D01*
X69815165Y-92788014D01*
X69887737Y-92497728D01*
X69887737Y-91989728D01*
X69815165Y-91699442D01*
X69670022Y-91554300D01*
X69524880Y-91481728D01*
X68291165Y-92933157D02*
X68073451Y-93005728D01*
X67710594Y-93005728D01*
X67565451Y-92933157D01*
X67492880Y-92860585D01*
X67420308Y-92715442D01*
X67420308Y-92570300D01*
X67492880Y-92425157D01*
X67565451Y-92352585D01*
X67710594Y-92280014D01*
X68000880Y-92207442D01*
X68146022Y-92134871D01*
X68218594Y-92062300D01*
X68291165Y-91917157D01*
X68291165Y-91772014D01*
X68218594Y-91626871D01*
X68146022Y-91554300D01*
X68000880Y-91481728D01*
X67638022Y-91481728D01*
X67420308Y-91554300D01*
X64735165Y-93005728D02*
X65243165Y-92280014D01*
X65606022Y-93005728D02*
X65606022Y-91481728D01*
X65025451Y-91481728D01*
X64880308Y-91554300D01*
X64807737Y-91626871D01*
X64735165Y-91772014D01*
X64735165Y-91989728D01*
X64807737Y-92134871D01*
X64880308Y-92207442D01*
X65025451Y-92280014D01*
X65606022Y-92280014D01*
X63791737Y-91481728D02*
X63501451Y-91481728D01*
X63356308Y-91554300D01*
X63211165Y-91699442D01*
X63138594Y-91989728D01*
X63138594Y-92497728D01*
X63211165Y-92788014D01*
X63356308Y-92933157D01*
X63501451Y-93005728D01*
X63791737Y-93005728D01*
X63936880Y-92933157D01*
X64082022Y-92788014D01*
X64154594Y-92497728D01*
X64154594Y-91989728D01*
X64082022Y-91699442D01*
X63936880Y-91554300D01*
X63791737Y-91481728D01*
X62485451Y-93005728D02*
X62485451Y-91481728D01*
X61977451Y-92570300D01*
X61469451Y-91481728D01*
X61469451Y-93005728D01*
X59582594Y-92207442D02*
X59074594Y-92207442D01*
X58856880Y-93005728D02*
X59582594Y-93005728D01*
X59582594Y-91481728D01*
X58856880Y-91481728D01*
X58203737Y-93005728D02*
X58203737Y-91481728D01*
X57332880Y-93005728D01*
X57332880Y-91481728D01*
X56679737Y-92570300D02*
X55954022Y-92570300D01*
X56824880Y-93005728D02*
X56316880Y-91481728D01*
X55808880Y-93005728D01*
X54792880Y-92207442D02*
X54575165Y-92280014D01*
X54502594Y-92352585D01*
X54430022Y-92497728D01*
X54430022Y-92715442D01*
X54502594Y-92860585D01*
X54575165Y-92933157D01*
X54720308Y-93005728D01*
X55300880Y-93005728D01*
X55300880Y-91481728D01*
X54792880Y-91481728D01*
X54647737Y-91554300D01*
X54575165Y-91626871D01*
X54502594Y-91772014D01*
X54502594Y-91917157D01*
X54575165Y-92062300D01*
X54647737Y-92134871D01*
X54792880Y-92207442D01*
X55300880Y-92207442D01*
X53051165Y-93005728D02*
X53776880Y-93005728D01*
X53776880Y-91481728D01*
X52543165Y-92207442D02*
X52035165Y-92207442D01*
X51817451Y-93005728D02*
X52543165Y-93005728D01*
X52543165Y-91481728D01*
X51817451Y-91481728D01*
X51164308Y-93005728D02*
X51164308Y-91481728D01*
X50801451Y-91481728D01*
X50583737Y-91554300D01*
X50438594Y-91699442D01*
X50366022Y-91844585D01*
X50293451Y-92134871D01*
X50293451Y-92352585D01*
X50366022Y-92642871D01*
X50438594Y-92788014D01*
X50583737Y-92933157D01*
X50801451Y-93005728D01*
X51164308Y-93005728D01*
X88103165Y-94072528D02*
X87740308Y-95596528D01*
X87450022Y-94507957D01*
X87159737Y-95596528D01*
X86796880Y-94072528D01*
X85345451Y-95596528D02*
X85853451Y-94870814D01*
X86216308Y-95596528D02*
X86216308Y-94072528D01*
X85635737Y-94072528D01*
X85490594Y-94145100D01*
X85418022Y-94217671D01*
X85345451Y-94362814D01*
X85345451Y-94580528D01*
X85418022Y-94725671D01*
X85490594Y-94798242D01*
X85635737Y-94870814D01*
X86216308Y-94870814D01*
X82370022Y-94798242D02*
X81208880Y-94798242D01*
X81208880Y-95233671D02*
X82370022Y-95233671D01*
X79031737Y-94072528D02*
X78741451Y-94072528D01*
X78596308Y-94145100D01*
X78451165Y-94290242D01*
X78378594Y-94580528D01*
X78378594Y-95088528D01*
X78451165Y-95378814D01*
X78596308Y-95523957D01*
X78741451Y-95596528D01*
X79031737Y-95596528D01*
X79176880Y-95523957D01*
X79322022Y-95378814D01*
X79394594Y-95088528D01*
X79394594Y-94580528D01*
X79322022Y-94290242D01*
X79176880Y-94145100D01*
X79031737Y-94072528D01*
X77725451Y-95596528D02*
X77725451Y-94072528D01*
X76854594Y-95596528D01*
X76854594Y-94072528D01*
X74967737Y-95015957D02*
X73806594Y-95015957D01*
X71411737Y-94798242D02*
X71194022Y-94870814D01*
X71121451Y-94943385D01*
X71048880Y-95088528D01*
X71048880Y-95306242D01*
X71121451Y-95451385D01*
X71194022Y-95523957D01*
X71339165Y-95596528D01*
X71919737Y-95596528D01*
X71919737Y-94072528D01*
X71411737Y-94072528D01*
X71266594Y-94145100D01*
X71194022Y-94217671D01*
X71121451Y-94362814D01*
X71121451Y-94507957D01*
X71194022Y-94653100D01*
X71266594Y-94725671D01*
X71411737Y-94798242D01*
X71919737Y-94798242D01*
X70395737Y-95596528D02*
X70395737Y-94072528D01*
X69379737Y-94072528D02*
X69089451Y-94072528D01*
X68944308Y-94145100D01*
X68799165Y-94290242D01*
X68726594Y-94580528D01*
X68726594Y-95088528D01*
X68799165Y-95378814D01*
X68944308Y-95523957D01*
X69089451Y-95596528D01*
X69379737Y-95596528D01*
X69524880Y-95523957D01*
X69670022Y-95378814D01*
X69742594Y-95088528D01*
X69742594Y-94580528D01*
X69670022Y-94290242D01*
X69524880Y-94145100D01*
X69379737Y-94072528D01*
X68146022Y-95523957D02*
X67928308Y-95596528D01*
X67565451Y-95596528D01*
X67420308Y-95523957D01*
X67347737Y-95451385D01*
X67275165Y-95306242D01*
X67275165Y-95161100D01*
X67347737Y-95015957D01*
X67420308Y-94943385D01*
X67565451Y-94870814D01*
X67855737Y-94798242D01*
X68000880Y-94725671D01*
X68073451Y-94653100D01*
X68146022Y-94507957D01*
X68146022Y-94362814D01*
X68073451Y-94217671D01*
X68000880Y-94145100D01*
X67855737Y-94072528D01*
X67492880Y-94072528D01*
X67275165Y-94145100D01*
X65606022Y-94072528D02*
X65243165Y-95596528D01*
X64952880Y-94507957D01*
X64662594Y-95596528D01*
X64299737Y-94072528D01*
X62848308Y-95596528D02*
X63356308Y-94870814D01*
X63719165Y-95596528D02*
X63719165Y-94072528D01*
X63138594Y-94072528D01*
X62993451Y-94145100D01*
X62920880Y-94217671D01*
X62848308Y-94362814D01*
X62848308Y-94580528D01*
X62920880Y-94725671D01*
X62993451Y-94798242D01*
X63138594Y-94870814D01*
X63719165Y-94870814D01*
X62195165Y-95596528D02*
X62195165Y-94072528D01*
X61687165Y-94072528D02*
X60816308Y-94072528D01*
X61251737Y-95596528D02*
X61251737Y-94072528D01*
X60308308Y-94798242D02*
X59800308Y-94798242D01*
X59582594Y-95596528D02*
X60308308Y-95596528D01*
X60308308Y-94072528D01*
X59582594Y-94072528D01*
X57768308Y-94798242D02*
X57260308Y-94798242D01*
X57042594Y-95596528D02*
X57768308Y-95596528D01*
X57768308Y-94072528D01*
X57042594Y-94072528D01*
X56389451Y-95596528D02*
X56389451Y-94072528D01*
X55518594Y-95596528D01*
X55518594Y-94072528D01*
X54865451Y-95161100D02*
X54139737Y-95161100D01*
X55010594Y-95596528D02*
X54502594Y-94072528D01*
X53994594Y-95596528D01*
X52978594Y-94798242D02*
X52760880Y-94870814D01*
X52688308Y-94943385D01*
X52615737Y-95088528D01*
X52615737Y-95306242D01*
X52688308Y-95451385D01*
X52760880Y-95523957D01*
X52906022Y-95596528D01*
X53486594Y-95596528D01*
X53486594Y-94072528D01*
X52978594Y-94072528D01*
X52833451Y-94145100D01*
X52760880Y-94217671D01*
X52688308Y-94362814D01*
X52688308Y-94507957D01*
X52760880Y-94653100D01*
X52833451Y-94725671D01*
X52978594Y-94798242D01*
X53486594Y-94798242D01*
X51236880Y-95596528D02*
X51962594Y-95596528D01*
X51962594Y-94072528D01*
X50728880Y-94798242D02*
X50220880Y-94798242D01*
X50003165Y-95596528D02*
X50728880Y-95596528D01*
X50728880Y-94072528D01*
X50003165Y-94072528D01*
X136091022Y-100955928D02*
X136091022Y-99431928D01*
X135075022Y-99431928D02*
X134784737Y-99431928D01*
X134639594Y-99504500D01*
X134494451Y-99649642D01*
X134421880Y-99939928D01*
X134421880Y-100447928D01*
X134494451Y-100738214D01*
X134639594Y-100883357D01*
X134784737Y-100955928D01*
X135075022Y-100955928D01*
X135220165Y-100883357D01*
X135365308Y-100738214D01*
X135437880Y-100447928D01*
X135437880Y-99939928D01*
X135365308Y-99649642D01*
X135220165Y-99504500D01*
X135075022Y-99431928D01*
X131519022Y-102167871D02*
X131446451Y-102095300D01*
X131301308Y-102022728D01*
X130938451Y-102022728D01*
X130793308Y-102095300D01*
X130720737Y-102167871D01*
X130648165Y-102313014D01*
X130648165Y-102458157D01*
X130720737Y-102675871D01*
X131591594Y-103546728D01*
X130648165Y-103546728D01*
X128906451Y-102167871D02*
X128833880Y-102095300D01*
X128688737Y-102022728D01*
X128325880Y-102022728D01*
X128180737Y-102095300D01*
X128108165Y-102167871D01*
X128035594Y-102313014D01*
X128035594Y-102458157D01*
X128108165Y-102675871D01*
X128979022Y-103546728D01*
X128035594Y-103546728D01*
X126293880Y-102167871D02*
X126221308Y-102095300D01*
X126076165Y-102022728D01*
X125713308Y-102022728D01*
X125568165Y-102095300D01*
X125495594Y-102167871D01*
X125423022Y-102313014D01*
X125423022Y-102458157D01*
X125495594Y-102675871D01*
X126366451Y-103546728D01*
X125423022Y-103546728D01*
X123681308Y-102167871D02*
X123608737Y-102095300D01*
X123463594Y-102022728D01*
X123100737Y-102022728D01*
X122955594Y-102095300D01*
X122883022Y-102167871D01*
X122810451Y-102313014D01*
X122810451Y-102458157D01*
X122883022Y-102675871D01*
X123753880Y-103546728D01*
X122810451Y-103546728D01*
X121141308Y-102022728D02*
X120197880Y-102022728D01*
X120705880Y-102603300D01*
X120488165Y-102603300D01*
X120343022Y-102675871D01*
X120270451Y-102748442D01*
X120197880Y-102893585D01*
X120197880Y-103256442D01*
X120270451Y-103401585D01*
X120343022Y-103474157D01*
X120488165Y-103546728D01*
X120923594Y-103546728D01*
X121068737Y-103474157D01*
X121141308Y-103401585D01*
X118528737Y-102022728D02*
X117585308Y-102022728D01*
X118093308Y-102603300D01*
X117875594Y-102603300D01*
X117730451Y-102675871D01*
X117657880Y-102748442D01*
X117585308Y-102893585D01*
X117585308Y-103256442D01*
X117657880Y-103401585D01*
X117730451Y-103474157D01*
X117875594Y-103546728D01*
X118311022Y-103546728D01*
X118456165Y-103474157D01*
X118528737Y-103401585D01*
X115916165Y-102022728D02*
X114972737Y-102022728D01*
X115480737Y-102603300D01*
X115263022Y-102603300D01*
X115117880Y-102675871D01*
X115045308Y-102748442D01*
X114972737Y-102893585D01*
X114972737Y-103256442D01*
X115045308Y-103401585D01*
X115117880Y-103474157D01*
X115263022Y-103546728D01*
X115698451Y-103546728D01*
X115843594Y-103474157D01*
X115916165Y-103401585D01*
X113303594Y-102022728D02*
X112360165Y-102022728D01*
X112868165Y-102603300D01*
X112650451Y-102603300D01*
X112505308Y-102675871D01*
X112432737Y-102748442D01*
X112360165Y-102893585D01*
X112360165Y-103256442D01*
X112432737Y-103401585D01*
X112505308Y-103474157D01*
X112650451Y-103546728D01*
X113085880Y-103546728D01*
X113231022Y-103474157D01*
X113303594Y-103401585D01*
X131156165Y-104613528D02*
X131011022Y-104613528D01*
X130865880Y-104686100D01*
X130793308Y-104758671D01*
X130720737Y-104903814D01*
X130648165Y-105194100D01*
X130648165Y-105556957D01*
X130720737Y-105847242D01*
X130793308Y-105992385D01*
X130865880Y-106064957D01*
X131011022Y-106137528D01*
X131156165Y-106137528D01*
X131301308Y-106064957D01*
X131373880Y-105992385D01*
X131446451Y-105847242D01*
X131519022Y-105556957D01*
X131519022Y-105194100D01*
X131446451Y-104903814D01*
X131373880Y-104758671D01*
X131301308Y-104686100D01*
X131156165Y-104613528D01*
X128180737Y-105121528D02*
X128180737Y-106137528D01*
X128543594Y-104540957D02*
X128906451Y-105629528D01*
X127963022Y-105629528D01*
X126003594Y-105266671D02*
X126148737Y-105194100D01*
X126221308Y-105121528D01*
X126293880Y-104976385D01*
X126293880Y-104903814D01*
X126221308Y-104758671D01*
X126148737Y-104686100D01*
X126003594Y-104613528D01*
X125713308Y-104613528D01*
X125568165Y-104686100D01*
X125495594Y-104758671D01*
X125423022Y-104903814D01*
X125423022Y-104976385D01*
X125495594Y-105121528D01*
X125568165Y-105194100D01*
X125713308Y-105266671D01*
X126003594Y-105266671D01*
X126148737Y-105339242D01*
X126221308Y-105411814D01*
X126293880Y-105556957D01*
X126293880Y-105847242D01*
X126221308Y-105992385D01*
X126148737Y-106064957D01*
X126003594Y-106137528D01*
X125713308Y-106137528D01*
X125568165Y-106064957D01*
X125495594Y-105992385D01*
X125423022Y-105847242D01*
X125423022Y-105556957D01*
X125495594Y-105411814D01*
X125568165Y-105339242D01*
X125713308Y-105266671D01*
X122737880Y-105992385D02*
X122810451Y-106064957D01*
X123028165Y-106137528D01*
X123173308Y-106137528D01*
X123391022Y-106064957D01*
X123536165Y-105919814D01*
X123608737Y-105774671D01*
X123681308Y-105484385D01*
X123681308Y-105266671D01*
X123608737Y-104976385D01*
X123536165Y-104831242D01*
X123391022Y-104686100D01*
X123173308Y-104613528D01*
X123028165Y-104613528D01*
X122810451Y-104686100D01*
X122737880Y-104758671D01*
X120633308Y-104613528D02*
X120488165Y-104613528D01*
X120343022Y-104686100D01*
X120270451Y-104758671D01*
X120197880Y-104903814D01*
X120125308Y-105194100D01*
X120125308Y-105556957D01*
X120197880Y-105847242D01*
X120270451Y-105992385D01*
X120343022Y-106064957D01*
X120488165Y-106137528D01*
X120633308Y-106137528D01*
X120778451Y-106064957D01*
X120851022Y-105992385D01*
X120923594Y-105847242D01*
X120996165Y-105556957D01*
X120996165Y-105194100D01*
X120923594Y-104903814D01*
X120851022Y-104758671D01*
X120778451Y-104686100D01*
X120633308Y-104613528D01*
X117657880Y-105121528D02*
X117657880Y-106137528D01*
X118020737Y-104540957D02*
X118383594Y-105629528D01*
X117440165Y-105629528D01*
X115480737Y-105266671D02*
X115625880Y-105194100D01*
X115698451Y-105121528D01*
X115771022Y-104976385D01*
X115771022Y-104903814D01*
X115698451Y-104758671D01*
X115625880Y-104686100D01*
X115480737Y-104613528D01*
X115190451Y-104613528D01*
X115045308Y-104686100D01*
X114972737Y-104758671D01*
X114900165Y-104903814D01*
X114900165Y-104976385D01*
X114972737Y-105121528D01*
X115045308Y-105194100D01*
X115190451Y-105266671D01*
X115480737Y-105266671D01*
X115625880Y-105339242D01*
X115698451Y-105411814D01*
X115771022Y-105556957D01*
X115771022Y-105847242D01*
X115698451Y-105992385D01*
X115625880Y-106064957D01*
X115480737Y-106137528D01*
X115190451Y-106137528D01*
X115045308Y-106064957D01*
X114972737Y-105992385D01*
X114900165Y-105847242D01*
X114900165Y-105556957D01*
X114972737Y-105411814D01*
X115045308Y-105339242D01*
X115190451Y-105266671D01*
X112215022Y-105992385D02*
X112287594Y-106064957D01*
X112505308Y-106137528D01*
X112650451Y-106137528D01*
X112868165Y-106064957D01*
X113013308Y-105919814D01*
X113085880Y-105774671D01*
X113158451Y-105484385D01*
X113158451Y-105266671D01*
X113085880Y-104976385D01*
X113013308Y-104831242D01*
X112868165Y-104686100D01*
X112650451Y-104613528D01*
X112505308Y-104613528D01*
X112287594Y-104686100D01*
X112215022Y-104758671D01*
X131156165Y-107204328D02*
X131011022Y-107204328D01*
X130865880Y-107276900D01*
X130793308Y-107349471D01*
X130720737Y-107494614D01*
X130648165Y-107784900D01*
X130648165Y-108147757D01*
X130720737Y-108438042D01*
X130793308Y-108583185D01*
X130865880Y-108655757D01*
X131011022Y-108728328D01*
X131156165Y-108728328D01*
X131301308Y-108655757D01*
X131373880Y-108583185D01*
X131446451Y-108438042D01*
X131519022Y-108147757D01*
X131519022Y-107784900D01*
X131446451Y-107494614D01*
X131373880Y-107349471D01*
X131301308Y-107276900D01*
X131156165Y-107204328D01*
X128543594Y-107204328D02*
X128398451Y-107204328D01*
X128253308Y-107276900D01*
X128180737Y-107349471D01*
X128108165Y-107494614D01*
X128035594Y-107784900D01*
X128035594Y-108147757D01*
X128108165Y-108438042D01*
X128180737Y-108583185D01*
X128253308Y-108655757D01*
X128398451Y-108728328D01*
X128543594Y-108728328D01*
X128688737Y-108655757D01*
X128761308Y-108583185D01*
X128833880Y-108438042D01*
X128906451Y-108147757D01*
X128906451Y-107784900D01*
X128833880Y-107494614D01*
X128761308Y-107349471D01*
X128688737Y-107276900D01*
X128543594Y-107204328D01*
X125931022Y-107204328D02*
X125785880Y-107204328D01*
X125640737Y-107276900D01*
X125568165Y-107349471D01*
X125495594Y-107494614D01*
X125423022Y-107784900D01*
X125423022Y-108147757D01*
X125495594Y-108438042D01*
X125568165Y-108583185D01*
X125640737Y-108655757D01*
X125785880Y-108728328D01*
X125931022Y-108728328D01*
X126076165Y-108655757D01*
X126148737Y-108583185D01*
X126221308Y-108438042D01*
X126293880Y-108147757D01*
X126293880Y-107784900D01*
X126221308Y-107494614D01*
X126148737Y-107349471D01*
X126076165Y-107276900D01*
X125931022Y-107204328D01*
X123318451Y-107204328D02*
X123173308Y-107204328D01*
X123028165Y-107276900D01*
X122955594Y-107349471D01*
X122883022Y-107494614D01*
X122810451Y-107784900D01*
X122810451Y-108147757D01*
X122883022Y-108438042D01*
X122955594Y-108583185D01*
X123028165Y-108655757D01*
X123173308Y-108728328D01*
X123318451Y-108728328D01*
X123463594Y-108655757D01*
X123536165Y-108583185D01*
X123608737Y-108438042D01*
X123681308Y-108147757D01*
X123681308Y-107784900D01*
X123608737Y-107494614D01*
X123536165Y-107349471D01*
X123463594Y-107276900D01*
X123318451Y-107204328D01*
X120705880Y-107204328D02*
X120560737Y-107204328D01*
X120415594Y-107276900D01*
X120343022Y-107349471D01*
X120270451Y-107494614D01*
X120197880Y-107784900D01*
X120197880Y-108147757D01*
X120270451Y-108438042D01*
X120343022Y-108583185D01*
X120415594Y-108655757D01*
X120560737Y-108728328D01*
X120705880Y-108728328D01*
X120851022Y-108655757D01*
X120923594Y-108583185D01*
X120996165Y-108438042D01*
X121068737Y-108147757D01*
X121068737Y-107784900D01*
X120996165Y-107494614D01*
X120923594Y-107349471D01*
X120851022Y-107276900D01*
X120705880Y-107204328D01*
X118093308Y-107204328D02*
X117948165Y-107204328D01*
X117803022Y-107276900D01*
X117730451Y-107349471D01*
X117657880Y-107494614D01*
X117585308Y-107784900D01*
X117585308Y-108147757D01*
X117657880Y-108438042D01*
X117730451Y-108583185D01*
X117803022Y-108655757D01*
X117948165Y-108728328D01*
X118093308Y-108728328D01*
X118238451Y-108655757D01*
X118311022Y-108583185D01*
X118383594Y-108438042D01*
X118456165Y-108147757D01*
X118456165Y-107784900D01*
X118383594Y-107494614D01*
X118311022Y-107349471D01*
X118238451Y-107276900D01*
X118093308Y-107204328D01*
X115480737Y-107204328D02*
X115335594Y-107204328D01*
X115190451Y-107276900D01*
X115117880Y-107349471D01*
X115045308Y-107494614D01*
X114972737Y-107784900D01*
X114972737Y-108147757D01*
X115045308Y-108438042D01*
X115117880Y-108583185D01*
X115190451Y-108655757D01*
X115335594Y-108728328D01*
X115480737Y-108728328D01*
X115625880Y-108655757D01*
X115698451Y-108583185D01*
X115771022Y-108438042D01*
X115843594Y-108147757D01*
X115843594Y-107784900D01*
X115771022Y-107494614D01*
X115698451Y-107349471D01*
X115625880Y-107276900D01*
X115480737Y-107204328D01*
X112868165Y-107204328D02*
X112723022Y-107204328D01*
X112577880Y-107276900D01*
X112505308Y-107349471D01*
X112432737Y-107494614D01*
X112360165Y-107784900D01*
X112360165Y-108147757D01*
X112432737Y-108438042D01*
X112505308Y-108583185D01*
X112577880Y-108655757D01*
X112723022Y-108728328D01*
X112868165Y-108728328D01*
X113013308Y-108655757D01*
X113085880Y-108583185D01*
X113158451Y-108438042D01*
X113231022Y-108147757D01*
X113231022Y-107784900D01*
X113158451Y-107494614D01*
X113085880Y-107349471D01*
X113013308Y-107276900D01*
X112868165Y-107204328D01*
X136163594Y-113474500D02*
X135437880Y-113474500D01*
X136308737Y-113909928D02*
X135800737Y-112385928D01*
X135292737Y-113909928D01*
X134712165Y-113909928D02*
X134421880Y-113909928D01*
X134276737Y-113837357D01*
X134204165Y-113764785D01*
X134059022Y-113547071D01*
X133986451Y-113256785D01*
X133986451Y-112676214D01*
X134059022Y-112531071D01*
X134131594Y-112458500D01*
X134276737Y-112385928D01*
X134567022Y-112385928D01*
X134712165Y-112458500D01*
X134784737Y-112531071D01*
X134857308Y-112676214D01*
X134857308Y-113039071D01*
X134784737Y-113184214D01*
X134712165Y-113256785D01*
X134567022Y-113329357D01*
X134276737Y-113329357D01*
X134131594Y-113256785D01*
X134059022Y-113184214D01*
X133986451Y-113039071D01*
X131373880Y-113909928D02*
X132244737Y-113909928D01*
X131809308Y-113909928D02*
X131809308Y-112385928D01*
X131954451Y-112603642D01*
X132099594Y-112748785D01*
X132244737Y-112821357D01*
X128761308Y-113909928D02*
X129632165Y-113909928D01*
X129196737Y-113909928D02*
X129196737Y-112385928D01*
X129341880Y-112603642D01*
X129487022Y-112748785D01*
X129632165Y-112821357D01*
X126148737Y-113909928D02*
X127019594Y-113909928D01*
X126584165Y-113909928D02*
X126584165Y-112385928D01*
X126729308Y-112603642D01*
X126874451Y-112748785D01*
X127019594Y-112821357D01*
X123536165Y-113909928D02*
X124407022Y-113909928D01*
X123971594Y-113909928D02*
X123971594Y-112385928D01*
X124116737Y-112603642D01*
X124261880Y-112748785D01*
X124407022Y-112821357D01*
X120923594Y-113909928D02*
X121794451Y-113909928D01*
X121359022Y-113909928D02*
X121359022Y-112385928D01*
X121504165Y-112603642D01*
X121649308Y-112748785D01*
X121794451Y-112821357D01*
X118311022Y-113909928D02*
X119181880Y-113909928D01*
X118746451Y-113909928D02*
X118746451Y-112385928D01*
X118891594Y-112603642D01*
X119036737Y-112748785D01*
X119181880Y-112821357D01*
X115698451Y-113909928D02*
X116569308Y-113909928D01*
X116133880Y-113909928D02*
X116133880Y-112385928D01*
X116279022Y-112603642D01*
X116424165Y-112748785D01*
X116569308Y-112821357D01*
X113085880Y-113909928D02*
X113956737Y-113909928D01*
X113521308Y-113909928D02*
X113521308Y-112385928D01*
X113666451Y-112603642D01*
X113811594Y-112748785D01*
X113956737Y-112821357D01*
X136163594Y-116065300D02*
X135437880Y-116065300D01*
X136308737Y-116500728D02*
X135800737Y-114976728D01*
X135292737Y-116500728D01*
X134567022Y-115629871D02*
X134712165Y-115557300D01*
X134784737Y-115484728D01*
X134857308Y-115339585D01*
X134857308Y-115267014D01*
X134784737Y-115121871D01*
X134712165Y-115049300D01*
X134567022Y-114976728D01*
X134276737Y-114976728D01*
X134131594Y-115049300D01*
X134059022Y-115121871D01*
X133986451Y-115267014D01*
X133986451Y-115339585D01*
X134059022Y-115484728D01*
X134131594Y-115557300D01*
X134276737Y-115629871D01*
X134567022Y-115629871D01*
X134712165Y-115702442D01*
X134784737Y-115775014D01*
X134857308Y-115920157D01*
X134857308Y-116210442D01*
X134784737Y-116355585D01*
X134712165Y-116428157D01*
X134567022Y-116500728D01*
X134276737Y-116500728D01*
X134131594Y-116428157D01*
X134059022Y-116355585D01*
X133986451Y-116210442D01*
X133986451Y-115920157D01*
X134059022Y-115775014D01*
X134131594Y-115702442D01*
X134276737Y-115629871D01*
X131881880Y-114976728D02*
X131736737Y-114976728D01*
X131591594Y-115049300D01*
X131519022Y-115121871D01*
X131446451Y-115267014D01*
X131373880Y-115557300D01*
X131373880Y-115920157D01*
X131446451Y-116210442D01*
X131519022Y-116355585D01*
X131591594Y-116428157D01*
X131736737Y-116500728D01*
X131881880Y-116500728D01*
X132027022Y-116428157D01*
X132099594Y-116355585D01*
X132172165Y-116210442D01*
X132244737Y-115920157D01*
X132244737Y-115557300D01*
X132172165Y-115267014D01*
X132099594Y-115121871D01*
X132027022Y-115049300D01*
X131881880Y-114976728D01*
X129269308Y-114976728D02*
X129124165Y-114976728D01*
X128979022Y-115049300D01*
X128906451Y-115121871D01*
X128833880Y-115267014D01*
X128761308Y-115557300D01*
X128761308Y-115920157D01*
X128833880Y-116210442D01*
X128906451Y-116355585D01*
X128979022Y-116428157D01*
X129124165Y-116500728D01*
X129269308Y-116500728D01*
X129414451Y-116428157D01*
X129487022Y-116355585D01*
X129559594Y-116210442D01*
X129632165Y-115920157D01*
X129632165Y-115557300D01*
X129559594Y-115267014D01*
X129487022Y-115121871D01*
X129414451Y-115049300D01*
X129269308Y-114976728D01*
X126656737Y-114976728D02*
X126511594Y-114976728D01*
X126366451Y-115049300D01*
X126293880Y-115121871D01*
X126221308Y-115267014D01*
X126148737Y-115557300D01*
X126148737Y-115920157D01*
X126221308Y-116210442D01*
X126293880Y-116355585D01*
X126366451Y-116428157D01*
X126511594Y-116500728D01*
X126656737Y-116500728D01*
X126801880Y-116428157D01*
X126874451Y-116355585D01*
X126947022Y-116210442D01*
X127019594Y-115920157D01*
X127019594Y-115557300D01*
X126947022Y-115267014D01*
X126874451Y-115121871D01*
X126801880Y-115049300D01*
X126656737Y-114976728D01*
X124044165Y-114976728D02*
X123899022Y-114976728D01*
X123753880Y-115049300D01*
X123681308Y-115121871D01*
X123608737Y-115267014D01*
X123536165Y-115557300D01*
X123536165Y-115920157D01*
X123608737Y-116210442D01*
X123681308Y-116355585D01*
X123753880Y-116428157D01*
X123899022Y-116500728D01*
X124044165Y-116500728D01*
X124189308Y-116428157D01*
X124261880Y-116355585D01*
X124334451Y-116210442D01*
X124407022Y-115920157D01*
X124407022Y-115557300D01*
X124334451Y-115267014D01*
X124261880Y-115121871D01*
X124189308Y-115049300D01*
X124044165Y-114976728D01*
X120923594Y-116500728D02*
X121794451Y-116500728D01*
X121359022Y-116500728D02*
X121359022Y-114976728D01*
X121504165Y-115194442D01*
X121649308Y-115339585D01*
X121794451Y-115412157D01*
X118311022Y-116500728D02*
X119181880Y-116500728D01*
X118746451Y-116500728D02*
X118746451Y-114976728D01*
X118891594Y-115194442D01*
X119036737Y-115339585D01*
X119181880Y-115412157D01*
X115698451Y-116500728D02*
X116569308Y-116500728D01*
X116133880Y-116500728D02*
X116133880Y-114976728D01*
X116279022Y-115194442D01*
X116424165Y-115339585D01*
X116569308Y-115412157D01*
X113085880Y-116500728D02*
X113956737Y-116500728D01*
X113521308Y-116500728D02*
X113521308Y-114976728D01*
X113666451Y-115194442D01*
X113811594Y-115339585D01*
X113956737Y-115412157D01*
X136163594Y-118656100D02*
X135437880Y-118656100D01*
X136308737Y-119091528D02*
X135800737Y-117567528D01*
X135292737Y-119091528D01*
X134929880Y-117567528D02*
X133913880Y-117567528D01*
X134567022Y-119091528D01*
X131881880Y-117567528D02*
X131736737Y-117567528D01*
X131591594Y-117640100D01*
X131519022Y-117712671D01*
X131446451Y-117857814D01*
X131373880Y-118148100D01*
X131373880Y-118510957D01*
X131446451Y-118801242D01*
X131519022Y-118946385D01*
X131591594Y-119018957D01*
X131736737Y-119091528D01*
X131881880Y-119091528D01*
X132027022Y-119018957D01*
X132099594Y-118946385D01*
X132172165Y-118801242D01*
X132244737Y-118510957D01*
X132244737Y-118148100D01*
X132172165Y-117857814D01*
X132099594Y-117712671D01*
X132027022Y-117640100D01*
X131881880Y-117567528D01*
X129269308Y-117567528D02*
X129124165Y-117567528D01*
X128979022Y-117640100D01*
X128906451Y-117712671D01*
X128833880Y-117857814D01*
X128761308Y-118148100D01*
X128761308Y-118510957D01*
X128833880Y-118801242D01*
X128906451Y-118946385D01*
X128979022Y-119018957D01*
X129124165Y-119091528D01*
X129269308Y-119091528D01*
X129414451Y-119018957D01*
X129487022Y-118946385D01*
X129559594Y-118801242D01*
X129632165Y-118510957D01*
X129632165Y-118148100D01*
X129559594Y-117857814D01*
X129487022Y-117712671D01*
X129414451Y-117640100D01*
X129269308Y-117567528D01*
X126148737Y-119091528D02*
X127019594Y-119091528D01*
X126584165Y-119091528D02*
X126584165Y-117567528D01*
X126729308Y-117785242D01*
X126874451Y-117930385D01*
X127019594Y-118002957D01*
X123536165Y-119091528D02*
X124407022Y-119091528D01*
X123971594Y-119091528D02*
X123971594Y-117567528D01*
X124116737Y-117785242D01*
X124261880Y-117930385D01*
X124407022Y-118002957D01*
X121431594Y-117567528D02*
X121286451Y-117567528D01*
X121141308Y-117640100D01*
X121068737Y-117712671D01*
X120996165Y-117857814D01*
X120923594Y-118148100D01*
X120923594Y-118510957D01*
X120996165Y-118801242D01*
X121068737Y-118946385D01*
X121141308Y-119018957D01*
X121286451Y-119091528D01*
X121431594Y-119091528D01*
X121576737Y-119018957D01*
X121649308Y-118946385D01*
X121721880Y-118801242D01*
X121794451Y-118510957D01*
X121794451Y-118148100D01*
X121721880Y-117857814D01*
X121649308Y-117712671D01*
X121576737Y-117640100D01*
X121431594Y-117567528D01*
X118819022Y-117567528D02*
X118673880Y-117567528D01*
X118528737Y-117640100D01*
X118456165Y-117712671D01*
X118383594Y-117857814D01*
X118311022Y-118148100D01*
X118311022Y-118510957D01*
X118383594Y-118801242D01*
X118456165Y-118946385D01*
X118528737Y-119018957D01*
X118673880Y-119091528D01*
X118819022Y-119091528D01*
X118964165Y-119018957D01*
X119036737Y-118946385D01*
X119109308Y-118801242D01*
X119181880Y-118510957D01*
X119181880Y-118148100D01*
X119109308Y-117857814D01*
X119036737Y-117712671D01*
X118964165Y-117640100D01*
X118819022Y-117567528D01*
X115698451Y-119091528D02*
X116569308Y-119091528D01*
X116133880Y-119091528D02*
X116133880Y-117567528D01*
X116279022Y-117785242D01*
X116424165Y-117930385D01*
X116569308Y-118002957D01*
X113085880Y-119091528D02*
X113956737Y-119091528D01*
X113521308Y-119091528D02*
X113521308Y-117567528D01*
X113666451Y-117785242D01*
X113811594Y-117930385D01*
X113956737Y-118002957D01*
X136163594Y-121246900D02*
X135437880Y-121246900D01*
X136308737Y-121682328D02*
X135800737Y-120158328D01*
X135292737Y-121682328D01*
X134131594Y-120158328D02*
X134421880Y-120158328D01*
X134567022Y-120230900D01*
X134639594Y-120303471D01*
X134784737Y-120521185D01*
X134857308Y-120811471D01*
X134857308Y-121392042D01*
X134784737Y-121537185D01*
X134712165Y-121609757D01*
X134567022Y-121682328D01*
X134276737Y-121682328D01*
X134131594Y-121609757D01*
X134059022Y-121537185D01*
X133986451Y-121392042D01*
X133986451Y-121029185D01*
X134059022Y-120884042D01*
X134131594Y-120811471D01*
X134276737Y-120738900D01*
X134567022Y-120738900D01*
X134712165Y-120811471D01*
X134784737Y-120884042D01*
X134857308Y-121029185D01*
X131881880Y-120158328D02*
X131736737Y-120158328D01*
X131591594Y-120230900D01*
X131519022Y-120303471D01*
X131446451Y-120448614D01*
X131373880Y-120738900D01*
X131373880Y-121101757D01*
X131446451Y-121392042D01*
X131519022Y-121537185D01*
X131591594Y-121609757D01*
X131736737Y-121682328D01*
X131881880Y-121682328D01*
X132027022Y-121609757D01*
X132099594Y-121537185D01*
X132172165Y-121392042D01*
X132244737Y-121101757D01*
X132244737Y-120738900D01*
X132172165Y-120448614D01*
X132099594Y-120303471D01*
X132027022Y-120230900D01*
X131881880Y-120158328D01*
X128761308Y-121682328D02*
X129632165Y-121682328D01*
X129196737Y-121682328D02*
X129196737Y-120158328D01*
X129341880Y-120376042D01*
X129487022Y-120521185D01*
X129632165Y-120593757D01*
X126656737Y-120158328D02*
X126511594Y-120158328D01*
X126366451Y-120230900D01*
X126293880Y-120303471D01*
X126221308Y-120448614D01*
X126148737Y-120738900D01*
X126148737Y-121101757D01*
X126221308Y-121392042D01*
X126293880Y-121537185D01*
X126366451Y-121609757D01*
X126511594Y-121682328D01*
X126656737Y-121682328D01*
X126801880Y-121609757D01*
X126874451Y-121537185D01*
X126947022Y-121392042D01*
X127019594Y-121101757D01*
X127019594Y-120738900D01*
X126947022Y-120448614D01*
X126874451Y-120303471D01*
X126801880Y-120230900D01*
X126656737Y-120158328D01*
X123536165Y-121682328D02*
X124407022Y-121682328D01*
X123971594Y-121682328D02*
X123971594Y-120158328D01*
X124116737Y-120376042D01*
X124261880Y-120521185D01*
X124407022Y-120593757D01*
X121431594Y-120158328D02*
X121286451Y-120158328D01*
X121141308Y-120230900D01*
X121068737Y-120303471D01*
X120996165Y-120448614D01*
X120923594Y-120738900D01*
X120923594Y-121101757D01*
X120996165Y-121392042D01*
X121068737Y-121537185D01*
X121141308Y-121609757D01*
X121286451Y-121682328D01*
X121431594Y-121682328D01*
X121576737Y-121609757D01*
X121649308Y-121537185D01*
X121721880Y-121392042D01*
X121794451Y-121101757D01*
X121794451Y-120738900D01*
X121721880Y-120448614D01*
X121649308Y-120303471D01*
X121576737Y-120230900D01*
X121431594Y-120158328D01*
X118311022Y-121682328D02*
X119181880Y-121682328D01*
X118746451Y-121682328D02*
X118746451Y-120158328D01*
X118891594Y-120376042D01*
X119036737Y-120521185D01*
X119181880Y-120593757D01*
X116206451Y-120158328D02*
X116061308Y-120158328D01*
X115916165Y-120230900D01*
X115843594Y-120303471D01*
X115771022Y-120448614D01*
X115698451Y-120738900D01*
X115698451Y-121101757D01*
X115771022Y-121392042D01*
X115843594Y-121537185D01*
X115916165Y-121609757D01*
X116061308Y-121682328D01*
X116206451Y-121682328D01*
X116351594Y-121609757D01*
X116424165Y-121537185D01*
X116496737Y-121392042D01*
X116569308Y-121101757D01*
X116569308Y-120738900D01*
X116496737Y-120448614D01*
X116424165Y-120303471D01*
X116351594Y-120230900D01*
X116206451Y-120158328D01*
X113085880Y-121682328D02*
X113956737Y-121682328D01*
X113521308Y-121682328D02*
X113521308Y-120158328D01*
X113666451Y-120376042D01*
X113811594Y-120521185D01*
X113956737Y-120593757D01*
X136163594Y-123837700D02*
X135437880Y-123837700D01*
X136308737Y-124273128D02*
X135800737Y-122749128D01*
X135292737Y-124273128D01*
X134059022Y-122749128D02*
X134784737Y-122749128D01*
X134857308Y-123474842D01*
X134784737Y-123402271D01*
X134639594Y-123329700D01*
X134276737Y-123329700D01*
X134131594Y-123402271D01*
X134059022Y-123474842D01*
X133986451Y-123619985D01*
X133986451Y-123982842D01*
X134059022Y-124127985D01*
X134131594Y-124200557D01*
X134276737Y-124273128D01*
X134639594Y-124273128D01*
X134784737Y-124200557D01*
X134857308Y-124127985D01*
X131881880Y-122749128D02*
X131736737Y-122749128D01*
X131591594Y-122821700D01*
X131519022Y-122894271D01*
X131446451Y-123039414D01*
X131373880Y-123329700D01*
X131373880Y-123692557D01*
X131446451Y-123982842D01*
X131519022Y-124127985D01*
X131591594Y-124200557D01*
X131736737Y-124273128D01*
X131881880Y-124273128D01*
X132027022Y-124200557D01*
X132099594Y-124127985D01*
X132172165Y-123982842D01*
X132244737Y-123692557D01*
X132244737Y-123329700D01*
X132172165Y-123039414D01*
X132099594Y-122894271D01*
X132027022Y-122821700D01*
X131881880Y-122749128D01*
X129269308Y-122749128D02*
X129124165Y-122749128D01*
X128979022Y-122821700D01*
X128906451Y-122894271D01*
X128833880Y-123039414D01*
X128761308Y-123329700D01*
X128761308Y-123692557D01*
X128833880Y-123982842D01*
X128906451Y-124127985D01*
X128979022Y-124200557D01*
X129124165Y-124273128D01*
X129269308Y-124273128D01*
X129414451Y-124200557D01*
X129487022Y-124127985D01*
X129559594Y-123982842D01*
X129632165Y-123692557D01*
X129632165Y-123329700D01*
X129559594Y-123039414D01*
X129487022Y-122894271D01*
X129414451Y-122821700D01*
X129269308Y-122749128D01*
X126656737Y-122749128D02*
X126511594Y-122749128D01*
X126366451Y-122821700D01*
X126293880Y-122894271D01*
X126221308Y-123039414D01*
X126148737Y-123329700D01*
X126148737Y-123692557D01*
X126221308Y-123982842D01*
X126293880Y-124127985D01*
X126366451Y-124200557D01*
X126511594Y-124273128D01*
X126656737Y-124273128D01*
X126801880Y-124200557D01*
X126874451Y-124127985D01*
X126947022Y-123982842D01*
X127019594Y-123692557D01*
X127019594Y-123329700D01*
X126947022Y-123039414D01*
X126874451Y-122894271D01*
X126801880Y-122821700D01*
X126656737Y-122749128D01*
X124044165Y-122749128D02*
X123899022Y-122749128D01*
X123753880Y-122821700D01*
X123681308Y-122894271D01*
X123608737Y-123039414D01*
X123536165Y-123329700D01*
X123536165Y-123692557D01*
X123608737Y-123982842D01*
X123681308Y-124127985D01*
X123753880Y-124200557D01*
X123899022Y-124273128D01*
X124044165Y-124273128D01*
X124189308Y-124200557D01*
X124261880Y-124127985D01*
X124334451Y-123982842D01*
X124407022Y-123692557D01*
X124407022Y-123329700D01*
X124334451Y-123039414D01*
X124261880Y-122894271D01*
X124189308Y-122821700D01*
X124044165Y-122749128D01*
X121431594Y-122749128D02*
X121286451Y-122749128D01*
X121141308Y-122821700D01*
X121068737Y-122894271D01*
X120996165Y-123039414D01*
X120923594Y-123329700D01*
X120923594Y-123692557D01*
X120996165Y-123982842D01*
X121068737Y-124127985D01*
X121141308Y-124200557D01*
X121286451Y-124273128D01*
X121431594Y-124273128D01*
X121576737Y-124200557D01*
X121649308Y-124127985D01*
X121721880Y-123982842D01*
X121794451Y-123692557D01*
X121794451Y-123329700D01*
X121721880Y-123039414D01*
X121649308Y-122894271D01*
X121576737Y-122821700D01*
X121431594Y-122749128D01*
X118819022Y-122749128D02*
X118673880Y-122749128D01*
X118528737Y-122821700D01*
X118456165Y-122894271D01*
X118383594Y-123039414D01*
X118311022Y-123329700D01*
X118311022Y-123692557D01*
X118383594Y-123982842D01*
X118456165Y-124127985D01*
X118528737Y-124200557D01*
X118673880Y-124273128D01*
X118819022Y-124273128D01*
X118964165Y-124200557D01*
X119036737Y-124127985D01*
X119109308Y-123982842D01*
X119181880Y-123692557D01*
X119181880Y-123329700D01*
X119109308Y-123039414D01*
X119036737Y-122894271D01*
X118964165Y-122821700D01*
X118819022Y-122749128D01*
X116206451Y-122749128D02*
X116061308Y-122749128D01*
X115916165Y-122821700D01*
X115843594Y-122894271D01*
X115771022Y-123039414D01*
X115698451Y-123329700D01*
X115698451Y-123692557D01*
X115771022Y-123982842D01*
X115843594Y-124127985D01*
X115916165Y-124200557D01*
X116061308Y-124273128D01*
X116206451Y-124273128D01*
X116351594Y-124200557D01*
X116424165Y-124127985D01*
X116496737Y-123982842D01*
X116569308Y-123692557D01*
X116569308Y-123329700D01*
X116496737Y-123039414D01*
X116424165Y-122894271D01*
X116351594Y-122821700D01*
X116206451Y-122749128D01*
X113593880Y-122749128D02*
X113448737Y-122749128D01*
X113303594Y-122821700D01*
X113231022Y-122894271D01*
X113158451Y-123039414D01*
X113085880Y-123329700D01*
X113085880Y-123692557D01*
X113158451Y-123982842D01*
X113231022Y-124127985D01*
X113303594Y-124200557D01*
X113448737Y-124273128D01*
X113593880Y-124273128D01*
X113739022Y-124200557D01*
X113811594Y-124127985D01*
X113884165Y-123982842D01*
X113956737Y-123692557D01*
X113956737Y-123329700D01*
X113884165Y-123039414D01*
X113811594Y-122894271D01*
X113739022Y-122821700D01*
X113593880Y-122749128D01*
X136163594Y-126428500D02*
X135437880Y-126428500D01*
X136308737Y-126863928D02*
X135800737Y-125339928D01*
X135292737Y-126863928D01*
X134131594Y-125847928D02*
X134131594Y-126863928D01*
X134494451Y-125267357D02*
X134857308Y-126355928D01*
X133913880Y-126355928D01*
X131881880Y-125339928D02*
X131736737Y-125339928D01*
X131591594Y-125412500D01*
X131519022Y-125485071D01*
X131446451Y-125630214D01*
X131373880Y-125920500D01*
X131373880Y-126283357D01*
X131446451Y-126573642D01*
X131519022Y-126718785D01*
X131591594Y-126791357D01*
X131736737Y-126863928D01*
X131881880Y-126863928D01*
X132027022Y-126791357D01*
X132099594Y-126718785D01*
X132172165Y-126573642D01*
X132244737Y-126283357D01*
X132244737Y-125920500D01*
X132172165Y-125630214D01*
X132099594Y-125485071D01*
X132027022Y-125412500D01*
X131881880Y-125339928D01*
X129269308Y-125339928D02*
X129124165Y-125339928D01*
X128979022Y-125412500D01*
X128906451Y-125485071D01*
X128833880Y-125630214D01*
X128761308Y-125920500D01*
X128761308Y-126283357D01*
X128833880Y-126573642D01*
X128906451Y-126718785D01*
X128979022Y-126791357D01*
X129124165Y-126863928D01*
X129269308Y-126863928D01*
X129414451Y-126791357D01*
X129487022Y-126718785D01*
X129559594Y-126573642D01*
X129632165Y-126283357D01*
X129632165Y-125920500D01*
X129559594Y-125630214D01*
X129487022Y-125485071D01*
X129414451Y-125412500D01*
X129269308Y-125339928D01*
X126656737Y-125339928D02*
X126511594Y-125339928D01*
X126366451Y-125412500D01*
X126293880Y-125485071D01*
X126221308Y-125630214D01*
X126148737Y-125920500D01*
X126148737Y-126283357D01*
X126221308Y-126573642D01*
X126293880Y-126718785D01*
X126366451Y-126791357D01*
X126511594Y-126863928D01*
X126656737Y-126863928D01*
X126801880Y-126791357D01*
X126874451Y-126718785D01*
X126947022Y-126573642D01*
X127019594Y-126283357D01*
X127019594Y-125920500D01*
X126947022Y-125630214D01*
X126874451Y-125485071D01*
X126801880Y-125412500D01*
X126656737Y-125339928D01*
X124044165Y-125339928D02*
X123899022Y-125339928D01*
X123753880Y-125412500D01*
X123681308Y-125485071D01*
X123608737Y-125630214D01*
X123536165Y-125920500D01*
X123536165Y-126283357D01*
X123608737Y-126573642D01*
X123681308Y-126718785D01*
X123753880Y-126791357D01*
X123899022Y-126863928D01*
X124044165Y-126863928D01*
X124189308Y-126791357D01*
X124261880Y-126718785D01*
X124334451Y-126573642D01*
X124407022Y-126283357D01*
X124407022Y-125920500D01*
X124334451Y-125630214D01*
X124261880Y-125485071D01*
X124189308Y-125412500D01*
X124044165Y-125339928D01*
X121431594Y-125339928D02*
X121286451Y-125339928D01*
X121141308Y-125412500D01*
X121068737Y-125485071D01*
X120996165Y-125630214D01*
X120923594Y-125920500D01*
X120923594Y-126283357D01*
X120996165Y-126573642D01*
X121068737Y-126718785D01*
X121141308Y-126791357D01*
X121286451Y-126863928D01*
X121431594Y-126863928D01*
X121576737Y-126791357D01*
X121649308Y-126718785D01*
X121721880Y-126573642D01*
X121794451Y-126283357D01*
X121794451Y-125920500D01*
X121721880Y-125630214D01*
X121649308Y-125485071D01*
X121576737Y-125412500D01*
X121431594Y-125339928D01*
X118819022Y-125339928D02*
X118673880Y-125339928D01*
X118528737Y-125412500D01*
X118456165Y-125485071D01*
X118383594Y-125630214D01*
X118311022Y-125920500D01*
X118311022Y-126283357D01*
X118383594Y-126573642D01*
X118456165Y-126718785D01*
X118528737Y-126791357D01*
X118673880Y-126863928D01*
X118819022Y-126863928D01*
X118964165Y-126791357D01*
X119036737Y-126718785D01*
X119109308Y-126573642D01*
X119181880Y-126283357D01*
X119181880Y-125920500D01*
X119109308Y-125630214D01*
X119036737Y-125485071D01*
X118964165Y-125412500D01*
X118819022Y-125339928D01*
X116206451Y-125339928D02*
X116061308Y-125339928D01*
X115916165Y-125412500D01*
X115843594Y-125485071D01*
X115771022Y-125630214D01*
X115698451Y-125920500D01*
X115698451Y-126283357D01*
X115771022Y-126573642D01*
X115843594Y-126718785D01*
X115916165Y-126791357D01*
X116061308Y-126863928D01*
X116206451Y-126863928D01*
X116351594Y-126791357D01*
X116424165Y-126718785D01*
X116496737Y-126573642D01*
X116569308Y-126283357D01*
X116569308Y-125920500D01*
X116496737Y-125630214D01*
X116424165Y-125485071D01*
X116351594Y-125412500D01*
X116206451Y-125339928D01*
X113593880Y-125339928D02*
X113448737Y-125339928D01*
X113303594Y-125412500D01*
X113231022Y-125485071D01*
X113158451Y-125630214D01*
X113085880Y-125920500D01*
X113085880Y-126283357D01*
X113158451Y-126573642D01*
X113231022Y-126718785D01*
X113303594Y-126791357D01*
X113448737Y-126863928D01*
X113593880Y-126863928D01*
X113739022Y-126791357D01*
X113811594Y-126718785D01*
X113884165Y-126573642D01*
X113956737Y-126283357D01*
X113956737Y-125920500D01*
X113884165Y-125630214D01*
X113811594Y-125485071D01*
X113739022Y-125412500D01*
X113593880Y-125339928D01*
D11*
%TO.C,REF\u002A\u002A*%
X45466000Y-101219000D02*
X45339000Y-100965000D01*
X45212000Y-101219000D02*
X45212000Y-100457000D01*
X44577000Y-101219000D02*
X44577000Y-100965000D01*
X44704000Y-101092000D02*
X44704000Y-100457000D01*
X44958000Y-101219000D02*
X44958000Y-99949000D01*
X44958000Y-99949000D02*
X44323000Y-101219000D01*
X44323000Y-101219000D02*
X45593000Y-101219000D01*
X45593000Y-101219000D02*
X44958000Y-99949000D01*
D12*
%TO.C,IDE2*%
X35278000Y-98857000D02*
X41748000Y-98857000D01*
X35278000Y-98742882D02*
X41748000Y-98742882D01*
X35278000Y-98628764D02*
X41748000Y-98628764D01*
X35278000Y-98514646D02*
X41748000Y-98514646D01*
X35278000Y-98400528D02*
X41748000Y-98400528D01*
X35278000Y-98286410D02*
X41748000Y-98286410D01*
X35278000Y-98172292D02*
X41748000Y-98172292D01*
X35278000Y-98058174D02*
X41748000Y-98058174D01*
X35278000Y-97944056D02*
X41748000Y-97944056D01*
X35278000Y-97829938D02*
X41748000Y-97829938D01*
X35278000Y-97715820D02*
X41748000Y-97715820D01*
X35278000Y-97601702D02*
X41748000Y-97601702D01*
X35278000Y-97487584D02*
X41748000Y-97487584D01*
X35278000Y-97373466D02*
X41748000Y-97373466D01*
X35278000Y-97259348D02*
X41748000Y-97259348D01*
X35278000Y-97145230D02*
X41748000Y-97145230D01*
X35278000Y-97031112D02*
X41748000Y-97031112D01*
X41748000Y-98277000D02*
X42095083Y-98277000D01*
X43820917Y-98277000D02*
X44023000Y-98277000D01*
X41748000Y-97557000D02*
X42095083Y-97557000D01*
X43820917Y-97557000D02*
X44023000Y-97557000D01*
X41748000Y-96277000D02*
X42095083Y-96277000D01*
X43820917Y-96277000D02*
X44095083Y-96277000D01*
X41748000Y-95557000D02*
X42095083Y-95557000D01*
X43820917Y-95557000D02*
X44095083Y-95557000D01*
X41748000Y-94277000D02*
X42095083Y-94277000D01*
X43820917Y-94277000D02*
X44095083Y-94277000D01*
X41748000Y-93557000D02*
X42095083Y-93557000D01*
X43820917Y-93557000D02*
X44095083Y-93557000D01*
X41748000Y-92277000D02*
X42095083Y-92277000D01*
X43820917Y-92277000D02*
X44095083Y-92277000D01*
X41748000Y-91557000D02*
X42095083Y-91557000D01*
X43820917Y-91557000D02*
X44095083Y-91557000D01*
X41748000Y-90277000D02*
X42095083Y-90277000D01*
X43820917Y-90277000D02*
X44095083Y-90277000D01*
X41748000Y-89557000D02*
X42095083Y-89557000D01*
X43820917Y-89557000D02*
X44095083Y-89557000D01*
X41748000Y-88277000D02*
X42095083Y-88277000D01*
X43820917Y-88277000D02*
X44095083Y-88277000D01*
X41748000Y-87557000D02*
X42095083Y-87557000D01*
X43820917Y-87557000D02*
X44095083Y-87557000D01*
X41748000Y-86277000D02*
X42095083Y-86277000D01*
X43820917Y-86277000D02*
X44095083Y-86277000D01*
X41748000Y-85557000D02*
X42095083Y-85557000D01*
X43820917Y-85557000D02*
X44095083Y-85557000D01*
X41748000Y-84277000D02*
X42095083Y-84277000D01*
X43820917Y-84277000D02*
X44095083Y-84277000D01*
X41748000Y-83557000D02*
X42095083Y-83557000D01*
X43820917Y-83557000D02*
X44095083Y-83557000D01*
X41748000Y-82277000D02*
X42095083Y-82277000D01*
X43820917Y-82277000D02*
X44095083Y-82277000D01*
X41748000Y-81557000D02*
X42095083Y-81557000D01*
X43820917Y-81557000D02*
X44095083Y-81557000D01*
X41748000Y-80277000D02*
X42095083Y-80277000D01*
X43820917Y-80277000D02*
X44095083Y-80277000D01*
X41748000Y-79557000D02*
X42095083Y-79557000D01*
X43820917Y-79557000D02*
X44095083Y-79557000D01*
X41748000Y-78277000D02*
X42095083Y-78277000D01*
X43820917Y-78277000D02*
X44095083Y-78277000D01*
X41748000Y-77557000D02*
X42095083Y-77557000D01*
X43820917Y-77557000D02*
X44095083Y-77557000D01*
X41748000Y-76277000D02*
X42095083Y-76277000D01*
X43820917Y-76277000D02*
X44095083Y-76277000D01*
X41748000Y-75557000D02*
X42095083Y-75557000D01*
X43820917Y-75557000D02*
X44095083Y-75557000D01*
X41748000Y-74277000D02*
X42095083Y-74277000D01*
X43820917Y-74277000D02*
X44095083Y-74277000D01*
X41748000Y-73557000D02*
X42095083Y-73557000D01*
X43820917Y-73557000D02*
X44095083Y-73557000D01*
X41748000Y-72277000D02*
X42095083Y-72277000D01*
X43820917Y-72277000D02*
X44095083Y-72277000D01*
X41748000Y-71557000D02*
X42095083Y-71557000D01*
X43820917Y-71557000D02*
X44095083Y-71557000D01*
X41748000Y-70277000D02*
X42095083Y-70277000D01*
X43820917Y-70277000D02*
X44095083Y-70277000D01*
X41748000Y-69557000D02*
X42095083Y-69557000D01*
X43820917Y-69557000D02*
X44095083Y-69557000D01*
X41748000Y-68277000D02*
X42095083Y-68277000D01*
X43820917Y-68277000D02*
X44095083Y-68277000D01*
X41748000Y-67557000D02*
X42095083Y-67557000D01*
X43820917Y-67557000D02*
X44095083Y-67557000D01*
X41748000Y-66277000D02*
X42095083Y-66277000D01*
X43820917Y-66277000D02*
X44095083Y-66277000D01*
X41748000Y-65557000D02*
X42095083Y-65557000D01*
X43820917Y-65557000D02*
X44095083Y-65557000D01*
X41748000Y-64277000D02*
X42095083Y-64277000D01*
X43820917Y-64277000D02*
X44095083Y-64277000D01*
X41748000Y-63557000D02*
X42095083Y-63557000D01*
X43820917Y-63557000D02*
X44095083Y-63557000D01*
X41748000Y-62277000D02*
X42095083Y-62277000D01*
X43820917Y-62277000D02*
X44095083Y-62277000D01*
X41748000Y-61557000D02*
X42095083Y-61557000D01*
X43820917Y-61557000D02*
X44095083Y-61557000D01*
X41748000Y-60277000D02*
X42095083Y-60277000D01*
X43820917Y-60277000D02*
X44095083Y-60277000D01*
X41748000Y-59557000D02*
X42095083Y-59557000D01*
X43820917Y-59557000D02*
X44095083Y-59557000D01*
X41748000Y-58277000D02*
X42095083Y-58277000D01*
X43820917Y-58277000D02*
X44095083Y-58277000D01*
X41748000Y-57557000D02*
X42095083Y-57557000D01*
X43820917Y-57557000D02*
X44095083Y-57557000D01*
X41748000Y-56277000D02*
X42095083Y-56277000D01*
X43820917Y-56277000D02*
X44095083Y-56277000D01*
X41748000Y-55557000D02*
X42095083Y-55557000D01*
X43820917Y-55557000D02*
X44095083Y-55557000D01*
X35278000Y-96917000D02*
X41748000Y-96917000D01*
X35278000Y-94917000D02*
X41748000Y-94917000D01*
X35278000Y-92917000D02*
X41748000Y-92917000D01*
X35278000Y-90917000D02*
X41748000Y-90917000D01*
X35278000Y-88917000D02*
X41748000Y-88917000D01*
X35278000Y-86917000D02*
X41748000Y-86917000D01*
X35278000Y-84917000D02*
X41748000Y-84917000D01*
X35278000Y-82917000D02*
X41748000Y-82917000D01*
X35278000Y-80917000D02*
X41748000Y-80917000D01*
X35278000Y-78917000D02*
X41748000Y-78917000D01*
X35278000Y-76917000D02*
X41748000Y-76917000D01*
X35278000Y-74917000D02*
X41748000Y-74917000D01*
X35278000Y-72917000D02*
X41748000Y-72917000D01*
X35278000Y-70917000D02*
X41748000Y-70917000D01*
X35278000Y-68917000D02*
X41748000Y-68917000D01*
X35278000Y-66917000D02*
X41748000Y-66917000D01*
X35278000Y-64917000D02*
X41748000Y-64917000D01*
X35278000Y-62917000D02*
X41748000Y-62917000D01*
X35278000Y-60917000D02*
X41748000Y-60917000D01*
X35278000Y-58917000D02*
X41748000Y-58917000D01*
X35278000Y-56917000D02*
X41748000Y-56917000D01*
X35278000Y-98977000D02*
X41748000Y-98977000D01*
X41748000Y-98977000D02*
X41748000Y-54857000D01*
X35278000Y-54857000D02*
X41748000Y-54857000D01*
X35278000Y-98977000D02*
X35278000Y-54857000D01*
X45893000Y-98977000D02*
X45893000Y-97917000D01*
X44958000Y-98977000D02*
X45893000Y-98977000D01*
D13*
X42076571Y-100869380D02*
X42076571Y-99869380D01*
X41600380Y-100869380D02*
X41600380Y-99869380D01*
X41362285Y-99869380D01*
X41219428Y-99917000D01*
X41124190Y-100012238D01*
X41076571Y-100107476D01*
X41028952Y-100297952D01*
X41028952Y-100440809D01*
X41076571Y-100631285D01*
X41124190Y-100726523D01*
X41219428Y-100821761D01*
X41362285Y-100869380D01*
X41600380Y-100869380D01*
X40600380Y-100345571D02*
X40267047Y-100345571D01*
X40124190Y-100869380D02*
X40600380Y-100869380D01*
X40600380Y-99869380D01*
X40124190Y-99869380D01*
X39743238Y-99964619D02*
X39695619Y-99917000D01*
X39600380Y-99869380D01*
X39362285Y-99869380D01*
X39267047Y-99917000D01*
X39219428Y-99964619D01*
X39171809Y-100059857D01*
X39171809Y-100155095D01*
X39219428Y-100297952D01*
X39790857Y-100869380D01*
X39171809Y-100869380D01*
%TD*%
M02*
