%TF.GenerationSoftware,KiCad,Pcbnew,(5.1.12)-1*%
%TF.CreationDate,2022-05-27T21:25:41+02:00*%
%TF.ProjectId,EC1834-XT-IDE,45433138-3334-42d5-9854-2d4944452e6b,4b*%
%TF.SameCoordinates,Original*%
%TF.FileFunction,Copper,L1,Top*%
%TF.FilePolarity,Positive*%
%FSLAX46Y46*%
G04 Gerber Fmt 4.6, Leading zero omitted, Abs format (unit mm)*
G04 Created by KiCad (PCBNEW (5.1.12)-1) date 2022-05-27 21:25:41*
%MOMM*%
%LPD*%
G01*
G04 APERTURE LIST*
%TA.AperFunction,EtchedComponent*%
%ADD10C,0.010000*%
%TD*%
%TA.AperFunction,ComponentPad*%
%ADD11C,1.550000*%
%TD*%
%TA.AperFunction,ComponentPad*%
%ADD12R,2.300000X1.600000*%
%TD*%
%TA.AperFunction,ComponentPad*%
%ADD13O,2.300000X1.600000*%
%TD*%
%TA.AperFunction,ComponentPad*%
%ADD14C,1.998980*%
%TD*%
%TA.AperFunction,ComponentPad*%
%ADD15C,4.064000*%
%TD*%
%TA.AperFunction,ComponentPad*%
%ADD16R,1.727200X1.727200*%
%TD*%
%TA.AperFunction,ComponentPad*%
%ADD17C,1.727200*%
%TD*%
%TA.AperFunction,ComponentPad*%
%ADD18R,1.900000X2.000000*%
%TD*%
%TA.AperFunction,ComponentPad*%
%ADD19C,1.900000*%
%TD*%
%TA.AperFunction,ComponentPad*%
%ADD20O,1.727200X1.727200*%
%TD*%
%TA.AperFunction,ViaPad*%
%ADD21C,0.889000*%
%TD*%
%TA.AperFunction,Conductor*%
%ADD22C,0.203000*%
%TD*%
%TA.AperFunction,Conductor*%
%ADD23C,0.203200*%
%TD*%
%TA.AperFunction,Conductor*%
%ADD24C,1.219200*%
%TD*%
%TA.AperFunction,Conductor*%
%ADD25C,1.219000*%
%TD*%
%TA.AperFunction,Conductor*%
%ADD26C,1.270000*%
%TD*%
%TA.AperFunction,Conductor*%
%ADD27C,0.406400*%
%TD*%
G04 APERTURE END LIST*
D10*
%TO.C,REF\u002A\u002A\u002A*%
G36*
X136390964Y-104094576D02*
G01*
X136466513Y-104495322D01*
X137024041Y-104725154D01*
X137358465Y-104497748D01*
X137452122Y-104434431D01*
X137536782Y-104377896D01*
X137608495Y-104330727D01*
X137663311Y-104295502D01*
X137697280Y-104274805D01*
X137706530Y-104270342D01*
X137723195Y-104281820D01*
X137758806Y-104313551D01*
X137809371Y-104361483D01*
X137870900Y-104421562D01*
X137939399Y-104489733D01*
X138010879Y-104561945D01*
X138081347Y-104634142D01*
X138146811Y-104702273D01*
X138203280Y-104762283D01*
X138246763Y-104810119D01*
X138273268Y-104841727D01*
X138279605Y-104852305D01*
X138270486Y-104871806D01*
X138244920Y-104914531D01*
X138205597Y-104976298D01*
X138155203Y-105052931D01*
X138096427Y-105140248D01*
X138062368Y-105190052D01*
X138000289Y-105280993D01*
X137945126Y-105363059D01*
X137899554Y-105432163D01*
X137866250Y-105484222D01*
X137847890Y-105515150D01*
X137845131Y-105521650D01*
X137851385Y-105540121D01*
X137868434Y-105583172D01*
X137893703Y-105644749D01*
X137924622Y-105718799D01*
X137958618Y-105799270D01*
X137993118Y-105880107D01*
X138025551Y-105955258D01*
X138053343Y-106018671D01*
X138073923Y-106064293D01*
X138084719Y-106086069D01*
X138085356Y-106086926D01*
X138102307Y-106091084D01*
X138147451Y-106100361D01*
X138216110Y-106113844D01*
X138303602Y-106130621D01*
X138405250Y-106149781D01*
X138464556Y-106160830D01*
X138573172Y-106181510D01*
X138671277Y-106201189D01*
X138753909Y-106218789D01*
X138816104Y-106233233D01*
X138852899Y-106243446D01*
X138860296Y-106246686D01*
X138867540Y-106268617D01*
X138873385Y-106318147D01*
X138877835Y-106389485D01*
X138880893Y-106476839D01*
X138882565Y-106574417D01*
X138882853Y-106676426D01*
X138881761Y-106777075D01*
X138879294Y-106870572D01*
X138875456Y-106951125D01*
X138870250Y-107012942D01*
X138863681Y-107050230D01*
X138859741Y-107057993D01*
X138836188Y-107067298D01*
X138786282Y-107080600D01*
X138716623Y-107096337D01*
X138633813Y-107112946D01*
X138604905Y-107118319D01*
X138465531Y-107143848D01*
X138355436Y-107164408D01*
X138270982Y-107180815D01*
X138208530Y-107193887D01*
X138164444Y-107204441D01*
X138135085Y-107213294D01*
X138116815Y-107221263D01*
X138105998Y-107229165D01*
X138104485Y-107230727D01*
X138089377Y-107255886D01*
X138066329Y-107304850D01*
X138037644Y-107371621D01*
X138005622Y-107450205D01*
X137972565Y-107534607D01*
X137940773Y-107618830D01*
X137912549Y-107696879D01*
X137890193Y-107762759D01*
X137876007Y-107810473D01*
X137872293Y-107834027D01*
X137872602Y-107834852D01*
X137885189Y-107854104D01*
X137913744Y-107896463D01*
X137955267Y-107957521D01*
X138006756Y-108032868D01*
X138065211Y-108118096D01*
X138081858Y-108142315D01*
X138141215Y-108230123D01*
X138193447Y-108310238D01*
X138235708Y-108378062D01*
X138265153Y-108428993D01*
X138278937Y-108458431D01*
X138279605Y-108462048D01*
X138268024Y-108481057D01*
X138236024Y-108518714D01*
X138187718Y-108570973D01*
X138127220Y-108633786D01*
X138058644Y-108703106D01*
X137986104Y-108774885D01*
X137913712Y-108845077D01*
X137845584Y-108909635D01*
X137785832Y-108964510D01*
X137738571Y-109005656D01*
X137707913Y-109029026D01*
X137699432Y-109032842D01*
X137679691Y-109023855D01*
X137639274Y-108999616D01*
X137584763Y-108964209D01*
X137542823Y-108935711D01*
X137466829Y-108883418D01*
X137376834Y-108821845D01*
X137286564Y-108760370D01*
X137238032Y-108727469D01*
X137073762Y-108616359D01*
X136935869Y-108690916D01*
X136873049Y-108723578D01*
X136819629Y-108748966D01*
X136783484Y-108763446D01*
X136774284Y-108765460D01*
X136763221Y-108750584D01*
X136741394Y-108708547D01*
X136710434Y-108643227D01*
X136671970Y-108558500D01*
X136627632Y-108458245D01*
X136579047Y-108346339D01*
X136527846Y-108226659D01*
X136475659Y-108103084D01*
X136424113Y-107979491D01*
X136374840Y-107859757D01*
X136329467Y-107747759D01*
X136289625Y-107647377D01*
X136256942Y-107562486D01*
X136233049Y-107496965D01*
X136219574Y-107454690D01*
X136217406Y-107440172D01*
X136234583Y-107421653D01*
X136272190Y-107391590D01*
X136322366Y-107356232D01*
X136326578Y-107353434D01*
X136456264Y-107249625D01*
X136560834Y-107128515D01*
X136639381Y-106993976D01*
X136690999Y-106849882D01*
X136714782Y-106700105D01*
X136709823Y-106548517D01*
X136675217Y-106398992D01*
X136610057Y-106255400D01*
X136590886Y-106223984D01*
X136491174Y-106097125D01*
X136373377Y-105995255D01*
X136241571Y-105918904D01*
X136099833Y-105868602D01*
X135952242Y-105844879D01*
X135802873Y-105848265D01*
X135655803Y-105879288D01*
X135515111Y-105938480D01*
X135384873Y-106026369D01*
X135344586Y-106062042D01*
X135242055Y-106173706D01*
X135167341Y-106291257D01*
X135116090Y-106423020D01*
X135087546Y-106553507D01*
X135080500Y-106700216D01*
X135103996Y-106847653D01*
X135155649Y-106990834D01*
X135233071Y-107124777D01*
X135333875Y-107244498D01*
X135455676Y-107345014D01*
X135471684Y-107355609D01*
X135522398Y-107390306D01*
X135560950Y-107420370D01*
X135579381Y-107439565D01*
X135579649Y-107440172D01*
X135575692Y-107460936D01*
X135560007Y-107508062D01*
X135534222Y-107577673D01*
X135499969Y-107665893D01*
X135458877Y-107768844D01*
X135412576Y-107882650D01*
X135362696Y-108003435D01*
X135310867Y-108127321D01*
X135258719Y-108250432D01*
X135207882Y-108368891D01*
X135159987Y-108478823D01*
X135116662Y-108576349D01*
X135079538Y-108657593D01*
X135050244Y-108718679D01*
X135030412Y-108755730D01*
X135022426Y-108765460D01*
X134998021Y-108757883D01*
X134952358Y-108737560D01*
X134893310Y-108708125D01*
X134860840Y-108690916D01*
X134722947Y-108616359D01*
X134558677Y-108727469D01*
X134474821Y-108784390D01*
X134383013Y-108847030D01*
X134296980Y-108906011D01*
X134253887Y-108935711D01*
X134193277Y-108976410D01*
X134141955Y-109008663D01*
X134106615Y-109028384D01*
X134095137Y-109032554D01*
X134078430Y-109021307D01*
X134041454Y-108989911D01*
X133987795Y-108941624D01*
X133921038Y-108879708D01*
X133844766Y-108807421D01*
X133796527Y-108761008D01*
X133712133Y-108678087D01*
X133639197Y-108603920D01*
X133580669Y-108541680D01*
X133539497Y-108494541D01*
X133518628Y-108465673D01*
X133516626Y-108459815D01*
X133525917Y-108437532D01*
X133551591Y-108392477D01*
X133590800Y-108329211D01*
X133640697Y-108252295D01*
X133698433Y-108166292D01*
X133714851Y-108142315D01*
X133774677Y-108055170D01*
X133828350Y-107976710D01*
X133872870Y-107911345D01*
X133905235Y-107863484D01*
X133922445Y-107837535D01*
X133924107Y-107834852D01*
X133921621Y-107814172D01*
X133908423Y-107768704D01*
X133886814Y-107704444D01*
X133859096Y-107627387D01*
X133827570Y-107543529D01*
X133794537Y-107458866D01*
X133762299Y-107379392D01*
X133733157Y-107311104D01*
X133709412Y-107259997D01*
X133693365Y-107232067D01*
X133692225Y-107230727D01*
X133682412Y-107222745D01*
X133665839Y-107214851D01*
X133638868Y-107206229D01*
X133597861Y-107196062D01*
X133539180Y-107183531D01*
X133459187Y-107167821D01*
X133354245Y-107148113D01*
X133220715Y-107123592D01*
X133191804Y-107118319D01*
X133106118Y-107101764D01*
X133031418Y-107085569D01*
X132974306Y-107071296D01*
X132941383Y-107060508D01*
X132936969Y-107057993D01*
X132929694Y-107035696D01*
X132923781Y-106985869D01*
X132919234Y-106914304D01*
X132916055Y-106826793D01*
X132914251Y-106729128D01*
X132913823Y-106627101D01*
X132914777Y-106526503D01*
X132917116Y-106433127D01*
X132920844Y-106352765D01*
X132925966Y-106291209D01*
X132932484Y-106254250D01*
X132936414Y-106246686D01*
X132958292Y-106239056D01*
X133008109Y-106226642D01*
X133080903Y-106210522D01*
X133171711Y-106191773D01*
X133275569Y-106171471D01*
X133332154Y-106160830D01*
X133439514Y-106140760D01*
X133535254Y-106122580D01*
X133614694Y-106107199D01*
X133673154Y-106095531D01*
X133705955Y-106088488D01*
X133711354Y-106086926D01*
X133720478Y-106069322D01*
X133739765Y-106026918D01*
X133766645Y-105965772D01*
X133798546Y-105891943D01*
X133832898Y-105811489D01*
X133867129Y-105730468D01*
X133898669Y-105654937D01*
X133924946Y-105590955D01*
X133943389Y-105544580D01*
X133951429Y-105521869D01*
X133951578Y-105520876D01*
X133942465Y-105502961D01*
X133916914Y-105461733D01*
X133877612Y-105401291D01*
X133827243Y-105325731D01*
X133768494Y-105239152D01*
X133734342Y-105189421D01*
X133672110Y-105098236D01*
X133616836Y-105015449D01*
X133571218Y-104945249D01*
X133537952Y-104891824D01*
X133519736Y-104859361D01*
X133517105Y-104852083D01*
X133528414Y-104835145D01*
X133559681Y-104798978D01*
X133606910Y-104747635D01*
X133666108Y-104685167D01*
X133733281Y-104615626D01*
X133804434Y-104543065D01*
X133875574Y-104471535D01*
X133942707Y-104405087D01*
X134001839Y-104347774D01*
X134048975Y-104303647D01*
X134080123Y-104276759D01*
X134090543Y-104270342D01*
X134107509Y-104279365D01*
X134148089Y-104304715D01*
X134208337Y-104343810D01*
X134284307Y-104394071D01*
X134372054Y-104452917D01*
X134438244Y-104497748D01*
X134772668Y-104725154D01*
X135051433Y-104610238D01*
X135330197Y-104495322D01*
X135405746Y-104094576D01*
X135481294Y-103693829D01*
X136315415Y-103693829D01*
X136390964Y-104094576D01*
G37*
X136390964Y-104094576D02*
X136466513Y-104495322D01*
X137024041Y-104725154D01*
X137358465Y-104497748D01*
X137452122Y-104434431D01*
X137536782Y-104377896D01*
X137608495Y-104330727D01*
X137663311Y-104295502D01*
X137697280Y-104274805D01*
X137706530Y-104270342D01*
X137723195Y-104281820D01*
X137758806Y-104313551D01*
X137809371Y-104361483D01*
X137870900Y-104421562D01*
X137939399Y-104489733D01*
X138010879Y-104561945D01*
X138081347Y-104634142D01*
X138146811Y-104702273D01*
X138203280Y-104762283D01*
X138246763Y-104810119D01*
X138273268Y-104841727D01*
X138279605Y-104852305D01*
X138270486Y-104871806D01*
X138244920Y-104914531D01*
X138205597Y-104976298D01*
X138155203Y-105052931D01*
X138096427Y-105140248D01*
X138062368Y-105190052D01*
X138000289Y-105280993D01*
X137945126Y-105363059D01*
X137899554Y-105432163D01*
X137866250Y-105484222D01*
X137847890Y-105515150D01*
X137845131Y-105521650D01*
X137851385Y-105540121D01*
X137868434Y-105583172D01*
X137893703Y-105644749D01*
X137924622Y-105718799D01*
X137958618Y-105799270D01*
X137993118Y-105880107D01*
X138025551Y-105955258D01*
X138053343Y-106018671D01*
X138073923Y-106064293D01*
X138084719Y-106086069D01*
X138085356Y-106086926D01*
X138102307Y-106091084D01*
X138147451Y-106100361D01*
X138216110Y-106113844D01*
X138303602Y-106130621D01*
X138405250Y-106149781D01*
X138464556Y-106160830D01*
X138573172Y-106181510D01*
X138671277Y-106201189D01*
X138753909Y-106218789D01*
X138816104Y-106233233D01*
X138852899Y-106243446D01*
X138860296Y-106246686D01*
X138867540Y-106268617D01*
X138873385Y-106318147D01*
X138877835Y-106389485D01*
X138880893Y-106476839D01*
X138882565Y-106574417D01*
X138882853Y-106676426D01*
X138881761Y-106777075D01*
X138879294Y-106870572D01*
X138875456Y-106951125D01*
X138870250Y-107012942D01*
X138863681Y-107050230D01*
X138859741Y-107057993D01*
X138836188Y-107067298D01*
X138786282Y-107080600D01*
X138716623Y-107096337D01*
X138633813Y-107112946D01*
X138604905Y-107118319D01*
X138465531Y-107143848D01*
X138355436Y-107164408D01*
X138270982Y-107180815D01*
X138208530Y-107193887D01*
X138164444Y-107204441D01*
X138135085Y-107213294D01*
X138116815Y-107221263D01*
X138105998Y-107229165D01*
X138104485Y-107230727D01*
X138089377Y-107255886D01*
X138066329Y-107304850D01*
X138037644Y-107371621D01*
X138005622Y-107450205D01*
X137972565Y-107534607D01*
X137940773Y-107618830D01*
X137912549Y-107696879D01*
X137890193Y-107762759D01*
X137876007Y-107810473D01*
X137872293Y-107834027D01*
X137872602Y-107834852D01*
X137885189Y-107854104D01*
X137913744Y-107896463D01*
X137955267Y-107957521D01*
X138006756Y-108032868D01*
X138065211Y-108118096D01*
X138081858Y-108142315D01*
X138141215Y-108230123D01*
X138193447Y-108310238D01*
X138235708Y-108378062D01*
X138265153Y-108428993D01*
X138278937Y-108458431D01*
X138279605Y-108462048D01*
X138268024Y-108481057D01*
X138236024Y-108518714D01*
X138187718Y-108570973D01*
X138127220Y-108633786D01*
X138058644Y-108703106D01*
X137986104Y-108774885D01*
X137913712Y-108845077D01*
X137845584Y-108909635D01*
X137785832Y-108964510D01*
X137738571Y-109005656D01*
X137707913Y-109029026D01*
X137699432Y-109032842D01*
X137679691Y-109023855D01*
X137639274Y-108999616D01*
X137584763Y-108964209D01*
X137542823Y-108935711D01*
X137466829Y-108883418D01*
X137376834Y-108821845D01*
X137286564Y-108760370D01*
X137238032Y-108727469D01*
X137073762Y-108616359D01*
X136935869Y-108690916D01*
X136873049Y-108723578D01*
X136819629Y-108748966D01*
X136783484Y-108763446D01*
X136774284Y-108765460D01*
X136763221Y-108750584D01*
X136741394Y-108708547D01*
X136710434Y-108643227D01*
X136671970Y-108558500D01*
X136627632Y-108458245D01*
X136579047Y-108346339D01*
X136527846Y-108226659D01*
X136475659Y-108103084D01*
X136424113Y-107979491D01*
X136374840Y-107859757D01*
X136329467Y-107747759D01*
X136289625Y-107647377D01*
X136256942Y-107562486D01*
X136233049Y-107496965D01*
X136219574Y-107454690D01*
X136217406Y-107440172D01*
X136234583Y-107421653D01*
X136272190Y-107391590D01*
X136322366Y-107356232D01*
X136326578Y-107353434D01*
X136456264Y-107249625D01*
X136560834Y-107128515D01*
X136639381Y-106993976D01*
X136690999Y-106849882D01*
X136714782Y-106700105D01*
X136709823Y-106548517D01*
X136675217Y-106398992D01*
X136610057Y-106255400D01*
X136590886Y-106223984D01*
X136491174Y-106097125D01*
X136373377Y-105995255D01*
X136241571Y-105918904D01*
X136099833Y-105868602D01*
X135952242Y-105844879D01*
X135802873Y-105848265D01*
X135655803Y-105879288D01*
X135515111Y-105938480D01*
X135384873Y-106026369D01*
X135344586Y-106062042D01*
X135242055Y-106173706D01*
X135167341Y-106291257D01*
X135116090Y-106423020D01*
X135087546Y-106553507D01*
X135080500Y-106700216D01*
X135103996Y-106847653D01*
X135155649Y-106990834D01*
X135233071Y-107124777D01*
X135333875Y-107244498D01*
X135455676Y-107345014D01*
X135471684Y-107355609D01*
X135522398Y-107390306D01*
X135560950Y-107420370D01*
X135579381Y-107439565D01*
X135579649Y-107440172D01*
X135575692Y-107460936D01*
X135560007Y-107508062D01*
X135534222Y-107577673D01*
X135499969Y-107665893D01*
X135458877Y-107768844D01*
X135412576Y-107882650D01*
X135362696Y-108003435D01*
X135310867Y-108127321D01*
X135258719Y-108250432D01*
X135207882Y-108368891D01*
X135159987Y-108478823D01*
X135116662Y-108576349D01*
X135079538Y-108657593D01*
X135050244Y-108718679D01*
X135030412Y-108755730D01*
X135022426Y-108765460D01*
X134998021Y-108757883D01*
X134952358Y-108737560D01*
X134893310Y-108708125D01*
X134860840Y-108690916D01*
X134722947Y-108616359D01*
X134558677Y-108727469D01*
X134474821Y-108784390D01*
X134383013Y-108847030D01*
X134296980Y-108906011D01*
X134253887Y-108935711D01*
X134193277Y-108976410D01*
X134141955Y-109008663D01*
X134106615Y-109028384D01*
X134095137Y-109032554D01*
X134078430Y-109021307D01*
X134041454Y-108989911D01*
X133987795Y-108941624D01*
X133921038Y-108879708D01*
X133844766Y-108807421D01*
X133796527Y-108761008D01*
X133712133Y-108678087D01*
X133639197Y-108603920D01*
X133580669Y-108541680D01*
X133539497Y-108494541D01*
X133518628Y-108465673D01*
X133516626Y-108459815D01*
X133525917Y-108437532D01*
X133551591Y-108392477D01*
X133590800Y-108329211D01*
X133640697Y-108252295D01*
X133698433Y-108166292D01*
X133714851Y-108142315D01*
X133774677Y-108055170D01*
X133828350Y-107976710D01*
X133872870Y-107911345D01*
X133905235Y-107863484D01*
X133922445Y-107837535D01*
X133924107Y-107834852D01*
X133921621Y-107814172D01*
X133908423Y-107768704D01*
X133886814Y-107704444D01*
X133859096Y-107627387D01*
X133827570Y-107543529D01*
X133794537Y-107458866D01*
X133762299Y-107379392D01*
X133733157Y-107311104D01*
X133709412Y-107259997D01*
X133693365Y-107232067D01*
X133692225Y-107230727D01*
X133682412Y-107222745D01*
X133665839Y-107214851D01*
X133638868Y-107206229D01*
X133597861Y-107196062D01*
X133539180Y-107183531D01*
X133459187Y-107167821D01*
X133354245Y-107148113D01*
X133220715Y-107123592D01*
X133191804Y-107118319D01*
X133106118Y-107101764D01*
X133031418Y-107085569D01*
X132974306Y-107071296D01*
X132941383Y-107060508D01*
X132936969Y-107057993D01*
X132929694Y-107035696D01*
X132923781Y-106985869D01*
X132919234Y-106914304D01*
X132916055Y-106826793D01*
X132914251Y-106729128D01*
X132913823Y-106627101D01*
X132914777Y-106526503D01*
X132917116Y-106433127D01*
X132920844Y-106352765D01*
X132925966Y-106291209D01*
X132932484Y-106254250D01*
X132936414Y-106246686D01*
X132958292Y-106239056D01*
X133008109Y-106226642D01*
X133080903Y-106210522D01*
X133171711Y-106191773D01*
X133275569Y-106171471D01*
X133332154Y-106160830D01*
X133439514Y-106140760D01*
X133535254Y-106122580D01*
X133614694Y-106107199D01*
X133673154Y-106095531D01*
X133705955Y-106088488D01*
X133711354Y-106086926D01*
X133720478Y-106069322D01*
X133739765Y-106026918D01*
X133766645Y-105965772D01*
X133798546Y-105891943D01*
X133832898Y-105811489D01*
X133867129Y-105730468D01*
X133898669Y-105654937D01*
X133924946Y-105590955D01*
X133943389Y-105544580D01*
X133951429Y-105521869D01*
X133951578Y-105520876D01*
X133942465Y-105502961D01*
X133916914Y-105461733D01*
X133877612Y-105401291D01*
X133827243Y-105325731D01*
X133768494Y-105239152D01*
X133734342Y-105189421D01*
X133672110Y-105098236D01*
X133616836Y-105015449D01*
X133571218Y-104945249D01*
X133537952Y-104891824D01*
X133519736Y-104859361D01*
X133517105Y-104852083D01*
X133528414Y-104835145D01*
X133559681Y-104798978D01*
X133606910Y-104747635D01*
X133666108Y-104685167D01*
X133733281Y-104615626D01*
X133804434Y-104543065D01*
X133875574Y-104471535D01*
X133942707Y-104405087D01*
X134001839Y-104347774D01*
X134048975Y-104303647D01*
X134080123Y-104276759D01*
X134090543Y-104270342D01*
X134107509Y-104279365D01*
X134148089Y-104304715D01*
X134208337Y-104343810D01*
X134284307Y-104394071D01*
X134372054Y-104452917D01*
X134438244Y-104497748D01*
X134772668Y-104725154D01*
X135051433Y-104610238D01*
X135330197Y-104495322D01*
X135405746Y-104094576D01*
X135481294Y-103693829D01*
X136315415Y-103693829D01*
X136390964Y-104094576D01*
G36*
X138281388Y-109633645D02*
G01*
X138338865Y-109651206D01*
X138375872Y-109673395D01*
X138387927Y-109690942D01*
X138384609Y-109711742D01*
X138363079Y-109744419D01*
X138344874Y-109767562D01*
X138307344Y-109809402D01*
X138279148Y-109827005D01*
X138255111Y-109825856D01*
X138183808Y-109807710D01*
X138131442Y-109808534D01*
X138088918Y-109829098D01*
X138074642Y-109841134D01*
X138028947Y-109883483D01*
X138028947Y-110436526D01*
X137845131Y-110436526D01*
X137845131Y-109634421D01*
X137937039Y-109634421D01*
X137992219Y-109636603D01*
X138020688Y-109644351D01*
X138028943Y-109659468D01*
X138028947Y-109659916D01*
X138032845Y-109675749D01*
X138050474Y-109673684D01*
X138074901Y-109662261D01*
X138125350Y-109641005D01*
X138166316Y-109628216D01*
X138219028Y-109624938D01*
X138281388Y-109633645D01*
G37*
X138281388Y-109633645D02*
X138338865Y-109651206D01*
X138375872Y-109673395D01*
X138387927Y-109690942D01*
X138384609Y-109711742D01*
X138363079Y-109744419D01*
X138344874Y-109767562D01*
X138307344Y-109809402D01*
X138279148Y-109827005D01*
X138255111Y-109825856D01*
X138183808Y-109807710D01*
X138131442Y-109808534D01*
X138088918Y-109829098D01*
X138074642Y-109841134D01*
X138028947Y-109883483D01*
X138028947Y-110436526D01*
X137845131Y-110436526D01*
X137845131Y-109634421D01*
X137937039Y-109634421D01*
X137992219Y-109636603D01*
X138020688Y-109644351D01*
X138028943Y-109659468D01*
X138028947Y-109659916D01*
X138032845Y-109675749D01*
X138050474Y-109673684D01*
X138074901Y-109662261D01*
X138125350Y-109641005D01*
X138166316Y-109628216D01*
X138219028Y-109624938D01*
X138281388Y-109633645D01*
G36*
X134887957Y-109648226D02*
G01*
X134929546Y-109668090D01*
X134969825Y-109696784D01*
X135000510Y-109729809D01*
X135022861Y-109771931D01*
X135038136Y-109827915D01*
X135047592Y-109902528D01*
X135052487Y-110000535D01*
X135054081Y-110126702D01*
X135054106Y-110139914D01*
X135054473Y-110436526D01*
X134870657Y-110436526D01*
X134870657Y-110163081D01*
X134870527Y-110061777D01*
X134869621Y-109988353D01*
X134867173Y-109937271D01*
X134862414Y-109902990D01*
X134854574Y-109879971D01*
X134842885Y-109862673D01*
X134826602Y-109845581D01*
X134769634Y-109808857D01*
X134707445Y-109802042D01*
X134648199Y-109825261D01*
X134627595Y-109842543D01*
X134612470Y-109858791D01*
X134601610Y-109876191D01*
X134594310Y-109900212D01*
X134589863Y-109936322D01*
X134587564Y-109989988D01*
X134586704Y-110066680D01*
X134586578Y-110160043D01*
X134586578Y-110436526D01*
X134402763Y-110436526D01*
X134402763Y-109634421D01*
X134494671Y-109634421D01*
X134549851Y-109636603D01*
X134578320Y-109644351D01*
X134586575Y-109659468D01*
X134586578Y-109659916D01*
X134590408Y-109674720D01*
X134607301Y-109673040D01*
X134640888Y-109656773D01*
X134717063Y-109632840D01*
X134804200Y-109630178D01*
X134887957Y-109648226D01*
G37*
X134887957Y-109648226D02*
X134929546Y-109668090D01*
X134969825Y-109696784D01*
X135000510Y-109729809D01*
X135022861Y-109771931D01*
X135038136Y-109827915D01*
X135047592Y-109902528D01*
X135052487Y-110000535D01*
X135054081Y-110126702D01*
X135054106Y-110139914D01*
X135054473Y-110436526D01*
X134870657Y-110436526D01*
X134870657Y-110163081D01*
X134870527Y-110061777D01*
X134869621Y-109988353D01*
X134867173Y-109937271D01*
X134862414Y-109902990D01*
X134854574Y-109879971D01*
X134842885Y-109862673D01*
X134826602Y-109845581D01*
X134769634Y-109808857D01*
X134707445Y-109802042D01*
X134648199Y-109825261D01*
X134627595Y-109842543D01*
X134612470Y-109858791D01*
X134601610Y-109876191D01*
X134594310Y-109900212D01*
X134589863Y-109936322D01*
X134587564Y-109989988D01*
X134586704Y-110066680D01*
X134586578Y-110160043D01*
X134586578Y-110436526D01*
X134402763Y-110436526D01*
X134402763Y-109634421D01*
X134494671Y-109634421D01*
X134549851Y-109636603D01*
X134578320Y-109644351D01*
X134586575Y-109659468D01*
X134586578Y-109659916D01*
X134590408Y-109674720D01*
X134607301Y-109673040D01*
X134640888Y-109656773D01*
X134717063Y-109632840D01*
X134804200Y-109630178D01*
X134887957Y-109648226D01*
G36*
X139448784Y-109631554D02*
G01*
X139491574Y-109641949D01*
X139573609Y-109680013D01*
X139643757Y-109738149D01*
X139692305Y-109807852D01*
X139698975Y-109823502D01*
X139708124Y-109864496D01*
X139714529Y-109925138D01*
X139716710Y-109986430D01*
X139716710Y-110102316D01*
X139474407Y-110102316D01*
X139374471Y-110102693D01*
X139304069Y-110104987D01*
X139259313Y-110110938D01*
X139236315Y-110122285D01*
X139231189Y-110140771D01*
X139240048Y-110168136D01*
X139255917Y-110200155D01*
X139300184Y-110253592D01*
X139361699Y-110280215D01*
X139436885Y-110279347D01*
X139522053Y-110250371D01*
X139595659Y-110214611D01*
X139656734Y-110262904D01*
X139717810Y-110311197D01*
X139660351Y-110364285D01*
X139583641Y-110414445D01*
X139489302Y-110444688D01*
X139387827Y-110453151D01*
X139289711Y-110437974D01*
X139273881Y-110432824D01*
X139187647Y-110387791D01*
X139123501Y-110320652D01*
X139080091Y-110229405D01*
X139056064Y-110112044D01*
X139055784Y-110109529D01*
X139053633Y-109981627D01*
X139062329Y-109935997D01*
X139232105Y-109935997D01*
X139247697Y-109943013D01*
X139290029Y-109948388D01*
X139352434Y-109951457D01*
X139391981Y-109951921D01*
X139465728Y-109951630D01*
X139511840Y-109949783D01*
X139536100Y-109944912D01*
X139544294Y-109935555D01*
X139542206Y-109920245D01*
X139540455Y-109914322D01*
X139510560Y-109858668D01*
X139463542Y-109813815D01*
X139422049Y-109794105D01*
X139366926Y-109795295D01*
X139311068Y-109819875D01*
X139264212Y-109860570D01*
X139236094Y-109910108D01*
X139232105Y-109935997D01*
X139062329Y-109935997D01*
X139075074Y-109869133D01*
X139117611Y-109774727D01*
X139178747Y-109701088D01*
X139255985Y-109650893D01*
X139346830Y-109626822D01*
X139448784Y-109631554D01*
G37*
X139448784Y-109631554D02*
X139491574Y-109641949D01*
X139573609Y-109680013D01*
X139643757Y-109738149D01*
X139692305Y-109807852D01*
X139698975Y-109823502D01*
X139708124Y-109864496D01*
X139714529Y-109925138D01*
X139716710Y-109986430D01*
X139716710Y-110102316D01*
X139474407Y-110102316D01*
X139374471Y-110102693D01*
X139304069Y-110104987D01*
X139259313Y-110110938D01*
X139236315Y-110122285D01*
X139231189Y-110140771D01*
X139240048Y-110168136D01*
X139255917Y-110200155D01*
X139300184Y-110253592D01*
X139361699Y-110280215D01*
X139436885Y-110279347D01*
X139522053Y-110250371D01*
X139595659Y-110214611D01*
X139656734Y-110262904D01*
X139717810Y-110311197D01*
X139660351Y-110364285D01*
X139583641Y-110414445D01*
X139489302Y-110444688D01*
X139387827Y-110453151D01*
X139289711Y-110437974D01*
X139273881Y-110432824D01*
X139187647Y-110387791D01*
X139123501Y-110320652D01*
X139080091Y-110229405D01*
X139056064Y-110112044D01*
X139055784Y-110109529D01*
X139053633Y-109981627D01*
X139062329Y-109935997D01*
X139232105Y-109935997D01*
X139247697Y-109943013D01*
X139290029Y-109948388D01*
X139352434Y-109951457D01*
X139391981Y-109951921D01*
X139465728Y-109951630D01*
X139511840Y-109949783D01*
X139536100Y-109944912D01*
X139544294Y-109935555D01*
X139542206Y-109920245D01*
X139540455Y-109914322D01*
X139510560Y-109858668D01*
X139463542Y-109813815D01*
X139422049Y-109794105D01*
X139366926Y-109795295D01*
X139311068Y-109819875D01*
X139264212Y-109860570D01*
X139236094Y-109910108D01*
X139232105Y-109935997D01*
X139062329Y-109935997D01*
X139075074Y-109869133D01*
X139117611Y-109774727D01*
X139178747Y-109701088D01*
X139255985Y-109650893D01*
X139346830Y-109626822D01*
X139448784Y-109631554D01*
G36*
X138836576Y-109641419D02*
G01*
X138933395Y-109682549D01*
X138963890Y-109702571D01*
X139002865Y-109733340D01*
X139027331Y-109757533D01*
X139031578Y-109765413D01*
X139019584Y-109782899D01*
X138988887Y-109812570D01*
X138964312Y-109833279D01*
X138897046Y-109887336D01*
X138843930Y-109842642D01*
X138802884Y-109813789D01*
X138762863Y-109803829D01*
X138717059Y-109806261D01*
X138644324Y-109824345D01*
X138594256Y-109861881D01*
X138563829Y-109922562D01*
X138550017Y-110010081D01*
X138550013Y-110010136D01*
X138551208Y-110107958D01*
X138569772Y-110179730D01*
X138606804Y-110228595D01*
X138632050Y-110245143D01*
X138699097Y-110265749D01*
X138770709Y-110265762D01*
X138833015Y-110245768D01*
X138847763Y-110236000D01*
X138884750Y-110211047D01*
X138913668Y-110206958D01*
X138944856Y-110225530D01*
X138979336Y-110258887D01*
X139033912Y-110315196D01*
X138973318Y-110365142D01*
X138879698Y-110421513D01*
X138774125Y-110449293D01*
X138663798Y-110447282D01*
X138591343Y-110428862D01*
X138506656Y-110383310D01*
X138438927Y-110311650D01*
X138408157Y-110261066D01*
X138383236Y-110188488D01*
X138370766Y-110096569D01*
X138370670Y-109996948D01*
X138382870Y-109901267D01*
X138407290Y-109821169D01*
X138411136Y-109812956D01*
X138468093Y-109732413D01*
X138545209Y-109673771D01*
X138636390Y-109638247D01*
X138735543Y-109627057D01*
X138836576Y-109641419D01*
G37*
X138836576Y-109641419D02*
X138933395Y-109682549D01*
X138963890Y-109702571D01*
X139002865Y-109733340D01*
X139027331Y-109757533D01*
X139031578Y-109765413D01*
X139019584Y-109782899D01*
X138988887Y-109812570D01*
X138964312Y-109833279D01*
X138897046Y-109887336D01*
X138843930Y-109842642D01*
X138802884Y-109813789D01*
X138762863Y-109803829D01*
X138717059Y-109806261D01*
X138644324Y-109824345D01*
X138594256Y-109861881D01*
X138563829Y-109922562D01*
X138550017Y-110010081D01*
X138550013Y-110010136D01*
X138551208Y-110107958D01*
X138569772Y-110179730D01*
X138606804Y-110228595D01*
X138632050Y-110245143D01*
X138699097Y-110265749D01*
X138770709Y-110265762D01*
X138833015Y-110245768D01*
X138847763Y-110236000D01*
X138884750Y-110211047D01*
X138913668Y-110206958D01*
X138944856Y-110225530D01*
X138979336Y-110258887D01*
X139033912Y-110315196D01*
X138973318Y-110365142D01*
X138879698Y-110421513D01*
X138774125Y-110449293D01*
X138663798Y-110447282D01*
X138591343Y-110428862D01*
X138506656Y-110383310D01*
X138438927Y-110311650D01*
X138408157Y-110261066D01*
X138383236Y-110188488D01*
X138370766Y-110096569D01*
X138370670Y-109996948D01*
X138382870Y-109901267D01*
X138407290Y-109821169D01*
X138411136Y-109812956D01*
X138468093Y-109732413D01*
X138545209Y-109673771D01*
X138636390Y-109638247D01*
X138735543Y-109627057D01*
X138836576Y-109641419D01*
G36*
X137210131Y-109894533D02*
G01*
X137211710Y-110017089D01*
X137217481Y-110110179D01*
X137228991Y-110177651D01*
X137247790Y-110223355D01*
X137275426Y-110251139D01*
X137313448Y-110264854D01*
X137360526Y-110268358D01*
X137409832Y-110264432D01*
X137447283Y-110250089D01*
X137474428Y-110221478D01*
X137492815Y-110174751D01*
X137503993Y-110106058D01*
X137509511Y-110011550D01*
X137510921Y-109894533D01*
X137510921Y-109634421D01*
X137694736Y-109634421D01*
X137694736Y-110436526D01*
X137602828Y-110436526D01*
X137547422Y-110434281D01*
X137518891Y-110426396D01*
X137510921Y-110411428D01*
X137506120Y-110398097D01*
X137487014Y-110400917D01*
X137448504Y-110419783D01*
X137360239Y-110448887D01*
X137266623Y-110446825D01*
X137176921Y-110415221D01*
X137134204Y-110390257D01*
X137101621Y-110363226D01*
X137077817Y-110329405D01*
X137061439Y-110284068D01*
X137051131Y-110222489D01*
X137045541Y-110139943D01*
X137043312Y-110031705D01*
X137043026Y-109948004D01*
X137043026Y-109634421D01*
X137210131Y-109634421D01*
X137210131Y-109894533D01*
G37*
X137210131Y-109894533D02*
X137211710Y-110017089D01*
X137217481Y-110110179D01*
X137228991Y-110177651D01*
X137247790Y-110223355D01*
X137275426Y-110251139D01*
X137313448Y-110264854D01*
X137360526Y-110268358D01*
X137409832Y-110264432D01*
X137447283Y-110250089D01*
X137474428Y-110221478D01*
X137492815Y-110174751D01*
X137503993Y-110106058D01*
X137509511Y-110011550D01*
X137510921Y-109894533D01*
X137510921Y-109634421D01*
X137694736Y-109634421D01*
X137694736Y-110436526D01*
X137602828Y-110436526D01*
X137547422Y-110434281D01*
X137518891Y-110426396D01*
X137510921Y-110411428D01*
X137506120Y-110398097D01*
X137487014Y-110400917D01*
X137448504Y-110419783D01*
X137360239Y-110448887D01*
X137266623Y-110446825D01*
X137176921Y-110415221D01*
X137134204Y-110390257D01*
X137101621Y-110363226D01*
X137077817Y-110329405D01*
X137061439Y-110284068D01*
X137051131Y-110222489D01*
X137045541Y-110139943D01*
X137043312Y-110031705D01*
X137043026Y-109948004D01*
X137043026Y-109634421D01*
X137210131Y-109634421D01*
X137210131Y-109894533D01*
G36*
X136701669Y-109644310D02*
G01*
X136786192Y-109690340D01*
X136852321Y-109763006D01*
X136883478Y-109822106D01*
X136896855Y-109874305D01*
X136905522Y-109948719D01*
X136909237Y-110034442D01*
X136907754Y-110120569D01*
X136900831Y-110196193D01*
X136892745Y-110236584D01*
X136865465Y-110291840D01*
X136818220Y-110350530D01*
X136761282Y-110401852D01*
X136704924Y-110435005D01*
X136703550Y-110435531D01*
X136633616Y-110450018D01*
X136550737Y-110450377D01*
X136471977Y-110437188D01*
X136441566Y-110426617D01*
X136363239Y-110382201D01*
X136307143Y-110324007D01*
X136270286Y-110246965D01*
X136249680Y-110146001D01*
X136245018Y-110093116D01*
X136245613Y-110026663D01*
X136424736Y-110026663D01*
X136430770Y-110123630D01*
X136448138Y-110197523D01*
X136475740Y-110244736D01*
X136495404Y-110258237D01*
X136545787Y-110267651D01*
X136605673Y-110264864D01*
X136657449Y-110251316D01*
X136671027Y-110243862D01*
X136706849Y-110200451D01*
X136730493Y-110134014D01*
X136740558Y-110053161D01*
X136735642Y-109966502D01*
X136724655Y-109914349D01*
X136693109Y-109853951D01*
X136643311Y-109816197D01*
X136583337Y-109803143D01*
X136521264Y-109816849D01*
X136473582Y-109850372D01*
X136448525Y-109878031D01*
X136433900Y-109905294D01*
X136426929Y-109942190D01*
X136424833Y-109998750D01*
X136424736Y-110026663D01*
X136245613Y-110026663D01*
X136246282Y-109951994D01*
X136269265Y-109836271D01*
X136313972Y-109745941D01*
X136380405Y-109681000D01*
X136468565Y-109641445D01*
X136487495Y-109636858D01*
X136601266Y-109626090D01*
X136701669Y-109644310D01*
G37*
X136701669Y-109644310D02*
X136786192Y-109690340D01*
X136852321Y-109763006D01*
X136883478Y-109822106D01*
X136896855Y-109874305D01*
X136905522Y-109948719D01*
X136909237Y-110034442D01*
X136907754Y-110120569D01*
X136900831Y-110196193D01*
X136892745Y-110236584D01*
X136865465Y-110291840D01*
X136818220Y-110350530D01*
X136761282Y-110401852D01*
X136704924Y-110435005D01*
X136703550Y-110435531D01*
X136633616Y-110450018D01*
X136550737Y-110450377D01*
X136471977Y-110437188D01*
X136441566Y-110426617D01*
X136363239Y-110382201D01*
X136307143Y-110324007D01*
X136270286Y-110246965D01*
X136249680Y-110146001D01*
X136245018Y-110093116D01*
X136245613Y-110026663D01*
X136424736Y-110026663D01*
X136430770Y-110123630D01*
X136448138Y-110197523D01*
X136475740Y-110244736D01*
X136495404Y-110258237D01*
X136545787Y-110267651D01*
X136605673Y-110264864D01*
X136657449Y-110251316D01*
X136671027Y-110243862D01*
X136706849Y-110200451D01*
X136730493Y-110134014D01*
X136740558Y-110053161D01*
X136735642Y-109966502D01*
X136724655Y-109914349D01*
X136693109Y-109853951D01*
X136643311Y-109816197D01*
X136583337Y-109803143D01*
X136521264Y-109816849D01*
X136473582Y-109850372D01*
X136448525Y-109878031D01*
X136433900Y-109905294D01*
X136426929Y-109942190D01*
X136424833Y-109998750D01*
X136424736Y-110026663D01*
X136245613Y-110026663D01*
X136246282Y-109951994D01*
X136269265Y-109836271D01*
X136313972Y-109745941D01*
X136380405Y-109681000D01*
X136468565Y-109641445D01*
X136487495Y-109636858D01*
X136601266Y-109626090D01*
X136701669Y-109644310D01*
G36*
X135908628Y-109631547D02*
G01*
X135971908Y-109643548D01*
X136037557Y-109668648D01*
X136044572Y-109671848D01*
X136094356Y-109698026D01*
X136128834Y-109722353D01*
X136139978Y-109737937D01*
X136129366Y-109763353D01*
X136103588Y-109800853D01*
X136092146Y-109814852D01*
X136044992Y-109869954D01*
X135984201Y-109834086D01*
X135926347Y-109810192D01*
X135859500Y-109797420D01*
X135795394Y-109796613D01*
X135745764Y-109808615D01*
X135733854Y-109816105D01*
X135711172Y-109850450D01*
X135708416Y-109890013D01*
X135725388Y-109920920D01*
X135735427Y-109926913D01*
X135765510Y-109934357D01*
X135818389Y-109943106D01*
X135883575Y-109951467D01*
X135895600Y-109952778D01*
X136000297Y-109970888D01*
X136076232Y-110001651D01*
X136126592Y-110047907D01*
X136154564Y-110112497D01*
X136163278Y-110191387D01*
X136151240Y-110281065D01*
X136112151Y-110351486D01*
X136045855Y-110402777D01*
X135952194Y-110435067D01*
X135848223Y-110447807D01*
X135763438Y-110447654D01*
X135694665Y-110436083D01*
X135647697Y-110420109D01*
X135588350Y-110392275D01*
X135533506Y-110359973D01*
X135514013Y-110345755D01*
X135463881Y-110304835D01*
X135584803Y-110182477D01*
X135653543Y-110227967D01*
X135722488Y-110262133D01*
X135796111Y-110280004D01*
X135866883Y-110281889D01*
X135927274Y-110268101D01*
X135969757Y-110238949D01*
X135983474Y-110214352D01*
X135981417Y-110174904D01*
X135947330Y-110144737D01*
X135881308Y-110123906D01*
X135808974Y-110114279D01*
X135697652Y-110095910D01*
X135614952Y-110061254D01*
X135559765Y-110009297D01*
X135530988Y-109939023D01*
X135527001Y-109855707D01*
X135546693Y-109768681D01*
X135591589Y-109702902D01*
X135662091Y-109658068D01*
X135758601Y-109633879D01*
X135830100Y-109629137D01*
X135908628Y-109631547D01*
G37*
X135908628Y-109631547D02*
X135971908Y-109643548D01*
X136037557Y-109668648D01*
X136044572Y-109671848D01*
X136094356Y-109698026D01*
X136128834Y-109722353D01*
X136139978Y-109737937D01*
X136129366Y-109763353D01*
X136103588Y-109800853D01*
X136092146Y-109814852D01*
X136044992Y-109869954D01*
X135984201Y-109834086D01*
X135926347Y-109810192D01*
X135859500Y-109797420D01*
X135795394Y-109796613D01*
X135745764Y-109808615D01*
X135733854Y-109816105D01*
X135711172Y-109850450D01*
X135708416Y-109890013D01*
X135725388Y-109920920D01*
X135735427Y-109926913D01*
X135765510Y-109934357D01*
X135818389Y-109943106D01*
X135883575Y-109951467D01*
X135895600Y-109952778D01*
X136000297Y-109970888D01*
X136076232Y-110001651D01*
X136126592Y-110047907D01*
X136154564Y-110112497D01*
X136163278Y-110191387D01*
X136151240Y-110281065D01*
X136112151Y-110351486D01*
X136045855Y-110402777D01*
X135952194Y-110435067D01*
X135848223Y-110447807D01*
X135763438Y-110447654D01*
X135694665Y-110436083D01*
X135647697Y-110420109D01*
X135588350Y-110392275D01*
X135533506Y-110359973D01*
X135514013Y-110345755D01*
X135463881Y-110304835D01*
X135584803Y-110182477D01*
X135653543Y-110227967D01*
X135722488Y-110262133D01*
X135796111Y-110280004D01*
X135866883Y-110281889D01*
X135927274Y-110268101D01*
X135969757Y-110238949D01*
X135983474Y-110214352D01*
X135981417Y-110174904D01*
X135947330Y-110144737D01*
X135881308Y-110123906D01*
X135808974Y-110114279D01*
X135697652Y-110095910D01*
X135614952Y-110061254D01*
X135559765Y-110009297D01*
X135530988Y-109939023D01*
X135527001Y-109855707D01*
X135546693Y-109768681D01*
X135591589Y-109702902D01*
X135662091Y-109658068D01*
X135758601Y-109633879D01*
X135830100Y-109629137D01*
X135908628Y-109631547D01*
G36*
X134087018Y-109653027D02*
G01*
X134103670Y-109660866D01*
X134161305Y-109703086D01*
X134215805Y-109764700D01*
X134256499Y-109832543D01*
X134268074Y-109863734D01*
X134278634Y-109919449D01*
X134284931Y-109986781D01*
X134285696Y-110014585D01*
X134285789Y-110102316D01*
X133780850Y-110102316D01*
X133791613Y-110148270D01*
X133818033Y-110202620D01*
X133864222Y-110249591D01*
X133919172Y-110279848D01*
X133954189Y-110286131D01*
X134001677Y-110278506D01*
X134058335Y-110259383D01*
X134077582Y-110250584D01*
X134148759Y-110215036D01*
X134209502Y-110261367D01*
X134244552Y-110292703D01*
X134263202Y-110318567D01*
X134264147Y-110326158D01*
X134247485Y-110344556D01*
X134210970Y-110372515D01*
X134177828Y-110394327D01*
X134088393Y-110433537D01*
X133988129Y-110451285D01*
X133888754Y-110446670D01*
X133809539Y-110422551D01*
X133727880Y-110370884D01*
X133669849Y-110302856D01*
X133633546Y-110214843D01*
X133617072Y-110103216D01*
X133615611Y-110052138D01*
X133621457Y-109935091D01*
X133622175Y-109931686D01*
X133789489Y-109931686D01*
X133794097Y-109942662D01*
X133813036Y-109948715D01*
X133852098Y-109951310D01*
X133917077Y-109951910D01*
X133942097Y-109951921D01*
X134018221Y-109951014D01*
X134066496Y-109947720D01*
X134092460Y-109941181D01*
X134101648Y-109930537D01*
X134101973Y-109927119D01*
X134091487Y-109899956D01*
X134065242Y-109861903D01*
X134053959Y-109848579D01*
X134012072Y-109810896D01*
X133968409Y-109796080D01*
X133944885Y-109794842D01*
X133881243Y-109810329D01*
X133827873Y-109851930D01*
X133794019Y-109912353D01*
X133793419Y-109914322D01*
X133789489Y-109931686D01*
X133622175Y-109931686D01*
X133640899Y-109842928D01*
X133675922Y-109769190D01*
X133718756Y-109716848D01*
X133797948Y-109660092D01*
X133891040Y-109629762D01*
X133990055Y-109627021D01*
X134087018Y-109653027D01*
G37*
X134087018Y-109653027D02*
X134103670Y-109660866D01*
X134161305Y-109703086D01*
X134215805Y-109764700D01*
X134256499Y-109832543D01*
X134268074Y-109863734D01*
X134278634Y-109919449D01*
X134284931Y-109986781D01*
X134285696Y-110014585D01*
X134285789Y-110102316D01*
X133780850Y-110102316D01*
X133791613Y-110148270D01*
X133818033Y-110202620D01*
X133864222Y-110249591D01*
X133919172Y-110279848D01*
X133954189Y-110286131D01*
X134001677Y-110278506D01*
X134058335Y-110259383D01*
X134077582Y-110250584D01*
X134148759Y-110215036D01*
X134209502Y-110261367D01*
X134244552Y-110292703D01*
X134263202Y-110318567D01*
X134264147Y-110326158D01*
X134247485Y-110344556D01*
X134210970Y-110372515D01*
X134177828Y-110394327D01*
X134088393Y-110433537D01*
X133988129Y-110451285D01*
X133888754Y-110446670D01*
X133809539Y-110422551D01*
X133727880Y-110370884D01*
X133669849Y-110302856D01*
X133633546Y-110214843D01*
X133617072Y-110103216D01*
X133615611Y-110052138D01*
X133621457Y-109935091D01*
X133622175Y-109931686D01*
X133789489Y-109931686D01*
X133794097Y-109942662D01*
X133813036Y-109948715D01*
X133852098Y-109951310D01*
X133917077Y-109951910D01*
X133942097Y-109951921D01*
X134018221Y-109951014D01*
X134066496Y-109947720D01*
X134092460Y-109941181D01*
X134101648Y-109930537D01*
X134101973Y-109927119D01*
X134091487Y-109899956D01*
X134065242Y-109861903D01*
X134053959Y-109848579D01*
X134012072Y-109810896D01*
X133968409Y-109796080D01*
X133944885Y-109794842D01*
X133881243Y-109810329D01*
X133827873Y-109851930D01*
X133794019Y-109912353D01*
X133793419Y-109914322D01*
X133789489Y-109931686D01*
X133622175Y-109931686D01*
X133640899Y-109842928D01*
X133675922Y-109769190D01*
X133718756Y-109716848D01*
X133797948Y-109660092D01*
X133891040Y-109629762D01*
X133990055Y-109627021D01*
X134087018Y-109653027D01*
G36*
X132516784Y-109643104D02*
G01*
X132604205Y-109681754D01*
X132670570Y-109746290D01*
X132715976Y-109836812D01*
X132740518Y-109953418D01*
X132742277Y-109971624D01*
X132743656Y-110099984D01*
X132725784Y-110212496D01*
X132689750Y-110303688D01*
X132670455Y-110333022D01*
X132603245Y-110395106D01*
X132517650Y-110435316D01*
X132421890Y-110452003D01*
X132324187Y-110443517D01*
X132249917Y-110417380D01*
X132186047Y-110373335D01*
X132133846Y-110315587D01*
X132132943Y-110314236D01*
X132111744Y-110278593D01*
X132097967Y-110242752D01*
X132089624Y-110197519D01*
X132084727Y-110133701D01*
X132082569Y-110081368D01*
X132081671Y-110033910D01*
X132248743Y-110033910D01*
X132250376Y-110081154D01*
X132256304Y-110144046D01*
X132266761Y-110184407D01*
X132285619Y-110213122D01*
X132303281Y-110229896D01*
X132365894Y-110265016D01*
X132431408Y-110269710D01*
X132492421Y-110244440D01*
X132522928Y-110216124D01*
X132544911Y-110187589D01*
X132557769Y-110160284D01*
X132563412Y-110124750D01*
X132563751Y-110071524D01*
X132562012Y-110022506D01*
X132558271Y-109952482D01*
X132552341Y-109907064D01*
X132541653Y-109877440D01*
X132523639Y-109854797D01*
X132509363Y-109841855D01*
X132449651Y-109807860D01*
X132385234Y-109806165D01*
X132331219Y-109826301D01*
X132285140Y-109868352D01*
X132257689Y-109937428D01*
X132248743Y-110033910D01*
X132081671Y-110033910D01*
X132080599Y-109977299D01*
X132083964Y-109899468D01*
X132094045Y-109840930D01*
X132112226Y-109794737D01*
X132139890Y-109753942D01*
X132150146Y-109741828D01*
X132214278Y-109681474D01*
X132283066Y-109646220D01*
X132367189Y-109631450D01*
X132408209Y-109630243D01*
X132516784Y-109643104D01*
G37*
X132516784Y-109643104D02*
X132604205Y-109681754D01*
X132670570Y-109746290D01*
X132715976Y-109836812D01*
X132740518Y-109953418D01*
X132742277Y-109971624D01*
X132743656Y-110099984D01*
X132725784Y-110212496D01*
X132689750Y-110303688D01*
X132670455Y-110333022D01*
X132603245Y-110395106D01*
X132517650Y-110435316D01*
X132421890Y-110452003D01*
X132324187Y-110443517D01*
X132249917Y-110417380D01*
X132186047Y-110373335D01*
X132133846Y-110315587D01*
X132132943Y-110314236D01*
X132111744Y-110278593D01*
X132097967Y-110242752D01*
X132089624Y-110197519D01*
X132084727Y-110133701D01*
X132082569Y-110081368D01*
X132081671Y-110033910D01*
X132248743Y-110033910D01*
X132250376Y-110081154D01*
X132256304Y-110144046D01*
X132266761Y-110184407D01*
X132285619Y-110213122D01*
X132303281Y-110229896D01*
X132365894Y-110265016D01*
X132431408Y-110269710D01*
X132492421Y-110244440D01*
X132522928Y-110216124D01*
X132544911Y-110187589D01*
X132557769Y-110160284D01*
X132563412Y-110124750D01*
X132563751Y-110071524D01*
X132562012Y-110022506D01*
X132558271Y-109952482D01*
X132552341Y-109907064D01*
X132541653Y-109877440D01*
X132523639Y-109854797D01*
X132509363Y-109841855D01*
X132449651Y-109807860D01*
X132385234Y-109806165D01*
X132331219Y-109826301D01*
X132285140Y-109868352D01*
X132257689Y-109937428D01*
X132248743Y-110033910D01*
X132081671Y-110033910D01*
X132080599Y-109977299D01*
X132083964Y-109899468D01*
X132094045Y-109840930D01*
X132112226Y-109794737D01*
X132139890Y-109753942D01*
X132150146Y-109741828D01*
X132214278Y-109681474D01*
X132283066Y-109646220D01*
X132367189Y-109631450D01*
X132408209Y-109630243D01*
X132516784Y-109643104D01*
G36*
X138591193Y-110892078D02*
G01*
X138671068Y-110912845D01*
X138737962Y-110955705D01*
X138770351Y-110987723D01*
X138823445Y-111063413D01*
X138853873Y-111151216D01*
X138864327Y-111259150D01*
X138864380Y-111267875D01*
X138864473Y-111355605D01*
X138359534Y-111355605D01*
X138370298Y-111401559D01*
X138389732Y-111443178D01*
X138423745Y-111486544D01*
X138430860Y-111493467D01*
X138492003Y-111530935D01*
X138561729Y-111537289D01*
X138641987Y-111512638D01*
X138655592Y-111506000D01*
X138697319Y-111485819D01*
X138725268Y-111474321D01*
X138730145Y-111473258D01*
X138747168Y-111483583D01*
X138779633Y-111508845D01*
X138796114Y-111522650D01*
X138830264Y-111554361D01*
X138841478Y-111575299D01*
X138833695Y-111594560D01*
X138829535Y-111599827D01*
X138801357Y-111622878D01*
X138754862Y-111650892D01*
X138722434Y-111667246D01*
X138630385Y-111696059D01*
X138528476Y-111705395D01*
X138431963Y-111694332D01*
X138404934Y-111686412D01*
X138321276Y-111641581D01*
X138259266Y-111572598D01*
X138218545Y-111478794D01*
X138198755Y-111359498D01*
X138196582Y-111297118D01*
X138202926Y-111206298D01*
X138363157Y-111206298D01*
X138378655Y-111213012D01*
X138420312Y-111218280D01*
X138480876Y-111221389D01*
X138521907Y-111221921D01*
X138595711Y-111221408D01*
X138642293Y-111219006D01*
X138667848Y-111213422D01*
X138678569Y-111203361D01*
X138680657Y-111188763D01*
X138666331Y-111143796D01*
X138630262Y-111099353D01*
X138582815Y-111065242D01*
X138535349Y-111051288D01*
X138470879Y-111063666D01*
X138415070Y-111099452D01*
X138376374Y-111151033D01*
X138363157Y-111206298D01*
X138202926Y-111206298D01*
X138205821Y-111164866D01*
X138234336Y-111059498D01*
X138282729Y-110980178D01*
X138351604Y-110926071D01*
X138441565Y-110896343D01*
X138490300Y-110890618D01*
X138591193Y-110892078D01*
G37*
X138591193Y-110892078D02*
X138671068Y-110912845D01*
X138737962Y-110955705D01*
X138770351Y-110987723D01*
X138823445Y-111063413D01*
X138853873Y-111151216D01*
X138864327Y-111259150D01*
X138864380Y-111267875D01*
X138864473Y-111355605D01*
X138359534Y-111355605D01*
X138370298Y-111401559D01*
X138389732Y-111443178D01*
X138423745Y-111486544D01*
X138430860Y-111493467D01*
X138492003Y-111530935D01*
X138561729Y-111537289D01*
X138641987Y-111512638D01*
X138655592Y-111506000D01*
X138697319Y-111485819D01*
X138725268Y-111474321D01*
X138730145Y-111473258D01*
X138747168Y-111483583D01*
X138779633Y-111508845D01*
X138796114Y-111522650D01*
X138830264Y-111554361D01*
X138841478Y-111575299D01*
X138833695Y-111594560D01*
X138829535Y-111599827D01*
X138801357Y-111622878D01*
X138754862Y-111650892D01*
X138722434Y-111667246D01*
X138630385Y-111696059D01*
X138528476Y-111705395D01*
X138431963Y-111694332D01*
X138404934Y-111686412D01*
X138321276Y-111641581D01*
X138259266Y-111572598D01*
X138218545Y-111478794D01*
X138198755Y-111359498D01*
X138196582Y-111297118D01*
X138202926Y-111206298D01*
X138363157Y-111206298D01*
X138378655Y-111213012D01*
X138420312Y-111218280D01*
X138480876Y-111221389D01*
X138521907Y-111221921D01*
X138595711Y-111221408D01*
X138642293Y-111219006D01*
X138667848Y-111213422D01*
X138678569Y-111203361D01*
X138680657Y-111188763D01*
X138666331Y-111143796D01*
X138630262Y-111099353D01*
X138582815Y-111065242D01*
X138535349Y-111051288D01*
X138470879Y-111063666D01*
X138415070Y-111099452D01*
X138376374Y-111151033D01*
X138363157Y-111206298D01*
X138202926Y-111206298D01*
X138205821Y-111164866D01*
X138234336Y-111059498D01*
X138282729Y-110980178D01*
X138351604Y-110926071D01*
X138441565Y-110896343D01*
X138490300Y-110890618D01*
X138591193Y-110892078D01*
G36*
X138063167Y-110887447D02*
G01*
X138127408Y-110900112D01*
X138163980Y-110918864D01*
X138202453Y-110950017D01*
X138147717Y-111019127D01*
X138113969Y-111060979D01*
X138091053Y-111081398D01*
X138068279Y-111084517D01*
X138034956Y-111074472D01*
X138019314Y-111068789D01*
X137955542Y-111060404D01*
X137897140Y-111078378D01*
X137854264Y-111118982D01*
X137847299Y-111131929D01*
X137839713Y-111166224D01*
X137833859Y-111229427D01*
X137830011Y-111317060D01*
X137828443Y-111424640D01*
X137828421Y-111439944D01*
X137828421Y-111706526D01*
X137644605Y-111706526D01*
X137644605Y-110887710D01*
X137736513Y-110887710D01*
X137789507Y-110889094D01*
X137817115Y-110895252D01*
X137827324Y-110909194D01*
X137828421Y-110922344D01*
X137828421Y-110956978D01*
X137872450Y-110922344D01*
X137922937Y-110898716D01*
X137990760Y-110887033D01*
X138063167Y-110887447D01*
G37*
X138063167Y-110887447D02*
X138127408Y-110900112D01*
X138163980Y-110918864D01*
X138202453Y-110950017D01*
X138147717Y-111019127D01*
X138113969Y-111060979D01*
X138091053Y-111081398D01*
X138068279Y-111084517D01*
X138034956Y-111074472D01*
X138019314Y-111068789D01*
X137955542Y-111060404D01*
X137897140Y-111078378D01*
X137854264Y-111118982D01*
X137847299Y-111131929D01*
X137839713Y-111166224D01*
X137833859Y-111229427D01*
X137830011Y-111317060D01*
X137828443Y-111424640D01*
X137828421Y-111439944D01*
X137828421Y-111706526D01*
X137644605Y-111706526D01*
X137644605Y-110887710D01*
X137736513Y-110887710D01*
X137789507Y-110889094D01*
X137817115Y-110895252D01*
X137827324Y-110909194D01*
X137828421Y-110922344D01*
X137828421Y-110956978D01*
X137872450Y-110922344D01*
X137922937Y-110898716D01*
X137990760Y-110887033D01*
X138063167Y-110887447D01*
G36*
X137269992Y-110892673D02*
G01*
X137340427Y-110909780D01*
X137360787Y-110918844D01*
X137400253Y-110942583D01*
X137430541Y-110969321D01*
X137452952Y-111003699D01*
X137468786Y-111050360D01*
X137479343Y-111113946D01*
X137485924Y-111199099D01*
X137489828Y-111310462D01*
X137491310Y-111384849D01*
X137496765Y-111706526D01*
X137403580Y-111706526D01*
X137347047Y-111704156D01*
X137317922Y-111696055D01*
X137310394Y-111682451D01*
X137306420Y-111667741D01*
X137288652Y-111670554D01*
X137264440Y-111682348D01*
X137203828Y-111700427D01*
X137125929Y-111705299D01*
X137043995Y-111697330D01*
X136971281Y-111676889D01*
X136964759Y-111674051D01*
X136898302Y-111627365D01*
X136854491Y-111562464D01*
X136834332Y-111486600D01*
X136835872Y-111459344D01*
X137000345Y-111459344D01*
X137014837Y-111496024D01*
X137057805Y-111522309D01*
X137127129Y-111536417D01*
X137164177Y-111538290D01*
X137225919Y-111533494D01*
X137266960Y-111514858D01*
X137276973Y-111506000D01*
X137304100Y-111457806D01*
X137310394Y-111414092D01*
X137310394Y-111355605D01*
X137228930Y-111355605D01*
X137134234Y-111360432D01*
X137067813Y-111375613D01*
X137025846Y-111402200D01*
X137016449Y-111414052D01*
X137000345Y-111459344D01*
X136835872Y-111459344D01*
X136838829Y-111407026D01*
X136868985Y-111330995D01*
X136910131Y-111279612D01*
X136935052Y-111257397D01*
X136959448Y-111242798D01*
X136991191Y-111233897D01*
X137038152Y-111228775D01*
X137108204Y-111225515D01*
X137135990Y-111224577D01*
X137310394Y-111218879D01*
X137310138Y-111166091D01*
X137303384Y-111110603D01*
X137278964Y-111077052D01*
X137229630Y-111055618D01*
X137228306Y-111055236D01*
X137158360Y-111046808D01*
X137089914Y-111057816D01*
X137039047Y-111084585D01*
X137018637Y-111097803D01*
X136996654Y-111095974D01*
X136962826Y-111076824D01*
X136942961Y-111063308D01*
X136904106Y-111034432D01*
X136880038Y-111012786D01*
X136876176Y-111006589D01*
X136892079Y-110974519D01*
X136939065Y-110936219D01*
X136959473Y-110923297D01*
X137018143Y-110901041D01*
X137097212Y-110888432D01*
X137185041Y-110885600D01*
X137269992Y-110892673D01*
G37*
X137269992Y-110892673D02*
X137340427Y-110909780D01*
X137360787Y-110918844D01*
X137400253Y-110942583D01*
X137430541Y-110969321D01*
X137452952Y-111003699D01*
X137468786Y-111050360D01*
X137479343Y-111113946D01*
X137485924Y-111199099D01*
X137489828Y-111310462D01*
X137491310Y-111384849D01*
X137496765Y-111706526D01*
X137403580Y-111706526D01*
X137347047Y-111704156D01*
X137317922Y-111696055D01*
X137310394Y-111682451D01*
X137306420Y-111667741D01*
X137288652Y-111670554D01*
X137264440Y-111682348D01*
X137203828Y-111700427D01*
X137125929Y-111705299D01*
X137043995Y-111697330D01*
X136971281Y-111676889D01*
X136964759Y-111674051D01*
X136898302Y-111627365D01*
X136854491Y-111562464D01*
X136834332Y-111486600D01*
X136835872Y-111459344D01*
X137000345Y-111459344D01*
X137014837Y-111496024D01*
X137057805Y-111522309D01*
X137127129Y-111536417D01*
X137164177Y-111538290D01*
X137225919Y-111533494D01*
X137266960Y-111514858D01*
X137276973Y-111506000D01*
X137304100Y-111457806D01*
X137310394Y-111414092D01*
X137310394Y-111355605D01*
X137228930Y-111355605D01*
X137134234Y-111360432D01*
X137067813Y-111375613D01*
X137025846Y-111402200D01*
X137016449Y-111414052D01*
X137000345Y-111459344D01*
X136835872Y-111459344D01*
X136838829Y-111407026D01*
X136868985Y-111330995D01*
X136910131Y-111279612D01*
X136935052Y-111257397D01*
X136959448Y-111242798D01*
X136991191Y-111233897D01*
X137038152Y-111228775D01*
X137108204Y-111225515D01*
X137135990Y-111224577D01*
X137310394Y-111218879D01*
X137310138Y-111166091D01*
X137303384Y-111110603D01*
X137278964Y-111077052D01*
X137229630Y-111055618D01*
X137228306Y-111055236D01*
X137158360Y-111046808D01*
X137089914Y-111057816D01*
X137039047Y-111084585D01*
X137018637Y-111097803D01*
X136996654Y-111095974D01*
X136962826Y-111076824D01*
X136942961Y-111063308D01*
X136904106Y-111034432D01*
X136880038Y-111012786D01*
X136876176Y-111006589D01*
X136892079Y-110974519D01*
X136939065Y-110936219D01*
X136959473Y-110923297D01*
X137018143Y-110901041D01*
X137097212Y-110888432D01*
X137185041Y-110885600D01*
X137269992Y-110892673D01*
G36*
X136264130Y-110891104D02*
G01*
X136330220Y-110896066D01*
X136416626Y-111155079D01*
X136503031Y-111414092D01*
X136530124Y-111322184D01*
X136546428Y-111265384D01*
X136567875Y-111188625D01*
X136591035Y-111104251D01*
X136603280Y-111058993D01*
X136649344Y-110887710D01*
X136839387Y-110887710D01*
X136782582Y-111067349D01*
X136754607Y-111155704D01*
X136720813Y-111262281D01*
X136685520Y-111373454D01*
X136654013Y-111472579D01*
X136582250Y-111698171D01*
X136427286Y-111708253D01*
X136385270Y-111569528D01*
X136359359Y-111483351D01*
X136331083Y-111388347D01*
X136306369Y-111304441D01*
X136305394Y-111301102D01*
X136286935Y-111244248D01*
X136270649Y-111205456D01*
X136259242Y-111190787D01*
X136256898Y-111192483D01*
X136248671Y-111215225D01*
X136233038Y-111263940D01*
X136211904Y-111332502D01*
X136187170Y-111414785D01*
X136173787Y-111460046D01*
X136101311Y-111706526D01*
X135947495Y-111706526D01*
X135824531Y-111318006D01*
X135789988Y-111209022D01*
X135758521Y-111110048D01*
X135731616Y-111025736D01*
X135710759Y-110960734D01*
X135697438Y-110919692D01*
X135693388Y-110907701D01*
X135696594Y-110895423D01*
X135721765Y-110890046D01*
X135774146Y-110890584D01*
X135782345Y-110890990D01*
X135879482Y-110896066D01*
X135943100Y-111130013D01*
X135966484Y-111215333D01*
X135987381Y-111290335D01*
X136003951Y-111348507D01*
X136014354Y-111383337D01*
X136016276Y-111389016D01*
X136024241Y-111382486D01*
X136040304Y-111348654D01*
X136062621Y-111292127D01*
X136089345Y-111217510D01*
X136111937Y-111150107D01*
X136198041Y-110886143D01*
X136264130Y-110891104D01*
G37*
X136264130Y-110891104D02*
X136330220Y-110896066D01*
X136416626Y-111155079D01*
X136503031Y-111414092D01*
X136530124Y-111322184D01*
X136546428Y-111265384D01*
X136567875Y-111188625D01*
X136591035Y-111104251D01*
X136603280Y-111058993D01*
X136649344Y-110887710D01*
X136839387Y-110887710D01*
X136782582Y-111067349D01*
X136754607Y-111155704D01*
X136720813Y-111262281D01*
X136685520Y-111373454D01*
X136654013Y-111472579D01*
X136582250Y-111698171D01*
X136427286Y-111708253D01*
X136385270Y-111569528D01*
X136359359Y-111483351D01*
X136331083Y-111388347D01*
X136306369Y-111304441D01*
X136305394Y-111301102D01*
X136286935Y-111244248D01*
X136270649Y-111205456D01*
X136259242Y-111190787D01*
X136256898Y-111192483D01*
X136248671Y-111215225D01*
X136233038Y-111263940D01*
X136211904Y-111332502D01*
X136187170Y-111414785D01*
X136173787Y-111460046D01*
X136101311Y-111706526D01*
X135947495Y-111706526D01*
X135824531Y-111318006D01*
X135789988Y-111209022D01*
X135758521Y-111110048D01*
X135731616Y-111025736D01*
X135710759Y-110960734D01*
X135697438Y-110919692D01*
X135693388Y-110907701D01*
X135696594Y-110895423D01*
X135721765Y-110890046D01*
X135774146Y-110890584D01*
X135782345Y-110890990D01*
X135879482Y-110896066D01*
X135943100Y-111130013D01*
X135966484Y-111215333D01*
X135987381Y-111290335D01*
X136003951Y-111348507D01*
X136014354Y-111383337D01*
X136016276Y-111389016D01*
X136024241Y-111382486D01*
X136040304Y-111348654D01*
X136062621Y-111292127D01*
X136089345Y-111217510D01*
X136111937Y-111150107D01*
X136198041Y-110886143D01*
X136264130Y-110891104D01*
G36*
X135622631Y-111706526D02*
G01*
X135530723Y-111706526D01*
X135477377Y-111704962D01*
X135449593Y-111698485D01*
X135439590Y-111684418D01*
X135438815Y-111674906D01*
X135437128Y-111655832D01*
X135426490Y-111652174D01*
X135398535Y-111663932D01*
X135376795Y-111674906D01*
X135293332Y-111700911D01*
X135202604Y-111702416D01*
X135128842Y-111683021D01*
X135060154Y-111636165D01*
X135007794Y-111567004D01*
X134979122Y-111485427D01*
X134978392Y-111480866D01*
X134974132Y-111431101D01*
X134972014Y-111359659D01*
X134972184Y-111305626D01*
X135154720Y-111305626D01*
X135158949Y-111377441D01*
X135168568Y-111436634D01*
X135181590Y-111470060D01*
X135230856Y-111515740D01*
X135289350Y-111532115D01*
X135349671Y-111518873D01*
X135401217Y-111479373D01*
X135420738Y-111452807D01*
X135432152Y-111421106D01*
X135437498Y-111374832D01*
X135438815Y-111305328D01*
X135436458Y-111236499D01*
X135430233Y-111176026D01*
X135421408Y-111135556D01*
X135419937Y-111131929D01*
X135384347Y-111088802D01*
X135332400Y-111065124D01*
X135274278Y-111061301D01*
X135220160Y-111077738D01*
X135180226Y-111114840D01*
X135176083Y-111122222D01*
X135163116Y-111167239D01*
X135156052Y-111231967D01*
X135154720Y-111305626D01*
X134972184Y-111305626D01*
X134972271Y-111278230D01*
X134973472Y-111234405D01*
X134981645Y-111125988D01*
X134998630Y-111044588D01*
X135026887Y-110984412D01*
X135068872Y-110939666D01*
X135109632Y-110913400D01*
X135166581Y-110894935D01*
X135237411Y-110888602D01*
X135309941Y-110893760D01*
X135371986Y-110909769D01*
X135404768Y-110928920D01*
X135438815Y-110959732D01*
X135438815Y-110570210D01*
X135622631Y-110570210D01*
X135622631Y-111706526D01*
G37*
X135622631Y-111706526D02*
X135530723Y-111706526D01*
X135477377Y-111704962D01*
X135449593Y-111698485D01*
X135439590Y-111684418D01*
X135438815Y-111674906D01*
X135437128Y-111655832D01*
X135426490Y-111652174D01*
X135398535Y-111663932D01*
X135376795Y-111674906D01*
X135293332Y-111700911D01*
X135202604Y-111702416D01*
X135128842Y-111683021D01*
X135060154Y-111636165D01*
X135007794Y-111567004D01*
X134979122Y-111485427D01*
X134978392Y-111480866D01*
X134974132Y-111431101D01*
X134972014Y-111359659D01*
X134972184Y-111305626D01*
X135154720Y-111305626D01*
X135158949Y-111377441D01*
X135168568Y-111436634D01*
X135181590Y-111470060D01*
X135230856Y-111515740D01*
X135289350Y-111532115D01*
X135349671Y-111518873D01*
X135401217Y-111479373D01*
X135420738Y-111452807D01*
X135432152Y-111421106D01*
X135437498Y-111374832D01*
X135438815Y-111305328D01*
X135436458Y-111236499D01*
X135430233Y-111176026D01*
X135421408Y-111135556D01*
X135419937Y-111131929D01*
X135384347Y-111088802D01*
X135332400Y-111065124D01*
X135274278Y-111061301D01*
X135220160Y-111077738D01*
X135180226Y-111114840D01*
X135176083Y-111122222D01*
X135163116Y-111167239D01*
X135156052Y-111231967D01*
X135154720Y-111305626D01*
X134972184Y-111305626D01*
X134972271Y-111278230D01*
X134973472Y-111234405D01*
X134981645Y-111125988D01*
X134998630Y-111044588D01*
X135026887Y-110984412D01*
X135068872Y-110939666D01*
X135109632Y-110913400D01*
X135166581Y-110894935D01*
X135237411Y-110888602D01*
X135309941Y-110893760D01*
X135371986Y-110909769D01*
X135404768Y-110928920D01*
X135438815Y-110959732D01*
X135438815Y-110570210D01*
X135622631Y-110570210D01*
X135622631Y-111706526D01*
G36*
X134569881Y-110889486D02*
G01*
X134594888Y-110896982D01*
X134602950Y-110913451D01*
X134603289Y-110920886D01*
X134604736Y-110941594D01*
X134614698Y-110944845D01*
X134641612Y-110930648D01*
X134657598Y-110920948D01*
X134708033Y-110900175D01*
X134768272Y-110889904D01*
X134831434Y-110889114D01*
X134890637Y-110896786D01*
X134939002Y-110911898D01*
X134969646Y-110933432D01*
X134975689Y-110960366D01*
X134972639Y-110967660D01*
X134950406Y-110997937D01*
X134915930Y-111035175D01*
X134909694Y-111041195D01*
X134876833Y-111068875D01*
X134848480Y-111077818D01*
X134808827Y-111071576D01*
X134792942Y-111067429D01*
X134743509Y-111057467D01*
X134708752Y-111061947D01*
X134679400Y-111077746D01*
X134652513Y-111098949D01*
X134632710Y-111125614D01*
X134618948Y-111162827D01*
X134610184Y-111215673D01*
X134605374Y-111289237D01*
X134603474Y-111388605D01*
X134603289Y-111448601D01*
X134603289Y-111706526D01*
X134436184Y-111706526D01*
X134436184Y-110887710D01*
X134519736Y-110887710D01*
X134569881Y-110889486D01*
G37*
X134569881Y-110889486D02*
X134594888Y-110896982D01*
X134602950Y-110913451D01*
X134603289Y-110920886D01*
X134604736Y-110941594D01*
X134614698Y-110944845D01*
X134641612Y-110930648D01*
X134657598Y-110920948D01*
X134708033Y-110900175D01*
X134768272Y-110889904D01*
X134831434Y-110889114D01*
X134890637Y-110896786D01*
X134939002Y-110911898D01*
X134969646Y-110933432D01*
X134975689Y-110960366D01*
X134972639Y-110967660D01*
X134950406Y-110997937D01*
X134915930Y-111035175D01*
X134909694Y-111041195D01*
X134876833Y-111068875D01*
X134848480Y-111077818D01*
X134808827Y-111071576D01*
X134792942Y-111067429D01*
X134743509Y-111057467D01*
X134708752Y-111061947D01*
X134679400Y-111077746D01*
X134652513Y-111098949D01*
X134632710Y-111125614D01*
X134618948Y-111162827D01*
X134610184Y-111215673D01*
X134605374Y-111289237D01*
X134603474Y-111388605D01*
X134603289Y-111448601D01*
X134603289Y-111706526D01*
X134436184Y-111706526D01*
X134436184Y-110887710D01*
X134519736Y-110887710D01*
X134569881Y-110889486D01*
G36*
X134050457Y-110894184D02*
G01*
X134129070Y-110915160D01*
X134188916Y-110953180D01*
X134231147Y-111002978D01*
X134244275Y-111024230D01*
X134253968Y-111046492D01*
X134260744Y-111074970D01*
X134265123Y-111114871D01*
X134267624Y-111171401D01*
X134268768Y-111249767D01*
X134269072Y-111355176D01*
X134269078Y-111383142D01*
X134269078Y-111706526D01*
X134188868Y-111706526D01*
X134137706Y-111702943D01*
X134099877Y-111693866D01*
X134090399Y-111688268D01*
X134064488Y-111678606D01*
X134038024Y-111688268D01*
X133994452Y-111700330D01*
X133931160Y-111705185D01*
X133861010Y-111703078D01*
X133796860Y-111694256D01*
X133759407Y-111682937D01*
X133686933Y-111636412D01*
X133641640Y-111571846D01*
X133621278Y-111486000D01*
X133621088Y-111483796D01*
X133622875Y-111445713D01*
X133784473Y-111445713D01*
X133798601Y-111489030D01*
X133821612Y-111513408D01*
X133867804Y-111531845D01*
X133928775Y-111539205D01*
X133990949Y-111535583D01*
X134040751Y-111521074D01*
X134054703Y-111511765D01*
X134079085Y-111468753D01*
X134085263Y-111419857D01*
X134085263Y-111355605D01*
X133992818Y-111355605D01*
X133904995Y-111362366D01*
X133838418Y-111381520D01*
X133797002Y-111411376D01*
X133784473Y-111445713D01*
X133622875Y-111445713D01*
X133625490Y-111390004D01*
X133656424Y-111315847D01*
X133714581Y-111259767D01*
X133722620Y-111254665D01*
X133757163Y-111238055D01*
X133799918Y-111227996D01*
X133859686Y-111223107D01*
X133930690Y-111221983D01*
X134085263Y-111221921D01*
X134085263Y-111157125D01*
X134078706Y-111106850D01*
X134061975Y-111073169D01*
X134060016Y-111071376D01*
X134022783Y-111056642D01*
X133966580Y-111050931D01*
X133904467Y-111053737D01*
X133849510Y-111064556D01*
X133816899Y-111080782D01*
X133799228Y-111093780D01*
X133780569Y-111096262D01*
X133754819Y-111085613D01*
X133715873Y-111059218D01*
X133657630Y-111014465D01*
X133652284Y-111010273D01*
X133655023Y-110994760D01*
X133677876Y-110968960D01*
X133712609Y-110940289D01*
X133750990Y-110916166D01*
X133763048Y-110910470D01*
X133807034Y-110899103D01*
X133871487Y-110890995D01*
X133943497Y-110887743D01*
X133946864Y-110887736D01*
X134050457Y-110894184D01*
G37*
X134050457Y-110894184D02*
X134129070Y-110915160D01*
X134188916Y-110953180D01*
X134231147Y-111002978D01*
X134244275Y-111024230D01*
X134253968Y-111046492D01*
X134260744Y-111074970D01*
X134265123Y-111114871D01*
X134267624Y-111171401D01*
X134268768Y-111249767D01*
X134269072Y-111355176D01*
X134269078Y-111383142D01*
X134269078Y-111706526D01*
X134188868Y-111706526D01*
X134137706Y-111702943D01*
X134099877Y-111693866D01*
X134090399Y-111688268D01*
X134064488Y-111678606D01*
X134038024Y-111688268D01*
X133994452Y-111700330D01*
X133931160Y-111705185D01*
X133861010Y-111703078D01*
X133796860Y-111694256D01*
X133759407Y-111682937D01*
X133686933Y-111636412D01*
X133641640Y-111571846D01*
X133621278Y-111486000D01*
X133621088Y-111483796D01*
X133622875Y-111445713D01*
X133784473Y-111445713D01*
X133798601Y-111489030D01*
X133821612Y-111513408D01*
X133867804Y-111531845D01*
X133928775Y-111539205D01*
X133990949Y-111535583D01*
X134040751Y-111521074D01*
X134054703Y-111511765D01*
X134079085Y-111468753D01*
X134085263Y-111419857D01*
X134085263Y-111355605D01*
X133992818Y-111355605D01*
X133904995Y-111362366D01*
X133838418Y-111381520D01*
X133797002Y-111411376D01*
X133784473Y-111445713D01*
X133622875Y-111445713D01*
X133625490Y-111390004D01*
X133656424Y-111315847D01*
X133714581Y-111259767D01*
X133722620Y-111254665D01*
X133757163Y-111238055D01*
X133799918Y-111227996D01*
X133859686Y-111223107D01*
X133930690Y-111221983D01*
X134085263Y-111221921D01*
X134085263Y-111157125D01*
X134078706Y-111106850D01*
X134061975Y-111073169D01*
X134060016Y-111071376D01*
X134022783Y-111056642D01*
X133966580Y-111050931D01*
X133904467Y-111053737D01*
X133849510Y-111064556D01*
X133816899Y-111080782D01*
X133799228Y-111093780D01*
X133780569Y-111096262D01*
X133754819Y-111085613D01*
X133715873Y-111059218D01*
X133657630Y-111014465D01*
X133652284Y-111010273D01*
X133655023Y-110994760D01*
X133677876Y-110968960D01*
X133712609Y-110940289D01*
X133750990Y-110916166D01*
X133763048Y-110910470D01*
X133807034Y-110899103D01*
X133871487Y-110890995D01*
X133943497Y-110887743D01*
X133946864Y-110887736D01*
X134050457Y-110894184D01*
G36*
X133353360Y-109648468D02*
G01*
X133388592Y-109665874D01*
X133432040Y-109696206D01*
X133463706Y-109729283D01*
X133485394Y-109770817D01*
X133498903Y-109826522D01*
X133506038Y-109902111D01*
X133508600Y-110003296D01*
X133508750Y-110046797D01*
X133508312Y-110142135D01*
X133506496Y-110210271D01*
X133502545Y-110257418D01*
X133495702Y-110289790D01*
X133485211Y-110313600D01*
X133474296Y-110329843D01*
X133404619Y-110398952D01*
X133322566Y-110440521D01*
X133234050Y-110453023D01*
X133144981Y-110434934D01*
X133116763Y-110422142D01*
X133049210Y-110386931D01*
X133049210Y-110938700D01*
X133098512Y-110913205D01*
X133163473Y-110893480D01*
X133243320Y-110888427D01*
X133323052Y-110897756D01*
X133383265Y-110918714D01*
X133433208Y-110958627D01*
X133475881Y-111015741D01*
X133479090Y-111021605D01*
X133492622Y-111049227D01*
X133502505Y-111077068D01*
X133509309Y-111110794D01*
X133513601Y-111156071D01*
X133515951Y-111218562D01*
X133516928Y-111303935D01*
X133517105Y-111400010D01*
X133517105Y-111706526D01*
X133333289Y-111706526D01*
X133333289Y-111141339D01*
X133281875Y-111098077D01*
X133228466Y-111063472D01*
X133177888Y-111057180D01*
X133127030Y-111073372D01*
X133099925Y-111089227D01*
X133079751Y-111111810D01*
X133065403Y-111145940D01*
X133055776Y-111196434D01*
X133049763Y-111268111D01*
X133046260Y-111365788D01*
X133045026Y-111430802D01*
X133040855Y-111698171D01*
X132953125Y-111703222D01*
X132865394Y-111708273D01*
X132865394Y-110049101D01*
X133049210Y-110049101D01*
X133053896Y-110141600D01*
X133069688Y-110205809D01*
X133099183Y-110245759D01*
X133144980Y-110265480D01*
X133191250Y-110269421D01*
X133243628Y-110264892D01*
X133278390Y-110247069D01*
X133300128Y-110223519D01*
X133317240Y-110198189D01*
X133327427Y-110169969D01*
X133331960Y-110130431D01*
X133332109Y-110071142D01*
X133330584Y-110021498D01*
X133327081Y-109946710D01*
X133321867Y-109897611D01*
X133313087Y-109866467D01*
X133298886Y-109845545D01*
X133285484Y-109833452D01*
X133229487Y-109807081D01*
X133163211Y-109802822D01*
X133125156Y-109811906D01*
X133087477Y-109844196D01*
X133062519Y-109907006D01*
X133050422Y-109999894D01*
X133049210Y-110049101D01*
X132865394Y-110049101D01*
X132865394Y-109634421D01*
X132957302Y-109634421D01*
X133012483Y-109636603D01*
X133040952Y-109644351D01*
X133049206Y-109659468D01*
X133049210Y-109659916D01*
X133053040Y-109674720D01*
X133069933Y-109673039D01*
X133103519Y-109656772D01*
X133181778Y-109631887D01*
X133269827Y-109629271D01*
X133353360Y-109648468D01*
G37*
X133353360Y-109648468D02*
X133388592Y-109665874D01*
X133432040Y-109696206D01*
X133463706Y-109729283D01*
X133485394Y-109770817D01*
X133498903Y-109826522D01*
X133506038Y-109902111D01*
X133508600Y-110003296D01*
X133508750Y-110046797D01*
X133508312Y-110142135D01*
X133506496Y-110210271D01*
X133502545Y-110257418D01*
X133495702Y-110289790D01*
X133485211Y-110313600D01*
X133474296Y-110329843D01*
X133404619Y-110398952D01*
X133322566Y-110440521D01*
X133234050Y-110453023D01*
X133144981Y-110434934D01*
X133116763Y-110422142D01*
X133049210Y-110386931D01*
X133049210Y-110938700D01*
X133098512Y-110913205D01*
X133163473Y-110893480D01*
X133243320Y-110888427D01*
X133323052Y-110897756D01*
X133383265Y-110918714D01*
X133433208Y-110958627D01*
X133475881Y-111015741D01*
X133479090Y-111021605D01*
X133492622Y-111049227D01*
X133502505Y-111077068D01*
X133509309Y-111110794D01*
X133513601Y-111156071D01*
X133515951Y-111218562D01*
X133516928Y-111303935D01*
X133517105Y-111400010D01*
X133517105Y-111706526D01*
X133333289Y-111706526D01*
X133333289Y-111141339D01*
X133281875Y-111098077D01*
X133228466Y-111063472D01*
X133177888Y-111057180D01*
X133127030Y-111073372D01*
X133099925Y-111089227D01*
X133079751Y-111111810D01*
X133065403Y-111145940D01*
X133055776Y-111196434D01*
X133049763Y-111268111D01*
X133046260Y-111365788D01*
X133045026Y-111430802D01*
X133040855Y-111698171D01*
X132953125Y-111703222D01*
X132865394Y-111708273D01*
X132865394Y-110049101D01*
X133049210Y-110049101D01*
X133053896Y-110141600D01*
X133069688Y-110205809D01*
X133099183Y-110245759D01*
X133144980Y-110265480D01*
X133191250Y-110269421D01*
X133243628Y-110264892D01*
X133278390Y-110247069D01*
X133300128Y-110223519D01*
X133317240Y-110198189D01*
X133327427Y-110169969D01*
X133331960Y-110130431D01*
X133332109Y-110071142D01*
X133330584Y-110021498D01*
X133327081Y-109946710D01*
X133321867Y-109897611D01*
X133313087Y-109866467D01*
X133298886Y-109845545D01*
X133285484Y-109833452D01*
X133229487Y-109807081D01*
X133163211Y-109802822D01*
X133125156Y-109811906D01*
X133087477Y-109844196D01*
X133062519Y-109907006D01*
X133050422Y-109999894D01*
X133049210Y-110049101D01*
X132865394Y-110049101D01*
X132865394Y-109634421D01*
X132957302Y-109634421D01*
X133012483Y-109636603D01*
X133040952Y-109644351D01*
X133049206Y-109659468D01*
X133049210Y-109659916D01*
X133053040Y-109674720D01*
X133069933Y-109673039D01*
X133103519Y-109656772D01*
X133181778Y-109631887D01*
X133269827Y-109629271D01*
X133353360Y-109648468D01*
%TD*%
D11*
%TO.P,BUS1,c32*%
%TO.N,Net-(BUS1-Padc32)*%
X86360000Y-133985000D03*
%TO.P,BUS1,c31*%
%TO.N,/A0-ISA*%
X88900000Y-133985000D03*
%TO.P,BUS1,c30*%
%TO.N,/A1-ISA*%
X91440000Y-133985000D03*
%TO.P,BUS1,c29*%
%TO.N,/A2-ISA*%
X93980000Y-133985000D03*
%TO.P,BUS1,c28*%
%TO.N,/A3*%
X96520000Y-133985000D03*
%TO.P,BUS1,c27*%
%TO.N,A4*%
X99060000Y-133985000D03*
%TO.P,BUS1,c26*%
%TO.N,A5*%
X101600000Y-133985000D03*
%TO.P,BUS1,c25*%
%TO.N,A6*%
X104140000Y-133985000D03*
%TO.P,BUS1,c24*%
%TO.N,A7*%
X106680000Y-133985000D03*
%TO.P,BUS1,c23*%
%TO.N,A8*%
X109220000Y-133985000D03*
%TO.P,BUS1,c22*%
%TO.N,A9*%
X111760000Y-133985000D03*
%TO.P,BUS1,c21*%
%TO.N,/A10*%
X114300000Y-133985000D03*
%TO.P,BUS1,c20*%
%TO.N,/A11*%
X116840000Y-133985000D03*
%TO.P,BUS1,c19*%
%TO.N,/A12*%
X119380000Y-133985000D03*
%TO.P,BUS1,c18*%
%TO.N,A13*%
X121920000Y-133985000D03*
%TO.P,BUS1,c17*%
%TO.N,A14*%
X124460000Y-133985000D03*
%TO.P,BUS1,c16*%
%TO.N,A15*%
X127000000Y-133985000D03*
%TO.P,BUS1,c15*%
%TO.N,A16*%
X129540000Y-133985000D03*
%TO.P,BUS1,c14*%
%TO.N,A17*%
X132080000Y-133985000D03*
%TO.P,BUS1,c13*%
%TO.N,A18*%
X134620000Y-133985000D03*
%TO.P,BUS1,c12*%
%TO.N,A19*%
X137160000Y-133985000D03*
%TO.P,BUS1,c11*%
%TO.N,AEN*%
X139700000Y-133985000D03*
%TO.P,BUS1,c10*%
%TO.N,Net-(BUS1-Padc10)*%
X142240000Y-133985000D03*
%TO.P,BUS1,c9*%
%TO.N,/PC-DB0*%
X144780000Y-133985000D03*
%TO.P,BUS1,c8*%
%TO.N,/PC-DB1*%
X147320000Y-133985000D03*
%TO.P,BUS1,c7*%
%TO.N,/PC-DB2*%
X149860000Y-133985000D03*
%TO.P,BUS1,c6*%
%TO.N,/PC-DB3*%
X152400000Y-133985000D03*
%TO.P,BUS1,c5*%
%TO.N,/PC-DB4*%
X154940000Y-133985000D03*
%TO.P,BUS1,c4*%
%TO.N,/PC-DB5*%
X157480000Y-133985000D03*
%TO.P,BUS1,c3*%
%TO.N,/PC-DB6*%
X160020000Y-133985000D03*
%TO.P,BUS1,c2*%
%TO.N,/PC-DB7*%
X162560000Y-133985000D03*
%TO.P,BUS1,c1*%
%TO.N,Net-(BUS1-Padc1)*%
X165100000Y-133985000D03*
%TO.P,BUS1,b32*%
%TO.N,N/C*%
X86360000Y-136525000D03*
%TO.P,BUS1,b31*%
X88900000Y-136525000D03*
%TO.P,BUS1,b30*%
X91440000Y-136525000D03*
%TO.P,BUS1,b29*%
X93980000Y-136525000D03*
%TO.P,BUS1,b28*%
X96520000Y-136525000D03*
%TO.P,BUS1,b27*%
X99060000Y-136525000D03*
%TO.P,BUS1,b26*%
X101600000Y-136525000D03*
%TO.P,BUS1,b25*%
X104140000Y-136525000D03*
%TO.P,BUS1,b24*%
X106680000Y-136525000D03*
%TO.P,BUS1,b23*%
X109220000Y-136525000D03*
%TO.P,BUS1,b22*%
X111760000Y-136525000D03*
%TO.P,BUS1,b21*%
X114300000Y-136525000D03*
%TO.P,BUS1,b20*%
X116840000Y-136525000D03*
%TO.P,BUS1,b19*%
X119380000Y-136525000D03*
%TO.P,BUS1,b18*%
X121920000Y-136525000D03*
%TO.P,BUS1,b17*%
X124460000Y-136525000D03*
%TO.P,BUS1,b16*%
X127000000Y-136525000D03*
%TO.P,BUS1,b15*%
X129540000Y-136525000D03*
%TO.P,BUS1,b14*%
X132080000Y-136525000D03*
%TO.P,BUS1,b13*%
X134620000Y-136525000D03*
%TO.P,BUS1,b12*%
X137160000Y-136525000D03*
%TO.P,BUS1,b11*%
X139700000Y-136525000D03*
%TO.P,BUS1,b10*%
X142240000Y-136525000D03*
%TO.P,BUS1,b9*%
X144780000Y-136525000D03*
%TO.P,BUS1,b8*%
X147320000Y-136525000D03*
%TO.P,BUS1,b7*%
X149860000Y-136525000D03*
%TO.P,BUS1,b6*%
X152400000Y-136525000D03*
%TO.P,BUS1,b5*%
X154940000Y-136525000D03*
%TO.P,BUS1,b4*%
X157480000Y-136525000D03*
%TO.P,BUS1,b3*%
X160020000Y-136525000D03*
%TO.P,BUS1,b2*%
X162560000Y-136525000D03*
%TO.P,BUS1,b1*%
X165100000Y-136525000D03*
%TO.P,BUS1,a32*%
%TO.N,Net-(BUS1-Pada32)*%
X86360000Y-139065000D03*
%TO.P,BUS1,a31*%
%TO.N,GND*%
X88900000Y-139065000D03*
%TO.P,BUS1,a30*%
%TO.N,Net-(BUS1-Pada30)*%
X91440000Y-139065000D03*
%TO.P,BUS1,a29*%
%TO.N,VCC*%
X93980000Y-139065000D03*
%TO.P,BUS1,a28*%
%TO.N,Net-(BUS1-Pada28)*%
X96520000Y-139065000D03*
%TO.P,BUS1,a27*%
%TO.N,Net-(BUS1-Pada27)*%
X99060000Y-139065000D03*
%TO.P,BUS1,a26*%
%TO.N,Net-(BUS1-Pada26)*%
X101600000Y-139065000D03*
%TO.P,BUS1,a25*%
%TO.N,/IRQ3*%
X104140000Y-139065000D03*
%TO.P,BUS1,a24*%
%TO.N,/IRQ4*%
X106680000Y-139065000D03*
%TO.P,BUS1,a23*%
%TO.N,/IRQ5*%
X109220000Y-139065000D03*
%TO.P,BUS1,a22*%
%TO.N,Net-(BUS1-Pada22)*%
X111760000Y-139065000D03*
%TO.P,BUS1,a21*%
%TO.N,/IRQ7*%
X114300000Y-139065000D03*
%TO.P,BUS1,a20*%
%TO.N,Net-(BUS1-Pada20)*%
X116840000Y-139065000D03*
%TO.P,BUS1,a19*%
%TO.N,Net-(BUS1-Pada19)*%
X119380000Y-139065000D03*
%TO.P,BUS1,a18*%
%TO.N,Net-(BUS1-Pada18)*%
X121920000Y-139065000D03*
%TO.P,BUS1,a17*%
%TO.N,Net-(BUS1-Pada17)*%
X124460000Y-139065000D03*
%TO.P,BUS1,a16*%
%TO.N,Net-(BUS1-Pada16)*%
X127000000Y-139065000D03*
%TO.P,BUS1,a15*%
%TO.N,Net-(BUS1-Pada15)*%
X129540000Y-139065000D03*
%TO.P,BUS1,a14*%
%TO.N,\u002AIOR-ISA*%
X132080000Y-139065000D03*
%TO.P,BUS1,a13*%
%TO.N,/\u002AIOW-ISA*%
X134620000Y-139065000D03*
%TO.P,BUS1,a12*%
%TO.N,/\u002AMEMR*%
X137160000Y-139065000D03*
%TO.P,BUS1,a11*%
%TO.N,\u002AMEMW*%
X139700000Y-139065000D03*
%TO.P,BUS1,a10*%
%TO.N,Net-(BUS1-Pada10)*%
X142240000Y-139065000D03*
%TO.P,BUS1,a9*%
%TO.N,Net-(BUS1-Pada9)*%
X144780000Y-139065000D03*
%TO.P,BUS1,a8*%
%TO.N,Net-(BUS1-Pada8)*%
X147320000Y-139065000D03*
%TO.P,BUS1,a7*%
%TO.N,Net-(BUS1-Pada7)*%
X149860000Y-139065000D03*
%TO.P,BUS1,a6*%
%TO.N,Net-(BUS1-Pada6)*%
X152400000Y-139065000D03*
%TO.P,BUS1,a5*%
%TO.N,Net-(BUS1-Pada5)*%
X154940000Y-139065000D03*
%TO.P,BUS1,a4*%
%TO.N,IRQ2*%
X157480000Y-139065000D03*
%TO.P,BUS1,a3*%
%TO.N,VCC*%
X160020000Y-139065000D03*
%TO.P,BUS1,a2*%
%TO.N,RESDRV*%
X162560000Y-139065000D03*
%TO.P,BUS1,a1*%
%TO.N,GND*%
%TA.AperFunction,ComponentPad*%
G36*
G01*
X165875000Y-138539999D02*
X165875000Y-139590001D01*
G75*
G02*
X165625001Y-139840000I-249999J0D01*
G01*
X164574999Y-139840000D01*
G75*
G02*
X164325000Y-139590001I0J249999D01*
G01*
X164325000Y-138539999D01*
G75*
G02*
X164574999Y-138290000I249999J0D01*
G01*
X165625001Y-138290000D01*
G75*
G02*
X165875000Y-138539999I0J-249999D01*
G01*
G37*
%TD.AperFunction*%
%TD*%
D12*
%TO.P,U9,1*%
%TO.N,A14*%
X91567000Y-91821000D03*
D13*
%TO.P,U9,2*%
%TO.N,/A12*%
X91567000Y-94361000D03*
%TO.P,U9,3*%
%TO.N,A7*%
X91567000Y-96901000D03*
%TO.P,U9,4*%
%TO.N,A6*%
X91567000Y-99441000D03*
%TO.P,U9,5*%
%TO.N,A5*%
X91567000Y-101981000D03*
%TO.P,U9,6*%
%TO.N,A4*%
X91567000Y-104521000D03*
%TO.P,U9,7*%
%TO.N,/A3*%
X91567000Y-107061000D03*
%TO.P,U9,8*%
%TO.N,/A2-ISA*%
X91567000Y-109601000D03*
%TO.P,U9,9*%
%TO.N,/A1-ISA*%
X91567000Y-112141000D03*
%TO.P,U9,10*%
%TO.N,/A0-ISA*%
X91567000Y-114681000D03*
%TO.P,U9,11*%
%TO.N,/PC-DB0*%
X91567000Y-117221000D03*
%TO.P,U9,12*%
%TO.N,/PC-DB1*%
X91567000Y-119761000D03*
%TO.P,U9,13*%
%TO.N,/PC-DB2*%
X91567000Y-122301000D03*
%TO.P,U9,14*%
%TO.N,GND*%
X91567000Y-124841000D03*
%TO.P,U9,15*%
%TO.N,/PC-DB3*%
X106807000Y-124841000D03*
%TO.P,U9,16*%
%TO.N,/PC-DB4*%
X106807000Y-122301000D03*
%TO.P,U9,17*%
%TO.N,/PC-DB5*%
X106807000Y-119761000D03*
%TO.P,U9,18*%
%TO.N,/PC-DB6*%
X106807000Y-117221000D03*
%TO.P,U9,19*%
%TO.N,/PC-DB7*%
X106807000Y-114681000D03*
%TO.P,U9,20*%
%TO.N,//CS_ROM*%
X106807000Y-112141000D03*
%TO.P,U9,21*%
%TO.N,/A10*%
X106807000Y-109601000D03*
%TO.P,U9,22*%
%TO.N,/\u002AMEMR*%
X106807000Y-107061000D03*
%TO.P,U9,23*%
%TO.N,/A11*%
X106807000Y-104521000D03*
%TO.P,U9,24*%
%TO.N,A9*%
X106807000Y-101981000D03*
%TO.P,U9,25*%
%TO.N,A8*%
X106807000Y-99441000D03*
%TO.P,U9,26*%
%TO.N,A13*%
X106807000Y-96901000D03*
%TO.P,U9,27*%
%TO.N,/ROM_WE*%
X106807000Y-94361000D03*
%TO.P,U9,28*%
%TO.N,VCC*%
X106807000Y-91821000D03*
%TD*%
D14*
%TO.P,C9,1*%
%TO.N,VCC*%
X110871000Y-91821000D03*
%TO.P,C9,2*%
%TO.N,GND*%
X121031000Y-91821000D03*
%TD*%
%TO.P,R3,1*%
%TO.N,VCC*%
X121031000Y-94361000D03*
%TO.P,R3,2*%
%TO.N,/ROM_WE*%
X110871000Y-94361000D03*
%TD*%
%TO.P,R4,1*%
%TO.N,VCC*%
X110871000Y-96901000D03*
%TO.P,R4,2*%
%TO.N,Net-(R4-Pad2)*%
X121031000Y-96901000D03*
%TD*%
D12*
%TO.P,U1,1*%
%TO.N,/4*%
X64897000Y-58801000D03*
D13*
%TO.P,U1,2*%
%TO.N,/D8*%
X64897000Y-61341000D03*
%TO.P,U1,3*%
%TO.N,/D9*%
X64897000Y-63881000D03*
%TO.P,U1,4*%
%TO.N,/D10*%
X64897000Y-66421000D03*
%TO.P,U1,5*%
%TO.N,/D11*%
X64897000Y-68961000D03*
%TO.P,U1,6*%
%TO.N,/D12*%
X64897000Y-71501000D03*
%TO.P,U1,7*%
%TO.N,/D13*%
X64897000Y-74041000D03*
%TO.P,U1,8*%
%TO.N,/D14*%
X64897000Y-76581000D03*
%TO.P,U1,9*%
%TO.N,/D15*%
X64897000Y-79121000D03*
%TO.P,U1,10*%
%TO.N,GND*%
X64897000Y-81661000D03*
%TO.P,U1,11*%
%TO.N,/5*%
X72517000Y-81661000D03*
%TO.P,U1,12*%
%TO.N,D7*%
X72517000Y-79121000D03*
%TO.P,U1,13*%
%TO.N,D6*%
X72517000Y-76581000D03*
%TO.P,U1,14*%
%TO.N,D5*%
X72517000Y-74041000D03*
%TO.P,U1,15*%
%TO.N,D4*%
X72517000Y-71501000D03*
%TO.P,U1,16*%
%TO.N,D3*%
X72517000Y-68961000D03*
%TO.P,U1,17*%
%TO.N,D2*%
X72517000Y-66421000D03*
%TO.P,U1,18*%
%TO.N,D1*%
X72517000Y-63881000D03*
%TO.P,U1,19*%
%TO.N,D0*%
X72517000Y-61341000D03*
%TO.P,U1,20*%
%TO.N,VCC*%
X72517000Y-58801000D03*
%TD*%
D12*
%TO.P,U3,1*%
%TO.N,GND*%
X104648000Y-58801000D03*
D13*
%TO.P,U3,2*%
%TO.N,/\u002ACS1FX*%
X104648000Y-61341000D03*
%TO.P,U3,3*%
%TO.N,/\u002ACS3FX*%
X104648000Y-63881000D03*
%TO.P,U3,4*%
%TO.N,/A2-IDE*%
X104648000Y-66421000D03*
%TO.P,U3,5*%
%TO.N,/A0-IDE*%
X104648000Y-68961000D03*
%TO.P,U3,6*%
%TO.N,/A1-IDE*%
X104648000Y-71501000D03*
%TO.P,U3,7*%
%TO.N,/\u002AIOR-IDE*%
X104648000Y-74041000D03*
%TO.P,U3,8*%
%TO.N,/\u002AIOW-IDE*%
X104648000Y-76581000D03*
%TO.P,U3,9*%
%TO.N,/\u002ARESET*%
X104648000Y-79121000D03*
%TO.P,U3,10*%
%TO.N,GND*%
X104648000Y-81661000D03*
%TO.P,U3,11*%
%TO.N,Net-(U3-Pad11)*%
X112268000Y-81661000D03*
%TO.P,U3,12*%
%TO.N,/\u002AIOW-ISA*%
X112268000Y-79121000D03*
%TO.P,U3,13*%
%TO.N,\u002AIOR_DELAYED*%
X112268000Y-76581000D03*
%TO.P,U3,14*%
%TO.N,/A1-ISA*%
X112268000Y-74041000D03*
%TO.P,U3,15*%
%TO.N,Net-(J2-Pad2)*%
X112268000Y-71501000D03*
%TO.P,U3,16*%
%TO.N,/A2-ISA*%
X112268000Y-68961000D03*
%TO.P,U3,17*%
%TO.N,/6*%
X112268000Y-66421000D03*
%TO.P,U3,18*%
%TO.N,/7*%
X112268000Y-63881000D03*
%TO.P,U3,19*%
%TO.N,GND*%
X112268000Y-61341000D03*
%TO.P,U3,20*%
%TO.N,VCC*%
X112268000Y-58801000D03*
%TD*%
D15*
%TO.P,P6,1*%
%TO.N,GND*%
X186690000Y-140335000D03*
%TD*%
%TO.P,P7,1*%
%TO.N,GND*%
X186690000Y-83820000D03*
%TD*%
D16*
%TO.P,J5,1*%
%TO.N,IRQ2*%
X145796000Y-95377000D03*
D17*
%TO.P,J5,2*%
%TO.N,/INTRQ*%
X145796000Y-92837000D03*
%TO.P,J5,3*%
%TO.N,/IRQ3*%
X148336000Y-95377000D03*
%TO.P,J5,4*%
%TO.N,/INTRQ*%
X148336000Y-92837000D03*
%TO.P,J5,5*%
%TO.N,/IRQ4*%
X150876000Y-95377000D03*
%TO.P,J5,6*%
%TO.N,/INTRQ*%
X150876000Y-92837000D03*
%TO.P,J5,7*%
%TO.N,/IRQ5*%
X153416000Y-95377000D03*
%TO.P,J5,8*%
%TO.N,/INTRQ*%
X153416000Y-92837000D03*
%TO.P,J5,9*%
%TO.N,/IRQ7*%
X155956000Y-95377000D03*
%TO.P,J5,10*%
%TO.N,/INTRQ*%
X155956000Y-92837000D03*
%TD*%
D16*
%TO.P,J2,1*%
%TO.N,/A0-ISA*%
X147193000Y-49212500D03*
D17*
%TO.P,J2,2*%
%TO.N,Net-(J2-Pad2)*%
X147193000Y-51752500D03*
%TO.P,J2,3*%
%TO.N,/A3*%
X147193000Y-54292500D03*
%TD*%
D16*
%TO.P,J1,1*%
%TO.N,/A3*%
X139573000Y-49212500D03*
D17*
%TO.P,J1,2*%
%TO.N,Net-(J1-Pad2)*%
X139573000Y-51752500D03*
%TO.P,J1,3*%
%TO.N,/A0-ISA*%
X139573000Y-54292500D03*
%TD*%
D16*
%TO.P,J3,1*%
%TO.N,GND*%
X186563000Y-51752500D03*
D17*
%TO.P,J3,2*%
%TO.N,Net-(J3-Pad2)*%
X184023000Y-51752500D03*
%TD*%
D16*
%TO.P,J4,1*%
%TO.N,VCC*%
X59944000Y-98298000D03*
D17*
%TO.P,J4,2*%
%TO.N,/VCC_CF*%
X57404000Y-98298000D03*
%TD*%
D18*
%TO.P,D1,1*%
%TO.N,Net-(D1-Pad1)*%
X179578000Y-51752500D03*
D19*
%TO.P,D1,2*%
%TO.N,VCC*%
X177038000Y-51752500D03*
%TD*%
D17*
%TO.P,C12,2*%
%TO.N,GND*%
X50205000Y-138430000D03*
D16*
%TO.P,C12,1*%
%TO.N,VCC*%
X52705000Y-138430000D03*
%TD*%
%TO.P,IDE1,1*%
%TO.N,/\u002ARESET*%
X45720000Y-98425000D03*
D20*
%TO.P,IDE1,2*%
%TO.N,GND*%
X43180000Y-98425000D03*
%TO.P,IDE1,3*%
%TO.N,D7*%
X45720000Y-95885000D03*
%TO.P,IDE1,4*%
%TO.N,/D8*%
X43180000Y-95885000D03*
%TO.P,IDE1,5*%
%TO.N,D6*%
X45720000Y-93345000D03*
%TO.P,IDE1,6*%
%TO.N,/D9*%
X43180000Y-93345000D03*
%TO.P,IDE1,7*%
%TO.N,D5*%
X45720000Y-90805000D03*
%TO.P,IDE1,8*%
%TO.N,/D10*%
X43180000Y-90805000D03*
%TO.P,IDE1,9*%
%TO.N,D4*%
X45720000Y-88265000D03*
%TO.P,IDE1,10*%
%TO.N,/D11*%
X43180000Y-88265000D03*
%TO.P,IDE1,11*%
%TO.N,D3*%
X45720000Y-85725000D03*
%TO.P,IDE1,12*%
%TO.N,/D12*%
X43180000Y-85725000D03*
%TO.P,IDE1,13*%
%TO.N,D2*%
X45720000Y-83185000D03*
%TO.P,IDE1,14*%
%TO.N,/D13*%
X43180000Y-83185000D03*
%TO.P,IDE1,15*%
%TO.N,D1*%
X45720000Y-80645000D03*
%TO.P,IDE1,16*%
%TO.N,/D14*%
X43180000Y-80645000D03*
%TO.P,IDE1,17*%
%TO.N,D0*%
X45720000Y-78105000D03*
%TO.P,IDE1,18*%
%TO.N,/D15*%
X43180000Y-78105000D03*
%TO.P,IDE1,19*%
%TO.N,GND*%
X45720000Y-75565000D03*
%TO.P,IDE1,20*%
%TO.N,/VCC_CF*%
X43180000Y-75565000D03*
%TO.P,IDE1,21*%
%TO.N,/DMARQ*%
X45720000Y-73025000D03*
%TO.P,IDE1,22*%
%TO.N,GND*%
X43180000Y-73025000D03*
%TO.P,IDE1,23*%
%TO.N,/\u002AIOW-IDE*%
X45720000Y-70485000D03*
%TO.P,IDE1,24*%
%TO.N,GND*%
X43180000Y-70485000D03*
%TO.P,IDE1,25*%
%TO.N,/\u002AIOR-IDE*%
X45720000Y-67945000D03*
%TO.P,IDE1,26*%
%TO.N,GND*%
X43180000Y-67945000D03*
%TO.P,IDE1,27*%
%TO.N,/IORDY*%
X45720000Y-65405000D03*
%TO.P,IDE1,28*%
%TO.N,GND*%
X43180000Y-65405000D03*
%TO.P,IDE1,29*%
%TO.N,VCC*%
X45720000Y-62865000D03*
%TO.P,IDE1,30*%
%TO.N,GND*%
X43180000Y-62865000D03*
%TO.P,IDE1,31*%
%TO.N,/INTRQ*%
X45720000Y-60325000D03*
%TO.P,IDE1,32*%
%TO.N,/IOCS16*%
X43180000Y-60325000D03*
%TO.P,IDE1,33*%
%TO.N,/A1-IDE*%
X45720000Y-57785000D03*
%TO.P,IDE1,34*%
%TO.N,/PDIAG*%
X43180000Y-57785000D03*
%TO.P,IDE1,35*%
%TO.N,/A0-IDE*%
X45720000Y-55245000D03*
%TO.P,IDE1,36*%
%TO.N,/A2-IDE*%
X43180000Y-55245000D03*
%TO.P,IDE1,37*%
%TO.N,/\u002ACS1FX*%
X45720000Y-52705000D03*
%TO.P,IDE1,38*%
%TO.N,/\u002ACS3FX*%
X43180000Y-52705000D03*
%TO.P,IDE1,39*%
%TO.N,\u002ADASP*%
X45720000Y-50165000D03*
%TO.P,IDE1,40*%
%TO.N,GND*%
X43180000Y-50165000D03*
%TD*%
D12*
%TO.P,U2,1*%
%TO.N,\u002AHI_OUT_DELAYED*%
X78232000Y-58801000D03*
D13*
%TO.P,U2,2*%
%TO.N,D0*%
X78232000Y-61341000D03*
%TO.P,U2,3*%
%TO.N,D1*%
X78232000Y-63881000D03*
%TO.P,U2,4*%
%TO.N,D2*%
X78232000Y-66421000D03*
%TO.P,U2,5*%
%TO.N,D3*%
X78232000Y-68961000D03*
%TO.P,U2,6*%
%TO.N,D4*%
X78232000Y-71501000D03*
%TO.P,U2,7*%
%TO.N,D5*%
X78232000Y-74041000D03*
%TO.P,U2,8*%
%TO.N,D6*%
X78232000Y-76581000D03*
%TO.P,U2,9*%
%TO.N,D7*%
X78232000Y-79121000D03*
%TO.P,U2,10*%
%TO.N,GND*%
X78232000Y-81661000D03*
%TO.P,U2,11*%
%TO.N,/3*%
X85852000Y-81661000D03*
%TO.P,U2,12*%
%TO.N,/D15*%
X85852000Y-79121000D03*
%TO.P,U2,13*%
%TO.N,/D14*%
X85852000Y-76581000D03*
%TO.P,U2,14*%
%TO.N,/D13*%
X85852000Y-74041000D03*
%TO.P,U2,15*%
%TO.N,/D12*%
X85852000Y-71501000D03*
%TO.P,U2,16*%
%TO.N,/D11*%
X85852000Y-68961000D03*
%TO.P,U2,17*%
%TO.N,/D10*%
X85852000Y-66421000D03*
%TO.P,U2,18*%
%TO.N,/D9*%
X85852000Y-63881000D03*
%TO.P,U2,19*%
%TO.N,/D8*%
X85852000Y-61341000D03*
%TO.P,U2,20*%
%TO.N,VCC*%
X85852000Y-58801000D03*
%TD*%
D12*
%TO.P,U5,1*%
%TO.N,\u002ACS_IDE*%
X145034000Y-66040000D03*
D13*
%TO.P,U5,2*%
%TO.N,Net-(U5-Pad2)*%
X145034000Y-68580000D03*
%TO.P,U5,3*%
%TO.N,/6*%
X145034000Y-71120000D03*
%TO.P,U5,4*%
%TO.N,Net-(J1-Pad2)*%
X145034000Y-73660000D03*
%TO.P,U5,5*%
%TO.N,\u002ACS_IDE*%
X145034000Y-76200000D03*
%TO.P,U5,6*%
%TO.N,/7*%
X145034000Y-78740000D03*
%TO.P,U5,7*%
%TO.N,GND*%
X145034000Y-81280000D03*
%TO.P,U5,8*%
%TO.N,Net-(U5-Pad8)*%
X152654000Y-81280000D03*
%TO.P,U5,9*%
%TO.N,/A2-ISA*%
X152654000Y-78740000D03*
%TO.P,U5,10*%
%TO.N,/A1-ISA*%
X152654000Y-76200000D03*
%TO.P,U5,11*%
%TO.N,Net-(U4-Pad9)*%
X152654000Y-73660000D03*
%TO.P,U5,12*%
%TO.N,\u002AHI_BYTE_OUTPUT*%
X152654000Y-71120000D03*
%TO.P,U5,13*%
%TO.N,GND*%
X152654000Y-68580000D03*
%TO.P,U5,14*%
%TO.N,VCC*%
X152654000Y-66040000D03*
%TD*%
D12*
%TO.P,U6,1*%
%TO.N,Net-(J1-Pad2)*%
X156464000Y-66040000D03*
D13*
%TO.P,U6,2*%
%TO.N,Net-(U5-Pad2)*%
X156464000Y-68580000D03*
%TO.P,U6,3*%
%TO.N,RESDRV*%
X156464000Y-71120000D03*
%TO.P,U6,4*%
%TO.N,Net-(U3-Pad11)*%
X156464000Y-73660000D03*
%TO.P,U6,5*%
%TO.N,Net-(U6-Pad5)*%
X156464000Y-76200000D03*
%TO.P,U6,6*%
%TO.N,/5*%
X156464000Y-78740000D03*
%TO.P,U6,7*%
%TO.N,GND*%
X156464000Y-81280000D03*
%TO.P,U6,8*%
%TO.N,/3*%
X164084000Y-81280000D03*
%TO.P,U6,9*%
%TO.N,Net-(U6-Pad9)*%
X164084000Y-78740000D03*
%TO.P,U6,10*%
%TO.N,Net-(U6-Pad10)*%
X164084000Y-76200000D03*
%TO.P,U6,11*%
%TO.N,Net-(U5-Pad8)*%
X164084000Y-73660000D03*
%TO.P,U6,12*%
%TO.N,Net-(R2-Pad2)*%
X164084000Y-71120000D03*
%TO.P,U6,13*%
%TO.N,\u002ADASP*%
X164084000Y-68580000D03*
%TO.P,U6,14*%
%TO.N,VCC*%
X164084000Y-66040000D03*
%TD*%
D12*
%TO.P,U7,1*%
%TO.N,/\u002AIOW-ISA*%
X167894000Y-63500000D03*
D13*
%TO.P,U7,2*%
%TO.N,\u002AIOR-ISA*%
X167894000Y-66040000D03*
%TO.P,U7,3*%
%TO.N,Net-(J1-Pad2)*%
X167894000Y-68580000D03*
%TO.P,U7,4*%
%TO.N,\u002ACS_IDE*%
X167894000Y-71120000D03*
%TO.P,U7,5*%
%TO.N,Net-(J2-Pad2)*%
X167894000Y-73660000D03*
%TO.P,U7,6*%
%TO.N,Net-(U6-Pad10)*%
X167894000Y-76200000D03*
%TO.P,U7,7*%
%TO.N,Net-(U7-Pad7)*%
X167894000Y-78740000D03*
%TO.P,U7,8*%
%TO.N,GND*%
X167894000Y-81280000D03*
%TO.P,U7,9*%
%TO.N,Net-(U6-Pad9)*%
X175514000Y-81280000D03*
%TO.P,U7,10*%
%TO.N,/4*%
X175514000Y-78740000D03*
%TO.P,U7,11*%
%TO.N,Net-(U7-Pad11)*%
X175514000Y-76200000D03*
%TO.P,U7,12*%
%TO.N,Net-(U7-Pad12)*%
X175514000Y-73660000D03*
%TO.P,U7,13*%
%TO.N,\u002AHI_BYTE_OUTPUT*%
X175514000Y-71120000D03*
%TO.P,U7,14*%
%TO.N,Net-(U6-Pad5)*%
X175514000Y-68580000D03*
%TO.P,U7,15*%
%TO.N,Net-(U7-Pad15)*%
X175514000Y-66040000D03*
%TO.P,U7,16*%
%TO.N,VCC*%
X175514000Y-63500000D03*
%TD*%
D12*
%TO.P,U8,1*%
%TO.N,AEN*%
X78359000Y-101981000D03*
D13*
%TO.P,U8,2*%
%TO.N,A9*%
X78359000Y-104521000D03*
%TO.P,U8,3*%
%TO.N,Net-(RP1-Pad3)*%
X78359000Y-107061000D03*
%TO.P,U8,4*%
%TO.N,A8*%
X78359000Y-109601000D03*
%TO.P,U8,5*%
%TO.N,Net-(RP1-Pad4)*%
X78359000Y-112141000D03*
%TO.P,U8,6*%
%TO.N,A7*%
X78359000Y-114681000D03*
%TO.P,U8,7*%
%TO.N,Net-(RP1-Pad5)*%
X78359000Y-117221000D03*
%TO.P,U8,8*%
%TO.N,GND*%
X78359000Y-119761000D03*
%TO.P,U8,9*%
X78359000Y-122301000D03*
%TO.P,U8,10*%
X78359000Y-124841000D03*
%TO.P,U8,11*%
X85979000Y-124841000D03*
%TO.P,U8,12*%
X85979000Y-122301000D03*
%TO.P,U8,13*%
%TO.N,A4*%
X85979000Y-119761000D03*
%TO.P,U8,14*%
%TO.N,Net-(RP1-Pad8)*%
X85979000Y-117221000D03*
%TO.P,U8,15*%
%TO.N,A5*%
X85979000Y-114681000D03*
%TO.P,U8,16*%
%TO.N,Net-(RP1-Pad7)*%
X85979000Y-112141000D03*
%TO.P,U8,17*%
%TO.N,A6*%
X85979000Y-109601000D03*
%TO.P,U8,18*%
%TO.N,Net-(RP1-Pad6)*%
X85979000Y-107061000D03*
%TO.P,U8,19*%
%TO.N,\u002ACS_IDE*%
X85979000Y-104521000D03*
%TO.P,U8,20*%
%TO.N,VCC*%
X85979000Y-101981000D03*
%TD*%
D12*
%TO.P,U10,1*%
%TO.N,Net-(R4-Pad2)*%
X167894000Y-100838000D03*
D13*
%TO.P,U10,2*%
%TO.N,Net-(RP2-Pad3)*%
X167894000Y-103378000D03*
%TO.P,U10,3*%
%TO.N,A16*%
X167894000Y-105918000D03*
%TO.P,U10,4*%
%TO.N,Net-(RP2-Pad4)*%
X167894000Y-108458000D03*
%TO.P,U10,5*%
%TO.N,A15*%
X167894000Y-110998000D03*
%TO.P,U10,6*%
%TO.N,Net-(RP2-Pad5)*%
X167894000Y-113538000D03*
%TO.P,U10,7*%
%TO.N,Net-(RP2-Pad7)*%
X167894000Y-116078000D03*
%TO.P,U10,8*%
%TO.N,Net-(RP2-Pad6)*%
X167894000Y-118618000D03*
%TO.P,U10,9*%
%TO.N,Net-(RP2-Pad8)*%
X167894000Y-121158000D03*
%TO.P,U10,10*%
%TO.N,GND*%
X167894000Y-123698000D03*
%TO.P,U10,11*%
X175514000Y-123698000D03*
%TO.P,U10,12*%
X175514000Y-121158000D03*
%TO.P,U10,13*%
X175514000Y-118618000D03*
%TO.P,U10,14*%
%TO.N,A17*%
X175514000Y-116078000D03*
%TO.P,U10,15*%
%TO.N,VCC*%
X175514000Y-113538000D03*
%TO.P,U10,16*%
%TO.N,A18*%
X175514000Y-110998000D03*
%TO.P,U10,17*%
%TO.N,VCC*%
X175514000Y-108458000D03*
%TO.P,U10,18*%
%TO.N,A19*%
X175514000Y-105918000D03*
%TO.P,U10,19*%
%TO.N,//CS_ROM*%
X175514000Y-103378000D03*
%TO.P,U10,20*%
%TO.N,VCC*%
X175514000Y-100838000D03*
%TD*%
D12*
%TO.P,U11,1*%
%TO.N,\u002AIOR-ISA*%
X91440000Y-58801000D03*
D13*
%TO.P,U11,2*%
%TO.N,/PC-DB0*%
X91440000Y-61341000D03*
%TO.P,U11,3*%
%TO.N,/PC-DB1*%
X91440000Y-63881000D03*
%TO.P,U11,4*%
%TO.N,/PC-DB2*%
X91440000Y-66421000D03*
%TO.P,U11,5*%
%TO.N,/PC-DB3*%
X91440000Y-68961000D03*
%TO.P,U11,6*%
%TO.N,/PC-DB4*%
X91440000Y-71501000D03*
%TO.P,U11,7*%
%TO.N,/PC-DB5*%
X91440000Y-74041000D03*
%TO.P,U11,8*%
%TO.N,/PC-DB6*%
X91440000Y-76581000D03*
%TO.P,U11,9*%
%TO.N,/PC-DB7*%
X91440000Y-79121000D03*
%TO.P,U11,10*%
%TO.N,GND*%
X91440000Y-81661000D03*
%TO.P,U11,11*%
%TO.N,D7*%
X99060000Y-81661000D03*
%TO.P,U11,12*%
%TO.N,D6*%
X99060000Y-79121000D03*
%TO.P,U11,13*%
%TO.N,D5*%
X99060000Y-76581000D03*
%TO.P,U11,14*%
%TO.N,D4*%
X99060000Y-74041000D03*
%TO.P,U11,15*%
%TO.N,D3*%
X99060000Y-71501000D03*
%TO.P,U11,16*%
%TO.N,D2*%
X99060000Y-68961000D03*
%TO.P,U11,17*%
%TO.N,D1*%
X99060000Y-66421000D03*
%TO.P,U11,18*%
%TO.N,D0*%
X99060000Y-63881000D03*
%TO.P,U11,19*%
%TO.N,\u002ACS_IDE*%
X99060000Y-61341000D03*
%TO.P,U11,20*%
%TO.N,VCC*%
X99060000Y-58801000D03*
%TD*%
D12*
%TO.P,SW2,1*%
%TO.N,GND*%
X147320000Y-104902000D03*
D13*
%TO.P,SW2,2*%
X147320000Y-107442000D03*
%TO.P,SW2,3*%
X147320000Y-109982000D03*
%TO.P,SW2,4*%
X147320000Y-112522000D03*
%TO.P,SW2,5*%
%TO.N,A14*%
X147320000Y-115062000D03*
%TO.P,SW2,6*%
%TO.N,A13*%
X147320000Y-117602000D03*
%TO.P,SW2,7*%
%TO.N,AEN*%
X147320000Y-120142000D03*
%TO.P,SW2,8*%
%TO.N,\u002AMEMW*%
X147320000Y-122682000D03*
%TO.P,SW2,9*%
%TO.N,/ROM_WE*%
X154940000Y-122682000D03*
%TO.P,SW2,10*%
%TO.N,Net-(R4-Pad2)*%
X154940000Y-120142000D03*
%TO.P,SW2,11*%
%TO.N,Net-(RP2-Pad8)*%
X154940000Y-117602000D03*
%TO.P,SW2,12*%
%TO.N,Net-(RP2-Pad7)*%
X154940000Y-115062000D03*
%TO.P,SW2,13*%
%TO.N,Net-(RP2-Pad6)*%
X154940000Y-112522000D03*
%TO.P,SW2,14*%
%TO.N,Net-(RP2-Pad5)*%
X154940000Y-109982000D03*
%TO.P,SW2,15*%
%TO.N,Net-(RP2-Pad4)*%
X154940000Y-107442000D03*
%TO.P,SW2,16*%
%TO.N,Net-(RP2-Pad3)*%
X154940000Y-104902000D03*
%TD*%
D12*
%TO.P,SW1,1*%
%TO.N,GND*%
X54991000Y-106680000D03*
D13*
%TO.P,SW1,2*%
X54991000Y-109220000D03*
%TO.P,SW1,3*%
X54991000Y-111760000D03*
%TO.P,SW1,4*%
X54991000Y-114300000D03*
%TO.P,SW1,5*%
X54991000Y-116840000D03*
%TO.P,SW1,6*%
X54991000Y-119380000D03*
%TO.P,SW1,7*%
%TO.N,Net-(SW1-Pad7)*%
X54991000Y-121920000D03*
%TO.P,SW1,8*%
%TO.N,Net-(SW1-Pad8)*%
X54991000Y-124460000D03*
%TO.P,SW1,9*%
%TO.N,Net-(SW1-Pad9)*%
X62611000Y-124460000D03*
%TO.P,SW1,10*%
%TO.N,Net-(SW1-Pad10)*%
X62611000Y-121920000D03*
%TO.P,SW1,11*%
%TO.N,Net-(RP1-Pad8)*%
X62611000Y-119380000D03*
%TO.P,SW1,12*%
%TO.N,Net-(RP1-Pad7)*%
X62611000Y-116840000D03*
%TO.P,SW1,13*%
%TO.N,Net-(RP1-Pad6)*%
X62611000Y-114300000D03*
%TO.P,SW1,14*%
%TO.N,Net-(RP1-Pad5)*%
X62611000Y-111760000D03*
%TO.P,SW1,15*%
%TO.N,Net-(RP1-Pad4)*%
X62611000Y-109220000D03*
%TO.P,SW1,16*%
%TO.N,Net-(RP1-Pad3)*%
X62611000Y-106680000D03*
%TD*%
D16*
%TO.P,RP1,1*%
%TO.N,VCC*%
X67691000Y-101600000D03*
D17*
%TO.P,RP1,2*%
%TO.N,Net-(RP1-Pad2)*%
X67691000Y-104140000D03*
%TO.P,RP1,3*%
%TO.N,Net-(RP1-Pad3)*%
X67691000Y-106680000D03*
%TO.P,RP1,4*%
%TO.N,Net-(RP1-Pad4)*%
X67691000Y-109220000D03*
%TO.P,RP1,5*%
%TO.N,Net-(RP1-Pad5)*%
X67691000Y-111760000D03*
%TO.P,RP1,6*%
%TO.N,Net-(RP1-Pad6)*%
X67691000Y-114300000D03*
%TO.P,RP1,7*%
%TO.N,Net-(RP1-Pad7)*%
X67691000Y-116840000D03*
%TO.P,RP1,8*%
%TO.N,Net-(RP1-Pad8)*%
X67691000Y-119380000D03*
%TO.P,RP1,9*%
%TO.N,Net-(RP1-Pad9)*%
X67691000Y-121920000D03*
%TO.P,RP1,10*%
%TO.N,Net-(RP1-Pad10)*%
X67691000Y-124460000D03*
%TD*%
D16*
%TO.P,RP2,1*%
%TO.N,VCC*%
X162941000Y-100838000D03*
D17*
%TO.P,RP2,2*%
%TO.N,D7*%
X162941000Y-103378000D03*
%TO.P,RP2,3*%
%TO.N,Net-(RP2-Pad3)*%
X162941000Y-105918000D03*
%TO.P,RP2,4*%
%TO.N,Net-(RP2-Pad4)*%
X162941000Y-108458000D03*
%TO.P,RP2,5*%
%TO.N,Net-(RP2-Pad5)*%
X162941000Y-110998000D03*
%TO.P,RP2,6*%
%TO.N,Net-(RP2-Pad6)*%
X162941000Y-113538000D03*
%TO.P,RP2,7*%
%TO.N,Net-(RP2-Pad7)*%
X162941000Y-116078000D03*
%TO.P,RP2,8*%
%TO.N,Net-(RP2-Pad8)*%
X162941000Y-118618000D03*
%TO.P,RP2,9*%
%TO.N,Net-(RP2-Pad9)*%
X162941000Y-121158000D03*
%TO.P,RP2,10*%
%TO.N,Net-(RP2-Pad10)*%
X162941000Y-123698000D03*
%TD*%
D14*
%TO.P,C1,1*%
%TO.N,VCC*%
X72517000Y-50927000D03*
%TO.P,C1,2*%
%TO.N,GND*%
X64897000Y-50927000D03*
%TD*%
%TO.P,C2,1*%
%TO.N,VCC*%
X85852000Y-50927000D03*
%TO.P,C2,2*%
%TO.N,GND*%
X78232000Y-50927000D03*
%TD*%
%TO.P,C3,1*%
%TO.N,VCC*%
X112268000Y-50927000D03*
%TO.P,C3,2*%
%TO.N,GND*%
X104648000Y-50927000D03*
%TD*%
%TO.P,C4,1*%
%TO.N,VCC*%
X141224000Y-61595000D03*
%TO.P,C4,2*%
%TO.N,GND*%
X133604000Y-61595000D03*
%TD*%
%TO.P,C5,1*%
%TO.N,VCC*%
X152654000Y-61595000D03*
%TO.P,C5,2*%
%TO.N,GND*%
X145034000Y-61595000D03*
%TD*%
%TO.P,C6,1*%
%TO.N,VCC*%
X164084000Y-61595000D03*
%TO.P,C6,2*%
%TO.N,GND*%
X156464000Y-61595000D03*
%TD*%
%TO.P,C7,1*%
%TO.N,VCC*%
X175514000Y-59245500D03*
%TO.P,C7,2*%
%TO.N,GND*%
X167894000Y-59245500D03*
%TD*%
%TO.P,C8,1*%
%TO.N,VCC*%
X85979000Y-97536000D03*
%TO.P,C8,2*%
%TO.N,GND*%
X78359000Y-97536000D03*
%TD*%
%TO.P,C10,1*%
%TO.N,VCC*%
X175514000Y-96393000D03*
%TO.P,C10,2*%
%TO.N,GND*%
X167894000Y-96393000D03*
%TD*%
%TO.P,R1,1*%
%TO.N,Net-(D1-Pad1)*%
X172593000Y-51752500D03*
%TO.P,R1,2*%
%TO.N,\u002ADASP*%
X162433000Y-51752500D03*
%TD*%
%TO.P,R2,1*%
%TO.N,Net-(J3-Pad2)*%
X186563000Y-60706000D03*
%TO.P,R2,2*%
%TO.N,Net-(R2-Pad2)*%
X186563000Y-70866000D03*
%TD*%
D12*
%TO.P,U4,1*%
%TO.N,\u002AIOR-ISA*%
X133604000Y-66040000D03*
D13*
%TO.P,U4,2*%
%TO.N,Net-(U4-Pad2)*%
X133604000Y-68580000D03*
%TO.P,U4,3*%
X133604000Y-71120000D03*
%TO.P,U4,4*%
%TO.N,Net-(U4-Pad11)*%
X133604000Y-73660000D03*
%TO.P,U4,5*%
%TO.N,Net-(U4-Pad10)*%
X133604000Y-76200000D03*
%TO.P,U4,6*%
%TO.N,\u002AIOR_DELAYED*%
X133604000Y-78740000D03*
%TO.P,U4,7*%
%TO.N,GND*%
X133604000Y-81280000D03*
%TO.P,U4,8*%
%TO.N,Net-(U4-Pad13)*%
X141224000Y-81280000D03*
%TO.P,U4,9*%
%TO.N,Net-(U4-Pad9)*%
X141224000Y-78740000D03*
%TO.P,U4,10*%
%TO.N,Net-(U4-Pad10)*%
X141224000Y-76200000D03*
%TO.P,U4,11*%
%TO.N,Net-(U4-Pad11)*%
X141224000Y-73660000D03*
%TO.P,U4,12*%
%TO.N,\u002AHI_OUT_DELAYED*%
X141224000Y-71120000D03*
%TO.P,U4,13*%
%TO.N,Net-(U4-Pad13)*%
X141224000Y-68580000D03*
%TO.P,U4,14*%
%TO.N,VCC*%
X141224000Y-66040000D03*
%TD*%
D14*
%TO.P,C11,1*%
%TO.N,VCC*%
X99060000Y-50927000D03*
%TO.P,C11,2*%
%TO.N,GND*%
X91440000Y-50927000D03*
%TD*%
D21*
%TO.N,/\u002AIOW-ISA*%
X128143000Y-129159000D03*
X124587000Y-79121000D03*
X124587000Y-63131800D03*
%TO.N,/\u002AMEMR*%
X112649000Y-103378000D03*
%TO.N,//CS_ROM*%
X162623500Y-131064000D03*
X172148500Y-131064000D03*
%TO.N,/4*%
X64897000Y-52768500D03*
X180340000Y-55499000D03*
%TO.N,/5*%
X159131000Y-84518500D03*
%TO.N,/7*%
X143129000Y-63881000D03*
%TO.N,/A0-ISA*%
X104218448Y-98494786D03*
%TO.N,/A1-ISA*%
X104096717Y-97409389D03*
%TO.N,/A10*%
X112522000Y-109728000D03*
%TO.N,/A11*%
X118135391Y-111252000D03*
%TO.N,/A12*%
X119227594Y-111252000D03*
%TO.N,/A2-ISA*%
X103324414Y-96637086D03*
%TO.N,/A3*%
X104533410Y-99631500D03*
%TO.N,/D10*%
X50946828Y-69488828D03*
%TO.N,/D11*%
X50197528Y-71120000D03*
%TO.N,/D12*%
X49403000Y-73152000D03*
%TO.N,/D13*%
X48387000Y-74041000D03*
%TO.N,/D8*%
X52617656Y-65698656D03*
%TO.N,/D9*%
X51750492Y-67625492D03*
%TO.N,/INTRQ*%
X145796000Y-84886700D03*
%TO.N,/IRQ3*%
X114351589Y-128735633D03*
X127254000Y-97193091D03*
%TO.N,/IRQ4*%
X115493797Y-128714576D03*
X127254000Y-98285294D03*
%TO.N,/IRQ5*%
X116586000Y-128714576D03*
X127254000Y-99377497D03*
%TO.N,/IRQ7*%
X118071884Y-128714576D03*
X127254000Y-100469700D03*
%TO.N,/PC-DB0*%
X95250000Y-123558300D03*
X98031348Y-117221000D03*
%TO.N,/PC-DB1*%
X94107000Y-123050300D03*
X98031348Y-119634000D03*
%TO.N,/PC-DB2*%
X99187000Y-122301000D03*
%TO.N,/PC-DB4*%
X99949958Y-120853115D03*
%TO.N,/PC-DB5*%
X99936200Y-119761000D03*
%TO.N,/PC-DB6*%
X99949958Y-115773115D03*
%TO.N,/PC-DB7*%
X99936200Y-114681000D03*
%TO.N,GND*%
X139065000Y-61150500D03*
X150241000Y-61150500D03*
X157924500Y-56832500D03*
X87947500Y-82740500D03*
X91567000Y-130302000D03*
X85471000Y-130302000D03*
%TO.N,VCC*%
X118110000Y-58801000D03*
X183705500Y-108648500D03*
%TO.N,\u002AMEMW*%
X147828000Y-127635000D03*
%TO.N,AEN*%
X82423000Y-125603000D03*
X126619000Y-128397000D03*
X126619000Y-122301000D03*
%TO.N,A14*%
X121412000Y-111252000D03*
%TO.N,A13*%
X120319797Y-111252000D03*
%TO.N,/ROM_WE*%
X118237000Y-97790000D03*
X150634700Y-122555000D03*
%TO.N,A19*%
X171462710Y-127508000D03*
%TO.N,A18*%
X172308791Y-126817311D03*
%TO.N,A17*%
X138557000Y-130937000D03*
X172491406Y-128651000D03*
%TO.N,A16*%
X138557000Y-129806779D03*
X171399203Y-128651000D03*
%TO.N,A15*%
X138557000Y-128714576D03*
X170307000Y-128651000D03*
%TO.N,A9*%
X83036164Y-127275836D03*
X111290110Y-128778000D03*
%TO.N,A8*%
X83840921Y-128025136D03*
X110490000Y-129794000D03*
%TO.N,A6*%
X75057000Y-107950000D03*
%TO.N,A4*%
X96774000Y-125222000D03*
%TO.N,Net-(J2-Pad2)*%
X107569000Y-58420000D03*
%TO.N,Net-(R4-Pad2)*%
X150634700Y-120142000D03*
X169557700Y-122364500D03*
%TO.N,D7*%
X160909000Y-82982090D03*
%TO.N,RESDRV*%
X159880301Y-124980699D03*
%TO.N,IRQ2*%
X155448000Y-126276119D03*
X151384000Y-123558290D03*
%TO.N,\u002AIOR-ISA*%
X131064000Y-129552710D03*
X128524000Y-66040000D03*
X91440000Y-53924210D03*
X128524000Y-53924210D03*
%TO.N,\u002ACS_IDE*%
X101722463Y-95194771D03*
X101536500Y-54330620D03*
X147447000Y-56248300D03*
%TO.N,Net-(U6-Pad5)*%
X172466000Y-74739500D03*
%TO.N,\u002AHI_OUT_DELAYED*%
X78232000Y-53517800D03*
X136140197Y-53648603D03*
%TD*%
D22*
%TO.N,/\u002ACS1FX*%
X48387950Y-55372950D02*
X100416580Y-55372950D01*
X45720000Y-52705000D02*
X48387950Y-55372950D01*
X103505000Y-61341000D02*
X104648000Y-61341000D01*
X103124000Y-61341000D02*
X102545760Y-60762760D01*
X104648000Y-61341000D02*
X103124000Y-61341000D01*
X102545760Y-57502130D02*
X100416580Y-55372950D01*
X102545760Y-60762760D02*
X102545760Y-57502130D01*
%TO.N,/\u002ACS3FX*%
X46329699Y-51536699D02*
X49759740Y-54966740D01*
X44348301Y-51536699D02*
X46329699Y-51536699D01*
X43180000Y-52705000D02*
X44348301Y-51536699D01*
X106102710Y-62426290D02*
X104648000Y-63881000D01*
X105455585Y-60236290D02*
X106102710Y-60883415D01*
X103543290Y-60236290D02*
X105455585Y-60236290D01*
X106102710Y-60883415D02*
X106102710Y-62426290D01*
X49759740Y-54966740D02*
X100584837Y-54966740D01*
X102951970Y-57333873D02*
X100584837Y-54966740D01*
X102951970Y-59644970D02*
X102951970Y-57333873D01*
X103543290Y-60236290D02*
X102951970Y-59644970D01*
D23*
%TO.N,/\u002AIOR-IDE*%
X45720000Y-67945000D02*
X48031410Y-65633590D01*
X48031410Y-65633590D02*
X48031410Y-63668340D01*
X48031410Y-63668340D02*
X48031410Y-60706000D01*
D22*
X48031410Y-60588764D02*
X48031410Y-60706000D01*
X51622383Y-56997790D02*
X48031410Y-60588764D01*
X99743552Y-56997790D02*
X51622383Y-56997790D01*
X100920920Y-58175159D02*
X99743552Y-56997790D01*
X100920920Y-72980920D02*
X100920920Y-58175159D01*
X101981000Y-74041000D02*
X100920920Y-72980920D01*
X104648000Y-74041000D02*
X101981000Y-74041000D01*
D23*
%TO.N,/\u002AIOW-IDE*%
X45720000Y-70485000D02*
X48437820Y-67767180D01*
X48437820Y-67767180D02*
X48437820Y-63836680D01*
X48437820Y-63836680D02*
X48437820Y-60833000D01*
D22*
X48437820Y-60756820D02*
X51790640Y-57404000D01*
X48437820Y-60833000D02*
X48437820Y-60756820D01*
X51790640Y-57404000D02*
X99575295Y-57404000D01*
X102108000Y-76581000D02*
X104648000Y-76581000D01*
X100514710Y-58343415D02*
X99575295Y-57404000D01*
X100514710Y-74987710D02*
X100514710Y-58343415D01*
X102108000Y-76581000D02*
X100514710Y-74987710D01*
D23*
%TO.N,/\u002AIOW-ISA*%
X129021695Y-140144801D02*
X128270000Y-139393106D01*
X133540199Y-140144801D02*
X129021695Y-140144801D01*
X134620000Y-139065000D02*
X133540199Y-140144801D01*
X128270000Y-129286000D02*
X128143000Y-129159000D01*
X128270000Y-139393106D02*
X128270000Y-129286000D01*
X124587000Y-79121000D02*
X112268000Y-79121000D01*
D22*
X167894000Y-63500000D02*
X166204991Y-63500000D01*
X165836791Y-63131800D02*
X124587000Y-63131800D01*
X166204991Y-63500000D02*
X165836791Y-63131800D01*
D23*
%TO.N,/\u002AMEMR*%
X106037563Y-103378000D02*
X112649000Y-103378000D01*
X105352190Y-104063373D02*
X106037563Y-103378000D01*
X105352190Y-105606190D02*
X105352190Y-104063373D01*
X106807000Y-107061000D02*
X105352190Y-105606190D01*
D22*
%TO.N,/\u002ARESET*%
X45720000Y-98425000D02*
X47467804Y-96677196D01*
X47467804Y-96677196D02*
X47467804Y-94711804D01*
X65365100Y-85978946D02*
X65603111Y-85740934D01*
X56200662Y-85978946D02*
X65365100Y-85978946D01*
X47467804Y-94711804D02*
X56200662Y-85978946D01*
X70787755Y-80556290D02*
X95846710Y-80556290D01*
X65603111Y-85740934D02*
X70787755Y-80556290D01*
X98056130Y-82765710D02*
X101003290Y-82765710D01*
X101003290Y-82765710D02*
X104648000Y-79121000D01*
X95846710Y-80556290D02*
X98056130Y-82765710D01*
D23*
%TO.N,//CS_ROM*%
X110947230Y-124142230D02*
X111112590Y-124307590D01*
X110947230Y-116281230D02*
X110947230Y-124142230D01*
X106807000Y-112141000D02*
X110947230Y-116281230D01*
D22*
X156870410Y-124307590D02*
X162623500Y-130060680D01*
X162623500Y-130060680D02*
X162623500Y-131064000D01*
D23*
X111112590Y-124307590D02*
X156870410Y-124307590D01*
D22*
X172148500Y-131064000D02*
X179006500Y-131064000D01*
X179006500Y-131064000D02*
X179324000Y-130746500D01*
X179324000Y-130746500D02*
X179324000Y-103759000D01*
X178943000Y-103378000D02*
X175514000Y-103378000D01*
X179324000Y-103759000D02*
X178943000Y-103378000D01*
%TO.N,/3*%
X161632710Y-83731290D02*
X164084000Y-81280000D01*
X86919290Y-83731290D02*
X161632710Y-83731290D01*
X85852000Y-82664000D02*
X86919290Y-83731290D01*
X85852000Y-81661000D02*
X85852000Y-82664000D01*
D23*
%TO.N,/4*%
X139050266Y-55499000D02*
X180340000Y-55499000D01*
X136319766Y-52768500D02*
X139050266Y-55499000D01*
X64897000Y-52768500D02*
X136319766Y-52768500D01*
D22*
%TO.N,/5*%
X72517000Y-81661000D02*
X74993500Y-84137500D01*
X74993500Y-84137500D02*
X114046000Y-84137500D01*
X158750000Y-84137500D02*
X159131000Y-84518500D01*
X114046000Y-84137500D02*
X158750000Y-84137500D01*
D23*
%TO.N,/6*%
X143929190Y-70015190D02*
X145034000Y-71120000D01*
X115862190Y-70015190D02*
X143929190Y-70015190D01*
X112268000Y-66421000D02*
X115862190Y-70015190D01*
D22*
%TO.N,/7*%
X112268000Y-63881000D02*
X143129000Y-63881000D01*
X143129000Y-63881000D02*
X143129000Y-63881000D01*
%TO.N,/A0-IDE*%
X45720000Y-55245000D02*
X47853790Y-57378790D01*
X50092450Y-57378790D02*
X51285869Y-56185370D01*
X47853790Y-57378790D02*
X50092450Y-57378790D01*
X51285869Y-56185370D02*
X100080066Y-56185370D01*
X104648000Y-68961000D02*
X102622340Y-68961000D01*
X101733340Y-57838644D02*
X100080066Y-56185370D01*
X101733340Y-68072000D02*
X101733340Y-57838644D01*
X102622340Y-68961000D02*
X101733340Y-68072000D01*
%TO.N,/A0-ISA*%
X102530257Y-112547210D02*
X103784210Y-111293257D01*
X95053790Y-112547210D02*
X102530257Y-112547210D01*
X92920000Y-114681000D02*
X95053790Y-112547210D01*
X91567000Y-114681000D02*
X92920000Y-114681000D01*
X103784210Y-111293257D02*
X103728734Y-111348734D01*
X103784210Y-98929024D02*
X104218448Y-98494786D01*
X103784210Y-111293257D02*
X103784210Y-98929024D01*
X138404699Y-53124199D02*
X139573000Y-54292500D01*
X138404699Y-48105139D02*
X138404699Y-53124199D01*
X138465639Y-48044199D02*
X138404699Y-48105139D01*
X146024699Y-48044199D02*
X138465639Y-48044199D01*
X147193000Y-49212500D02*
X146024699Y-48044199D01*
D23*
%TO.N,/A1-IDE*%
X45720000Y-57785000D02*
X45593000Y-57912000D01*
X45720000Y-57785000D02*
X47117000Y-57785000D01*
D22*
X50260707Y-57785000D02*
X51454126Y-56591580D01*
X47117000Y-57785000D02*
X50260707Y-57785000D01*
X51454126Y-56591580D02*
X99911809Y-56591580D01*
X104648000Y-71501000D02*
X102216130Y-71501000D01*
X101327130Y-58006901D02*
X99911809Y-56591580D01*
X101327130Y-70612000D02*
X101327130Y-58006901D01*
X102216130Y-71501000D02*
X101327130Y-70612000D01*
%TO.N,/A1-ISA*%
X91567000Y-112141000D02*
X102362000Y-112141000D01*
X102362000Y-112141000D02*
X103378000Y-111125000D01*
X103378000Y-111125000D02*
X103378000Y-98488500D01*
X103378000Y-98128106D02*
X104096717Y-97409389D01*
X103378000Y-98488500D02*
X103378000Y-98128106D01*
X151218710Y-74764710D02*
X152654000Y-76200000D01*
X112991710Y-74764710D02*
X151218710Y-74764710D01*
X112268000Y-74041000D02*
X112991710Y-74764710D01*
D23*
%TO.N,/A10*%
X112395000Y-109601000D02*
X112522000Y-109728000D01*
X106807000Y-109601000D02*
X112395000Y-109601000D01*
%TO.N,/A11*%
X106807000Y-104521000D02*
X114554000Y-104521000D01*
X118135391Y-108102391D02*
X118135391Y-111252000D01*
X114554000Y-104521000D02*
X118135391Y-108102391D01*
%TO.N,/A12*%
X91567000Y-94361000D02*
X102108000Y-94361000D01*
X106083190Y-98336190D02*
X109004190Y-98336190D01*
X102108000Y-94361000D02*
X106083190Y-98336190D01*
X119227594Y-108559594D02*
X119227594Y-111252000D01*
X109004190Y-98336190D02*
X119227594Y-108559594D01*
D22*
%TO.N,/A2-IDE*%
X48219694Y-55779160D02*
X100248323Y-55779160D01*
X44348301Y-54076699D02*
X46517233Y-54076699D01*
X46517233Y-54076699D02*
X48219694Y-55779160D01*
X43180000Y-55245000D02*
X44348301Y-54076699D01*
X104648000Y-66421000D02*
X103028550Y-66421000D01*
X102139550Y-57670387D02*
X100248323Y-55779160D01*
X102139550Y-65532000D02*
X102139550Y-57670387D01*
X103028550Y-66421000D02*
X102139550Y-65532000D01*
%TO.N,/A2-ISA*%
X91567000Y-110228705D02*
X93073085Y-111734790D01*
X91567000Y-109601000D02*
X91567000Y-110228705D01*
X93073085Y-111734790D02*
X102193744Y-111734790D01*
X102193744Y-111734790D02*
X102971790Y-110956744D01*
X102971790Y-96989710D02*
X103324414Y-96637086D01*
X102971790Y-99085210D02*
X102971790Y-96989710D01*
X102971790Y-110956744D02*
X102971790Y-99085210D01*
X102971790Y-99085210D02*
X102971790Y-98933000D01*
D23*
X154108810Y-77285190D02*
X152654000Y-78740000D01*
X153461627Y-75095190D02*
X154108810Y-75742373D01*
X152176753Y-75095190D02*
X153461627Y-75095190D01*
X149306373Y-72224810D02*
X152176753Y-75095190D01*
X154108810Y-75742373D02*
X154108810Y-77285190D01*
X115531810Y-72224810D02*
X149306373Y-72224810D01*
X112268000Y-68961000D02*
X115531810Y-72224810D01*
%TO.N,/A3*%
X90759373Y-115785810D02*
X92389798Y-115785810D01*
X90112190Y-115138627D02*
X90759373Y-115785810D01*
X90112190Y-108515810D02*
X90112190Y-115138627D01*
X91567000Y-107061000D02*
X90112190Y-108515810D01*
X102698556Y-112953520D02*
X104190520Y-111461556D01*
X95222088Y-112953520D02*
X102698556Y-112953520D01*
X92389798Y-115785810D02*
X95222088Y-112953520D01*
D22*
X104190520Y-111429520D02*
X104203500Y-111416540D01*
X104190520Y-111461556D02*
X104190520Y-111429520D01*
X104203500Y-99961410D02*
X104533410Y-99631500D01*
X104203500Y-111416540D02*
X104203500Y-99961410D01*
X142113000Y-49212500D02*
X147193000Y-54292500D01*
X139573000Y-49212500D02*
X142113000Y-49212500D01*
D23*
%TO.N,/D10*%
X54014656Y-66421000D02*
X50946828Y-69488828D01*
X64897000Y-66421000D02*
X54014656Y-66421000D01*
%TO.N,/D11*%
X64897000Y-68961000D02*
X52534328Y-68961000D01*
X50375328Y-71120000D02*
X50197528Y-71120000D01*
X52534328Y-68961000D02*
X50375328Y-71120000D01*
%TO.N,/D12*%
X51054000Y-71501000D02*
X49403000Y-73152000D01*
X64897000Y-71501000D02*
X51054000Y-71501000D01*
%TO.N,/D13*%
X64897000Y-74041000D02*
X48387000Y-74041000D01*
%TO.N,/D14*%
X44348401Y-79476599D02*
X43180000Y-80645000D01*
X46077635Y-79476599D02*
X44348401Y-79476599D01*
X48973234Y-76581000D02*
X46077635Y-79476599D01*
X64897000Y-76581000D02*
X48973234Y-76581000D01*
%TO.N,/D15*%
X42011599Y-79273401D02*
X43180000Y-78105000D01*
X42011599Y-81205833D02*
X42011599Y-79273401D01*
X42619167Y-81813401D02*
X42011599Y-81205833D01*
X46280833Y-81813401D02*
X42619167Y-81813401D01*
X48973234Y-79121000D02*
X46280833Y-81813401D01*
X64897000Y-79121000D02*
X48973234Y-79121000D01*
%TO.N,/D8*%
X64897000Y-61341000D02*
X56975312Y-61341000D01*
X56975312Y-61341000D02*
X52617656Y-65698656D01*
%TO.N,/D9*%
X55494984Y-63881000D02*
X51750492Y-67625492D01*
X64897000Y-63881000D02*
X55494984Y-63881000D01*
%TO.N,/INTRQ*%
X145796000Y-92837000D02*
X148336000Y-92837000D01*
X148336000Y-92837000D02*
X150876000Y-92837000D01*
X150876000Y-92837000D02*
X153416000Y-92837000D01*
X153416000Y-92837000D02*
X155956000Y-92837000D01*
D22*
X44551699Y-73382387D02*
X44551699Y-61493301D01*
X43740785Y-74193301D02*
X44551699Y-73382387D01*
X42822613Y-74193301D02*
X43740785Y-74193301D01*
X39217690Y-77798224D02*
X42822613Y-74193301D01*
X39217690Y-78765310D02*
X39217690Y-77798224D01*
X44551699Y-61493301D02*
X45720000Y-60325000D01*
X39217690Y-78638310D02*
X39217690Y-78765310D01*
X60299844Y-86385156D02*
X65533357Y-86385156D01*
X58775699Y-87909301D02*
X60299844Y-86385156D01*
X67374801Y-84543710D02*
X137502710Y-84543710D01*
X65533357Y-86385156D02*
X67374801Y-84543710D01*
X58775699Y-98655387D02*
X58775699Y-87909301D01*
X55450086Y-101981000D02*
X58775699Y-98655387D01*
X39981971Y-101981000D02*
X55450086Y-101981000D01*
X39217690Y-101216719D02*
X39981971Y-101981000D01*
X39217690Y-78765310D02*
X39217690Y-101216719D01*
X145453010Y-84543710D02*
X145796000Y-84886700D01*
X137502710Y-84543710D02*
X145453010Y-84543710D01*
D23*
%TO.N,/IRQ3*%
X108140199Y-133466695D02*
X112871261Y-128735633D01*
X112871261Y-128735633D02*
X114351589Y-128735633D01*
X146519909Y-97193091D02*
X148336000Y-95377000D01*
X127254000Y-97193091D02*
X146519909Y-97193091D01*
D22*
X108140199Y-136662759D02*
X108140199Y-134810199D01*
X106817659Y-137985299D02*
X108140199Y-136662759D01*
X105219701Y-137985299D02*
X106817659Y-137985299D01*
X104140000Y-139065000D02*
X105219701Y-137985299D01*
D23*
X108140199Y-134810199D02*
X108140199Y-133466695D01*
X108140199Y-135064801D02*
X108140199Y-134810199D01*
%TO.N,/IRQ4*%
X115432318Y-128714576D02*
X115493797Y-128714576D01*
X110680199Y-133466695D02*
X115432318Y-128714576D01*
X147967706Y-98285294D02*
X150876000Y-95377000D01*
X127254000Y-98285294D02*
X147967706Y-98285294D01*
D22*
X110680199Y-137030193D02*
X110680199Y-134492699D01*
X107759701Y-137985299D02*
X109725093Y-137985299D01*
X109725093Y-137985299D02*
X110680199Y-137030193D01*
X106680000Y-139065000D02*
X107759701Y-137985299D01*
D23*
X110680199Y-134492699D02*
X110680199Y-133466695D01*
X110680199Y-135064801D02*
X110680199Y-134492699D01*
%TO.N,/IRQ5*%
X115760199Y-129540377D02*
X116586000Y-128714576D01*
X115760199Y-134122907D02*
X115760199Y-129540377D01*
X110299801Y-137985199D02*
X111897907Y-137985199D01*
X109220000Y-139065000D02*
X110299801Y-137985199D01*
X149758405Y-99034595D02*
X153416000Y-95377000D01*
X149415503Y-99377497D02*
X149758405Y-99034595D01*
X127254000Y-99377497D02*
X149415503Y-99377497D01*
D22*
X115760199Y-136662759D02*
X115760199Y-134122907D01*
X114437759Y-137985199D02*
X115760199Y-136662759D01*
X111897907Y-137985199D02*
X114437759Y-137985199D01*
D23*
%TO.N,/IRQ7*%
X117919801Y-128866659D02*
X118071884Y-128714576D01*
X155254250Y-95377000D02*
X155956000Y-95377000D01*
X150161550Y-100469700D02*
X155254250Y-95377000D01*
X127254000Y-100469700D02*
X150161550Y-100469700D01*
D22*
X117919801Y-137423755D02*
X117919801Y-135254699D01*
X117358257Y-137985299D02*
X117919801Y-137423755D01*
X115379701Y-137985299D02*
X117358257Y-137985299D01*
X114300000Y-139065000D02*
X115379701Y-137985299D01*
D23*
X117919801Y-135254699D02*
X117919801Y-128866659D01*
X117919801Y-135445199D02*
X117919801Y-135254699D01*
%TO.N,/PC-DB0*%
X144780000Y-133985000D02*
X144780000Y-128778000D01*
X143560866Y-127558866D02*
X105679884Y-127558866D01*
X144780000Y-128778000D02*
X143560866Y-127558866D01*
X102666866Y-127558866D02*
X98323410Y-123215410D01*
X105679884Y-127558866D02*
X102666866Y-127558866D01*
X95592890Y-123215410D02*
X95250000Y-123558300D01*
X98323410Y-123215410D02*
X95592890Y-123215410D01*
D22*
X98031348Y-117221000D02*
X91567000Y-117221000D01*
D23*
%TO.N,/PC-DB1*%
X147320000Y-133985000D02*
X147320000Y-128397000D01*
X146075456Y-127152456D02*
X105511544Y-127152456D01*
X147320000Y-128397000D02*
X146075456Y-127152456D01*
X102955706Y-127152456D02*
X98612250Y-122809000D01*
X105511544Y-127152456D02*
X102955706Y-127152456D01*
X94348300Y-122809000D02*
X94107000Y-123050300D01*
X98612250Y-122809000D02*
X94348300Y-122809000D01*
D22*
X91694000Y-119634000D02*
X91567000Y-119761000D01*
X98031348Y-119634000D02*
X91694000Y-119634000D01*
D23*
%TO.N,/PC-DB2*%
X149860000Y-133985000D02*
X149860000Y-127889000D01*
X149860000Y-127889000D02*
X148717046Y-126746046D01*
X148717046Y-126746046D02*
X103124046Y-126746046D01*
X98679000Y-122301000D02*
X91567000Y-122301000D01*
D22*
X98679000Y-122301000D02*
X103124046Y-126746046D01*
X99187000Y-122301000D02*
X98679000Y-122301000D01*
D23*
%TO.N,/PC-DB3*%
X108305636Y-126339636D02*
X106807000Y-124841000D01*
X152400000Y-133985000D02*
X152400000Y-127508000D01*
X152400000Y-127508000D02*
X151231636Y-126339636D01*
X151231636Y-126339636D02*
X108305636Y-126339636D01*
%TO.N,/PC-DB4*%
X110439227Y-125933227D02*
X106807000Y-122301000D01*
X153619228Y-125933228D02*
X110439227Y-125933227D01*
X154940000Y-127254000D02*
X153619228Y-125933228D01*
X154940000Y-133985000D02*
X154940000Y-127254000D01*
D22*
X105359115Y-120853115D02*
X106807000Y-122301000D01*
X99949958Y-120853115D02*
X105359115Y-120853115D01*
D23*
%TO.N,/PC-DB5*%
X109728000Y-124647250D02*
X109728000Y-122682000D01*
X110607568Y-125526818D02*
X109728000Y-124647250D01*
X109728000Y-122682000D02*
X106807000Y-119761000D01*
X156254319Y-125526819D02*
X110607568Y-125526818D01*
X157480000Y-126752500D02*
X156254319Y-125526819D01*
X157480000Y-133985000D02*
X157480000Y-126752500D01*
D22*
X99936200Y-119761000D02*
X106807000Y-119761000D01*
D23*
%TO.N,/PC-DB6*%
X110134410Y-120548410D02*
X106807000Y-117221000D01*
X110134410Y-124478910D02*
X110134410Y-120548410D01*
X156422660Y-125120410D02*
X110775909Y-125120409D01*
X160020000Y-128717750D02*
X156422660Y-125120410D01*
X110775909Y-125120409D02*
X110134410Y-124478910D01*
X160020000Y-133985000D02*
X160020000Y-128717750D01*
D22*
X99949958Y-115773115D02*
X105232115Y-115773115D01*
X106680000Y-117221000D02*
X106807000Y-117221000D01*
X105232115Y-115773115D02*
X106680000Y-117221000D01*
D23*
%TO.N,/PC-DB7*%
X110540820Y-118414820D02*
X106807000Y-114681000D01*
X110540820Y-124310570D02*
X110540820Y-118414820D01*
X156591000Y-124714000D02*
X110944250Y-124714000D01*
X110944250Y-124714000D02*
X110540820Y-124310570D01*
D22*
X99936200Y-114681000D02*
X106807000Y-114681000D01*
X156591000Y-124714142D02*
X161734500Y-129857642D01*
X156591000Y-124714000D02*
X156591000Y-124714142D01*
X161734500Y-133159500D02*
X162560000Y-133985000D01*
X161734500Y-129857642D02*
X161734500Y-133159500D01*
D24*
%TO.N,/VCC_CF*%
X40132000Y-78613000D02*
X43180000Y-75565000D01*
X40132000Y-100838000D02*
X40132000Y-78613000D01*
D25*
X54864000Y-100838000D02*
X57404000Y-98298000D01*
X40132000Y-100838000D02*
X54864000Y-100838000D01*
D26*
%TO.N,GND*%
X167640000Y-58801000D02*
X167894000Y-59055000D01*
X138620500Y-61595000D02*
X139065000Y-61150500D01*
X133604000Y-61595000D02*
X138620500Y-61595000D01*
X149796500Y-61595000D02*
X150241000Y-61150500D01*
X145034000Y-61595000D02*
X149796500Y-61595000D01*
X167894000Y-59245500D02*
X165481000Y-56832500D01*
X165481000Y-56832500D02*
X157924500Y-56832500D01*
X89027000Y-81661000D02*
X87947500Y-82740500D01*
X91440000Y-81661000D02*
X89027000Y-81661000D01*
X91567000Y-130302000D02*
X85471000Y-130302000D01*
D24*
%TO.N,VCC*%
X51028599Y-136753599D02*
X43535599Y-136753599D01*
X52705000Y-138430000D02*
X51028599Y-136753599D01*
X43535599Y-136753599D02*
X40386000Y-133604000D01*
X40386000Y-133604000D02*
X40386000Y-108966000D01*
X40386000Y-108966000D02*
X45466000Y-103886000D01*
D25*
X85979000Y-97536000D02*
X85979000Y-101981000D01*
X59944000Y-100584000D02*
X59944000Y-98298000D01*
X57404000Y-103124000D02*
X59944000Y-100584000D01*
X46228000Y-103124000D02*
X57404000Y-103124000D01*
X45466000Y-103886000D02*
X46228000Y-103124000D01*
X60960000Y-101600000D02*
X59944000Y-100584000D01*
X67691000Y-101600000D02*
X60960000Y-101600000D01*
X106807000Y-91821000D02*
X110871000Y-91821000D01*
X110871000Y-91821000D02*
X114681000Y-91821000D01*
X117221000Y-94361000D02*
X121031000Y-94361000D01*
X114681000Y-91821000D02*
X117221000Y-94361000D01*
X114681000Y-96901000D02*
X117221000Y-94361000D01*
X110871000Y-96901000D02*
X114681000Y-96901000D01*
X175514000Y-96393000D02*
X175514000Y-100838000D01*
D26*
X164084000Y-59118500D02*
X163766500Y-58801000D01*
X164084000Y-61595000D02*
X164084000Y-59118500D01*
X152654000Y-59245500D02*
X152209500Y-58801000D01*
X152654000Y-61595000D02*
X152654000Y-59245500D01*
X152209500Y-58801000D02*
X163766500Y-58801000D01*
X141224000Y-58991500D02*
X141414500Y-58801000D01*
X141224000Y-61595000D02*
X141224000Y-58991500D01*
X141414500Y-58801000D02*
X152209500Y-58801000D01*
X118110000Y-58801000D02*
X141414500Y-58801000D01*
X173164500Y-61595000D02*
X175514000Y-59245500D01*
X164084000Y-61595000D02*
X173164500Y-61595000D01*
X122444492Y-94361000D02*
X130318492Y-86487000D01*
X121031000Y-94361000D02*
X122444492Y-94361000D01*
X175577500Y-96329500D02*
X175514000Y-96393000D01*
X175577500Y-86487000D02*
X175577500Y-96329500D01*
X162941000Y-100838000D02*
X162941000Y-86550500D01*
X162877500Y-86487000D02*
X175577500Y-86487000D01*
X162941000Y-86550500D02*
X162877500Y-86487000D01*
X130318492Y-86487000D02*
X162877500Y-86487000D01*
X110871000Y-91821000D02*
X110871000Y-89916000D01*
X110871000Y-89916000D02*
X109918500Y-88963500D01*
X85979000Y-93950238D02*
X85979000Y-97536000D01*
X90965738Y-88963500D02*
X85979000Y-93950238D01*
X109918500Y-88963500D02*
X90965738Y-88963500D01*
X64291762Y-93950238D02*
X85979000Y-93950238D01*
X59944000Y-98298000D02*
X64291762Y-93950238D01*
X166075754Y-140678210D02*
X171308464Y-135445500D01*
X161633210Y-140678210D02*
X166075754Y-140678210D01*
X160020000Y-139065000D02*
X161633210Y-140678210D01*
X171308464Y-135445500D02*
X179324000Y-135445500D01*
X179324000Y-135445500D02*
X183705500Y-131064000D01*
X181165500Y-96393000D02*
X175514000Y-96393000D01*
X183705500Y-98933000D02*
X181165500Y-96393000D01*
X183705500Y-108648500D02*
X183705500Y-98933000D01*
X183705500Y-131064000D02*
X183705500Y-108648500D01*
X92366799Y-140678201D02*
X84417201Y-140678201D01*
X93980000Y-139065000D02*
X92366799Y-140678201D01*
X84417201Y-140678201D02*
X80645000Y-136906000D01*
X54229000Y-136906000D02*
X52705000Y-138430000D01*
X80645000Y-136906000D02*
X54229000Y-136906000D01*
X112268000Y-50927000D02*
X109918699Y-48577699D01*
X74866301Y-48577699D02*
X72517000Y-50927000D01*
X85852000Y-48641000D02*
X85915301Y-48577699D01*
X85852000Y-50927000D02*
X85852000Y-48641000D01*
X85915301Y-48577699D02*
X74866301Y-48577699D01*
X99060000Y-48641000D02*
X99123301Y-48577699D01*
X99060000Y-50927000D02*
X99060000Y-48641000D01*
X99123301Y-48577699D02*
X85915301Y-48577699D01*
X109918699Y-48577699D02*
X99123301Y-48577699D01*
X188400691Y-73663809D02*
X175577500Y-86487000D01*
X188400691Y-69983907D02*
X188400691Y-73663809D01*
X177662284Y-59245500D02*
X188400691Y-69983907D01*
X175514000Y-59245500D02*
X177662284Y-59245500D01*
D22*
%TO.N,\u002AMEMW*%
X148399701Y-128206701D02*
X148304250Y-128111250D01*
X147457659Y-137985299D02*
X148399701Y-137043257D01*
X140779701Y-137985299D02*
X147457659Y-137985299D01*
X139700000Y-139065000D02*
X140779701Y-137985299D01*
X148399701Y-137043257D02*
X148399701Y-128206701D01*
D23*
X148304250Y-128111250D02*
X147828000Y-127635000D01*
X148399801Y-128206801D02*
X148304250Y-128111250D01*
%TO.N,AEN*%
X139700000Y-128524000D02*
X139700000Y-133985000D01*
X139141276Y-127965276D02*
X139700000Y-128524000D01*
X101279250Y-126746000D02*
X102498526Y-127965276D01*
X83566000Y-126746000D02*
X101279250Y-126746000D01*
X82423000Y-125603000D02*
X83566000Y-126746000D01*
X127050724Y-127965276D02*
X126619000Y-128397000D01*
X139141276Y-127965276D02*
X127050724Y-127965276D01*
X145161000Y-122301000D02*
X147320000Y-120142000D01*
X126619000Y-122301000D02*
X145161000Y-122301000D01*
X126619000Y-128143000D02*
X126441276Y-127965276D01*
X126619000Y-128397000D02*
X126619000Y-128143000D01*
X126441276Y-127965276D02*
X102498526Y-127965276D01*
%TO.N,A14*%
X91567000Y-91821000D02*
X103378000Y-91821000D01*
X103378000Y-91821000D02*
X104521000Y-92964000D01*
X106329753Y-95796190D02*
X107734190Y-95796190D01*
X104521000Y-93987437D02*
X106329753Y-95796190D01*
X104521000Y-92964000D02*
X104521000Y-93987437D01*
X121412000Y-109474000D02*
X121412000Y-111252000D01*
X107734190Y-95796190D02*
X121412000Y-109474000D01*
X121412000Y-111252000D02*
X121412000Y-114681000D01*
X121793000Y-115062000D02*
X147320000Y-115062000D01*
X121412000Y-114681000D02*
X121793000Y-115062000D01*
%TO.N,A13*%
X106807000Y-96901000D02*
X108264250Y-96901000D01*
X120319797Y-108956547D02*
X120319797Y-111252000D01*
X108264250Y-96901000D02*
X120319797Y-108956547D01*
X120319797Y-114163547D02*
X121624660Y-115468410D01*
X120319797Y-111252000D02*
X120319797Y-114163547D01*
X145186410Y-115468410D02*
X147320000Y-117602000D01*
X121624660Y-115468410D02*
X145186410Y-115468410D01*
%TO.N,Net-(R2-Pad2)*%
X165188810Y-72224810D02*
X164084000Y-71120000D01*
X185204190Y-72224810D02*
X165188810Y-72224810D01*
X186563000Y-70866000D02*
X185204190Y-72224810D01*
%TO.N,/ROM_WE*%
X106807000Y-94361000D02*
X110871000Y-94361000D01*
X149885399Y-121805699D02*
X150634700Y-122555000D01*
X149885399Y-119782335D02*
X149885399Y-121805699D01*
X150571180Y-119096554D02*
X149885399Y-119782335D01*
X150571180Y-101803180D02*
X150571180Y-119096554D01*
X122072410Y-101625410D02*
X150393410Y-101625410D01*
X150393410Y-101625410D02*
X150571180Y-101803180D01*
X118237000Y-97790000D02*
X122072410Y-101625410D01*
%TO.N,Net-(RP2-Pad6)*%
X169348810Y-117163190D02*
X167894000Y-118618000D01*
X169348810Y-115620373D02*
X169348810Y-117163190D01*
X168701627Y-114973190D02*
X169348810Y-115620373D01*
X164376190Y-114973190D02*
X168701627Y-114973190D01*
X162941000Y-113538000D02*
X164376190Y-114973190D01*
X161925000Y-112522000D02*
X162941000Y-113538000D01*
X154940000Y-112522000D02*
X161925000Y-112522000D01*
%TO.N,Net-(RP2-Pad5)*%
X165354000Y-110998000D02*
X167894000Y-113538000D01*
X162941000Y-110998000D02*
X165354000Y-110998000D01*
X161925000Y-109982000D02*
X162941000Y-110998000D01*
X154940000Y-109982000D02*
X161925000Y-109982000D01*
%TO.N,Net-(RP2-Pad4)*%
X162941000Y-108458000D02*
X167894000Y-108458000D01*
X161925000Y-107442000D02*
X162941000Y-108458000D01*
X154940000Y-107442000D02*
X161925000Y-107442000D01*
%TO.N,Net-(RP2-Pad3)*%
X162941000Y-105918000D02*
X165481000Y-103378000D01*
X165481000Y-103378000D02*
X167894000Y-103378000D01*
X161925000Y-104902000D02*
X162941000Y-105918000D01*
X154940000Y-104902000D02*
X161925000Y-104902000D01*
%TO.N,Net-(RP1-Pad7)*%
X62611000Y-116840000D02*
X67691000Y-116840000D01*
X79463810Y-118656190D02*
X85979000Y-112141000D01*
X69507190Y-118656190D02*
X79463810Y-118656190D01*
X67691000Y-116840000D02*
X69507190Y-118656190D01*
%TO.N,Net-(RP1-Pad8)*%
X62611000Y-119380000D02*
X67691000Y-119380000D01*
X82334190Y-120865810D02*
X85979000Y-117221000D01*
X69176810Y-120865810D02*
X82334190Y-120865810D01*
X67691000Y-119380000D02*
X69176810Y-120865810D01*
%TO.N,Net-(RP2-Pad7)*%
X162941000Y-116078000D02*
X167894000Y-116078000D01*
X161925000Y-115062000D02*
X162941000Y-116078000D01*
X154940000Y-115062000D02*
X161925000Y-115062000D01*
%TO.N,Net-(RP2-Pad8)*%
X165354000Y-118618000D02*
X167894000Y-121158000D01*
X162941000Y-118618000D02*
X165354000Y-118618000D01*
X161925000Y-117602000D02*
X162941000Y-118618000D01*
X154940000Y-117602000D02*
X161925000Y-117602000D01*
%TO.N,Net-(RP1-Pad3)*%
X62611000Y-106680000D02*
X67691000Y-106680000D01*
X77978000Y-106680000D02*
X78359000Y-107061000D01*
X67691000Y-106680000D02*
X77978000Y-106680000D01*
%TO.N,Net-(RP1-Pad4)*%
X64008000Y-109220000D02*
X67691000Y-109220000D01*
X62611000Y-109220000D02*
X64008000Y-109220000D01*
X75438000Y-109220000D02*
X78359000Y-112141000D01*
X67691000Y-109220000D02*
X75438000Y-109220000D01*
%TO.N,Net-(RP1-Pad5)*%
X62611000Y-111760000D02*
X67691000Y-111760000D01*
X72898000Y-111760000D02*
X78359000Y-117221000D01*
X67691000Y-111760000D02*
X72898000Y-111760000D01*
%TO.N,Net-(RP1-Pad6)*%
X62611000Y-114300000D02*
X67691000Y-114300000D01*
X84874190Y-105956190D02*
X85979000Y-107061000D01*
X77881753Y-105956190D02*
X84874190Y-105956190D01*
X77437162Y-105511599D02*
X77881753Y-105956190D01*
X61866964Y-105511599D02*
X77437162Y-105511599D01*
X61156190Y-106222373D02*
X61866964Y-105511599D01*
X61156190Y-112845190D02*
X61156190Y-106222373D01*
X62611000Y-114300000D02*
X61156190Y-112845190D01*
%TO.N,A19*%
X171462710Y-127508000D02*
X171462710Y-108699290D01*
X174244000Y-105918000D02*
X175514000Y-105918000D01*
X171462710Y-108699290D02*
X174244000Y-105918000D01*
%TO.N,A18*%
X172308791Y-126817311D02*
X172308791Y-112425209D01*
X173736000Y-110998000D02*
X175514000Y-110998000D01*
X172308791Y-112425209D02*
X173736000Y-110998000D01*
%TO.N,A17*%
X132080000Y-133985000D02*
X132080000Y-129921000D01*
X132080000Y-129921000D02*
X132791180Y-129209820D01*
X136829820Y-129209820D02*
X138557000Y-130937000D01*
X132791180Y-129209820D02*
X136829820Y-129209820D01*
X173058092Y-128084314D02*
X173058092Y-126457646D01*
X173058092Y-126457646D02*
X172715201Y-126114755D01*
X172491406Y-128651000D02*
X173058092Y-128084314D01*
X172715201Y-126114755D02*
X172715201Y-117098799D01*
X173736000Y-116078000D02*
X175514000Y-116078000D01*
X172715201Y-117098799D02*
X173736000Y-116078000D01*
%TO.N,A16*%
X129540000Y-133985000D02*
X129540000Y-129438410D01*
X129540000Y-129438410D02*
X130175000Y-128803410D01*
X137553631Y-128803410D02*
X138557000Y-129806779D01*
X130175000Y-128803410D02*
X137553631Y-128803410D01*
X171399203Y-128651000D02*
X170713410Y-127965207D01*
X170713410Y-108737410D02*
X167894000Y-105918000D01*
X170713410Y-127965207D02*
X170713410Y-108737410D01*
%TO.N,A15*%
X127000000Y-133985000D02*
X127000000Y-129159000D01*
X127000000Y-129159000D02*
X127762000Y-128397000D01*
X138239424Y-128397000D02*
X138557000Y-128714576D01*
X127762000Y-128397000D02*
X138239424Y-128397000D01*
X170307000Y-113411000D02*
X167894000Y-110998000D01*
X170307000Y-128651000D02*
X170307000Y-113411000D01*
%TO.N,A9*%
X111036110Y-128524000D02*
X111290110Y-128778000D01*
X102482500Y-128524000D02*
X111036110Y-128524000D01*
X101234336Y-127275836D02*
X102482500Y-128524000D01*
X83036164Y-127275836D02*
X101234336Y-127275836D01*
%TO.N,A8*%
X109626410Y-128930410D02*
X110490000Y-129794000D01*
X102314160Y-128930410D02*
X109626410Y-128930410D01*
X101065996Y-127682246D02*
X102314160Y-128930410D01*
X84153754Y-127682246D02*
X101065996Y-127682246D01*
X83840921Y-127995079D02*
X84153754Y-127682246D01*
X83840921Y-128025136D02*
X83840921Y-127995079D01*
%TO.N,A6*%
X91542717Y-99465283D02*
X91567000Y-99441000D01*
X91567000Y-99441000D02*
X91821000Y-99441000D01*
X91567000Y-99597325D02*
X91567000Y-99441000D01*
D22*
X84772499Y-108394499D02*
X85979000Y-109601000D01*
X75501499Y-108394499D02*
X84772499Y-108394499D01*
X75057000Y-107950000D02*
X75501499Y-108394499D01*
%TO.N,A4*%
X84524290Y-121215710D02*
X85979000Y-119761000D01*
X85171415Y-125945710D02*
X84524290Y-125298585D01*
X84524290Y-125298585D02*
X84524290Y-121215710D01*
X96050290Y-125945710D02*
X85171415Y-125945710D01*
X96774000Y-125222000D02*
X96050290Y-125945710D01*
%TO.N,Net-(U4-Pad11)*%
X133604000Y-73660000D02*
X141224000Y-73660000D01*
%TO.N,Net-(J2-Pad2)*%
X112268000Y-71501000D02*
X110680500Y-71501000D01*
X110680500Y-71501000D02*
X108966000Y-69786500D01*
X108966000Y-69786500D02*
X107696000Y-68516500D01*
X107569000Y-68389500D02*
X107569000Y-58420000D01*
X107696000Y-68516500D02*
X107569000Y-68389500D01*
D27*
%TO.N,Net-(J3-Pad2)*%
X187833001Y-59435999D02*
X186563000Y-60706000D01*
X187833001Y-50563779D02*
X187833001Y-59435999D01*
X187751721Y-50482499D02*
X187833001Y-50563779D01*
X185293001Y-50482499D02*
X187751721Y-50482499D01*
X184023000Y-51752500D02*
X185293001Y-50482499D01*
%TO.N,\u002ADASP*%
X158318489Y-47637989D02*
X162433000Y-51752500D01*
X158216789Y-47536289D02*
X158318489Y-47637989D01*
X45720000Y-50165000D02*
X46583599Y-49301401D01*
X48348711Y-47536289D02*
X46583599Y-49301401D01*
X158216789Y-47536289D02*
X48348711Y-47536289D01*
D23*
%TO.N,Net-(R4-Pad2)*%
X121031000Y-96901000D02*
X121031000Y-100009250D01*
X121031000Y-100009250D02*
X121699375Y-100677625D01*
X121699375Y-100677625D02*
X122240750Y-101219000D01*
X150622000Y-101219000D02*
X150977590Y-101574590D01*
X122240750Y-101219000D02*
X150622000Y-101219000D01*
X150977590Y-119799110D02*
X150634700Y-120142000D01*
X150977590Y-101574590D02*
X150977590Y-119799110D01*
D22*
X165876586Y-122364500D02*
X169557700Y-122364500D01*
X163501785Y-119989699D02*
X165876586Y-122364500D01*
X155092301Y-119989699D02*
X163501785Y-119989699D01*
X154940000Y-120142000D02*
X155092301Y-119989699D01*
D27*
%TO.N,Net-(D1-Pad1)*%
X178221599Y-50396099D02*
X179578000Y-51752500D01*
X173949401Y-50396099D02*
X178221599Y-50396099D01*
X172593000Y-51752500D02*
X173949401Y-50396099D01*
D23*
%TO.N,D7*%
X45720000Y-95885000D02*
X56032364Y-85572636D01*
X71648437Y-79121000D02*
X72517000Y-79121000D01*
X65196801Y-85572636D02*
X71648437Y-79121000D01*
X56032364Y-85572636D02*
X65196801Y-85572636D01*
X72517000Y-79121000D02*
X78232000Y-79121000D01*
X95415190Y-78016190D02*
X99060000Y-81661000D01*
X79336810Y-78016190D02*
X95415190Y-78016190D01*
X78232000Y-79121000D02*
X79336810Y-78016190D01*
D22*
X109042580Y-83325080D02*
X160591500Y-83325080D01*
X109029500Y-83312000D02*
X109042580Y-83325080D01*
X108585000Y-83312000D02*
X109029500Y-83312000D01*
X107569000Y-82296000D02*
X108585000Y-83312000D01*
X105455585Y-78016290D02*
X107569000Y-80129705D01*
X107569000Y-80129705D02*
X107569000Y-82296000D01*
X102704710Y-78016290D02*
X105455585Y-78016290D01*
X99060000Y-81661000D02*
X102704710Y-78016290D01*
X160591500Y-83299590D02*
X160909000Y-82982090D01*
X160591500Y-83325080D02*
X160591500Y-83299590D01*
D23*
%TO.N,RESDRV*%
X163639801Y-137985199D02*
X163639801Y-131188051D01*
X162560000Y-139065000D02*
X163639801Y-137985199D01*
D22*
X163639801Y-131188051D02*
X163639801Y-126873301D01*
X161747199Y-124980699D02*
X159880301Y-124980699D01*
X163639801Y-126873301D02*
X161747199Y-124980699D01*
D23*
%TO.N,IRQ2*%
X157480000Y-139065000D02*
X157734000Y-139065000D01*
X156019801Y-137350801D02*
X156019801Y-133032801D01*
X157734000Y-139065000D02*
X156019801Y-137350801D01*
X155448000Y-132461000D02*
X155448000Y-126276119D01*
X156019801Y-133032801D02*
X155448000Y-132461000D01*
X146964401Y-94208599D02*
X145796000Y-95377000D01*
X156516833Y-94208599D02*
X146964401Y-94208599D01*
X157124401Y-95937833D02*
X157124401Y-94816167D01*
X157124401Y-94816167D02*
X156516833Y-94208599D01*
X153875234Y-99187000D02*
X157124401Y-95937833D01*
X152019000Y-99187000D02*
X153875234Y-99187000D01*
X151384000Y-99822000D02*
X152019000Y-99187000D01*
X151384000Y-123558290D02*
X151384000Y-99822000D01*
%TO.N,\u002AIOR-ISA*%
X132080000Y-139065000D02*
X132207000Y-139065000D01*
X131000199Y-129616511D02*
X131064000Y-129552710D01*
X131000199Y-137858199D02*
X131000199Y-129616511D01*
X132207000Y-139065000D02*
X131000199Y-137858199D01*
X128524000Y-66040000D02*
X133604000Y-66040000D01*
X91440000Y-53784500D02*
X91643180Y-53581320D01*
X91440000Y-53924210D02*
X91440000Y-53784500D01*
X128181110Y-53581320D02*
X128524000Y-53924210D01*
X91643180Y-53581320D02*
X128181110Y-53581320D01*
X165430199Y-64630301D02*
X166839898Y-66040000D01*
X142769335Y-64630301D02*
X165430199Y-64630301D01*
X142426344Y-64287310D02*
X142769335Y-64630301D01*
X133604000Y-64770000D02*
X134086690Y-64287310D01*
X166839898Y-66040000D02*
X167894000Y-66040000D01*
X134086690Y-64287310D02*
X142426344Y-64287310D01*
X133604000Y-66040000D02*
X133604000Y-64770000D01*
%TO.N,D6*%
X45720000Y-93345000D02*
X53898772Y-85166228D01*
X65028460Y-85166227D02*
X69875460Y-80319227D01*
X53898772Y-85166228D02*
X65028460Y-85166227D01*
X69875460Y-80319227D02*
X69875460Y-77190540D01*
X70485000Y-76581000D02*
X72517000Y-76581000D01*
X69875460Y-77190540D02*
X70485000Y-76581000D01*
X72517000Y-76581000D02*
X78232000Y-76581000D01*
X95084810Y-75145810D02*
X99060000Y-79121000D01*
X79667190Y-75145810D02*
X95084810Y-75145810D01*
X78232000Y-76581000D02*
X79667190Y-75145810D01*
%TO.N,D5*%
X45720000Y-90805000D02*
X51765182Y-84759818D01*
X64860119Y-84759818D02*
X69469050Y-80150887D01*
X51765182Y-84759818D02*
X64860119Y-84759818D01*
X69469050Y-80150887D02*
X69469050Y-74802950D01*
X70231000Y-74041000D02*
X72517000Y-74041000D01*
X69469050Y-74802950D02*
X70231000Y-74041000D01*
X72517000Y-74041000D02*
X78232000Y-74041000D01*
X95415190Y-72936190D02*
X99060000Y-76581000D01*
X79336810Y-72936190D02*
X95415190Y-72936190D01*
X78232000Y-74041000D02*
X79336810Y-72936190D01*
%TO.N,D4*%
X45720000Y-88265000D02*
X49631590Y-84353410D01*
X64691778Y-84353409D02*
X69062640Y-79982547D01*
X49631590Y-84353410D02*
X64691778Y-84353409D01*
X69062640Y-79982547D02*
X69062640Y-72415360D01*
X69977000Y-71501000D02*
X72517000Y-71501000D01*
X69062640Y-72415360D02*
X69977000Y-71501000D01*
X72517000Y-71501000D02*
X78232000Y-71501000D01*
X95415190Y-70396190D02*
X99060000Y-74041000D01*
X79336810Y-70396190D02*
X95415190Y-70396190D01*
X78232000Y-71501000D02*
X79336810Y-70396190D01*
%TO.N,D3*%
X68656230Y-70027770D02*
X69723000Y-68961000D01*
X68656230Y-79814207D02*
X68656230Y-70027770D01*
X64523437Y-83947000D02*
X68656230Y-79814207D01*
X47498000Y-83947000D02*
X64523437Y-83947000D01*
X69723000Y-68961000D02*
X72517000Y-68961000D01*
X45720000Y-85725000D02*
X47498000Y-83947000D01*
X72517000Y-68961000D02*
X78232000Y-68961000D01*
X95415190Y-67856190D02*
X99060000Y-71501000D01*
X78333610Y-67856190D02*
X95415190Y-67856190D01*
X78232000Y-67957800D02*
X78333610Y-67856190D01*
X78232000Y-68961000D02*
X78232000Y-67957800D01*
%TO.N,D2*%
X68834000Y-66421000D02*
X72517000Y-66421000D01*
X68249820Y-77680617D02*
X68249820Y-67005180D01*
X68249820Y-67005180D02*
X68834000Y-66421000D01*
X65374247Y-80556190D02*
X68249820Y-77680617D01*
X48348810Y-80556190D02*
X65374247Y-80556190D01*
X45720000Y-83185000D02*
X48348810Y-80556190D01*
X72517000Y-66421000D02*
X78232000Y-66421000D01*
X95415190Y-65316190D02*
X99060000Y-68961000D01*
X79336810Y-65316190D02*
X95415190Y-65316190D01*
X78232000Y-66421000D02*
X79336810Y-65316190D01*
%TO.N,D1*%
X65704627Y-77685810D02*
X67843410Y-75547027D01*
X48679190Y-77685810D02*
X65704627Y-77685810D01*
X45720000Y-80645000D02*
X48679190Y-77685810D01*
X67843410Y-75547027D02*
X67843410Y-64744590D01*
X68707000Y-63881000D02*
X72517000Y-63881000D01*
X67843410Y-64744590D02*
X68707000Y-63881000D01*
X72867000Y-63881000D02*
X78232000Y-63881000D01*
X72517000Y-63881000D02*
X72867000Y-63881000D01*
X95415190Y-62776190D02*
X99060000Y-66421000D01*
X79336810Y-62776190D02*
X95415190Y-62776190D01*
X78232000Y-63881000D02*
X79336810Y-62776190D01*
%TO.N,D0*%
X48348810Y-75476190D02*
X65874810Y-75476190D01*
X45720000Y-78105000D02*
X48348810Y-75476190D01*
X65874810Y-75476190D02*
X67437000Y-73914000D01*
X67437000Y-73914000D02*
X67437000Y-62611000D01*
X68707000Y-61341000D02*
X72517000Y-61341000D01*
X67437000Y-62611000D02*
X68707000Y-61341000D01*
X72517000Y-61341000D02*
X78232000Y-61341000D01*
X95415190Y-60236190D02*
X99060000Y-63881000D01*
X79336810Y-60236190D02*
X95415190Y-60236190D01*
X78232000Y-61341000D02*
X79336810Y-60236190D01*
D22*
%TO.N,Net-(U3-Pad11)*%
X112268000Y-82664000D02*
X112522870Y-82918870D01*
X112268000Y-81661000D02*
X112268000Y-82664000D01*
X155009290Y-75114710D02*
X156464000Y-73660000D01*
X155009290Y-78297005D02*
X155009290Y-75114710D01*
X152176995Y-79844710D02*
X153461585Y-79844710D01*
X153461585Y-79844710D02*
X155009290Y-78297005D01*
X149102835Y-82918870D02*
X152176995Y-79844710D01*
X112522870Y-82918870D02*
X149102835Y-82918870D01*
%TO.N,\u002ACS_IDE*%
X87083710Y-105625710D02*
X101701790Y-105625710D01*
X85979000Y-104521000D02*
X87083710Y-105625710D01*
X101701790Y-105625710D02*
X102044500Y-105283000D01*
X102044500Y-105283000D02*
X102044500Y-97917000D01*
X101722463Y-97594963D02*
X101722463Y-95194771D01*
X102044500Y-97917000D02*
X101722463Y-97594963D01*
D23*
X101536500Y-54330620D02*
X101879390Y-53987730D01*
X101879390Y-53987730D02*
X127000000Y-53987730D01*
X137650027Y-54673511D02*
X138881926Y-55905410D01*
X127685781Y-54673511D02*
X137650027Y-54673511D01*
X127000000Y-53987730D02*
X127685781Y-54673511D01*
X147104110Y-55905410D02*
X147447000Y-56248300D01*
X138881926Y-55905410D02*
X147104110Y-55905410D01*
D22*
%TO.N,\u002AIOR_DELAYED*%
X112268000Y-76581000D02*
X128143000Y-76581000D01*
X130302000Y-78740000D02*
X133604000Y-78740000D01*
X128143000Y-76581000D02*
X130302000Y-78740000D01*
%TO.N,Net-(U4-Pad10)*%
X133604000Y-76200000D02*
X141224000Y-76200000D01*
%TO.N,Net-(U5-Pad2)*%
X154619533Y-68580000D02*
X156464000Y-68580000D01*
X153514823Y-69684710D02*
X154619533Y-68580000D01*
X146138710Y-69684710D02*
X153514823Y-69684710D01*
X145034000Y-68580000D02*
X146138710Y-69684710D01*
D23*
%TO.N,Net-(U5-Pad8)*%
X157568810Y-80175190D02*
X164084000Y-73660000D01*
X153758810Y-80175190D02*
X157568810Y-80175190D01*
X152654000Y-81280000D02*
X153758810Y-80175190D01*
D22*
%TO.N,Net-(U6-Pad5)*%
X166185835Y-74764710D02*
X172440790Y-74764710D01*
X165538710Y-74117585D02*
X166185835Y-74764710D01*
X165538710Y-73202415D02*
X165538710Y-74117585D01*
X172440790Y-74764710D02*
X172466000Y-74739500D01*
X164891585Y-72555290D02*
X165538710Y-73202415D01*
X160108710Y-72555290D02*
X164891585Y-72555290D01*
X156464000Y-76200000D02*
X160108710Y-72555290D01*
%TO.N,Net-(U6-Pad9)*%
X171869290Y-77635290D02*
X175514000Y-81280000D01*
X165188710Y-77635290D02*
X171869290Y-77635290D01*
X164084000Y-78740000D02*
X165188710Y-77635290D01*
D23*
%TO.N,Net-(U6-Pad10)*%
X164084000Y-76200000D02*
X167894000Y-76200000D01*
D22*
%TO.N,Net-(J1-Pad2)*%
X157899290Y-67475290D02*
X156464000Y-66040000D01*
X166789290Y-67475290D02*
X157899290Y-67475290D01*
X167894000Y-68580000D02*
X166789290Y-67475290D01*
D23*
%TO.N,\u002AHI_OUT_DELAYED*%
X78232000Y-53517800D02*
X78968610Y-53517800D01*
X78968610Y-53517800D02*
X79311500Y-53174910D01*
X79311500Y-53174910D02*
X136017000Y-53174910D01*
X136017000Y-53525406D02*
X136140197Y-53648603D01*
X136017000Y-53174910D02*
X136017000Y-53525406D01*
D22*
%TO.N,\u002AHI_BYTE_OUTPUT*%
X153758710Y-70015290D02*
X152654000Y-71120000D01*
X174409290Y-70015290D02*
X153758710Y-70015290D01*
X175514000Y-71120000D02*
X174409290Y-70015290D01*
%TD*%
M02*
